<?xml version="1.0" encoding="UTF-8"?>
<!DOCTYPE svg PUBLIC "-//W3C//DTD SVG 1.1//EN" "http://www.w3.org/Graphics/SVG/1.1/DTD/svg11.dtd">
<svg xmlns="http://www.w3.org/2000/svg" version="1.1" width="225px" height="225px" style="shape-rendering:geometricPrecision; text-rendering:geometricPrecision; image-rendering:optimizeQuality; fill-rule:evenodd; clip-rule:evenodd" xmlns:xlink="http://www.w3.org/1999/xlink">
<g><path style="opacity:1" fill="#fdfdfd" d="M -0.5,-0.5 C 74.5,-0.5 149.5,-0.5 224.5,-0.5C 224.5,74.5 224.5,149.5 224.5,224.5C 149.5,224.5 74.5,224.5 -0.5,224.5C -0.5,149.5 -0.5,74.5 -0.5,-0.5 Z"/></g>
<g><path style="opacity:1" fill="#6d6d72" d="M 148.5,49.5 C 146.397,50.98 146.397,52.1466 148.5,53C 147.101,53.5946 145.768,53.4279 144.5,52.5C 143.511,56.1073 143.177,59.774 143.5,63.5C 148.801,62.8411 153.801,62.8411 158.5,63.5C 159.495,68.7921 159.828,74.1254 159.5,79.5C 164.833,79.5 170.167,79.5 175.5,79.5C 175.5,84.8333 175.5,90.1667 175.5,95.5C 170.167,95.5 164.833,95.5 159.5,95.5C 159.5,106.167 159.5,116.833 159.5,127.5C 148.833,127.5 138.167,127.5 127.5,127.5C 127.5,132.833 127.5,138.167 127.5,143.5C 116.655,143.579 105.988,143.912 95.5,144.5C 106.106,145.655 106.106,146.488 95.5,147C 98.2263,147.182 100.893,147.682 103.5,148.5C 75.1539,149.208 46.8206,149.875 18.5,150.5C 10.3782,149.216 5.21151,144.549 3,136.5C 2.33333,120.167 2.33333,103.833 3,87.5C 5.16667,80 10,75.1667 17.5,73C 47.4981,72.5 77.4981,72.3334 107.5,72.5C 107.334,65.1591 107.5,57.8258 108,50.5C 113.68,37.5689 122.846,34.0689 135.5,40C 140.015,43.0299 144.349,46.1966 148.5,49.5 Z"/></g>
<g><path style="opacity:1" fill="#6d6e71" d="M 148.5,49.5 C 172.067,65.5605 195.234,82.2271 218,99.5C 225.269,113.693 222.103,124.86 208.5,133C 184.658,149.421 160.991,166.087 137.5,183C 121.478,191.624 111.312,187.124 107,169.5C 106.501,163.509 106.334,157.509 106.5,151.5C 76.9953,151.831 47.6619,151.498 18.5,150.5C 46.8206,149.875 75.1539,149.208 103.5,148.5C 100.893,147.682 98.2263,147.182 95.5,147C 106.106,146.488 106.106,145.655 95.5,144.5C 105.988,143.912 116.655,143.579 127.5,143.5C 127.5,138.167 127.5,132.833 127.5,127.5C 138.167,127.5 148.833,127.5 159.5,127.5C 159.5,116.833 159.5,106.167 159.5,95.5C 164.833,95.5 170.167,95.5 175.5,95.5C 175.5,90.1667 175.5,84.8333 175.5,79.5C 170.167,79.5 164.833,79.5 159.5,79.5C 159.828,74.1254 159.495,68.7921 158.5,63.5C 153.801,62.8411 148.801,62.8411 143.5,63.5C 143.177,59.774 143.511,56.1073 144.5,52.5C 145.768,53.4279 147.101,53.5946 148.5,53C 146.397,52.1466 146.397,50.98 148.5,49.5 Z"/></g>
</svg>
