<?xml version="1.0" encoding="UTF-8"?>
<!DOCTYPE svg PUBLIC "-//W3C//DTD SVG 1.1//EN" "http://www.w3.org/Graphics/SVG/1.1/DTD/svg11.dtd">
<svg xmlns="http://www.w3.org/2000/svg" version="1.1" width="50px" height="50px" style="shape-rendering:geometricPrecision; text-rendering:geometricPrecision; image-rendering:optimizeQuality; fill-rule:evenodd; clip-rule:evenodd" xmlns:xlink="http://www.w3.org/1999/xlink">
<g><path style="opacity:0.71" fill="#4c4c4c" d="M 49.5,17.5 C 49.5,18.5 49.5,19.5 49.5,20.5C 44.8677,23.7978 40.5344,27.4645 36.5,31.5C 38.6225,36.9895 39.9558,42.6562 40.5,48.5C 34.7163,46.4015 29.3829,43.4015 24.5,39.5C 19.6171,43.4015 14.2837,46.4015 8.5,48.5C 9.04417,42.6562 10.3775,36.9895 12.5,31.5C 8.46564,27.4645 4.13231,23.7978 -0.5,20.5C -0.5,19.5 -0.5,18.5 -0.5,17.5C 5.5,17.1667 11.5,16.8333 17.5,16.5C 19.1667,11.1667 20.8333,5.83333 22.5,0.5C 23.8333,0.5 25.1667,0.5 26.5,0.5C 28.1667,5.83333 29.8333,11.1667 31.5,16.5C 37.5,16.8333 43.5,17.1667 49.5,17.5 Z M 23.5,7.5 C 24.3764,7.36912 25.0431,7.70245 25.5,8.5C 26.8333,11.8333 28.1667,15.1667 29.5,18.5C 34.2076,19.1843 38.8742,20.0177 43.5,21C 40.3333,23.5 37.1667,26 34,28.5C 34.194,33.5948 34.8607,38.5948 36,43.5C 32.5451,40.5235 28.7117,38.1902 24.5,36.5C 20.2883,38.1902 16.4549,40.5235 13,43.5C 14.1393,38.5948 14.806,33.5948 15,28.5C 11.8333,26 8.66667,23.5 5.5,21C 10.1258,20.0177 14.7924,19.1843 19.5,18.5C 21.1254,14.9205 22.4587,11.2538 23.5,7.5 Z"/></g>
</svg>
