<?xml version="1.0" encoding="UTF-8"?>
<!DOCTYPE svg PUBLIC "-//W3C//DTD SVG 1.1//EN" "http://www.w3.org/Graphics/SVG/1.1/DTD/svg11.dtd">
<svg xmlns="http://www.w3.org/2000/svg" version="1.1" width="225px" height="225px" style="shape-rendering:geometricPrecision; text-rendering:geometricPrecision; image-rendering:optimizeQuality; fill-rule:evenodd; clip-rule:evenodd" xmlns:xlink="http://www.w3.org/1999/xlink">
<g><path style="opacity:1" fill="#fffdfc" d="M -0.5,-0.5 C 74.5,-0.5 149.5,-0.5 224.5,-0.5C 224.5,74.5 224.5,149.5 224.5,224.5C 149.5,224.5 74.5,224.5 -0.5,224.5C -0.5,149.5 -0.5,74.5 -0.5,-0.5 Z"/></g>
<g><path style="opacity:1" fill="#ff0301" d="M 101.5,0.5 C 157.949,-0.841878 196.783,24.4915 218,76.5C 232.252,131.76 216.085,175.593 169.5,208C 124.267,231.617 81.2675,228.284 40.5,198C 5.27321,165.642 -6.56013,126.142 5,79.5C 21.5047,33.8548 53.6714,7.52151 101.5,0.5 Z"/></g>
<g><path style="opacity:1" fill="#fffefe" d="M 181.5,58.5 C 197.91,79.0133 203.744,102.347 199,128.5C 187.057,173.778 157.724,197.778 111,200.5C 91.4142,200.083 73.9142,193.917 58.5,182C 99.7014,140.965 140.701,99.7987 181.5,58.5 Z"/></g>
<g><path style="opacity:1" fill="#fffefe" d="M 101.5,23.5 C 125.172,21.9147 146.505,28.0814 165.5,42C 124.333,83.1667 83.1667,124.333 42,165.5C 22.4141,138.73 18.4141,109.73 30,78.5C 44.4681,47.8513 68.3015,29.518 101.5,23.5 Z"/></g>
</svg>
