<?xml version="1.0" encoding="UTF-8"?>
<!DOCTYPE svg PUBLIC "-//W3C//DTD SVG 1.1//EN" "http://www.w3.org/Graphics/SVG/1.1/DTD/svg11.dtd">
<svg xmlns="http://www.w3.org/2000/svg" version="1.1" width="100px" height="106px" style="shape-rendering:geometricPrecision; text-rendering:geometricPrecision; image-rendering:optimizeQuality; fill-rule:evenodd; clip-rule:evenodd" xmlns:xlink="http://www.w3.org/1999/xlink">
<g><path style="opacity:1" fill="#ebebeb" d="M -0.5,-0.5 C 4.5,-0.5 9.5,-0.5 14.5,-0.5C 5.16667,0.166667 0.166667,5.16667 -0.5,14.5C -0.5,9.5 -0.5,4.5 -0.5,-0.5 Z"/></g>
<g><path style="opacity:1" fill="#eeeeee" d="M 83.5,-0.5 C 88.8333,-0.5 94.1667,-0.5 99.5,-0.5C 99.5,3.16667 99.5,6.83333 99.5,10.5C 98.461,7.91718 97.1276,5.41718 95.5,3C 91.5686,1.19307 87.5686,0.0263995 83.5,-0.5 Z"/></g>
<g><path style="opacity:1" fill="#282828" d="M 14.5,-0.5 C 37.5,-0.5 60.5,-0.5 83.5,-0.5C 87.5686,0.0263995 91.5686,1.19307 95.5,3C 97.1276,5.41718 98.461,7.91718 99.5,10.5C 99.5,36.1667 99.5,61.8333 99.5,87.5C 98.7228,74.304 97.7228,60.9706 96.5,47.5C 95.52,50.0865 95.1866,52.7531 95.5,55.5C 92.8333,55.5 90.1667,55.5 87.5,55.5C 87.3293,44.8539 86.8293,44.8539 86,55.5C 85.6667,52.8333 85.3333,50.1667 85,47.5C 84.6667,50.8333 84.3333,54.1667 84,57.5C 83.8213,53.9748 83.3213,50.6414 82.5,47.5C 81.5058,44.8763 80.5058,42.2097 79.5,39.5C 77.3284,27.5293 70.3284,19.8627 58.5,16.5C 57.791,15.596 56.791,15.2627 55.5,15.5C 53.5274,14.8373 51.3608,14.5039 49,14.5C 45.5226,14.3275 42.356,14.9942 39.5,16.5C 37.6203,16.2291 36.287,16.8958 35.5,18.5C 30.6187,20.7094 26.6187,24.0427 23.5,28.5C 21.4451,30.2339 20.1118,32.5672 19.5,35.5C 18.675,36.3857 17.675,36.719 16.5,36.5C 17.036,46.1614 16.7027,52.4947 15.5,55.5C 12.8333,55.5 10.1667,55.5 7.5,55.5C 7.81335,58.2469 7.48002,60.9135 6.5,63.5C 5.50515,58.2079 5.17182,52.8746 5.5,47.5C 4.5,47.5 3.5,47.5 2.5,47.5C 2.66507,40.8079 2.33174,34.1413 1.5,27.5C 1.41456,25.6672 0.747897,24.3339 -0.5,23.5C -0.5,20.5 -0.5,17.5 -0.5,14.5C 0.166667,5.16667 5.16667,0.166667 14.5,-0.5 Z"/></g>
<g><path style="opacity:1" fill="#1a0605" d="M 55.5,15.5 C 50.3595,16.4881 45.0262,16.8214 39.5,16.5C 42.356,14.9942 45.5226,14.3275 49,14.5C 51.3608,14.5039 53.5274,14.8373 55.5,15.5 Z"/></g>
<g><path style="opacity:1" fill="#2e0201" d="M 55.5,15.5 C 56.791,15.2627 57.791,15.596 58.5,16.5C 57.9569,16.56 57.6236,16.8933 57.5,17.5C 60.2801,18.4569 62.9467,19.6236 65.5,21C 66.3366,22.0113 66.67,23.1779 66.5,24.5C 64.4832,23.4706 62.4832,22.4706 60.5,21.5C 53.3459,20.3557 46.3459,20.3557 39.5,21.5C 38.1667,21.5 36.8333,21.5 35.5,21.5C 36.625,20.3478 36.625,19.3478 35.5,18.5C 36.287,16.8958 37.6203,16.2291 39.5,16.5C 45.0262,16.8214 50.3595,16.4881 55.5,15.5 Z"/></g>
<g><path style="opacity:1" fill="#6d0106" d="M 60.5,21.5 C 60.2089,22.6491 59.3756,23.3158 58,23.5C 51.082,22.0347 44.2487,22.3681 37.5,24.5C 36.8333,24.3333 36.1667,24.1667 35.5,24C 36.8584,23.0656 38.1917,22.2323 39.5,21.5C 46.3459,20.3557 53.3459,20.3557 60.5,21.5 Z"/></g>
<g><path style="opacity:1" fill="#222222" d="M -0.5,23.5 C 0.747897,24.3339 1.41456,25.6672 1.5,27.5C 2.33174,34.1413 2.66507,40.8079 2.5,47.5C 3.5,47.5 4.5,47.5 5.5,47.5C 5.17182,52.8746 5.50515,58.2079 6.5,63.5C 7.48002,60.9135 7.81335,58.2469 7.5,55.5C 10.1667,55.5 12.8333,55.5 15.5,55.5C 16.7027,52.4947 17.036,46.1614 16.5,36.5C 17.675,36.719 18.675,36.3857 19.5,35.5C 20.1118,32.5672 21.4451,30.2339 23.5,28.5C 23.5,29.5 23.5,30.5 23.5,31.5C 19.9754,36.9066 17.9754,42.9066 17.5,49.5C 17.3531,54.2142 17.6864,58.8809 18.5,63.5C 17.9916,65.8654 17.3249,68.1987 16.5,70.5C 17.325,71.3857 18.325,71.719 19.5,71.5C 19.7812,77.6083 22.1145,82.7749 26.5,87C 30.1174,89.5782 33.7841,92.0782 37.5,94.5C 45.4792,95.6649 53.4792,95.8316 61.5,95C 69.6851,90.9929 75.3518,85.1595 78.5,77.5C 77.7366,76.2807 76.7366,75.2807 75.5,74.5C 76.1272,73.5832 76.4606,72.5832 76.5,71.5C 78.8294,67.8451 80.1628,63.8451 80.5,59.5C 82.4228,55.9707 83.0894,51.9707 82.5,47.5C 83.3213,50.6414 83.8213,53.9748 84,57.5C 84.3333,54.1667 84.6667,50.8333 85,47.5C 85.3333,50.1667 85.6667,52.8333 86,55.5C 86.8293,44.8539 87.3293,44.8539 87.5,55.5C 90.1667,55.5 92.8333,55.5 95.5,55.5C 95.1866,52.7531 95.52,50.0865 96.5,47.5C 97.7228,60.9706 98.7228,74.304 99.5,87.5C 99.5,89.5 99.5,91.5 99.5,93.5C 98.5788,96.676 97.0788,99.676 95,102.5C 92.4333,103.587 89.9333,104.587 87.5,105.5C 62.1667,105.5 36.8333,105.5 11.5,105.5C 3.81763,103.481 -0.182365,98.481 -0.5,90.5C -0.5,68.1667 -0.5,45.8333 -0.5,23.5 Z"/></g>
<g><path style="opacity:1" fill="#1e0403" d="M 58.5,16.5 C 70.3284,19.8627 77.3284,27.5293 79.5,39.5C 79.1667,39.5 78.8333,39.5 78.5,39.5C 77.1096,32.3734 73.1096,27.3734 66.5,24.5C 66.67,23.1779 66.3366,22.0113 65.5,21C 62.9467,19.6236 60.2801,18.4569 57.5,17.5C 57.6236,16.8933 57.9569,16.56 58.5,16.5 Z"/></g>
<g><path style="opacity:1" fill="#1f0406" d="M 35.5,18.5 C 36.625,19.3478 36.625,20.3478 35.5,21.5C 31.2154,24.4477 27.2154,27.781 23.5,31.5C 23.5,30.5 23.5,29.5 23.5,28.5C 26.6187,24.0427 30.6187,20.7094 35.5,18.5 Z"/></g>
<g><path style="opacity:1" fill="#5c0101" d="M 35.5,21.5 C 36.8333,21.5 38.1667,21.5 39.5,21.5C 38.1917,22.2323 36.8584,23.0656 35.5,24C 36.1667,24.1667 36.8333,24.3333 37.5,24.5C 44.2487,22.3681 51.082,22.0347 58,23.5C 59.3756,23.3158 60.2089,22.6491 60.5,21.5C 62.4832,22.4706 64.4832,23.4706 66.5,24.5C 73.1096,27.3734 77.1096,32.3734 78.5,39.5C 75.2391,35.8992 71.9058,32.2326 68.5,28.5C 66.9579,27.2532 65.4579,27.2532 64,28.5C 60.6378,26.6015 60.6378,27.2682 64,30.5C 65.8402,29.1669 66.3402,29.3335 65.5,31C 67.5376,33.5692 69.2043,36.4025 70.5,39.5C 68.5662,37.703 66.2329,36.703 63.5,36.5C 63.5,36.1667 63.5,35.8333 63.5,35.5C 61.0688,34.2591 61.0688,33.0924 63.5,32C 60.262,31.768 57.762,30.268 56,27.5C 51.92,28.3002 47.7533,28.8002 43.5,29C 40.8941,29.4505 39.5608,30.9505 39.5,33.5C 35.5395,34.4792 32.2061,36.4792 29.5,39.5C 29.0962,38.2436 28.4295,37.0769 27.5,36C 30.9561,32.1931 34.9561,29.0265 39.5,26.5C 38.277,25.3861 36.9437,25.2195 35.5,26C 26.7152,30.6041 21.7152,37.7708 20.5,47.5C 21.5,47.5 22.5,47.5 23.5,47.5C 23.6797,51.2155 23.3464,54.8822 22.5,58.5C 22.9289,61.0288 23.5955,63.3621 24.5,65.5C 24.6495,66.552 24.4828,67.552 24,68.5C 23,66.8333 22,65.1667 21,63.5C 20.3171,58.56 19.1504,53.8934 17.5,49.5C 17.9754,42.9066 19.9754,36.9066 23.5,31.5C 27.2154,27.781 31.2154,24.4477 35.5,21.5 Z"/></g>
<g><path style="opacity:1" fill="#760000" d="M 63.5,35.5 C 61.2841,35.7254 59.6174,34.8921 58.5,33C 53.6478,32.1849 48.9811,32.3516 44.5,33.5C 44.1667,33.5 43.8333,33.5 43.5,33.5C 42.1667,33.5 40.8333,33.5 39.5,33.5C 39.5608,30.9505 40.8941,29.4505 43.5,29C 47.7533,28.8002 51.92,28.3002 56,27.5C 57.762,30.268 60.262,31.768 63.5,32C 61.0688,33.0924 61.0688,34.2591 63.5,35.5 Z"/></g>
<g><path style="opacity:1" fill="#4a0101" d="M 78.5,39.5 C 79.1901,43.4896 79.3568,47.4896 79,51.5C 78.79,49.9419 78.29,48.6085 77.5,47.5C 76.1964,46.0131 75.0298,44.3464 74,42.5C 73.3292,41.7476 72.4959,41.4142 71.5,41.5C 71.6716,40.5084 71.3382,39.8417 70.5,39.5C 69.2043,36.4025 67.5376,33.5692 65.5,31C 66.3402,29.3335 65.8402,29.1669 64,30.5C 60.6378,27.2682 60.6378,26.6015 64,28.5C 65.4579,27.2532 66.9579,27.2532 68.5,28.5C 71.9058,32.2326 75.2391,35.8992 78.5,39.5 Z"/></g>
<g><path style="opacity:1" fill="#420101" d="M 29.5,39.5 C 29.1667,39.5 28.8333,39.5 28.5,39.5C 25.3182,41.1927 23.6516,43.8593 23.5,47.5C 22.5,47.5 21.5,47.5 20.5,47.5C 21.7152,37.7708 26.7152,30.6041 35.5,26C 36.9437,25.2195 38.277,25.3861 39.5,26.5C 34.9561,29.0265 30.9561,32.1931 27.5,36C 28.4295,37.0769 29.0962,38.2436 29.5,39.5 Z"/></g>
<g><path style="opacity:1" fill="#750000" d="M 28.5,39.5 C 28.0805,41.0936 27.4138,42.5936 26.5,44C 26.7355,44.8732 27.0688,45.7065 27.5,46.5C 26.1785,52.7989 25.1785,59.1322 24.5,65.5C 23.5955,63.3621 22.9289,61.0288 22.5,58.5C 23.3464,54.8822 23.6797,51.2155 23.5,47.5C 23.6516,43.8593 25.3182,41.1927 28.5,39.5 Z"/></g>
<g><path style="opacity:1" fill="#770002" d="M 71.5,41.5 C 72.4959,41.4142 73.3292,41.7476 74,42.5C 75.0298,44.3464 76.1964,46.0131 77.5,47.5C 77.665,50.8499 77.4983,54.1832 77,57.5C 76.6174,58.056 76.1174,58.3893 75.5,58.5C 72.626,53.0926 71.2927,47.426 71.5,41.5 Z"/></g>
<g><path style="opacity:1" fill="#b90505" d="M 44.5,33.5 C 48.9811,32.3516 53.6478,32.1849 58.5,33C 59.6174,34.8921 61.2841,35.7254 63.5,35.5C 63.5,35.8333 63.5,36.1667 63.5,36.5C 64.6883,37.3636 65.8549,38.3636 67,39.5C 67.3333,45.8333 67.6667,52.1667 68,58.5C 68.4017,59.8721 68.9017,61.2054 69.5,62.5C 68.2299,63.2876 67.2299,64.2876 66.5,65.5C 54.8515,66.696 43.1848,66.696 31.5,65.5C 31.0438,59.4273 30.7105,53.2607 30.5,47C 32.6319,41.802 35.6319,37.302 39.5,33.5C 40.8333,33.5 42.1667,33.5 43.5,33.5C 42.5398,35.4607 41.2065,37.1274 39.5,38.5C 41.435,39.213 41.7683,40.213 40.5,41.5C 39.8476,42.4486 39.5143,43.6153 39.5,45C 39.6846,47.3759 40.6846,49.2092 42.5,50.5C 41.5,50.5 40.5,50.5 39.5,50.5C 39.2196,53.3882 40.5529,54.8882 43.5,55C 42.1667,55.3333 40.8333,55.6667 39.5,56C 41.5402,58.1851 42.8736,60.6851 43.5,63.5C 51.1955,63.8308 58.8622,63.4975 66.5,62.5C 64.3398,59.707 63.0065,56.5404 62.5,53C 64.437,48.1418 63.6037,43.9752 60,40.5C 59.1436,38.1316 58.3103,35.7983 57.5,33.5C 53.1667,33.5 48.8333,33.5 44.5,33.5 Z"/></g>
<g><path style="opacity:1" fill="#e23f3d" d="M 52.5,49.5 C 49.3752,50.4794 46.0419,50.8128 42.5,50.5C 40.6846,49.2092 39.6846,47.3759 39.5,45C 39.5143,43.6153 39.8476,42.4486 40.5,41.5C 46.8715,40.0038 53.2049,40.1705 59.5,42C 60.4061,43.6995 60.7394,45.5328 60.5,47.5C 57.9963,48.6392 55.3297,49.3059 52.5,49.5 Z"/></g>
<g><path style="opacity:1" fill="#f79998" d="M 52.5,43.5 C 53.5,43.5 54.5,43.5 55.5,43.5C 55.7709,45.3797 55.1042,46.713 53.5,47.5C 53.5,46.5 53.5,45.5 53.5,44.5C 51.5,44.5 49.5,44.5 47.5,44.5C 47.5,45.5 47.5,46.5 47.5,47.5C 49.1667,47.5 50.8333,47.5 52.5,47.5C 52.5,47.8333 52.5,48.1667 52.5,48.5C 50.1432,48.6633 47.8098,48.4966 45.5,48C 44.1667,46.6667 44.1667,45.3333 45.5,44C 47.8098,43.5034 50.1432,43.3367 52.5,43.5 Z"/></g>
<g><path style="opacity:1" fill="#fbc7c8" d="M 53.5,47.5 C 53.1667,47.5 52.8333,47.5 52.5,47.5C 50.8333,47.5 49.1667,47.5 47.5,47.5C 47.5,46.5 47.5,45.5 47.5,44.5C 49.5,44.5 51.5,44.5 53.5,44.5C 53.5,45.5 53.5,46.5 53.5,47.5 Z"/></g>
<g><path style="opacity:1" fill="#f07172" d="M 52.5,43.5 C 50.1432,43.3367 47.8098,43.5034 45.5,44C 44.1667,45.3333 44.1667,46.6667 45.5,48C 47.8098,48.4966 50.1432,48.6633 52.5,48.5C 52.5,48.8333 52.5,49.1667 52.5,49.5C 49.8127,49.6641 47.146,49.4974 44.5,49C 41.8333,47 41.8333,45 44.5,43C 47.367,42.1993 50.0336,42.3659 52.5,43.5 Z"/></g>
<g><path style="opacity:1" fill="#cd0504" d="M 43.5,33.5 C 43.8333,33.5 44.1667,33.5 44.5,33.5C 48.8333,33.5 53.1667,33.5 57.5,33.5C 58.3103,35.7983 59.1436,38.1316 60,40.5C 63.6037,43.9752 64.437,48.1418 62.5,53C 63.0065,56.5404 64.3398,59.707 66.5,62.5C 58.8622,63.4975 51.1955,63.8308 43.5,63.5C 42.8736,60.6851 41.5402,58.1851 39.5,56C 40.8333,55.6667 42.1667,55.3333 43.5,55C 40.5529,54.8882 39.2196,53.3882 39.5,50.5C 40.5,50.5 41.5,50.5 42.5,50.5C 46.0419,50.8128 49.3752,50.4794 52.5,49.5C 55.3297,49.3059 57.9963,48.6392 60.5,47.5C 60.7394,45.5328 60.4061,43.6995 59.5,42C 53.2049,40.1705 46.8715,40.0038 40.5,41.5C 41.7683,40.213 41.435,39.213 39.5,38.5C 41.2065,37.1274 42.5398,35.4607 43.5,33.5 Z"/></g>
<g><path style="opacity:1" fill="#9c0202" d="M 63.5,36.5 C 66.2329,36.703 68.5662,37.703 70.5,39.5C 71.3382,39.8417 71.6716,40.5084 71.5,41.5C 71.2927,47.426 72.626,53.0926 75.5,58.5C 75.7845,60.4147 75.4511,62.0813 74.5,63.5C 72.1799,65.2261 69.5133,65.8928 66.5,65.5C 67.2299,64.2876 68.2299,63.2876 69.5,62.5C 68.9017,61.2054 68.4017,59.8721 68,58.5C 67.6667,52.1667 67.3333,45.8333 67,39.5C 65.8549,38.3636 64.6883,37.3636 63.5,36.5 Z"/></g>
<g><path style="opacity:1" fill="#600303" d="M 78.5,39.5 C 78.8333,39.5 79.1667,39.5 79.5,39.5C 80.5058,42.2097 81.5058,44.8763 82.5,47.5C 83.0894,51.9707 82.4228,55.9707 80.5,59.5C 80.631,58.7611 80.4643,58.0944 80,57.5C 79.0892,61.2299 77.5892,64.5632 75.5,67.5C 75.5674,66.0413 75.2341,64.7079 74.5,63.5C 75.4511,62.0813 75.7845,60.4147 75.5,58.5C 76.1174,58.3893 76.6174,58.056 77,57.5C 77.4983,54.1832 77.665,50.8499 77.5,47.5C 78.29,48.6085 78.79,49.9419 79,51.5C 79.3568,47.4896 79.1901,43.4896 78.5,39.5 Z"/></g>
<g><path style="opacity:1" fill="#8e0a09" d="M 39.5,33.5 C 35.6319,37.302 32.6319,41.802 30.5,47C 30.7105,53.2607 31.0438,59.4273 31.5,65.5C 29.5,66.1667 27.5,66.8333 25.5,67.5C 25.3284,68.4916 25.6618,69.1583 26.5,69.5C 26.6596,71.153 27.3263,72.4863 28.5,73.5C 30.2193,76.2195 32.5526,78.2195 35.5,79.5C 45.1173,84.825 54.7839,84.825 64.5,79.5C 66.5,78.1667 68.1667,76.5 69.5,74.5C 70.9744,73.5637 71.9744,72.2303 72.5,70.5C 73.1667,70.5 73.5,70.1667 73.5,69.5C 73.5,68.1667 74.1667,67.5 75.5,67.5C 77.5892,64.5632 79.0892,61.2299 80,57.5C 80.4643,58.0944 80.631,58.7611 80.5,59.5C 80.1628,63.8451 78.8294,67.8451 76.5,71.5C 62.3609,87.5111 46.3609,89.6777 28.5,78C 24.28,73.7093 20.9467,68.8759 18.5,63.5C 17.6864,58.8809 17.3531,54.2142 17.5,49.5C 19.1504,53.8934 20.3171,58.56 21,63.5C 22,65.1667 23,66.8333 24,68.5C 24.4828,67.552 24.6495,66.552 24.5,65.5C 25.1785,59.1322 26.1785,52.7989 27.5,46.5C 27.0688,45.7065 26.7355,44.8732 26.5,44C 27.4138,42.5936 28.0805,41.0936 28.5,39.5C 28.8333,39.5 29.1667,39.5 29.5,39.5C 32.2061,36.4792 35.5395,34.4792 39.5,33.5 Z"/></g>
<g><path style="opacity:1" fill="#c96868" d="M 26.5,69.5 C 27.4822,70.1408 28.4822,70.8075 29.5,71.5C 43.7888,71.7734 58.1221,71.4401 72.5,70.5C 71.9744,72.2303 70.9744,73.5637 69.5,74.5C 69.2648,73.9033 68.7648,73.5699 68,73.5C 67.3333,74.1667 66.6667,74.8333 66,75.5C 56.6667,74.8333 47.3333,74.1667 38,73.5C 34.9083,75.0459 32.075,74.7126 29.5,72.5C 28.8933,72.6236 28.56,72.9569 28.5,73.5C 27.3263,72.4863 26.6596,71.153 26.5,69.5 Z"/></g>
<g><path style="opacity:1" fill="#c3494b" d="M 25.5,67.5 C 41.3693,68.0845 57.3693,68.7512 73.5,69.5C 73.5,70.1667 73.1667,70.5 72.5,70.5C 58.1221,71.4401 43.7888,71.7734 29.5,71.5C 28.4822,70.8075 27.4822,70.1408 26.5,69.5C 25.6618,69.1583 25.3284,68.4916 25.5,67.5 Z"/></g>
<g><path style="opacity:1" fill="#bc2e2f" d="M 74.5,63.5 C 75.2341,64.7079 75.5674,66.0413 75.5,67.5C 74.1667,67.5 73.5,68.1667 73.5,69.5C 57.3693,68.7512 41.3693,68.0845 25.5,67.5C 27.5,66.8333 29.5,66.1667 31.5,65.5C 43.1848,66.696 54.8515,66.696 66.5,65.5C 69.5133,65.8928 72.1799,65.2261 74.5,63.5 Z"/></g>
<g><path style="opacity:1" fill="#121010" d="M 18.5,63.5 C 20.9467,68.8759 24.28,73.7093 28.5,78C 46.3609,89.6777 62.3609,87.5111 76.5,71.5C 76.4606,72.5832 76.1272,73.5832 75.5,74.5C 76.7366,75.2807 77.7366,76.2807 78.5,77.5C 75.3518,85.1595 69.6851,90.9929 61.5,95C 53.4792,95.8316 45.4792,95.6649 37.5,94.5C 33.7841,92.0782 30.1174,89.5782 26.5,87C 22.1145,82.7749 19.7812,77.6083 19.5,71.5C 18.325,71.719 17.325,71.3857 16.5,70.5C 17.3249,68.1987 17.9916,65.8654 18.5,63.5 Z"/></g>
<g><path style="opacity:1" fill="#e2b0b2" d="M 35.5,79.5 C 45.1667,78.1667 54.8333,78.1667 64.5,79.5C 54.7839,84.825 45.1173,84.825 35.5,79.5 Z"/></g>
<g><path style="opacity:1" fill="#d49395" d="M 69.5,74.5 C 68.1667,76.5 66.5,78.1667 64.5,79.5C 54.8333,78.1667 45.1667,78.1667 35.5,79.5C 32.5526,78.2195 30.2193,76.2195 28.5,73.5C 28.56,72.9569 28.8933,72.6236 29.5,72.5C 32.075,74.7126 34.9083,75.0459 38,73.5C 47.3333,74.1667 56.6667,74.8333 66,75.5C 66.6667,74.8333 67.3333,74.1667 68,73.5C 68.7648,73.5699 69.2648,73.9033 69.5,74.5 Z"/></g>
<g><path style="opacity:1" fill="#ececec" d="M -0.5,90.5 C -0.182365,98.481 3.81763,103.481 11.5,105.5C 7.5,105.5 3.5,105.5 -0.5,105.5C -0.5,100.5 -0.5,95.5 -0.5,90.5 Z"/></g>
<g><path style="opacity:1" fill="#eeeeee" d="M 99.5,93.5 C 99.5,97.5 99.5,101.5 99.5,105.5C 95.5,105.5 91.5,105.5 87.5,105.5C 89.9333,104.587 92.4333,103.587 95,102.5C 97.0788,99.676 98.5788,96.676 99.5,93.5 Z"/></g>
</svg>
