<?xml version="1.0" encoding="UTF-8"?>
<!DOCTYPE svg PUBLIC "-//W3C//DTD SVG 1.1//EN" "http://www.w3.org/Graphics/SVG/1.1/DTD/svg11.dtd">
<svg xmlns="http://www.w3.org/2000/svg" version="1.1" width="512px" height="512px" style="shape-rendering:geometricPrecision; text-rendering:geometricPrecision; image-rendering:optimizeQuality; fill-rule:evenodd; clip-rule:evenodd" xmlns:xlink="http://www.w3.org/1999/xlink">
<g><path style="opacity:0.973" fill="#fedc68" d="M -0.5,405.5 C -0.5,402.167 -0.5,398.833 -0.5,395.5C 4.44895,388.334 11.4489,385.334 20.5,386.5C 58.9429,293.947 97.1096,201.281 135,108.5C 139.385,97.5923 146.885,94.7589 157.5,100C 158.787,101.41 159.954,102.91 161,104.5C 199.642,198.764 238.476,292.931 277.5,387C 283.09,386.905 288.423,387.905 293.5,390C 300.864,398.752 299.864,406.418 290.5,413C 261.5,413.667 232.5,413.667 203.5,413C 195.122,408.047 193.289,401.214 198,392.5C 200.121,389.881 202.621,387.881 205.5,386.5C 197.629,367.261 189.629,348.094 181.5,329C 145.5,328.333 109.5,328.333 73.5,329C 65.3709,348.094 57.3709,367.261 49.5,386.5C 59.6552,391.806 61.9885,399.472 56.5,409.5C 54.9716,410.861 53.3049,412.028 51.5,413C 36.8333,413.667 22.1667,413.667 7.5,413C 3.97911,411.31 1.31244,408.81 -0.5,405.5 Z M 126.5,198.5 C 128.446,200.353 129.946,202.686 131,205.5C 143.761,237.52 156.928,269.353 170.5,301C 141.833,301.667 113.167,301.667 84.5,301C 98.9935,267.016 112.993,232.849 126.5,198.5 Z"/></g>
<g><path style="opacity:0.976" fill="#fe6468" d="M 511.5,395.5 C 511.5,398.833 511.5,402.167 511.5,405.5C 509.688,408.81 507.021,411.31 503.5,413C 485.167,413.667 466.833,413.667 448.5,413C 441.95,411.11 436.45,407.61 432,402.5C 422.053,407.593 411.553,411.093 400.5,413C 386.5,413.667 372.5,413.667 358.5,413C 327.504,409.382 310.171,392.215 306.5,361.5C 310.761,331.062 327.761,311.562 357.5,303C 380.169,298.752 402.669,293.918 425,288.5C 427.078,269.4 421.578,252.9 408.5,239C 401.067,233.484 393.4,233.151 385.5,238C 377.068,245.357 371.568,254.524 369,265.5C 367.934,272.488 366.934,279.488 366,286.5C 364.01,290.49 360.843,292.99 356.5,294C 349.833,294.167 343.167,294.333 336.5,294.5C 328.759,294.616 321.093,294.116 313.5,293C 310.272,291.437 308.105,288.937 307,285.5C 306.465,248.377 323.632,223.544 358.5,211C 361.471,210.206 364.471,209.539 367.5,209C 386.5,208.333 405.5,208.333 424.5,209C 459.683,216.516 480.183,238.016 486,273.5C 486.333,310.833 486.667,348.167 487,385.5C 487.75,386.126 488.584,386.626 489.5,387C 494.167,387.333 498.833,387.667 503.5,388C 507.021,389.69 509.688,392.19 511.5,395.5 Z M 424.5,317.5 C 425.828,337.004 425.828,356.671 424.5,376.5C 413.204,383.033 401.037,386.699 388,387.5C 377.376,386.546 370.709,380.88 368,370.5C 365.958,359.491 368.792,349.991 376.5,342C 380.217,338.615 384.217,335.615 388.5,333C 400.313,327.127 412.313,321.961 424.5,317.5 Z"/></g>
</svg>
