<?xml version="1.0" encoding="UTF-8"?>
<!DOCTYPE svg PUBLIC "-//W3C//DTD SVG 1.1//EN" "http://www.w3.org/Graphics/SVG/1.1/DTD/svg11.dtd">
<svg xmlns="http://www.w3.org/2000/svg" version="1.1" width="128px" height="128px" style="shape-rendering:geometricPrecision; text-rendering:geometricPrecision; image-rendering:optimizeQuality; fill-rule:evenodd; clip-rule:evenodd" xmlns:xlink="http://www.w3.org/1999/xlink">
<g><path style="opacity:1" fill="#fffdfd" d="M -0.5,-0.5 C 17.5,-0.5 35.5,-0.5 53.5,-0.5C 50.4651,0.37448 47.4651,1.37448 44.5,2.5C 19.8943,11.1013 4.89426,28.1013 -0.5,53.5C -0.5,35.5 -0.5,17.5 -0.5,-0.5 Z"/></g>
<g><path style="opacity:1" fill="#fffdfd" d="M 70.5,-0.5 C 89.5,-0.5 108.5,-0.5 127.5,-0.5C 127.5,18.1667 127.5,36.8333 127.5,55.5C 121.053,24.0535 102.053,5.3868 70.5,-0.5 Z"/></g>
<g><path style="opacity:1" fill="#fe6b6b" d="M 53.5,-0.5 C 59.1667,-0.5 64.8333,-0.5 70.5,-0.5C 102.053,5.3868 121.053,24.0535 127.5,55.5C 127.5,60.5 127.5,65.5 127.5,70.5C 121.5,102.5 102.5,121.5 70.5,127.5C 64.8333,127.5 59.1667,127.5 53.5,127.5C 51.8333,126.833 50.1667,126.167 48.5,125.5C 49.2389,125.631 49.9056,125.464 50.5,125C 21.9847,114.509 6.65139,94.0088 4.5,63.5C 6.57283,34.946 20.5728,14.7793 46.5,3C 45.9056,2.53566 45.2389,2.36899 44.5,2.5C 47.4651,1.37448 50.4651,0.37448 53.5,-0.5 Z"/></g>
<g><path style="opacity:1" fill="#ef5757" d="M 44.5,2.5 C 45.2389,2.36899 45.9056,2.53566 46.5,3C 20.5728,14.7793 6.57283,34.946 4.5,63.5C 6.65139,94.0088 21.9847,114.509 50.5,125C 49.9056,125.464 49.2389,125.631 48.5,125.5C 20.9533,117.622 4.61995,99.6222 -0.5,71.5C -0.5,65.5 -0.5,59.5 -0.5,53.5C 4.89426,28.1013 19.8943,11.1013 44.5,2.5 Z"/></g>
<g><path style="opacity:1" fill="#ee5253" d="M 54.5,9.5 C 81.601,6.39388 101.434,17.0605 114,41.5C 123.924,71.3993 115.757,94.8993 89.5,112C 78.578,117.432 67.2446,119.266 55.5,117.5C 22.8986,105.31 9.73198,81.977 16,47.5C 23.1785,28.1458 36.0118,15.4792 54.5,9.5 Z"/></g>
<g><path style="opacity:1" fill="#e24951" d="M 54.5,9.5 C 36.0118,15.4792 23.1785,28.1458 16,47.5C 9.73198,81.977 22.8986,105.31 55.5,117.5C 33.6131,113.79 18.7798,101.456 11,80.5C 3.94435,49.1134 14.7777,26.28 43.5,12C 47.0145,10.4383 50.6811,9.60496 54.5,9.5 Z"/></g>
<g><path style="opacity:1" fill="#e1e5f2" d="M 45.5,42.5 C 46.8734,42.3433 48.2068,42.51 49.5,43C 54.0148,47.6819 58.6815,52.1819 63.5,56.5C 68.3185,52.1819 72.9852,47.6819 77.5,43C 82.3333,42.5 84.5,44.6667 84,49.5C 79.3181,54.0148 74.8181,58.6815 70.5,63.5C 74.8181,68.3185 79.3181,72.9852 84,77.5C 84.5,82.3333 82.3333,84.5 77.5,84C 72.9852,79.3181 68.3185,74.8181 63.5,70.5C 58.6815,74.8181 54.0148,79.3181 49.5,84C 44.6667,84.5 42.5,82.3333 43,77.5C 47.6819,72.9852 52.1819,68.3185 56.5,63.5C 52.1819,58.6815 47.6819,54.0148 43,49.5C 42.3333,48.1667 42.3333,46.8333 43,45.5C 44.045,44.6266 44.8783,43.6266 45.5,42.5 Z"/></g>
<g><path style="opacity:1" fill="#fffdfd" d="M -0.5,71.5 C 4.61995,99.6222 20.9533,117.622 48.5,125.5C 50.1667,126.167 51.8333,126.833 53.5,127.5C 35.5,127.5 17.5,127.5 -0.5,127.5C -0.5,108.833 -0.5,90.1667 -0.5,71.5 Z"/></g>
<g><path style="opacity:1" fill="#fffcfc" d="M 127.5,70.5 C 127.5,89.5 127.5,108.5 127.5,127.5C 108.5,127.5 89.5,127.5 70.5,127.5C 102.5,121.5 121.5,102.5 127.5,70.5 Z"/></g>
</svg>
