<?xml version="1.0" encoding="UTF-8"?>
<!DOCTYPE svg PUBLIC "-//W3C//DTD SVG 1.1//EN" "http://www.w3.org/Graphics/SVG/1.1/DTD/svg11.dtd">
<svg xmlns="http://www.w3.org/2000/svg" version="1.1" width="200px" height="194px" style="shape-rendering:geometricPrecision; text-rendering:geometricPrecision; image-rendering:optimizeQuality; fill-rule:evenodd; clip-rule:evenodd" xmlns:xlink="http://www.w3.org/1999/xlink">
<g><path style="opacity:1" fill="#fdfdfd" d="M -0.5,-0.5 C 66.1667,-0.5 132.833,-0.5 199.5,-0.5C 199.5,64.1667 199.5,128.833 199.5,193.5C 132.833,193.5 66.1667,193.5 -0.5,193.5C -0.5,128.833 -0.5,64.1667 -0.5,-0.5 Z"/></g>
<g><path style="opacity:1" fill="#f3b416" d="M 108.5,5.5 C 113.209,11.5833 116.875,18.25 119.5,25.5C 120.298,27.9663 121.631,29.9663 123.5,31.5C 124.869,34.962 126.536,38.2954 128.5,41.5C 128.031,44.3933 129.031,46.3933 131.5,47.5C 141.367,67.2347 150.7,87.2347 159.5,107.5C 157.742,105.859 156.242,103.859 155,101.5C 154.107,102.711 153.274,102.711 152.5,101.5C 153.645,100.109 153.645,98.7757 152.5,97.5C 151.534,99.396 151.201,101.396 151.5,103.5C 150.834,100.972 150.168,98.3056 149.5,95.5C 145.434,92.3378 144.767,88.6711 147.5,84.5C 146.284,83.9041 144.951,83.7374 143.5,84C 144.685,81.2224 143.685,79.7224 140.5,79.5C 137.113,66.7119 131.446,54.7119 123.5,43.5C 122.692,41.5767 122.192,39.5767 122,37.5C 118.527,30.5427 115.027,23.7094 111.5,17C 110.59,15.251 109.257,14.0843 107.5,13.5C 105.584,8.68022 101.918,6.34688 96.5,6.5C 93.5,8.16667 90.5,9.83333 87.5,11.5C 85.7121,17.7425 82.8788,23.4091 79,28.5C 77.7048,32.2153 76.5381,35.8819 75.5,39.5C 75.1667,39.5 74.8333,39.5 74.5,39.5C 71.5743,42.4758 69.9077,46.1425 69.5,50.5C 64.739,57.1755 60.739,64.1755 57.5,71.5C 57.1667,71.5 56.8333,71.5 56.5,71.5C 57.8405,66.4473 59.1738,61.4473 60.5,56.5C 61.3124,54.0554 62.3124,51.7221 63.5,49.5C 64.4959,49.5858 65.3292,49.2524 66,48.5C 67.3166,45.1126 69.15,42.1126 71.5,39.5C 72.8085,35.8932 73.8085,32.2265 74.5,28.5C 76.1676,25.1615 77.8343,21.8282 79.5,18.5C 81.2451,16.9674 82.2451,14.9674 82.5,12.5C 86.4254,3.03916 93.4254,-0.294172 103.5,2.5C 104.94,3.95244 106.606,4.95244 108.5,5.5 Z"/></g>
<g><path style="opacity:1" fill="#ecce84" d="M 82.5,12.5 C 82.2451,14.9674 81.2451,16.9674 79.5,18.5C 79.7549,16.0326 80.7549,14.0326 82.5,12.5 Z"/></g>
<g><path style="opacity:1" fill="#fee88e" d="M 108.5,27.5 C 109.698,31.4885 109.698,35.4885 108.5,39.5C 107.109,41.8903 105.109,43.5569 102.5,44.5C 101.612,48.9016 99.2782,52.4016 95.5,55C 89.3497,56.2458 83.183,57.4125 77,58.5C 74.7253,58.7224 73.5587,57.7224 73.5,55.5C 75.97,47.259 79.3033,39.259 83.5,31.5C 86.6579,28.1724 89.6579,24.6724 92.5,21C 93.448,20.5172 94.448,20.3505 95.5,20.5C 95.5,19.5 95.5,18.5 95.5,17.5C 103.156,16.8016 107.489,20.1349 108.5,27.5 Z"/></g>
<g><path style="opacity:1" fill="#f7cf33" d="M 107.5,13.5 C 107.5,14.8333 107.5,16.1667 107.5,17.5C 103.342,12.7559 98.3421,11.5892 92.5,14C 87.3942,22.9269 81.7276,31.4269 75.5,39.5C 76.5381,35.8819 77.7048,32.2153 79,28.5C 82.8788,23.4091 85.7121,17.7425 87.5,11.5C 90.5,9.83333 93.5,8.16667 96.5,6.5C 101.918,6.34688 105.584,8.68022 107.5,13.5 Z"/></g>
<g><path style="opacity:1" fill="#c7a344" d="M 119.5,25.5 C 121.822,26.8021 123.155,28.8021 123.5,31.5C 121.631,29.9663 120.298,27.9663 119.5,25.5 Z"/></g>
<g><path style="opacity:1" fill="#fadd61" d="M 107.5,17.5 C 108.63,19.3146 109.296,21.3146 109.5,23.5C 109.704,25.6854 110.37,27.6854 111.5,29.5C 110.5,28.8333 109.5,28.1667 108.5,27.5C 107.489,20.1349 103.156,16.8016 95.5,17.5C 95.5,18.5 95.5,19.5 95.5,20.5C 94.448,20.3505 93.448,20.5172 92.5,21C 89.6579,24.6724 86.6579,28.1724 83.5,31.5C 79.3033,39.259 75.97,47.259 73.5,55.5C 72.8333,55.5 72.1667,55.5 71.5,55.5C 71.9419,50.0276 72.9419,44.6943 74.5,39.5C 74.8333,39.5 75.1667,39.5 75.5,39.5C 81.7276,31.4269 87.3942,22.9269 92.5,14C 98.3421,11.5892 103.342,12.7559 107.5,17.5 Z"/></g>
<g><path style="opacity:1" fill="#eabb46" d="M 74.5,28.5 C 73.8085,32.2265 72.8085,35.8932 71.5,39.5C 69.15,42.1126 67.3166,45.1126 66,48.5C 65.3292,49.2524 64.4959,49.5858 63.5,49.5C 67.3661,42.539 71.0328,35.539 74.5,28.5 Z"/></g>
<g><path style="opacity:1" fill="#c6a43f" d="M 128.5,41.5 C 130.008,43.1815 131.008,45.1815 131.5,47.5C 129.031,46.3933 128.031,44.3933 128.5,41.5 Z"/></g>
<g><path style="opacity:1" fill="#b2ada9" d="M 108.5,5.5 C 109.873,5.34332 111.207,5.50999 112.5,6C 127.914,34.3261 142.08,63.1594 155,92.5C 161.239,102.621 166.072,113.288 169.5,124.5C 165.917,119.118 162.584,113.451 159.5,107.5C 150.7,87.2347 141.367,67.2347 131.5,47.5C 131.008,45.1815 130.008,43.1815 128.5,41.5C 126.536,38.2954 124.869,34.962 123.5,31.5C 123.155,28.8021 121.822,26.8021 119.5,25.5C 116.875,18.25 113.209,11.5833 108.5,5.5 Z"/></g>
<g><path style="opacity:1" fill="#fde479" d="M 108.5,27.5 C 109.5,28.1667 110.5,28.8333 111.5,29.5C 111.5,30.1667 111.5,30.8333 111.5,31.5C 113.343,41.589 111.01,50.4223 104.5,58C 96.1093,60.6411 87.6093,61.4745 79,60.5C 77.1516,63.0414 74.6516,64.0414 71.5,63.5C 71.5,60.8333 71.5,58.1667 71.5,55.5C 72.1667,55.5 72.8333,55.5 73.5,55.5C 73.5587,57.7224 74.7253,58.7224 77,58.5C 83.183,57.4125 89.3497,56.2458 95.5,55C 99.2782,52.4016 101.612,48.9016 102.5,44.5C 105.109,43.5569 107.109,41.8903 108.5,39.5C 109.698,35.4885 109.698,31.4885 108.5,27.5 Z"/></g>
<g><path style="opacity:1" fill="#fddf64" d="M 111.5,31.5 C 115.826,40.0148 116.659,49.0148 114,58.5C 111.219,61.8049 107.719,63.4715 103.5,63.5C 103.5,64.8333 103.5,66.1667 103.5,67.5C 96.2568,67.6989 89.0902,67.0322 82,65.5C 77.1476,66.089 72.3142,66.7557 67.5,67.5C 67.094,62.7154 68.4273,58.7154 71.5,55.5C 71.5,58.1667 71.5,60.8333 71.5,63.5C 74.6516,64.0414 77.1516,63.0414 79,60.5C 87.6093,61.4745 96.1093,60.6411 104.5,58C 111.01,50.4223 113.343,41.589 111.5,31.5 Z"/></g>
<g><path style="opacity:1" fill="#fcda50" d="M 111.5,29.5 C 112.376,29.3691 113.043,29.7025 113.5,30.5C 115.051,33.359 116.051,36.359 116.5,39.5C 118.025,47.6089 117.692,55.6089 115.5,63.5C 114.167,63.5 112.833,63.5 111.5,63.5C 111.5,64.8333 111.5,66.1667 111.5,67.5C 107.464,68.8582 103.464,70.1915 99.5,71.5C 91.8763,70.0877 84.2096,69.5877 76.5,70C 72.1524,73.5027 67.1524,75.336 61.5,75.5C 61.8354,68.8166 64.0021,62.8166 68,57.5C 68.4396,55.1341 68.9396,52.8008 69.5,50.5C 69.9077,46.1425 71.5743,42.4758 74.5,39.5C 72.9419,44.6943 71.9419,50.0276 71.5,55.5C 68.4273,58.7154 67.094,62.7154 67.5,67.5C 72.3142,66.7557 77.1476,66.089 82,65.5C 89.0902,67.0322 96.2568,67.6989 103.5,67.5C 103.5,66.1667 103.5,64.8333 103.5,63.5C 107.719,63.4715 111.219,61.8049 114,58.5C 116.659,49.0148 115.826,40.0148 111.5,31.5C 111.5,30.8333 111.5,30.1667 111.5,29.5 Z"/></g>
<g><path style="opacity:1" fill="#f0bd2a" d="M 60.5,56.5 C 59.1738,61.4473 57.8405,66.4473 56.5,71.5C 56.1077,73.1789 55.6077,74.8455 55,76.5C 49.3304,81.4317 46.4971,87.7651 46.5,95.5C 45.1667,95.5 43.8333,95.5 42.5,95.5C 42.9118,97.9726 41.9118,99.3059 39.5,99.5C 45.9309,84.8652 52.9309,70.5319 60.5,56.5 Z"/></g>
<g><path style="opacity:1" fill="#fad437" d="M 116.5,39.5 C 117.558,40.6002 118.392,41.9336 119,43.5C 119.667,51.5 119.667,59.5 119,67.5C 115.952,71.6052 113.452,75.9385 111.5,80.5C 101.097,80.5374 90.764,79.8707 80.5,78.5C 71.9399,80.3709 63.4399,82.3709 55,84.5C 55.3851,80.0749 56.2184,75.7416 57.5,71.5C 60.739,64.1755 64.739,57.1755 69.5,50.5C 68.9396,52.8008 68.4396,55.1341 68,57.5C 64.0021,62.8166 61.8354,68.8166 61.5,75.5C 67.1524,75.336 72.1524,73.5027 76.5,70C 84.2096,69.5877 91.8763,70.0877 99.5,71.5C 103.464,70.1915 107.464,68.8582 111.5,67.5C 111.5,66.1667 111.5,64.8333 111.5,63.5C 112.833,63.5 114.167,63.5 115.5,63.5C 117.692,55.6089 118.025,47.6089 116.5,39.5 Z"/></g>
<g><path style="opacity:1" fill="#f5c816" d="M 109.5,23.5 C 110.833,23.5 112.167,23.5 113.5,23.5C 115.46,26.7588 116.626,30.4255 117,34.5C 119.762,37.7345 121.762,41.4012 123,45.5C 123.986,52.9426 125.819,60.1092 128.5,67C 129.448,67.4828 130.448,67.6495 131.5,67.5C 131.5,68.8333 131.5,70.1667 131.5,71.5C 132.5,71.5 133.5,71.5 134.5,71.5C 134.833,73.5 135.167,75.5 135.5,77.5C 136.822,77.67 137.989,77.3366 139,76.5C 139.167,77 139.333,77.5 139.5,78C 138.416,80.8617 137.25,83.3617 136,85.5C 135.501,89.8206 135.334,94.1539 135.5,98.5C 130.167,98.8333 124.833,99.1667 119.5,99.5C 119.5,98.5 119.5,97.5 119.5,96.5C 114.613,97.1875 110.279,96.0209 106.5,93C 98.6826,92.2959 91.0159,90.7959 83.5,88.5C 74.9392,89.134 66.6059,90.8007 58.5,93.5C 56.2606,92.3641 54.5939,92.6975 53.5,94.5C 55.0049,95.8415 55.6715,97.5082 55.5,99.5C 52.8333,99.5 50.1667,99.5 47.5,99.5C 47.7678,97.901 47.4345,96.5676 46.5,95.5C 46.4971,87.7651 49.3304,81.4317 55,76.5C 55.6077,74.8455 56.1077,73.1789 56.5,71.5C 56.8333,71.5 57.1667,71.5 57.5,71.5C 56.2184,75.7416 55.3851,80.0749 55,84.5C 63.4399,82.3709 71.9399,80.3709 80.5,78.5C 90.764,79.8707 101.097,80.5374 111.5,80.5C 113.452,75.9385 115.952,71.6052 119,67.5C 119.667,59.5 119.667,51.5 119,43.5C 118.392,41.9336 117.558,40.6002 116.5,39.5C 116.051,36.359 115.051,33.359 113.5,30.5C 113.043,29.7025 112.376,29.3691 111.5,29.5C 110.37,27.6854 109.704,25.6854 109.5,23.5 Z"/></g>
<g><path style="opacity:1" fill="#f7c905" d="M 159.5,175.5 C 155.681,176.166 151.681,176.499 147.5,176.5C 140.608,176.61 133.942,175.944 127.5,174.5C 126.137,172.627 124.47,170.961 122.5,169.5C 120.234,168.686 117.9,168.186 115.5,168C 116.793,167.51 118.127,167.343 119.5,167.5C 119.5,159.5 119.5,151.5 119.5,143.5C 116.833,143.5 114.167,143.5 111.5,143.5C 111.5,140.833 111.5,138.167 111.5,135.5C 108.833,135.5 106.167,135.5 103.5,135.5C 103.5,132.833 103.5,130.167 103.5,127.5C 98.1667,127.5 92.8333,127.5 87.5,127.5C 87.5,124.833 87.5,122.167 87.5,119.5C 82.1667,119.5 76.8333,119.5 71.5,119.5C 71.5,122.167 71.5,124.833 71.5,127.5C 66.1667,127.5 60.8333,127.5 55.5,127.5C 55.5,130.167 55.5,132.833 55.5,135.5C 52.8333,135.5 50.1667,135.5 47.5,135.5C 47.5,138.167 47.5,140.833 47.5,143.5C 44.8333,143.5 42.1667,143.5 39.5,143.5C 39.5,148.833 39.5,154.167 39.5,159.5C 41.1667,159.5 42.8333,159.5 44.5,159.5C 44.6107,160.117 44.944,160.617 45.5,161C 43.2305,161.758 41.0639,161.591 39,160.5C 33.9209,162.098 28.7542,163.431 23.5,164.5C 23.5,166.167 23.5,167.833 23.5,169.5C 18.9432,171.112 14.6099,173.278 10.5,176C 11.6405,176.741 11.6405,177.575 10.5,178.5C 17.1199,181.522 23.9533,182.522 31,181.5C 33.6073,182.123 36.1073,182.79 38.5,183.5C 29.4938,183.666 20.4938,183.5 11.5,183C 1.87981,179.352 0.713145,174.185 8,167.5C 9.82235,162.52 11.3223,157.52 12.5,152.5C 12.953,150.435 13.953,148.768 15.5,147.5C 16.4959,147.586 17.3292,147.252 18,146.5C 18.3333,144.833 18.6667,143.167 19,141.5C 21.0631,139.439 22.7297,137.106 24,134.5C 29.7132,133.643 30.8798,130.809 27.5,126C 29.0966,123.589 30.4299,121.089 31.5,118.5C 33.5529,118.598 35.2196,117.931 36.5,116.5C 37.531,114.039 38.1977,111.373 38.5,108.5C 44.5302,105.35 51.0302,103.017 58,101.5C 60.363,102.955 62.863,103.455 65.5,103C 68.1664,100.855 70.1664,98.3552 71.5,95.5C 79.5,95.5 87.5,95.5 95.5,95.5C 95.5,97.1667 95.5,98.8333 95.5,100.5C 98.1667,100.5 100.833,100.5 103.5,100.5C 103.5,101.5 103.5,102.5 103.5,103.5C 106.167,103.5 108.833,103.5 111.5,103.5C 111.5,106.167 111.5,108.833 111.5,111.5C 116.833,111.5 122.167,111.5 127.5,111.5C 127.5,116.833 127.5,122.167 127.5,127.5C 130.167,127.5 132.833,127.5 135.5,127.5C 135.5,130.167 135.5,132.833 135.5,135.5C 138.167,135.5 140.833,135.5 143.5,135.5C 143.5,148.833 143.5,162.167 143.5,175.5C 148.833,175.5 154.167,175.5 159.5,175.5 Z"/></g>
<g><path style="opacity:1" fill="#efc12b" d="M 39.5,99.5 C 38.8208,102.707 37.6541,105.707 36,108.5C 35.1993,111.367 35.3659,114.034 36.5,116.5C 35.2196,117.931 33.5529,118.598 31.5,118.5C 30.4299,121.089 29.0966,123.589 27.5,126C 30.8798,130.809 29.7132,133.643 24,134.5C 22.7297,137.106 21.0631,139.439 19,141.5C 18.6667,143.167 18.3333,144.833 18,146.5C 17.3292,147.252 16.4959,147.586 15.5,147.5C 22.9368,131.171 30.9368,115.171 39.5,99.5 Z"/></g>
<g><path style="opacity:1" fill="#f7c304" d="M 107.5,13.5 C 109.257,14.0843 110.59,15.251 111.5,17C 115.027,23.7094 118.527,30.5427 122,37.5C 122.192,39.5767 122.692,41.5767 123.5,43.5C 131.446,54.7119 137.113,66.7119 140.5,79.5C 143.685,79.7224 144.685,81.2224 143.5,84C 144.951,83.7374 146.284,83.9041 147.5,84.5C 144.767,88.6711 145.434,92.3378 149.5,95.5C 150.168,98.3056 150.834,100.972 151.5,103.5C 150.04,105.463 148.373,107.296 146.5,109C 147.833,109.667 147.833,110.333 146.5,111C 148.134,111.494 149.801,111.66 151.5,111.5C 151.5,114.167 151.5,116.833 151.5,119.5C 153.167,119.5 154.833,119.5 156.5,119.5C 156.5,122.167 156.5,124.833 156.5,127.5C 157.5,127.5 158.5,127.5 159.5,127.5C 159.509,135.568 160.176,143.568 161.5,151.5C 163.5,151.5 165.5,151.5 167.5,151.5C 167.5,155.167 167.5,158.833 167.5,162.5C 168.5,162.5 169.5,162.5 170.5,162.5C 170.5,161.5 170.5,160.5 170.5,159.5C 174.155,158.925 177.155,159.925 179.5,162.5C 176.703,162.967 175.369,164.633 175.5,167.5C 170.941,169.754 166.108,171.754 161,173.5C 159.97,173.836 159.47,174.503 159.5,175.5C 154.167,175.5 148.833,175.5 143.5,175.5C 143.5,162.167 143.5,148.833 143.5,135.5C 140.833,135.5 138.167,135.5 135.5,135.5C 135.5,132.833 135.5,130.167 135.5,127.5C 132.833,127.5 130.167,127.5 127.5,127.5C 127.5,122.167 127.5,116.833 127.5,111.5C 122.167,111.5 116.833,111.5 111.5,111.5C 111.5,108.833 111.5,106.167 111.5,103.5C 108.833,103.5 106.167,103.5 103.5,103.5C 103.5,102.5 103.5,101.5 103.5,100.5C 100.833,100.5 98.1667,100.5 95.5,100.5C 95.5,98.8333 95.5,97.1667 95.5,95.5C 87.5,95.5 79.5,95.5 71.5,95.5C 70.1664,98.3552 68.1664,100.855 65.5,103C 62.863,103.455 60.363,102.955 58,101.5C 51.0302,103.017 44.5302,105.35 38.5,108.5C 38.1977,111.373 37.531,114.039 36.5,116.5C 35.3659,114.034 35.1993,111.367 36,108.5C 37.6541,105.707 38.8208,102.707 39.5,99.5C 41.9118,99.3059 42.9118,97.9726 42.5,95.5C 43.8333,95.5 45.1667,95.5 46.5,95.5C 47.4345,96.5676 47.7678,97.901 47.5,99.5C 50.1667,99.5 52.8333,99.5 55.5,99.5C 55.6715,97.5082 55.0049,95.8415 53.5,94.5C 54.5939,92.6975 56.2606,92.3641 58.5,93.5C 66.6059,90.8007 74.9392,89.134 83.5,88.5C 91.0159,90.7959 98.6826,92.2959 106.5,93C 110.279,96.0209 114.613,97.1875 119.5,96.5C 119.5,97.5 119.5,98.5 119.5,99.5C 124.833,99.1667 130.167,98.8333 135.5,98.5C 135.334,94.1539 135.501,89.8206 136,85.5C 137.25,83.3617 138.416,80.8617 139.5,78C 139.333,77.5 139.167,77 139,76.5C 137.989,77.3366 136.822,77.67 135.5,77.5C 135.167,75.5 134.833,73.5 134.5,71.5C 133.5,71.5 132.5,71.5 131.5,71.5C 131.5,70.1667 131.5,68.8333 131.5,67.5C 130.448,67.6495 129.448,67.4828 128.5,67C 125.819,60.1092 123.986,52.9426 123,45.5C 121.762,41.4012 119.762,37.7345 117,34.5C 116.626,30.4255 115.46,26.7588 113.5,23.5C 112.167,23.5 110.833,23.5 109.5,23.5C 109.296,21.3146 108.63,19.3146 107.5,17.5C 107.5,16.1667 107.5,14.8333 107.5,13.5 Z"/></g>
<g><path style="opacity:1" fill="#f6bc0b" d="M 159.5,107.5 C 162.584,113.451 165.917,119.118 169.5,124.5C 169.34,126.199 169.506,127.866 170,129.5C 172.539,133.914 174.539,138.581 176,143.5C 181.122,153.04 185.955,162.707 190.5,172.5C 191.167,174.819 191.334,177.153 191,179.5C 189.624,180.705 188.458,182.038 187.5,183.5C 186.167,183.5 184.833,183.5 183.5,183.5C 164.833,183.5 146.167,183.5 127.5,183.5C 139.218,180.416 151.218,179.75 163.5,181.5C 170.396,179.963 177.396,178.963 184.5,178.5C 183.758,174.875 183.591,171.208 184,167.5C 183.667,167.833 183.333,168.167 183,168.5C 182.373,166.073 181.206,164.073 179.5,162.5C 177.155,159.925 174.155,158.925 170.5,159.5C 170.5,160.5 170.5,161.5 170.5,162.5C 169.5,162.5 168.5,162.5 167.5,162.5C 167.5,158.833 167.5,155.167 167.5,151.5C 165.5,151.5 163.5,151.5 161.5,151.5C 160.176,143.568 159.509,135.568 159.5,127.5C 158.5,127.5 157.5,127.5 156.5,127.5C 156.5,124.833 156.5,122.167 156.5,119.5C 154.833,119.5 153.167,119.5 151.5,119.5C 151.5,116.833 151.5,114.167 151.5,111.5C 149.801,111.66 148.134,111.494 146.5,111C 147.833,110.333 147.833,109.667 146.5,109C 148.373,107.296 150.04,105.463 151.5,103.5C 151.201,101.396 151.534,99.396 152.5,97.5C 153.645,98.7757 153.645,100.109 152.5,101.5C 153.274,102.711 154.107,102.711 155,101.5C 156.242,103.859 157.742,105.859 159.5,107.5 Z"/></g>
<g><path style="opacity:1" fill="#a8a39d" d="M 169.5,124.5 C 170.132,126.743 171.466,128.409 173.5,129.5C 179.265,146.039 186.432,162.039 195,177.5C 195.76,182.578 193.593,185.578 188.5,186.5C 189.105,184.974 190.271,183.974 192,183.5C 192.667,180.167 192.667,176.833 192,173.5C 191.617,172.944 191.117,172.611 190.5,172.5C 185.955,162.707 181.122,153.04 176,143.5C 174.539,138.581 172.539,133.914 170,129.5C 169.506,127.866 169.34,126.199 169.5,124.5 Z"/></g>
<g><path style="opacity:1" fill="#f6d108" d="M 127.5,174.5 C 120.467,173.327 113.467,171.827 106.5,170C 104.881,169.764 103.881,168.931 103.5,167.5C 103.423,166.25 102.756,165.417 101.5,165C 91.4807,163.608 81.4807,162.108 71.5,160.5C 62.5246,159.502 53.5246,159.168 44.5,159.5C 42.8333,159.5 41.1667,159.5 39.5,159.5C 39.5,154.167 39.5,148.833 39.5,143.5C 42.1667,143.5 44.8333,143.5 47.5,143.5C 47.5,140.833 47.5,138.167 47.5,135.5C 50.1667,135.5 52.8333,135.5 55.5,135.5C 55.5,132.833 55.5,130.167 55.5,127.5C 60.8333,127.5 66.1667,127.5 71.5,127.5C 71.5,124.833 71.5,122.167 71.5,119.5C 76.8333,119.5 82.1667,119.5 87.5,119.5C 87.5,122.167 87.5,124.833 87.5,127.5C 92.8333,127.5 98.1667,127.5 103.5,127.5C 103.5,130.167 103.5,132.833 103.5,135.5C 106.167,135.5 108.833,135.5 111.5,135.5C 111.5,138.167 111.5,140.833 111.5,143.5C 114.167,143.5 116.833,143.5 119.5,143.5C 119.5,151.5 119.5,159.5 119.5,167.5C 118.127,167.343 116.793,167.51 115.5,168C 117.9,168.186 120.234,168.686 122.5,169.5C 124.47,170.961 126.137,172.627 127.5,174.5 Z"/></g>
<g><path style="opacity:1" fill="#e3e5e0" d="M 173.5,129.5 C 174.885,130.574 176.051,131.907 177,133.5C 179.041,136.919 180.541,140.586 181.5,144.5C 184.739,146.149 186.239,148.816 186,152.5C 189.207,158.495 192.207,164.495 195,170.5C 196.725,175.871 196.725,181.204 195,186.5C 193.292,188.543 191.292,190.21 189,191.5C 130.069,190.835 71.2357,190.169 12.5,189.5C 71.5095,190.163 130.176,189.496 188.5,187.5C 188.5,187.167 188.5,186.833 188.5,186.5C 193.593,185.578 195.76,182.578 195,177.5C 186.432,162.039 179.265,146.039 173.5,129.5 Z"/></g>
<g><path style="opacity:1" fill="#fccf10" d="M 44.5,159.5 C 53.5246,159.168 62.5246,159.502 71.5,160.5C 81.4807,162.108 91.4807,163.608 101.5,165C 102.756,165.417 103.423,166.25 103.5,167.5C 95.4237,167.492 87.4237,166.825 79.5,165.5C 79.5,164.5 79.5,163.5 79.5,162.5C 66.7126,161.924 54.0459,162.757 41.5,165C 37.7358,169.216 33.0691,171.883 27.5,173C 25.2542,174.257 23.9209,176.09 23.5,178.5C 71.6462,179.816 119.646,179.816 167.5,178.5C 171.268,177.084 175.268,176.084 179.5,175.5C 183.426,173.376 183.259,172.043 179,171.5C 172.775,174.181 166.275,175.515 159.5,175.5C 159.47,174.503 159.97,173.836 161,173.5C 166.108,171.754 170.941,169.754 175.5,167.5C 175.369,164.633 176.703,162.967 179.5,162.5C 181.206,164.073 182.373,166.073 183,168.5C 183.333,168.167 183.667,167.833 184,167.5C 183.591,171.208 183.758,174.875 184.5,178.5C 177.396,178.963 170.396,179.963 163.5,181.5C 151.218,179.75 139.218,180.416 127.5,183.5C 97.8333,183.5 68.1667,183.5 38.5,183.5C 36.1073,182.79 33.6073,182.123 31,181.5C 23.9533,182.522 17.1199,181.522 10.5,178.5C 11.6405,177.575 11.6405,176.741 10.5,176C 14.6099,173.278 18.9432,171.112 23.5,169.5C 23.5,167.833 23.5,166.167 23.5,164.5C 28.7542,163.431 33.9209,162.098 39,160.5C 41.0639,161.591 43.2305,161.758 45.5,161C 44.944,160.617 44.6107,160.117 44.5,159.5 Z"/></g>
<g><path style="opacity:1" fill="#fed429" d="M 79.5,165.5 C 68.8333,166.167 58.1667,166.833 47.5,167.5C 47.67,168.822 47.3366,169.989 46.5,171C 44.4636,171.454 42.6303,172.287 41,173.5C 39.2973,172.3 37.7973,172.633 36.5,174.5C 37.5,175.167 38.5,175.833 39.5,176.5C 82.1644,177.389 124.831,178.056 167.5,178.5C 119.646,179.816 71.6462,179.816 23.5,178.5C 23.9209,176.09 25.2542,174.257 27.5,173C 33.0691,171.883 37.7358,169.216 41.5,165C 54.0459,162.757 66.7126,161.924 79.5,162.5C 79.5,163.5 79.5,164.5 79.5,165.5 Z"/></g>
<g><path style="opacity:1" fill="#fedb49" d="M 79.5,165.5 C 87.4237,166.825 95.4237,167.492 103.5,167.5C 103.881,168.931 104.881,169.764 106.5,170C 113.467,171.827 120.467,173.327 127.5,174.5C 133.942,175.944 140.608,176.61 147.5,176.5C 151.681,176.499 155.681,176.166 159.5,175.5C 166.275,175.515 172.775,174.181 179,171.5C 183.259,172.043 183.426,173.376 179.5,175.5C 175.268,176.084 171.268,177.084 167.5,178.5C 124.831,178.056 82.1644,177.389 39.5,176.5C 38.5,175.833 37.5,175.167 36.5,174.5C 37.7973,172.633 39.2973,172.3 41,173.5C 42.6303,172.287 44.4636,171.454 46.5,171C 47.3366,169.989 47.67,168.822 47.5,167.5C 58.1667,166.833 68.8333,166.167 79.5,165.5 Z"/></g>
<g><path style="opacity:1" fill="#dcad1e" d="M 12.5,152.5 C 11.3223,157.52 9.82235,162.52 8,167.5C 0.713145,174.185 1.87981,179.352 11.5,183C 20.4938,183.5 29.4938,183.666 38.5,183.5C 68.1667,183.5 97.8333,183.5 127.5,183.5C 146.167,183.5 164.833,183.5 183.5,183.5C 126.336,184.499 69.0024,184.832 11.5,184.5C 10.8333,184.5 10.1667,184.5 9.5,184.5C 8.48631,183.326 7.15298,182.66 5.5,182.5C 2.56299,179.749 1.39633,176.415 2,172.5C 5.60721,165.808 9.10721,159.142 12.5,152.5 Z"/></g>
<g><path style="opacity:1" fill="#a5885f" d="M 183.5,183.5 C 184.833,183.5 186.167,183.5 187.5,183.5C 187.389,184.117 187.056,184.617 186.5,185C 127.999,185.832 69.6652,185.665 11.5,184.5C 69.0024,184.832 126.336,184.499 183.5,183.5 Z"/></g>
<g><path style="opacity:1" fill="#8a8c8c" d="M 190.5,172.5 C 191.117,172.611 191.617,172.944 192,173.5C 192.667,176.833 192.667,180.167 192,183.5C 190.271,183.974 189.105,184.974 188.5,186.5C 188.5,186.833 188.5,187.167 188.5,187.5C 129.499,187.667 70.4991,187.5 11.5,187C 10.244,186.583 9.57735,185.75 9.5,184.5C 10.1667,184.5 10.8333,184.5 11.5,184.5C 69.6652,185.665 127.999,185.832 186.5,185C 187.056,184.617 187.389,184.117 187.5,183.5C 188.458,182.038 189.624,180.705 191,179.5C 191.334,177.153 191.167,174.819 190.5,172.5 Z"/></g>
<g><path style="opacity:1" fill="#c7c3c5" d="M 5.5,182.5 C 7.15298,182.66 8.48631,183.326 9.5,184.5C 9.57735,185.75 10.244,186.583 11.5,187C 70.4991,187.5 129.499,187.667 188.5,187.5C 130.176,189.496 71.5095,190.163 12.5,189.5C 8.86625,188.533 6.53291,186.2 5.5,182.5 Z"/></g>
</svg>
