<?xml version="1.0" encoding="UTF-8"?>
<!DOCTYPE svg PUBLIC "-//W3C//DTD SVG 1.1//EN" "http://www.w3.org/Graphics/SVG/1.1/DTD/svg11.dtd">
<svg xmlns="http://www.w3.org/2000/svg" version="1.1" width="50px" height="50px" style="shape-rendering:geometricPrecision; text-rendering:geometricPrecision; image-rendering:optimizeQuality; fill-rule:evenodd; clip-rule:evenodd" xmlns:xlink="http://www.w3.org/1999/xlink">
<g><path style="opacity:0.967" fill="#ffd401" d="M 49.5,17.5 C 49.5,18.5 49.5,19.5 49.5,20.5C 44.8677,23.7978 40.5344,27.4645 36.5,31.5C 38.6225,36.9895 39.9558,42.6562 40.5,48.5C 34.9408,46.0498 29.6075,43.0498 24.5,39.5C 19.3925,43.0498 14.0592,46.0498 8.5,48.5C 9.04417,42.6562 10.3775,36.9895 12.5,31.5C 8.46564,27.4645 4.13231,23.7978 -0.5,20.5C -0.5,19.5 -0.5,18.5 -0.5,17.5C 5.5,17.1667 11.5,16.8333 17.5,16.5C 19.1667,11.1667 20.8333,5.83333 22.5,0.5C 23.8333,0.5 25.1667,0.5 26.5,0.5C 28.1667,5.83333 29.8333,11.1667 31.5,16.5C 37.5,16.8333 43.5,17.1667 49.5,17.5 Z"/></g>
</svg>
