<?xml version="1.0" encoding="UTF-8"?>
<!DOCTYPE svg PUBLIC "-//W3C//DTD SVG 1.1//EN" "http://www.w3.org/Graphics/SVG/1.1/DTD/svg11.dtd">
<svg xmlns="http://www.w3.org/2000/svg" version="1.1" width="1545px" height="466px" style="shape-rendering:geometricPrecision; text-rendering:geometricPrecision; image-rendering:optimizeQuality; fill-rule:evenodd; clip-rule:evenodd" xmlns:xlink="http://www.w3.org/1999/xlink">
<g><path style="opacity:1" fill="#fefefe" d="M -0.5,-0.5 C 397.833,-0.5 796.167,-0.5 1194.5,-0.5C 1194.5,188.167 1194.5,376.833 1194.5,565.5C 796.167,565.5 397.833,565.5 -0.5,565.5C -0.5,376.833 -0.5,188.167 -0.5,-0.5 Z"/></g>
<g><path style="opacity:1" fill="#747e9f" d="M 286.5,24.5 C 287.794,26.0478 288.461,28.0478 288.5,30.5C 288.167,32.5 287.833,34.5 287.5,36.5C 286.509,32.5546 286.176,28.5546 286.5,24.5 Z"/></g>
<g><path style="opacity:1" fill="#4a2d2f" d="M 329.5,30.5 C 329.513,25.0798 328.013,24.4131 325,28.5C 324.389,24.9124 325.889,23.7458 329.5,25C 332.124,26.9688 332.124,28.8022 329.5,30.5 Z"/></g>
<g><path style="opacity:1" fill="#2a2443" d="M 103.5,24.5 C 104.368,37.0791 104.368,38.0791 103.5,27.5C 102.448,27.6495 101.448,27.4828 100.5,27C 101.942,26.6232 102.942,25.7899 103.5,24.5 Z"/></g>
<g><path style="opacity:1" fill="#8d4a1d" d="M 694.5,24.5 C 694.5,24.8333 694.5,25.1667 694.5,25.5C 693.21,26.0577 692.377,27.0577 692,28.5C 691.09,26.0551 691.924,24.7218 694.5,24.5 Z"/></g>
<g><path style="opacity:1" fill="#4a3746" d="M 279.5,28.5 C 282.952,26.743 284.952,27.9096 285.5,32C 284.952,36.0904 282.952,37.257 279.5,35.5C 279.833,35.5 280.167,35.5 280.5,35.5C 284.5,33.1667 284.5,30.8333 280.5,28.5C 280.167,28.5 279.833,28.5 279.5,28.5 Z"/></g>
<g><path style="opacity:1" fill="#1e3269" d="M 294.5,35.5 C 293.458,36.7911 292.292,36.7911 291,35.5C 290.333,32.8333 290.333,30.1667 291,27.5C 291.333,29.8333 291.667,32.1667 292,34.5C 292.671,35.2524 293.504,35.5858 294.5,35.5 Z"/></g>
<g><path style="opacity:1" fill="#1a1a47" d="M 294.5,35.5 C 295.228,32.9205 295.728,30.2538 296,27.5C 296.667,30.5 296.667,33.5 296,36.5C 295.617,35.944 295.117,35.6107 294.5,35.5 Z"/></g>
<g><path style="opacity:1" fill="#5c3029" d="M 303.5,28.5 C 302.292,29.2341 300.959,29.5674 299.5,29.5C 299.663,31.8568 299.497,34.1902 299,36.5C 298.333,33.5 298.333,30.5 299,27.5C 300.521,27.5186 302.021,27.852 303.5,28.5 Z"/></g>
<g><path style="opacity:1" fill="#5b291c" d="M 311.5,27.5 C 313.297,27.9349 315.297,27.9349 317.5,27.5C 317.665,30.5184 317.498,33.5184 317,36.5C 315.889,26.2075 314.223,26.2075 312,36.5C 311.502,33.5184 311.335,30.5184 311.5,27.5 Z"/></g>
<g><path style="opacity:1" fill="#554351" d="M 46.5,34.5 C 45.2072,32.6365 45.2072,30.6365 46.5,28.5C 48.5857,26.9766 50.2524,27.31 51.5,29.5C 50.1125,29.8072 48.4458,29.8072 46.5,29.5C 46.5,31.1667 46.5,32.8333 46.5,34.5 Z"/></g>
<g><path style="opacity:1" fill="#5e3b26" d="M 55.5,28.5 C 57.1284,27.1472 58.4617,27.4805 59.5,29.5C 59.7845,31.4147 59.4511,33.0813 58.5,34.5C 58.6602,32.8008 58.4935,31.1341 58,29.5C 57.3292,28.7476 56.4959,28.4142 55.5,28.5 Z"/></g>
<g><path style="opacity:1" fill="#4c3a56" d="M 81.5,28.5 C 80.3037,38.0475 79.1371,38.3808 78,29.5C 77.3333,28.1667 76.6667,28.1667 76,29.5C 75.6667,31.8333 75.3333,34.1667 75,36.5C 74.502,33.5184 74.3354,30.5184 74.5,27.5C 76.9029,27.448 79.2362,27.7814 81.5,28.5 Z"/></g>
<g><path style="opacity:1" fill="#1d1842" d="M 89.5,28.5 C 90.5417,27.2089 91.7083,27.2089 93,28.5C 93.6667,31.1667 93.6667,33.8333 93,36.5C 92.6667,34.1667 92.3333,31.8333 92,29.5C 91.3292,28.7476 90.4959,28.4142 89.5,28.5 Z"/></g>
<g><path style="opacity:1" fill="#463f65" d="M 271.5,27.5 C 273.665,27.1159 275.332,27.7826 276.5,29.5C 276.333,29.8333 276.167,30.1667 276,30.5C 273.469,27.6784 271.969,28.1784 271.5,32C 271.969,35.8216 273.469,36.3216 276,33.5C 276.617,34.4491 276.451,35.2825 275.5,36C 271.663,36.9997 269.663,35.4997 269.5,31.5C 269.803,29.8857 270.47,28.5523 271.5,27.5 Z"/></g>
<g><path style="opacity:1" fill="#504166" d="M 279.5,28.5 C 279.833,28.5 280.167,28.5 280.5,28.5C 279.167,30.8333 279.167,33.1667 280.5,35.5C 280.167,35.5 279.833,35.5 279.5,35.5C 278.007,34.6879 277.34,33.3545 277.5,31.5C 277.64,29.9704 278.307,28.9704 279.5,28.5 Z"/></g>
<g><path style="opacity:1" fill="#16141a" d="M 303.5,28.5 C 304.167,28.5 304.833,28.5 305.5,28.5C 304.195,39.0038 303.528,39.0038 303.5,28.5 Z"/></g>
<g><path style="opacity:1" fill="#554351" d="M 638.5,34.5 C 637.207,32.6365 637.207,30.6365 638.5,28.5C 640.586,26.9766 642.252,27.31 643.5,29.5C 642.113,29.8072 640.446,29.8072 638.5,29.5C 638.5,31.1667 638.5,32.8333 638.5,34.5 Z"/></g>
<g><path style="opacity:1" fill="#5e3b26" d="M 647.5,28.5 C 649.128,27.1472 650.462,27.4805 651.5,29.5C 651.784,31.4147 651.451,33.0813 650.5,34.5C 650.66,32.8008 650.494,31.1341 650,29.5C 649.329,28.7476 648.496,28.4142 647.5,28.5 Z"/></g>
<g><path style="opacity:1" fill="#4c3a56" d="M 673.5,28.5 C 672.304,38.0475 671.137,38.3808 670,29.5C 669.333,28.1667 668.667,28.1667 668,29.5C 667.667,31.8333 667.333,34.1667 667,36.5C 666.502,33.5184 666.335,30.5184 666.5,27.5C 668.903,27.448 671.236,27.7814 673.5,28.5 Z"/></g>
<g><path style="opacity:1" fill="#1d1842" d="M 681.5,28.5 C 682.542,27.2089 683.708,27.2089 685,28.5C 685.667,31.1667 685.667,33.8333 685,36.5C 684.667,34.1667 684.333,31.8333 684,29.5C 683.329,28.7476 682.496,28.4142 681.5,28.5 Z"/></g>
<g><path style="opacity:1" fill="#554351" d="M 934.5,34.5 C 933.207,32.6365 933.207,30.6365 934.5,28.5C 936.586,26.9766 938.252,27.31 939.5,29.5C 938.113,29.8072 936.446,29.8072 934.5,29.5C 934.5,31.1667 934.5,32.8333 934.5,34.5 Z"/></g>
<g><path style="opacity:1" fill="#5e3b26" d="M 943.5,28.5 C 945.128,27.1472 946.462,27.4805 947.5,29.5C 947.784,31.4147 947.451,33.0813 946.5,34.5C 946.66,32.8008 946.494,31.1341 946,29.5C 945.329,28.7476 944.496,28.4142 943.5,28.5 Z"/></g>
<g><path style="opacity:1" fill="#4c3a56" d="M 969.5,28.5 C 968.304,38.0475 967.137,38.3808 966,29.5C 965.333,28.1667 964.667,28.1667 964,29.5C 963.667,31.8333 963.333,34.1667 963,36.5C 962.502,33.5184 962.335,30.5184 962.5,27.5C 964.903,27.448 967.236,27.7814 969.5,28.5 Z"/></g>
<g><path style="opacity:1" fill="#1d1842" d="M 977.5,28.5 C 978.542,27.2089 979.708,27.2089 981,28.5C 981.667,31.1667 981.667,33.8333 981,36.5C 980.667,34.1667 980.333,31.8333 980,29.5C 979.329,28.7476 978.496,28.4142 977.5,28.5 Z"/></g>
<g><path style="opacity:1" fill="#554351" d="M 1087.5,34.5 C 1086.21,32.6365 1086.21,30.6365 1087.5,28.5C 1089.59,26.9766 1091.25,27.31 1092.5,29.5C 1091.11,29.8072 1089.45,29.8072 1087.5,29.5C 1087.5,31.1667 1087.5,32.8333 1087.5,34.5 Z"/></g>
<g><path style="opacity:1" fill="#5e3b26" d="M 1096.5,28.5 C 1098.13,27.1472 1099.46,27.4805 1100.5,29.5C 1100.78,31.4147 1100.45,33.0813 1099.5,34.5C 1099.66,32.8008 1099.49,31.1341 1099,29.5C 1098.33,28.7476 1097.5,28.4142 1096.5,28.5 Z"/></g>
<g><path style="opacity:1" fill="#4c3a56" d="M 1122.5,28.5 C 1121.3,38.0475 1120.14,38.3808 1119,29.5C 1118.33,28.1667 1117.67,28.1667 1117,29.5C 1116.67,31.8333 1116.33,34.1667 1116,36.5C 1115.5,33.5184 1115.34,30.5184 1115.5,27.5C 1117.9,27.448 1120.24,27.7814 1122.5,28.5 Z"/></g>
<g><path style="opacity:1" fill="#1d1842" d="M 1130.5,28.5 C 1131.54,27.2089 1132.71,27.2089 1134,28.5C 1134.67,31.1667 1134.67,33.8333 1134,36.5C 1133.67,34.1667 1133.33,31.8333 1133,29.5C 1132.33,28.7476 1131.5,28.4142 1130.5,28.5 Z"/></g>
<g><path style="opacity:1" fill="#e6f1f2" d="M 55.5,28.5 C 56.4959,28.4142 57.3292,28.7476 58,29.5C 58.4935,31.1341 58.6602,32.8008 58.5,34.5C 57.1667,34.5 55.8333,34.5 54.5,34.5C 54.3253,32.3792 54.6586,30.3792 55.5,28.5 Z"/></g>
<g><path style="opacity:1" fill="#2e5e9a" d="M 81.5,28.5 C 82.5417,27.2089 83.7083,27.2089 85,28.5C 85.6667,31.1667 85.6667,33.8333 85,36.5C 84.6667,34.1667 84.3333,31.8333 84,29.5C 83.3292,28.7476 82.4959,28.4142 81.5,28.5 Z"/></g>
<g><path style="opacity:1" fill="#f3f1e6" d="M 280.5,28.5 C 284.5,30.8333 284.5,33.1667 280.5,35.5C 279.167,33.1667 279.167,30.8333 280.5,28.5 Z"/></g>
<g><path style="opacity:1" fill="#241b47" d="M 305.5,28.5 C 306.542,27.2089 307.708,27.2089 309,28.5C 309.667,31.1667 309.667,33.8333 309,36.5C 308.667,34.1667 308.333,31.8333 308,29.5C 307.329,28.7476 306.496,28.4142 305.5,28.5 Z"/></g>
<g><path style="opacity:1" fill="#e6f1f2" d="M 647.5,28.5 C 648.496,28.4142 649.329,28.7476 650,29.5C 650.494,31.1341 650.66,32.8008 650.5,34.5C 649.167,34.5 647.833,34.5 646.5,34.5C 646.325,32.3792 646.659,30.3792 647.5,28.5 Z"/></g>
<g><path style="opacity:1" fill="#2e5e9a" d="M 673.5,28.5 C 674.542,27.2089 675.708,27.2089 677,28.5C 677.667,31.1667 677.667,33.8333 677,36.5C 676.667,34.1667 676.333,31.8333 676,29.5C 675.329,28.7476 674.496,28.4142 673.5,28.5 Z"/></g>
<g><path style="opacity:1" fill="#3d344e" d="M 694.5,25.5 C 694.5,25.1667 694.5,24.8333 694.5,24.5C 696.948,24.0847 698.281,25.0847 698.5,27.5C 698.204,30.0262 698.037,32.6929 698,35.5C 694.359,37.3665 692.692,36.3665 693,32.5C 694.373,36.1322 695.873,36.2988 697.5,33C 697.18,31.3468 696.18,30.3468 694.5,30C 697.133,28.3111 697.133,26.8111 694.5,25.5 Z"/></g>
<g><path style="opacity:1" fill="#e6f1f2" d="M 943.5,28.5 C 944.496,28.4142 945.329,28.7476 946,29.5C 946.494,31.1341 946.66,32.8008 946.5,34.5C 945.167,34.5 943.833,34.5 942.5,34.5C 942.325,32.3792 942.659,30.3792 943.5,28.5 Z"/></g>
<g><path style="opacity:1" fill="#2e5e9a" d="M 969.5,28.5 C 970.542,27.2089 971.708,27.2089 973,28.5C 973.667,31.1667 973.667,33.8333 973,36.5C 972.667,34.1667 972.333,31.8333 972,29.5C 971.329,28.7476 970.496,28.4142 969.5,28.5 Z"/></g>
<g><path style="opacity:1" fill="#404076" d="M 990.5,28.5 C 990.573,30.0269 989.906,31.0269 988.5,31.5C 988.427,29.9731 989.094,28.9731 990.5,28.5 Z"/></g>
<g><path style="opacity:1" fill="#d8c4b7" d="M 988.5,31.5 C 989.906,31.0269 990.573,30.0269 990.5,28.5C 991.117,28.3893 991.617,28.056 992,27.5C 992.494,29.1341 992.66,30.8008 992.5,32.5C 990.901,32.7678 989.568,32.4345 988.5,31.5 Z"/></g>
<g><path style="opacity:1" fill="#e6f1f2" d="M 1096.5,28.5 C 1097.5,28.4142 1098.33,28.7476 1099,29.5C 1099.49,31.1341 1099.66,32.8008 1099.5,34.5C 1098.17,34.5 1096.83,34.5 1095.5,34.5C 1095.33,32.3792 1095.66,30.3792 1096.5,28.5 Z"/></g>
<g><path style="opacity:1" fill="#2e5e9a" d="M 1122.5,28.5 C 1123.54,27.2089 1124.71,27.2089 1126,28.5C 1126.67,31.1667 1126.67,33.8333 1126,36.5C 1125.67,34.1667 1125.33,31.8333 1125,29.5C 1124.33,28.7476 1123.5,28.4142 1122.5,28.5 Z"/></g>
<g><path style="opacity:1" fill="#19316f" d="M 89.5,28.5 C 88.7724,31.0795 88.2724,33.7462 88,36.5C 87.3333,33.5 87.3333,30.5 88,27.5C 88.3826,28.056 88.8826,28.3893 89.5,28.5 Z"/></g>
<g><path style="opacity:1" fill="#19316f" d="M 681.5,28.5 C 680.772,31.0795 680.272,33.7462 680,36.5C 679.333,33.5 679.333,30.5 680,27.5C 680.383,28.056 680.883,28.3893 681.5,28.5 Z"/></g>
<g><path style="opacity:1" fill="#19316f" d="M 977.5,28.5 C 976.772,31.0795 976.272,33.7462 976,36.5C 975.333,33.5 975.333,30.5 976,27.5C 976.383,28.056 976.883,28.3893 977.5,28.5 Z"/></g>
<g><path style="opacity:1" fill="#19316f" d="M 1130.5,28.5 C 1129.77,31.0795 1129.27,33.7462 1129,36.5C 1128.33,33.5 1128.33,30.5 1129,27.5C 1129.38,28.056 1129.88,28.3893 1130.5,28.5 Z"/></g>
<g><path style="opacity:1" fill="#1f2240" d="M 988.5,31.5 C 989.568,32.4345 990.901,32.7678 992.5,32.5C 992.66,30.8008 992.494,29.1341 992,27.5C 991.617,28.056 991.117,28.3893 990.5,28.5C 990.685,26.8042 991.519,25.4709 993,24.5C 993.218,27.4262 993.718,30.2595 994.5,33C 993.809,34.0674 993.309,35.2341 993,36.5C 992.517,35.552 992.351,34.552 992.5,33.5C 990.712,33.7852 989.045,33.4519 987.5,32.5C 987.624,31.8933 987.957,31.56 988.5,31.5 Z"/></g>
<g><path style="opacity:1" fill="#5a4d5d" d="M 46.5,34.5 C 48.5753,34.3016 50.5753,34.1349 52.5,34C 50.5194,36.967 48.5194,37.1336 46.5,34.5 Z"/></g>
<g><path style="opacity:1" fill="#55495e" d="M 55.5,28.5 C 54.6586,30.3792 54.3253,32.3792 54.5,34.5C 55.8333,34.5 57.1667,34.5 58.5,34.5C 59.4511,33.0813 59.7845,31.4147 59.5,29.5C 61.5365,34.9198 59.5365,37.2531 53.5,36.5C 52.9644,33.3019 53.631,30.6353 55.5,28.5 Z"/></g>
<g><path style="opacity:1" fill="#738194" d="M 329.5,30.5 C 328.71,31.7942 327.71,32.9609 326.5,34C 328.382,34.1981 330.048,34.6981 331.5,35.5C 328.918,35.9746 326.918,35.3079 325.5,33.5C 326.262,31.7376 327.596,30.7376 329.5,30.5 Z"/></g>
<g><path style="opacity:1" fill="#5a4d5d" d="M 638.5,34.5 C 640.575,34.3016 642.575,34.1349 644.5,34C 642.519,36.967 640.519,37.1336 638.5,34.5 Z"/></g>
<g><path style="opacity:1" fill="#55495e" d="M 647.5,28.5 C 646.659,30.3792 646.325,32.3792 646.5,34.5C 647.833,34.5 649.167,34.5 650.5,34.5C 651.451,33.0813 651.784,31.4147 651.5,29.5C 653.537,34.9198 651.537,37.2531 645.5,36.5C 644.964,33.3019 645.631,30.6353 647.5,28.5 Z"/></g>
<g><path style="opacity:1" fill="#5a4d5d" d="M 934.5,34.5 C 936.575,34.3016 938.575,34.1349 940.5,34C 938.519,36.967 936.519,37.1336 934.5,34.5 Z"/></g>
<g><path style="opacity:1" fill="#55495e" d="M 943.5,28.5 C 942.659,30.3792 942.325,32.3792 942.5,34.5C 943.833,34.5 945.167,34.5 946.5,34.5C 947.451,33.0813 947.784,31.4147 947.5,29.5C 949.537,34.9198 947.537,37.2531 941.5,36.5C 940.964,33.3019 941.631,30.6353 943.5,28.5 Z"/></g>
<g><path style="opacity:1" fill="#5a4d5d" d="M 1087.5,34.5 C 1089.58,34.3016 1091.58,34.1349 1093.5,34C 1091.52,36.967 1089.52,37.1336 1087.5,34.5 Z"/></g>
<g><path style="opacity:1" fill="#55495e" d="M 1096.5,28.5 C 1095.66,30.3792 1095.33,32.3792 1095.5,34.5C 1096.83,34.5 1098.17,34.5 1099.5,34.5C 1100.45,33.0813 1100.78,31.4147 1100.5,29.5C 1102.54,34.9198 1100.54,37.2531 1094.5,36.5C 1093.96,33.3019 1094.63,30.6353 1096.5,28.5 Z"/></g>
<g><path style="opacity:1" fill="#57353e" d="M 65.5,27.5 C 66.3138,29.631 66.8138,31.9644 67,34.5C 68,35.8333 69,35.8333 70,34.5C 70.1858,32.0995 70.6858,29.7662 71.5,27.5C 72.4841,30.4281 72.8174,33.4281 72.5,36.5C 70.2075,36.7564 68.0408,36.4231 66,35.5C 65.5026,32.854 65.3359,30.1873 65.5,27.5 Z"/></g>
<g><path style="opacity:1" fill="#191826" d="M 325.5,33.5 C 326.918,35.3079 328.918,35.9746 331.5,35.5C 329.393,36.4682 327.059,36.8016 324.5,36.5C 324.263,35.209 324.596,34.209 325.5,33.5 Z"/></g>
<g><path style="opacity:1" fill="#57353e" d="M 657.5,27.5 C 658.314,29.631 658.814,31.9644 659,34.5C 660,35.8333 661,35.8333 662,34.5C 662.186,32.0995 662.686,29.7662 663.5,27.5C 664.484,30.4281 664.817,33.4281 664.5,36.5C 662.208,36.7564 660.041,36.4231 658,35.5C 657.503,32.854 657.336,30.1873 657.5,27.5 Z"/></g>
<g><path style="opacity:1" fill="#57353e" d="M 953.5,27.5 C 954.314,29.631 954.814,31.9644 955,34.5C 956,35.8333 957,35.8333 958,34.5C 958.186,32.0995 958.686,29.7662 959.5,27.5C 960.484,30.4281 960.817,33.4281 960.5,36.5C 958.208,36.7564 956.041,36.4231 954,35.5C 953.503,32.854 953.336,30.1873 953.5,27.5 Z"/></g>
<g><path style="opacity:1" fill="#57353e" d="M 1106.5,27.5 C 1107.31,29.631 1107.81,31.9644 1108,34.5C 1109,35.8333 1110,35.8333 1111,34.5C 1111.19,32.0995 1111.69,29.7662 1112.5,27.5C 1113.48,30.4281 1113.82,33.4281 1113.5,36.5C 1111.21,36.7564 1109.04,36.4231 1107,35.5C 1106.5,32.854 1106.34,30.1873 1106.5,27.5 Z"/></g>
<g><path style="opacity:1" fill="#433545" d="M 1141.5,24.5 C 1143.53,24.3379 1145.53,24.5045 1147.5,25C 1145.87,25.4935 1144.2,25.6602 1142.5,25.5C 1142.5,26.5 1142.5,27.5 1142.5,28.5C 1147.21,28.4676 1148.71,30.8009 1147,35.5C 1145.27,36.5762 1143.44,36.7429 1141.5,36C 1140.76,32.8012 1141.6,32.6345 1144,35.5C 1146.44,34.1384 1146.94,32.305 1145.5,30C 1144.45,29.5078 1143.45,29.6744 1142.5,30.5C 1141.53,28.604 1141.2,26.604 1141.5,24.5 Z"/></g>
<g><path style="opacity:1" fill="#ffe72c" d="M 409.5,75.5 C 410.833,75.5 412.167,75.5 413.5,75.5C 413.5,79.5 413.5,83.5 413.5,87.5C 412.167,87.5 410.833,87.5 409.5,87.5C 409.5,83.5 409.5,79.5 409.5,75.5 Z"/></g>
<g><path style="opacity:1" fill="#e1e1e1" d="M 6.5,105.5 C 52.8345,105.333 99.1679,105.5 145.5,106C 146,106.5 146.5,107 147,107.5C 147.667,122.833 147.667,138.167 147,153.5C 146.5,154 146,154.5 145.5,155C 99.1667,155.667 52.8333,155.667 6.5,155C 6,154.5 5.5,154 5,153.5C 4.33333,138.167 4.33333,122.833 5,107.5C 5.71719,106.956 6.21719,106.289 6.5,105.5 Z"/></g>
<g><path style="opacity:1" fill="#e1e1e1" d="M 159.5,105.5 C 253.501,105.333 347.501,105.5 441.5,106C 442,106.5 442.5,107 443,107.5C 443.667,122.833 443.667,138.167 443,153.5C 442.5,154 442,154.5 441.5,155C 347.5,155.667 253.5,155.667 159.5,155C 159,154.5 158.5,154 158,153.5C 157.333,138.167 157.333,122.833 158,107.5C 158.717,106.956 159.217,106.289 159.5,105.5 Z"/></g>
<g><path style="opacity:1" fill="#e1e1e1" d="M 455.5,105.5 C 597.167,105.333 738.834,105.5 880.5,106C 881,106.5 881.5,107 882,107.5C 882.667,122.833 882.667,138.167 882,153.5C 881.5,154 881,154.5 880.5,155C 738.833,155.667 597.167,155.667 455.5,155C 455,154.5 454.5,154 454,153.5C 453.333,138.167 453.333,122.833 454,107.5C 454.717,106.956 455.217,106.289 455.5,105.5 Z"/></g>
<g><path style="opacity:1" fill="#e1e1e1" d="M 894.5,105.5 C 940.835,105.333 987.168,105.5 1033.5,106C 1034,106.5 1034.5,107 1035,107.5C 1035.67,122.833 1035.67,138.167 1035,153.5C 1034.5,154 1034,154.5 1033.5,155C 987.167,155.667 940.833,155.667 894.5,155C 894,154.5 893.5,154 893,153.5C 892.333,138.167 892.333,122.833 893,107.5C 893.717,106.956 894.217,106.289 894.5,105.5 Z"/></g>
<g><path style="opacity:1" fill="#e1e1e1" d="M 1047.5,105.5 C 1093.83,105.333 1140.17,105.5 1186.5,106C 1187,106.5 1187.5,107 1188,107.5C 1188.67,122.833 1188.67,138.167 1188,153.5C 1187.5,154 1187,154.5 1186.5,155C 1140.17,155.667 1093.83,155.667 1047.5,155C 1047,154.5 1046.5,154 1046,153.5C 1045.33,138.167 1045.33,122.833 1046,107.5C 1046.72,106.956 1047.22,106.289 1047.5,105.5 Z"/></g>
<g><path style="opacity:1" fill="#e1e1e1" d="M 6.5,205.5 C 52.8345,205.333 99.1679,205.5 145.5,206C 146,206.5 146.5,207 147,207.5C 147.667,222.833 147.667,238.167 147,253.5C 146.5,254 146,254.5 145.5,255C 99.1667,255.667 52.8333,255.667 6.5,255C 6,254.5 5.5,254 5,253.5C 4.33333,238.167 4.33333,222.833 5,207.5C 5.71719,206.956 6.21719,206.289 6.5,205.5 Z"/></g>
<g><path style="opacity:1" fill="#e1e1e1" d="M 159.5,205.5 C 253.501,205.333 347.501,205.5 441.5,206C 442,206.5 442.5,207 443,207.5C 443.667,222.833 443.667,238.167 443,253.5C 442.5,254 442,254.5 441.5,255C 347.5,255.667 253.5,255.667 159.5,255C 159,254.5 158.5,254 158,253.5C 157.333,238.167 157.333,222.833 158,207.5C 158.717,206.956 159.217,206.289 159.5,205.5 Z"/></g>
<g><path style="opacity:1" fill="#e1e1e1" d="M 455.5,205.5 C 597.167,205.333 738.834,205.5 880.5,206C 881,206.5 881.5,207 882,207.5C 882.667,222.833 882.667,238.167 882,253.5C 881.5,254 881,254.5 880.5,255C 738.833,255.667 597.167,255.667 455.5,255C 455,254.5 454.5,254 454,253.5C 453.333,238.167 453.333,222.833 454,207.5C 454.717,206.956 455.217,206.289 455.5,205.5 Z"/></g>
<g><path style="opacity:1" fill="#e1e1e1" d="M 894.5,205.5 C 940.835,205.333 987.168,205.5 1033.5,206C 1034,206.5 1034.5,207 1035,207.5C 1035.67,222.833 1035.67,238.167 1035,253.5C 1034.5,254 1034,254.5 1033.5,255C 987.167,255.667 940.833,255.667 894.5,255C 894,254.5 893.5,254 893,253.5C 892.333,238.167 892.333,222.833 893,207.5C 893.717,206.956 894.217,206.289 894.5,205.5 Z"/></g>
<g><path style="opacity:1" fill="#e1e1e1" d="M 1047.5,205.5 C 1093.83,205.333 1140.17,205.5 1186.5,206C 1187,206.5 1187.5,207 1188,207.5C 1188.67,222.833 1188.67,238.167 1188,253.5C 1187.5,254 1187,254.5 1186.5,255C 1140.17,255.667 1093.83,255.667 1047.5,255C 1047,254.5 1046.5,254 1046,253.5C 1045.33,238.167 1045.33,222.833 1046,207.5C 1046.72,206.956 1047.22,206.289 1047.5,205.5 Z"/></g>
<g><path style="opacity:1" fill="#e1e1e1" d="M 6.5,305.5 C 52.8345,305.333 99.1679,305.5 145.5,306C 146,306.5 146.5,307 147,307.5C 147.667,322.833 147.667,338.167 147,353.5C 146.5,354 146,354.5 145.5,355C 99.1667,355.667 52.8333,355.667 6.5,355C 6,354.5 5.5,354 5,353.5C 4.33333,338.167 4.33333,322.833 5,307.5C 5.71719,306.956 6.21719,306.289 6.5,305.5 Z"/></g>
<g><path style="opacity:1" fill="#e1e1e1" d="M 159.5,305.5 C 253.501,305.333 347.501,305.5 441.5,306C 442,306.5 442.5,307 443,307.5C 443.667,322.833 443.667,338.167 443,353.5C 442.5,354 442,354.5 441.5,355C 347.5,355.667 253.5,355.667 159.5,355C 159,354.5 158.5,354 158,353.5C 157.333,338.167 157.333,322.833 158,307.5C 158.717,306.956 159.217,306.289 159.5,305.5 Z"/></g>
<g><path style="opacity:1" fill="#e1e1e1" d="M 455.5,305.5 C 597.167,305.333 738.834,305.5 880.5,306C 881,306.5 881.5,307 882,307.5C 882.667,322.833 882.667,338.167 882,353.5C 881.5,354 881,354.5 880.5,355C 738.833,355.667 597.167,355.667 455.5,355C 455,354.5 454.5,354 454,353.5C 453.333,338.167 453.333,322.833 454,307.5C 454.717,306.956 455.217,306.289 455.5,305.5 Z"/></g>
<g><path style="opacity:1" fill="#e1e1e1" d="M 894.5,305.5 C 940.835,305.333 987.168,305.5 1033.5,306C 1034,306.5 1034.5,307 1035,307.5C 1035.67,322.833 1035.67,338.167 1035,353.5C 1034.5,354 1034,354.5 1033.5,355C 987.167,355.667 940.833,355.667 894.5,355C 894,354.5 893.5,354 893,353.5C 892.333,338.167 892.333,322.833 893,307.5C 893.717,306.956 894.217,306.289 894.5,305.5 Z"/></g>
<g><path style="opacity:1" fill="#e1e1e1" d="M 1047.5,305.5 C 1093.83,305.333 1140.17,305.5 1186.5,306C 1187,306.5 1187.5,307 1188,307.5C 1188.67,322.833 1188.67,338.167 1188,353.5C 1187.5,354 1187,354.5 1186.5,355C 1140.17,355.667 1093.83,355.667 1047.5,355C 1047,354.5 1046.5,354 1046,353.5C 1045.33,338.167 1045.33,322.833 1046,307.5C 1046.72,306.956 1047.22,306.289 1047.5,305.5 Z"/></g>
<g><path style="opacity:1" fill="#e1e1e1" d="M 6.5,405.5 C 52.8345,405.333 99.1679,405.5 145.5,406C 146,406.5 146.5,407 147,407.5C 147.667,422.833 147.667,438.167 147,453.5C 146.5,454 146,454.5 145.5,455C 99.1667,455.667 52.8333,455.667 6.5,455C 6,454.5 5.5,454 5,453.5C 4.33333,438.167 4.33333,422.833 5,407.5C 5.71719,406.956 6.21719,406.289 6.5,405.5 Z"/></g>
<g><path style="opacity:1" fill="#e1e1e1" d="M 159.5,405.5 C 253.501,405.333 347.501,405.5 441.5,406C 442,406.5 442.5,407 443,407.5C 443.667,422.833 443.667,438.167 443,453.5C 442.5,454 442,454.5 441.5,455C 347.5,455.667 253.5,455.667 159.5,455C 159,454.5 158.5,454 158,453.5C 157.333,438.167 157.333,422.833 158,407.5C 158.717,406.956 159.217,406.289 159.5,405.5 Z"/></g>
<g><path style="opacity:1" fill="#e1e1e1" d="M 455.5,405.5 C 597.167,405.333 738.834,405.5 880.5,406C 881,406.5 881.5,407 882,407.5C 882.667,422.833 882.667,438.167 882,453.5C 881.5,454 881,454.5 880.5,455C 738.833,455.667 597.167,455.667 455.5,455C 455,454.5 454.5,454 454,453.5C 453.333,438.167 453.333,422.833 454,407.5C 454.717,406.956 455.217,406.289 455.5,405.5 Z"/></g>
<g><path style="opacity:1" fill="#e1e1e1" d="M 894.5,405.5 C 940.835,405.333 987.168,405.5 1033.5,406C 1034,406.5 1034.5,407 1035,407.5C 1035.67,422.833 1035.67,438.167 1035,453.5C 1034.5,454 1034,454.5 1033.5,455C 987.167,455.667 940.833,455.667 894.5,455C 894,454.5 893.5,454 893,453.5C 892.333,438.167 892.333,422.833 893,407.5C 893.717,406.956 894.217,406.289 894.5,405.5 Z"/></g>
<g><path style="opacity:1" fill="#e1e1e1" d="M 1047.5,405.5 C 1093.83,405.333 1140.17,405.5 1186.5,406C 1187,406.5 1187.5,407 1188,407.5C 1188.67,422.833 1188.67,438.167 1188,453.5C 1187.5,454 1187,454.5 1186.5,455C 1140.17,455.667 1093.83,455.667 1047.5,455C 1047,454.5 1046.5,454 1046,453.5C 1045.33,438.167 1045.33,422.833 1046,407.5C 1046.72,406.956 1047.22,406.289 1047.5,405.5 Z"/></g>
<g><path style="opacity:1" fill="#e1e1e1" d="M 6.5,505.5 C 52.8345,505.333 99.1679,505.5 145.5,506C 146,506.5 146.5,507 147,507.5C 147.667,522.833 147.667,538.167 147,553.5C 146.5,554 146,554.5 145.5,555C 99.1667,555.667 52.8333,555.667 6.5,555C 6,554.5 5.5,554 5,553.5C 4.33333,538.167 4.33333,522.833 5,507.5C 5.71719,506.956 6.21719,506.289 6.5,505.5 Z"/></g>
<g><path style="opacity:1" fill="#e1e1e1" d="M 159.5,505.5 C 253.501,505.333 347.501,505.5 441.5,506C 442,506.5 442.5,507 443,507.5C 443.667,522.833 443.667,538.167 443,553.5C 442.5,554 442,554.5 441.5,555C 347.5,555.667 253.5,555.667 159.5,555C 159,554.5 158.5,554 158,553.5C 157.333,538.167 157.333,522.833 158,507.5C 158.717,506.956 159.217,506.289 159.5,505.5 Z"/></g>
<g><path style="opacity:1" fill="#e1e1e1" d="M 455.5,505.5 C 597.167,505.333 738.834,505.5 880.5,506C 881,506.5 881.5,507 882,507.5C 882.667,522.833 882.667,538.167 882,553.5C 881.5,554 881,554.5 880.5,555C 738.833,555.667 597.167,555.667 455.5,555C 455,554.5 454.5,554 454,553.5C 453.333,538.167 453.333,522.833 454,507.5C 454.717,506.956 455.217,506.289 455.5,505.5 Z"/></g>
<g><path style="opacity:1" fill="#e1e1e1" d="M 894.5,505.5 C 940.835,505.333 987.168,505.5 1033.5,506C 1034,506.5 1034.5,507 1035,507.5C 1035.67,522.833 1035.67,538.167 1035,553.5C 1034.5,554 1034,554.5 1033.5,555C 987.167,555.667 940.833,555.667 894.5,555C 894,554.5 893.5,554 893,553.5C 892.333,538.167 892.333,522.833 893,507.5C 893.717,506.956 894.217,506.289 894.5,505.5 Z"/></g>
<g><path style="opacity:1" fill="#e1e1e1" d="M 1047.5,505.5 C 1093.83,505.333 1140.17,505.5 1186.5,506C 1187,506.5 1187.5,507 1188,507.5C 1188.67,522.833 1188.67,538.167 1188,553.5C 1187.5,554 1187,554.5 1186.5,555C 1140.17,555.667 1093.83,555.667 1047.5,555C 1047,554.5 1046.5,554 1046,553.5C 1045.33,538.167 1045.33,522.833 1046,507.5C 1046.72,506.956 1047.22,506.289 1047.5,505.5 Z"/></g>
</svg>
