<?xml version="1.0" encoding="UTF-8"?>
<!DOCTYPE svg PUBLIC "-//W3C//DTD SVG 1.1//EN" "http://www.w3.org/Graphics/SVG/1.1/DTD/svg11.dtd">
<svg xmlns="http://www.w3.org/2000/svg" version="1.1" width="572px" height="572px" style="shape-rendering:geometricPrecision; text-rendering:geometricPrecision; image-rendering:optimizeQuality; fill-rule:evenodd; clip-rule:evenodd" xmlns:xlink="http://www.w3.org/1999/xlink">
<g><path style="opacity:0.96" fill="#ab80dc" d="M 19.5,-0.5 C 22.1667,-0.5 24.8333,-0.5 27.5,-0.5C 29.2696,1.11327 30.4363,3.11327 31,5.5C 31.5,163.5 31.6667,321.5 31.5,479.5C 189.5,479.333 347.5,479.5 505.5,480C 507.887,480.564 509.887,481.73 511.5,483.5C 511.5,486.167 511.5,488.833 511.5,491.5C 510.684,493.144 509.35,494.31 507.5,495C 493.504,495.5 479.504,495.667 465.5,495.5C 465.666,499.514 465.499,503.514 465,507.5C 463.968,509.027 462.801,510.36 461.5,511.5C 458.833,511.5 456.167,511.5 453.5,511.5C 449.849,506.889 448.516,501.556 449.5,495.5C 433.167,495.5 416.833,495.5 400.5,495.5C 400.666,499.514 400.499,503.514 400,507.5C 399.31,509.35 398.144,510.684 396.5,511.5C 393.833,511.5 391.167,511.5 388.5,511.5C 384.951,506.848 383.618,501.515 384.5,495.5C 368.5,495.5 352.5,495.5 336.5,495.5C 337.484,501.556 336.151,506.889 332.5,511.5C 329.833,511.5 327.167,511.5 324.5,511.5C 322.856,510.684 321.69,509.35 321,507.5C 320.501,503.514 320.334,499.514 320.5,495.5C 304.167,495.5 287.833,495.5 271.5,495.5C 271.666,499.514 271.499,503.514 271,507.5C 269.968,509.027 268.801,510.36 267.5,511.5C 264.833,511.5 262.167,511.5 259.5,511.5C 255.849,506.889 254.516,501.556 255.5,495.5C 239.167,495.5 222.833,495.5 206.5,495.5C 206.666,499.514 206.499,503.514 206,507.5C 205.31,509.35 204.144,510.684 202.5,511.5C 199.833,511.5 197.167,511.5 194.5,511.5C 191.075,506.815 189.742,501.482 190.5,495.5C 174.5,495.5 158.5,495.5 142.5,495.5C 143.484,501.556 142.151,506.889 138.5,511.5C 135.833,511.5 133.167,511.5 130.5,511.5C 128.856,510.684 127.69,509.35 127,507.5C 126.501,503.514 126.334,499.514 126.5,495.5C 110.167,495.5 93.8333,495.5 77.5,495.5C 77.6655,499.514 77.4988,503.514 77,507.5C 76.3103,509.35 75.1436,510.684 73.5,511.5C 70.8333,511.5 68.1667,511.5 65.5,511.5C 61.8489,506.889 60.5155,501.556 61.5,495.5C 46.7363,495.967 32.0696,495.467 17.5,494C 16.8742,493.25 16.3742,492.416 16,491.5C 15.5001,477.504 15.3334,463.504 15.5,449.5C 9.4439,450.484 4.11056,449.151 -0.5,445.5C -0.5,442.833 -0.5,440.167 -0.5,437.5C 0.316435,435.856 1.64977,434.69 3.5,434C 7.48617,433.501 11.4862,433.334 15.5,433.5C 15.5,417.167 15.5,400.833 15.5,384.5C 11.4862,384.666 7.48617,384.499 3.5,384C 1.64977,383.31 0.316435,382.144 -0.5,380.5C -0.5,377.833 -0.5,375.167 -0.5,372.5C 4.11056,368.849 9.4439,367.516 15.5,368.5C 15.5,352.5 15.5,336.5 15.5,320.5C 9.51843,321.258 4.1851,319.925 -0.5,316.5C -0.5,313.5 -0.5,310.5 -0.5,307.5C 0.682751,306.496 2.01608,305.662 3.5,305C 7.48617,304.501 11.4862,304.334 15.5,304.5C 15.5,288.167 15.5,271.833 15.5,255.5C 9.4439,256.484 4.11056,255.151 -0.5,251.5C -0.5,248.833 -0.5,246.167 -0.5,243.5C 0.639972,242.199 1.97331,241.032 3.5,240C 7.48617,239.501 11.4862,239.334 15.5,239.5C 15.5,223.167 15.5,206.833 15.5,190.5C 11.4862,190.666 7.48617,190.499 3.5,190C 1.64977,189.31 0.316435,188.144 -0.5,186.5C -0.5,183.833 -0.5,181.167 -0.5,178.5C 4.11056,174.849 9.4439,173.516 15.5,174.5C 15.5,158.5 15.5,142.5 15.5,126.5C 9.48546,127.382 4.15213,126.049 -0.5,122.5C -0.5,119.833 -0.5,117.167 -0.5,114.5C 0.316435,112.856 1.64977,111.69 3.5,111C 7.48617,110.501 11.4862,110.334 15.5,110.5C 15.5,94.1667 15.5,77.8333 15.5,61.5C 9.4439,62.4845 4.11056,61.1511 -0.5,57.5C -0.5,54.8333 -0.5,52.1667 -0.5,49.5C 0.639972,48.1986 1.97331,47.0319 3.5,46C 7.48617,45.5012 11.4862,45.3345 15.5,45.5C 15.3334,31.496 15.5001,17.496 16,3.5C 16.6897,1.64977 17.8564,0.316435 19.5,-0.5 Z"/></g>
<g><path style="opacity:0.978" fill="#b2e49f" d="M 490.5,26.5 C 492.444,50.8936 481.444,61.5603 457.5,58.5C 451.972,41.0586 457.972,29.5586 475.5,24C 480.905,23.1291 485.905,23.9625 490.5,26.5 Z"/></g>
<g><path style="opacity:1" fill="#96d6a3" d="M 490.5,26.5 C 502.892,33.3098 507.059,43.6431 503,57.5C 495.342,71.9975 483.842,76.3308 468.5,70.5C 463.833,67.8333 460.167,64.1667 457.5,59.5C 457.5,59.1667 457.5,58.8333 457.5,58.5C 481.444,61.5603 492.444,50.8936 490.5,26.5 Z"/></g>
<g><path style="opacity:0.96" fill="#78c1a4" d="M 457.5,59.5 C 460.167,64.1667 463.833,67.8333 468.5,70.5C 436.5,103.167 404.167,135.5 371.5,167.5C 368.833,162.833 365.167,159.167 360.5,156.5C 392.5,123.833 424.833,91.5 457.5,59.5 Z"/></g>
<g><path style="opacity:0.979" fill="#b2e49e" d="M 295.5,92.5 C 299.581,109.174 293.581,120.341 277.5,126C 272.647,126.882 267.981,126.382 263.5,124.5C 258.88,112.186 261.88,102.019 272.5,94C 279.97,90.0159 287.637,89.5159 295.5,92.5 Z"/></g>
<g><path style="opacity:1" fill="#95d6a3" d="M 295.5,92.5 C 309.238,100.027 313.572,111.361 308.5,126.5C 305.167,130.5 301.5,134.167 297.5,137.5C 289.833,140.167 282.167,140.167 274.5,137.5C 270.5,134.167 266.833,130.5 263.5,126.5C 263.5,125.833 263.5,125.167 263.5,124.5C 267.981,126.382 272.647,126.882 277.5,126C 293.581,120.341 299.581,109.174 295.5,92.5 Z"/></g>
<g><path style="opacity:0.97" fill="#78c1a3" d="M 263.5,126.5 C 266.833,130.5 270.5,134.167 274.5,137.5C 233.368,179.132 192.035,220.632 150.5,262C 147.167,264 143.833,264 140.5,262C 130.631,252.298 120.964,242.465 111.5,232.5C 115.5,229.167 119.167,225.5 122.5,221.5C 129.965,228.464 137.298,235.631 144.5,243C 145.167,243.667 145.833,243.667 146.5,243C 185.368,203.965 224.368,165.132 263.5,126.5 Z"/></g>
<g><path style="opacity:0.961" fill="#78c2a3" d="M 308.5,126.5 C 318.833,136.167 328.833,146.167 338.5,156.5C 336.684,158.137 334.684,159.637 332.5,161C 330.97,163.352 329.303,165.519 327.5,167.5C 317.167,157.833 307.167,147.833 297.5,137.5C 301.5,134.167 305.167,130.5 308.5,126.5 Z"/></g>
<g><path style="opacity:0.985" fill="#b2e49f" d="M 359.5,156.5 C 362.678,180.985 351.678,191.651 326.5,188.5C 323.608,181.317 323.942,174.317 327.5,167.5C 329.303,165.519 330.97,163.352 332.5,161C 334.684,159.637 336.684,158.137 338.5,156.5C 345.602,153.867 352.602,153.867 359.5,156.5 Z"/></g>
<g><path style="opacity:1" fill="#96d6a3" d="M 359.5,156.5 C 359.833,156.5 360.167,156.5 360.5,156.5C 365.167,159.167 368.833,162.833 371.5,167.5C 377.331,182.842 372.998,194.342 358.5,202C 344.132,205.977 333.466,201.477 326.5,188.5C 351.678,191.651 362.678,180.985 359.5,156.5 Z"/></g>
<g><path style="opacity:0.987" fill="#e490d0" d="M 489.5,169.5 C 492.49,193.844 481.823,204.51 457.5,201.5C 451.969,185.721 456.969,174.555 472.5,168C 477.167,167.333 481.833,167.333 486.5,168C 487.737,168.232 488.737,168.732 489.5,169.5 Z"/></g>
<g><path style="opacity:1" fill="#df74c1" d="M 489.5,169.5 C 499.377,173.576 504.377,181.076 504.5,192C 502.972,206.861 494.805,215.028 480,216.5C 476.053,216.387 472.219,215.72 468.5,214.5C 464.5,211.167 460.833,207.5 457.5,203.5C 457.5,202.833 457.5,202.167 457.5,201.5C 481.823,204.51 492.49,193.844 489.5,169.5 Z"/></g>
<g><path style="opacity:0.98" fill="#b2e49e" d="M 109.5,187.5 C 113.612,203.109 108.278,213.943 93.5,220C 88.1294,220.676 82.7961,220.509 77.5,219.5C 72.4402,203.451 77.7736,192.284 93.5,186C 99.1055,185.077 104.439,185.577 109.5,187.5 Z"/></g>
<g><path style="opacity:1" fill="#96d6a3" d="M 109.5,187.5 C 119.625,191.658 124.625,199.324 124.5,210.5C 124.545,214.319 123.878,217.986 122.5,221.5C 119.167,225.5 115.5,229.167 111.5,232.5C 103.833,235.167 96.1667,235.167 88.5,232.5C 84.5,229.167 80.8333,225.5 77.5,221.5C 77.5,220.833 77.5,220.167 77.5,219.5C 82.7961,220.509 88.1294,220.676 93.5,220C 108.278,213.943 113.612,203.109 109.5,187.5 Z"/></g>
<g><path style="opacity:0.946" fill="#dd4fb0" d="M 457.5,203.5 C 460.833,207.5 464.5,211.167 468.5,214.5C 432.167,251.5 395.5,288.167 358.5,324.5C 355.484,320.485 351.817,317.152 347.5,314.5C 347.5,314.167 347.5,313.833 347.5,313.5C 383.833,276.5 420.5,239.833 457.5,203.5 Z"/></g>
<g><path style="opacity:0.944" fill="#78c2a4" d="M 77.5,221.5 C 80.8333,225.5 84.5,229.167 88.5,232.5C 79.3689,242.132 70.0356,251.632 60.5,261C 50,263.833 46.1667,260 49,249.5C 58.3683,239.964 67.8683,230.631 77.5,221.5 Z"/></g>
<g><path style="opacity:0.986" fill="#e490d0" d="M 266.5,233.5 C 269.358,249.609 263.025,260.442 247.5,266C 242.619,266.271 237.953,266.438 233.5,266.5C 233.167,266.5 232.833,266.5 232.5,266.5C 227.904,252.115 231.904,240.948 244.5,233C 252.047,229.538 259.38,229.705 266.5,233.5 Z"/></g>
<g><path style="opacity:1" fill="#df73c1" d="M 266.5,233.5 C 278.937,240.792 282.937,251.459 278.5,265.5C 275.167,270.833 270.833,275.167 265.5,278.5C 258.833,281.167 252.167,281.167 245.5,278.5C 240.527,275.527 236.527,271.527 233.5,266.5C 237.953,266.438 242.619,266.271 247.5,266C 263.025,260.442 269.358,249.609 266.5,233.5 Z"/></g>
<g><path style="opacity:0.922" fill="#dd4fb1" d="M 232.5,266.5 C 232.833,266.5 233.167,266.5 233.5,266.5C 236.527,271.527 240.527,275.527 245.5,278.5C 183.417,339.083 121.75,400.249 60.5,462C 50,464.833 46.1667,461 49,450.5C 110.368,389.299 171.535,327.965 232.5,266.5 Z"/></g>
<g><path style="opacity:0.921" fill="#dd4fb1" d="M 278.5,265.5 C 293.448,282.116 309.115,298.116 325.5,313.5C 321.167,317.167 317.167,321.167 313.5,325.5C 298.116,309.115 282.116,293.448 265.5,278.5C 270.833,275.167 275.167,270.833 278.5,265.5 Z"/></g>
<g><path style="opacity:0.99" fill="#e38fcf" d="M 347.5,313.5 C 347.5,313.833 347.5,314.167 347.5,314.5C 348.843,337.823 337.843,348.823 314.5,347.5C 310.867,340.441 310.533,333.108 313.5,325.5C 317.167,321.167 321.167,317.167 325.5,313.5C 332.834,310.833 340.167,310.833 347.5,313.5 Z"/></g>
<g><path style="opacity:1" fill="#df74c1" d="M 347.5,314.5 C 351.817,317.152 355.484,320.485 358.5,324.5C 364.801,344.894 357.468,357.227 336.5,361.5C 330.199,361.017 324.532,358.85 319.5,355C 317.192,352.872 315.526,350.372 314.5,347.5C 337.843,348.823 348.843,337.823 347.5,314.5 Z"/></g>
</svg>
