<?xml version="1.0" encoding="UTF-8"?>
<!DOCTYPE svg PUBLIC "-//W3C//DTD SVG 1.1//EN" "http://www.w3.org/Graphics/SVG/1.1/DTD/svg11.dtd">
<svg xmlns="http://www.w3.org/2000/svg" version="1.1" width="512px" height="512px" style="shape-rendering:geometricPrecision; text-rendering:geometricPrecision; image-rendering:optimizeQuality; fill-rule:evenodd; clip-rule:evenodd" xmlns:xlink="http://www.w3.org/1999/xlink">
<g><path style="opacity:0.99" fill="#fe4a49" d="M 243.5,27.5 C 292.724,37.5572 322.557,67.2238 333,116.5C 335.562,147.144 329.229,175.81 314,202.5C 294.884,234.689 271.05,263.022 242.5,287.5C 235.869,282.204 229.535,276.537 223.5,270.5C 202.596,249.332 184.596,225.999 169.5,200.5C 169.5,199.833 169.167,199.5 168.5,199.5C 159.113,181.627 153.28,162.627 151,142.5C 148.707,91.5608 170.54,55.3942 216.5,34C 225.247,30.6937 234.247,28.5271 243.5,27.5 Z M 252.5,93.5 C 270.257,93.1214 283.09,100.788 291,116.5C 298.26,138.729 291.76,155.563 271.5,167C 249.271,174.26 232.437,167.76 221,147.5C 213.244,118.663 223.744,100.663 252.5,93.5 Z"/></g>
<g><path style="opacity:1" fill="#e7343f" d="M 343.5,199.5 C 332.417,218.258 319.75,235.925 305.5,252.5C 291.72,267.444 277.053,281.611 261.5,295C 259.593,296.122 257.593,296.955 255.5,297.5C 254.078,297.291 252.745,296.791 251.5,296C 248.043,293.613 245.043,290.78 242.5,287.5C 271.05,263.022 294.884,234.689 314,202.5C 329.229,175.81 335.562,147.144 333,116.5C 322.557,67.2238 292.724,37.5572 243.5,27.5C 290.015,23.6725 325.181,41.6725 349,81.5C 362.896,109.521 365.23,138.521 356,168.5C 352.707,179.217 348.541,189.55 343.5,199.5 Z"/></g>
<g><path style="opacity:0.984" fill="#4ce065" d="M 148.5,190.5 C 147.001,213.491 145.667,236.491 144.5,259.5C 105.631,280.101 66.6306,300.435 27.5,320.5C 31.1406,296.654 35.6406,272.987 41,249.5C 73.7523,230.873 106.586,212.373 139.5,194C 142.309,192.259 145.309,191.092 148.5,190.5 Z"/></g>
<g><path style="opacity:0.995" fill="#46c767" d="M 148.5,190.5 C 155.423,192.962 162.09,195.962 168.5,199.5C 169.167,199.5 169.5,199.833 169.5,200.5C 184.596,225.999 202.596,249.332 223.5,270.5C 197.466,267.448 171.466,264.114 145.5,260.5C 145.5,259.833 145.167,259.5 144.5,259.5C 145.667,236.491 147.001,213.491 148.5,190.5 Z"/></g>
<g><path style="opacity:0.99" fill="#4ee065" d="M 362.5,190.5 C 363.269,202.827 363.935,215.161 364.5,227.5C 344.894,236.827 325.227,245.16 305.5,252.5C 319.75,235.925 332.417,218.258 343.5,199.5C 349.435,195.7 355.768,192.7 362.5,190.5 Z"/></g>
<g><path style="opacity:0.962" fill="#46c767" d="M 362.5,190.5 C 379.649,198.659 396.316,207.659 412.5,217.5C 396.672,220.04 381.005,223.373 365.5,227.5C 365.167,227.5 364.833,227.5 364.5,227.5C 363.935,215.161 363.269,202.827 362.5,190.5 Z"/></g>
<g><path style="opacity:1" fill="#fcbb25" d="M 412.5,217.5 C 428.335,225.916 444.002,234.583 459.5,243.5C 429.247,250.418 398.914,257.084 368.5,263.5C 367.001,251.689 366.001,239.689 365.5,227.5C 381.005,223.373 396.672,220.04 412.5,217.5 Z"/></g>
<g><path style="opacity:1" fill="#fdda55" d="M 364.5,227.5 C 364.833,227.5 365.167,227.5 365.5,227.5C 366.001,239.689 367.001,251.689 368.5,263.5C 368.5,264.5 368.5,265.5 368.5,266.5C 369.704,283.154 370.704,299.821 371.5,316.5C 356.493,305.158 341.493,293.824 326.5,282.5C 303.146,292.512 279.812,302.512 256.5,312.5C 256.167,312.5 255.833,312.5 255.5,312.5C 255.5,307.5 255.5,302.5 255.5,297.5C 257.593,296.955 259.593,296.122 261.5,295C 277.053,281.611 291.72,267.444 305.5,252.5C 325.227,245.16 344.894,236.827 364.5,227.5 Z"/></g>
<g><path style="opacity:1" fill="#21a4e7" d="M 459.5,243.5 C 462.967,245.067 466.3,246.901 469.5,249C 470.863,250.945 471.697,253.112 472,255.5C 482.158,310.122 491.991,364.788 501.5,419.5C 457.54,368.204 413.207,317.204 368.5,266.5C 368.5,265.5 368.5,264.5 368.5,263.5C 398.914,257.084 429.247,250.418 459.5,243.5 Z"/></g>
<g><path style="opacity:1" fill="#fdda56" d="M 144.5,259.5 C 145.167,259.5 145.5,259.833 145.5,260.5C 144.778,260.918 144.278,261.584 144,262.5C 142.957,275.526 141.79,288.526 140.5,301.5C 100.325,323.088 59.9916,344.421 19.5,365.5C 21.6317,350.375 24.2983,335.375 27.5,320.5C 66.6306,300.435 105.631,280.101 144.5,259.5 Z"/></g>
<g><path style="opacity:1" fill="#febb24" d="M 145.5,260.5 C 171.466,264.114 197.466,267.448 223.5,270.5C 229.535,276.537 235.869,282.204 242.5,287.5C 245.043,290.78 248.043,293.613 251.5,296C 252.745,296.791 254.078,297.291 255.5,297.5C 255.5,302.5 255.5,307.5 255.5,312.5C 232.811,310.293 210.144,308.127 187.5,306C 210.066,341.649 232.733,377.149 255.5,412.5C 255.5,412.833 255.5,413.167 255.5,413.5C 255.83,434.007 255.497,454.34 254.5,474.5C 217.082,417.329 179.415,360.329 141.5,303.5C 141.167,302.833 140.833,302.167 140.5,301.5C 141.79,288.526 142.957,275.526 144,262.5C 144.278,261.584 144.778,260.918 145.5,260.5 Z"/></g>
<g><path style="opacity:1" fill="#fdbb25" d="M 368.5,266.5 C 413.207,317.204 457.54,368.204 501.5,419.5C 504.738,436.612 508.072,453.612 511.5,470.5C 511.5,473.833 511.5,477.167 511.5,480.5C 510.5,481.167 509.5,481.833 508.5,482.5C 463.847,427.85 418.847,373.517 373.5,319.5C 372.833,318.5 372.167,317.5 371.5,316.5C 370.704,299.821 369.704,283.154 368.5,266.5 Z"/></g>
<g><path style="opacity:0.997" fill="#4ce065" d="M 371.5,316.5 C 372.167,317.5 372.833,318.5 373.5,319.5C 372.839,321.134 372.506,322.967 372.5,325C 375.36,359.824 378.027,394.657 380.5,429.5C 354.955,441.106 329.289,452.439 303.5,463.5C 287.837,446.503 271.837,429.837 255.5,413.5C 255.5,413.167 255.5,412.833 255.5,412.5C 255.174,379.094 255.507,345.76 256.5,312.5C 279.812,302.512 303.146,292.512 326.5,282.5C 341.493,293.824 356.493,305.158 371.5,316.5 Z"/></g>
<g><path style="opacity:1" fill="#a7edfa" d="M 140.5,301.5 C 140.833,302.167 141.167,302.833 141.5,303.5C 140.082,308.602 139.249,313.936 139,319.5C 136.698,356.224 133.864,392.89 130.5,429.5C 91.3758,447.558 52.0425,465.391 12.5,483C 7.40424,485.597 3.07091,484.764 -0.5,480.5C -0.5,477.167 -0.5,473.833 -0.5,470.5C 6.05892,435.48 12.7256,400.48 19.5,365.5C 59.9916,344.421 100.325,323.088 140.5,301.5 Z"/></g>
<g><path style="opacity:1" fill="#20a4e7" d="M 141.5,303.5 C 179.415,360.329 217.082,417.329 254.5,474.5C 255.414,477.728 255.747,481.061 255.5,484.5C 213.722,466.445 172.056,448.112 130.5,429.5C 133.864,392.89 136.698,356.224 139,319.5C 139.249,313.936 140.082,308.602 141.5,303.5 Z"/></g>
<g><path style="opacity:1" fill="#46c767" d="M 255.5,312.5 C 255.833,312.5 256.167,312.5 256.5,312.5C 255.507,345.76 255.174,379.094 255.5,412.5C 232.733,377.149 210.066,341.649 187.5,306C 210.144,308.127 232.811,310.293 255.5,312.5 Z"/></g>
<g><path style="opacity:0.988" fill="#45c767" d="M 373.5,319.5 C 418.847,373.517 463.847,427.85 508.5,482.5C 507.688,483.993 506.355,484.66 504.5,484.5C 462.626,467.227 421.293,448.893 380.5,429.5C 378.027,394.657 375.36,359.824 372.5,325C 372.506,322.967 372.839,321.134 373.5,319.5 Z"/></g>
<g><path style="opacity:1" fill="#fcdb56" d="M 255.5,413.5 C 271.837,429.837 287.837,446.503 303.5,463.5C 287.792,471.017 271.792,478.017 255.5,484.5C 255.747,481.061 255.414,477.728 254.5,474.5C 255.497,454.34 255.83,434.007 255.5,413.5 Z"/></g>
</svg>
