<?xml version="1.0" encoding="UTF-8"?>
<!DOCTYPE svg PUBLIC "-//W3C//DTD SVG 1.1//EN" "http://www.w3.org/Graphics/SVG/1.1/DTD/svg11.dtd">
<svg xmlns="http://www.w3.org/2000/svg" version="1.1" width="512px" height="512px" style="shape-rendering:geometricPrecision; text-rendering:geometricPrecision; image-rendering:optimizeQuality; fill-rule:evenodd; clip-rule:evenodd" xmlns:xlink="http://www.w3.org/1999/xlink">
<g><path style="opacity:0.991" fill="#757575" d="M 27.5,-0.5 C 30.5,-0.5 33.5,-0.5 36.5,-0.5C 43.4641,6.9649 50.6308,14.2982 58,21.5C 60.1667,31.3333 56.3333,35.1667 46.5,33C 44.3333,30.8333 42.1667,28.6667 40,26.5C 39.5,174.833 39.3333,323.166 39.5,471.5C 187.834,471.667 336.167,471.5 484.5,471C 480.426,468.294 478.092,464.627 477.5,460C 477.333,454.833 479.833,452.333 485,452.5C 486.5,452.667 488,452.833 489.5,453C 496.702,460.369 504.035,467.536 511.5,474.5C 511.5,477.5 511.5,480.5 511.5,483.5C 504.035,490.464 496.702,497.631 489.5,505C 479.667,507.167 475.833,503.333 478,493.5C 480.167,491.333 482.333,489.167 484.5,487C 464.503,486.5 444.503,486.333 424.5,486.5C 427.683,497.796 423.683,502.629 412.5,501C 411.667,500.167 410.833,499.333 410,498.5C 409.501,494.514 409.334,490.514 409.5,486.5C 396.167,486.5 382.833,486.5 369.5,486.5C 369.666,493.841 369.5,501.174 369,508.5C 367.955,509.373 367.122,510.373 366.5,511.5C 363.5,511.5 360.5,511.5 357.5,511.5C 356.878,510.373 356.045,509.373 355,508.5C 354.5,501.174 354.334,493.841 354.5,486.5C 341.167,486.5 327.833,486.5 314.5,486.5C 317.683,497.796 313.683,502.629 302.5,501C 301.667,500.167 300.833,499.333 300,498.5C 299.501,494.514 299.334,490.514 299.5,486.5C 286.167,486.5 272.833,486.5 259.5,486.5C 259.666,493.841 259.5,501.174 259,508.5C 257.955,509.373 257.122,510.373 256.5,511.5C 253.5,511.5 250.5,511.5 247.5,511.5C 246.878,510.373 246.045,509.373 245,508.5C 244.5,501.174 244.334,493.841 244.5,486.5C 231.167,486.5 217.833,486.5 204.5,486.5C 207.683,497.796 203.683,502.629 192.5,501C 191.667,500.167 190.833,499.333 190,498.5C 189.501,494.514 189.334,490.514 189.5,486.5C 176.167,486.5 162.833,486.5 149.5,486.5C 149.666,493.841 149.5,501.174 149,508.5C 147.955,509.373 147.122,510.373 146.5,511.5C 143.5,511.5 140.5,511.5 137.5,511.5C 136.878,510.373 136.045,509.373 135,508.5C 134.5,501.174 134.334,493.841 134.5,486.5C 121.167,486.5 107.833,486.5 94.5,486.5C 97.6826,497.796 93.6826,502.629 82.5,501C 81.6667,500.167 80.8333,499.333 80,498.5C 79.5012,494.514 79.3345,490.514 79.5,486.5C 66.1667,486.5 52.8333,486.5 39.5,486.5C 39.6663,493.841 39.4997,501.174 39,508.5C 37.955,509.373 37.1217,510.373 36.5,511.5C 33.5,511.5 30.5,511.5 27.5,511.5C 26.8783,510.373 26.045,509.373 25,508.5C 24.5003,501.174 24.3337,493.841 24.5,486.5C 17.1591,486.666 9.82577,486.5 2.5,486C 1.62656,484.955 0.626561,484.122 -0.5,483.5C -0.5,480.5 -0.5,477.5 -0.5,474.5C 0.626561,473.878 1.62656,473.045 2.5,472C 9.82577,471.5 17.1591,471.334 24.5,471.5C 24.5,458.167 24.5,444.833 24.5,431.5C 13.204,434.683 8.37069,430.683 10,419.5C 10.8333,418.667 11.6667,417.833 12.5,417C 16.4862,416.501 20.4862,416.334 24.5,416.5C 24.5,403.167 24.5,389.833 24.5,376.5C 17.1591,376.666 9.82577,376.5 2.5,376C 1.62656,374.955 0.626561,374.122 -0.5,373.5C -0.5,370.5 -0.5,367.5 -0.5,364.5C 0.626561,363.878 1.62656,363.045 2.5,362C 9.82577,361.5 17.1591,361.334 24.5,361.5C 24.5,348.167 24.5,334.833 24.5,321.5C 13.204,324.683 8.37069,320.683 10,309.5C 10.8333,308.667 11.6667,307.833 12.5,307C 16.4862,306.501 20.4862,306.334 24.5,306.5C 24.5,293.167 24.5,279.833 24.5,266.5C 17.1591,266.666 9.82577,266.5 2.5,266C 1.62656,264.955 0.626561,264.122 -0.5,263.5C -0.5,260.5 -0.5,257.5 -0.5,254.5C 0.626561,253.878 1.62656,253.045 2.5,252C 9.82577,251.5 17.1591,251.334 24.5,251.5C 24.5,238.167 24.5,224.833 24.5,211.5C 13.204,214.683 8.37069,210.683 10,199.5C 10.8333,198.667 11.6667,197.833 12.5,197C 16.4862,196.501 20.4862,196.334 24.5,196.5C 24.5,183.167 24.5,169.833 24.5,156.5C 17.1591,156.666 9.82577,156.5 2.5,156C 1.62656,154.955 0.626561,154.122 -0.5,153.5C -0.5,150.5 -0.5,147.5 -0.5,144.5C 0.626561,143.878 1.62656,143.045 2.5,142C 9.82577,141.5 17.1591,141.334 24.5,141.5C 24.5,128.167 24.5,114.833 24.5,101.5C 13.204,104.683 8.37069,100.683 10,89.5C 10.8333,88.6667 11.6667,87.8333 12.5,87C 16.4862,86.5012 20.4862,86.3345 24.5,86.5C 24.6666,66.4972 24.5,46.4972 24,26.5C 21.294,30.5743 17.6273,32.9076 13,33.5C 7.83333,33.6667 5.33333,31.1667 5.5,26C 5.66667,24.5 5.83333,23 6,21.5C 13.3692,14.2982 20.5359,6.9649 27.5,-0.5 Z"/></g>
<g><path style="opacity:0.992" fill="#e8edf1" d="M 251.5,82.5 C 248.167,82.5 244.833,82.5 241.5,82.5C 239.5,82.5 237.5,82.5 235.5,82.5C 235.333,65.4967 235.5,48.4967 236,31.5C 237.135,28.1413 239.468,26.808 243,27.5C 247.825,27.3227 250.491,29.656 251,34.5C 251.5,50.4965 251.667,66.4965 251.5,82.5 Z"/></g>
<g><path style="opacity:0.983" fill="#09d6b4" d="M 235.5,82.5 C 237.5,82.5 239.5,82.5 241.5,82.5C 241.333,119.835 241.5,157.168 242,194.5C 242.833,195.333 243.667,196.167 244.5,197C 251.158,197.5 257.825,197.666 264.5,197.5C 264.666,203.842 264.5,210.175 264,216.5C 259.934,217.464 255.767,217.797 251.5,217.5C 246.167,217.5 240.833,217.5 235.5,217.5C 231.486,217.666 227.486,217.499 223.5,217C 223,216.5 222.5,216 222,215.5C 221.333,171.5 221.333,127.5 222,83.5C 226.401,82.5333 230.901,82.2 235.5,82.5 Z"/></g>
<g><path style="opacity:0.991" fill="#5ce0c3" d="M 241.5,82.5 C 244.833,82.5 248.167,82.5 251.5,82.5C 255.767,82.203 259.934,82.5363 264,83.5C 264.5,121.499 264.667,159.499 264.5,197.5C 257.825,197.666 251.158,197.5 244.5,197C 243.667,196.167 242.833,195.333 242,194.5C 241.5,157.168 241.333,119.835 241.5,82.5 Z"/></g>
<g><path style="opacity:0.99" fill="#e8ecf1" d="M 402.5,143.5 C 399.167,143.5 395.833,143.5 392.5,143.5C 390.5,143.5 388.5,143.5 386.5,143.5C 386.333,130.496 386.5,117.496 387,104.5C 388.393,101.634 390.726,100.301 394,100.5C 398.833,100.332 401.5,102.665 402,107.5C 402.5,119.495 402.667,131.495 402.5,143.5 Z"/></g>
<g><path style="opacity:0.939" fill="#e8edf2" d="M 175.5,154.5 C 170.167,154.5 164.833,154.5 159.5,154.5C 159.333,143.828 159.5,133.161 160,122.5C 162.851,117.52 167.018,116.187 172.5,118.5C 173.333,119.5 174.167,120.5 175,121.5C 175.5,132.495 175.667,143.495 175.5,154.5 Z"/></g>
<g><path style="opacity:0.968" fill="#e8edf2" d="M 477.5,184.5 C 474.5,184.5 471.5,184.5 468.5,184.5C 466.167,184.5 463.833,184.5 461.5,184.5C 461.333,167.497 461.5,150.497 462,133.5C 467.045,126.868 472.045,126.868 477,133.5C 477.5,150.497 477.667,167.497 477.5,184.5 Z"/></g>
<g><path style="opacity:0.981" fill="#09d6b4" d="M 386.5,143.5 C 388.5,143.5 390.5,143.5 392.5,143.5C 392.333,191.834 392.5,240.168 393,288.5C 393.5,289 394,289.5 394.5,290C 401.492,290.5 408.492,290.666 415.5,290.5C 415.666,296.842 415.5,303.175 415,309.5C 411.078,311.312 406.911,311.979 402.5,311.5C 397.067,310.198 391.734,310.198 386.5,311.5C 382.818,311.665 379.152,311.499 375.5,311C 374.584,310.626 373.75,310.126 373,309.5C 372.333,254.5 372.333,199.5 373,144.5C 377.401,143.533 381.901,143.2 386.5,143.5 Z"/></g>
<g><path style="opacity:0.99" fill="#5ce0c3" d="M 392.5,143.5 C 395.833,143.5 399.167,143.5 402.5,143.5C 406.767,143.203 410.934,143.536 415,144.5C 415.5,193.166 415.667,241.832 415.5,290.5C 408.492,290.666 401.492,290.5 394.5,290C 394,289.5 393.5,289 393,288.5C 392.5,240.168 392.333,191.834 392.5,143.5 Z"/></g>
<g><path style="opacity:0.962" fill="#e8edf2" d="M 326.5,193.5 C 323.5,193.5 320.5,193.5 317.5,193.5C 315.167,193.5 312.833,193.5 310.5,193.5C 310.333,179.829 310.5,166.163 311,152.5C 313.851,147.52 318.018,146.187 323.5,148.5C 324.333,149.5 325.167,150.5 326,151.5C 326.5,165.496 326.667,179.496 326.5,193.5 Z"/></g>
<g><path style="opacity:0.993" fill="#09d6b4" d="M 159.5,154.5 C 161.607,155.468 163.941,155.802 166.5,155.5C 166.333,190.168 166.5,224.835 167,259.5C 167.5,260 168,260.5 168.5,261C 175.492,261.5 182.492,261.666 189.5,261.5C 189.666,267.509 189.499,273.509 189,279.5C 188.5,280 188,280.5 187.5,281C 183.514,281.499 179.514,281.666 175.5,281.5C 170.167,281.5 164.833,281.5 159.5,281.5C 155.486,281.666 151.486,281.499 147.5,281C 147,280.5 146.5,280 146,279.5C 145.333,238.833 145.333,198.167 146,157.5C 146.5,156.333 147.333,155.5 148.5,155C 152.152,154.501 155.818,154.335 159.5,154.5 Z"/></g>
<g><path style="opacity:0.968" fill="#5de1c4" d="M 159.5,154.5 C 164.833,154.5 170.167,154.5 175.5,154.5C 179.514,154.334 183.514,154.501 187.5,155C 188.126,155.75 188.626,156.584 189,157.5C 189.5,192.165 189.667,226.832 189.5,261.5C 182.492,261.666 175.492,261.5 168.5,261C 168,260.5 167.5,260 167,259.5C 166.5,224.835 166.333,190.168 166.5,155.5C 163.941,155.802 161.607,155.468 159.5,154.5 Z"/></g>
<g><path style="opacity:0.992" fill="#fe6c55" d="M 461.5,184.5 C 463.833,184.5 466.167,184.5 468.5,184.5C 468.333,228.168 468.5,271.835 469,315.5C 469.5,316 470,316.5 470.5,317C 477.492,317.5 484.492,317.666 491.5,317.5C 491.666,323.509 491.499,329.509 491,335.5C 490.5,336 490,336.5 489.5,337C 485.514,337.499 481.514,337.666 477.5,337.5C 472.167,337.5 466.833,337.5 461.5,337.5C 457.486,337.666 453.486,337.499 449.5,337C 448.874,336.25 448.374,335.416 448,334.5C 447.333,285.5 447.333,236.5 448,187.5C 448.374,186.584 448.874,185.75 449.5,185C 453.486,184.501 457.486,184.334 461.5,184.5 Z"/></g>
<g><path style="opacity:0.968" fill="#fe7b66" d="M 468.5,184.5 C 471.5,184.5 474.5,184.5 477.5,184.5C 481.514,184.334 485.514,184.501 489.5,185C 490,185.5 490.5,186 491,186.5C 491.5,230.165 491.667,273.832 491.5,317.5C 484.492,317.666 477.492,317.5 470.5,317C 470,316.5 469.5,316 469,315.5C 468.5,271.835 468.333,228.168 468.5,184.5 Z"/></g>
<g><path style="opacity:0.989" fill="#e8ecf0" d="M 100.5,242.5 C 97.272,243.414 93.9387,243.747 90.5,243.5C 88.2646,243.795 86.2646,243.461 84.5,242.5C 84.3334,226.497 84.5001,210.497 85,194.5C 86.5286,191.484 89.0286,190.151 92.5,190.5C 97.0643,190.563 99.5643,192.896 100,197.5C 100.5,212.496 100.667,227.496 100.5,242.5 Z"/></g>
<g><path style="opacity:0.962" fill="#fe6c55" d="M 310.5,193.5 C 312.833,193.5 315.167,193.5 317.5,193.5C 317.333,243.501 317.5,293.501 318,343.5C 318.5,344 319,344.5 319.5,345C 326.492,345.5 333.492,345.666 340.5,345.5C 340.793,351.893 340.46,358.227 339.5,364.5C 338.975,365.192 338.308,365.692 337.5,366C 333.848,366.499 330.182,366.665 326.5,366.5C 321.167,365.167 315.833,365.167 310.5,366.5C 306.818,366.665 303.152,366.499 299.5,366C 298.667,365.167 297.833,364.333 297,363.5C 296.333,307.5 296.333,251.5 297,195.5C 297.5,195 298,194.5 298.5,194C 302.486,193.501 306.486,193.334 310.5,193.5 Z"/></g>
<g><path style="opacity:0.97" fill="#fe7b66" d="M 317.5,193.5 C 320.5,193.5 323.5,193.5 326.5,193.5C 330.514,193.334 334.514,193.501 338.5,194C 339,194.5 339.5,195 340,195.5C 340.5,245.499 340.667,295.499 340.5,345.5C 333.492,345.666 326.492,345.5 319.5,345C 319,344.5 318.5,344 318,343.5C 317.5,293.501 317.333,243.501 317.5,193.5 Z"/></g>
<g><path style="opacity:0.991" fill="#e8edf1" d="M 235.5,217.5 C 240.833,217.5 246.167,217.5 251.5,217.5C 251.666,227.839 251.5,238.172 251,248.5C 247.395,256.421 242.395,257.421 236,251.5C 235.5,240.172 235.333,228.838 235.5,217.5 Z"/></g>
<g><path style="opacity:0.979" fill="#fe6c55" d="M 84.5,242.5 C 86.2646,243.461 88.2646,243.795 90.5,243.5C 90.3333,287.168 90.5,330.835 91,374.5C 91.5,375 92,375.5 92.5,376C 99.4921,376.5 106.492,376.666 113.5,376.5C 113.666,382.842 113.5,389.175 113,395.5C 112.5,396 112,396.5 111.5,397C 107.848,397.499 104.182,397.665 100.5,397.5C 95.0671,396.198 89.7337,396.198 84.5,397.5C 80.8183,397.665 77.1516,397.499 73.5,397C 72.5838,396.626 71.7504,396.126 71,395.5C 70.3333,345.167 70.3333,294.833 71,244.5C 71.5,244 72,243.5 72.5,243C 76.4862,242.501 80.4862,242.334 84.5,242.5 Z"/></g>
<g><path style="opacity:0.989" fill="#fe7b65" d="M 100.5,242.5 C 104.182,242.335 107.848,242.501 111.5,243C 112,243.5 112.5,244 113,244.5C 113.5,288.499 113.667,332.499 113.5,376.5C 106.492,376.666 99.4921,376.5 92.5,376C 92,375.5 91.5,375 91,374.5C 90.5,330.835 90.3333,287.168 90.5,243.5C 93.9387,243.747 97.272,243.414 100.5,242.5 Z"/></g>
<g><path style="opacity:0.939" fill="#e8edf1" d="M 159.5,281.5 C 164.833,281.5 170.167,281.5 175.5,281.5C 175.667,302.503 175.5,323.503 175,344.5C 172.089,348.277 168.256,349.444 163.5,348C 161.951,346.786 160.785,345.286 160,343.5C 159.5,322.836 159.333,302.169 159.5,281.5 Z"/></g>
<g><path style="opacity:0.99" fill="#e7ecf1" d="M 402.5,311.5 C 402.666,321.506 402.5,331.506 402,341.5C 401.537,346.294 398.87,348.628 394,348.5C 390.726,348.699 388.393,347.366 387,344.5C 386.5,333.505 386.333,322.505 386.5,311.5C 391.734,310.198 397.067,310.198 402.5,311.5 Z"/></g>
<g><path style="opacity:0.968" fill="#e8edf2" d="M 461.5,337.5 C 466.833,337.5 472.167,337.5 477.5,337.5C 477.667,358.503 477.5,379.503 477,400.5C 473.929,405.299 469.762,406.465 464.5,404C 463.299,403.097 462.465,401.931 462,400.5C 461.5,379.503 461.333,358.503 461.5,337.5 Z"/></g>
<g><path style="opacity:0.962" fill="#e8ecf1" d="M 326.5,366.5 C 326.667,387.169 326.5,407.836 326,428.5C 322.987,433.535 318.82,434.702 313.5,432C 312.299,431.097 311.465,429.931 311,428.5C 310.5,407.836 310.333,387.169 310.5,366.5C 315.833,365.167 321.167,365.167 326.5,366.5 Z"/></g>
<g><path style="opacity:0.992" fill="#e8ecf0" d="M 100.5,397.5 C 100.666,407.839 100.5,418.172 100,428.5C 96.3952,436.421 91.3952,437.421 85,431.5C 84.5001,420.172 84.3335,408.838 84.5,397.5C 89.7337,396.198 95.0671,396.198 100.5,397.5 Z"/></g>
</svg>
