<?xml version="1.0" encoding="UTF-8"?>
<!DOCTYPE svg PUBLIC "-//W3C//DTD SVG 1.1//EN" "http://www.w3.org/Graphics/SVG/1.1/DTD/svg11.dtd">
<svg xmlns="http://www.w3.org/2000/svg" version="1.1" width="512px" height="512px" style="shape-rendering:geometricPrecision; text-rendering:geometricPrecision; image-rendering:optimizeQuality; fill-rule:evenodd; clip-rule:evenodd" xmlns:xlink="http://www.w3.org/1999/xlink">
<g><path style="opacity:1" fill="#1975d2" d="M 3.5,-0.5 C 6.16667,-0.5 8.83333,-0.5 11.5,-0.5C 13.1436,0.316435 14.3103,1.64977 15,3.5C 15.5,167.5 15.6667,331.5 15.5,495.5C 179.5,495.333 343.5,495.5 507.5,496C 509.35,496.69 510.684,497.856 511.5,499.5C 511.5,502.167 511.5,504.833 511.5,507.5C 510.5,509.167 509.167,510.5 507.5,511.5C 339.5,511.5 171.5,511.5 3.5,511.5C 1.83333,510.5 0.5,509.167 -0.5,507.5C -0.5,339.5 -0.5,171.5 -0.5,3.5C 0.5,1.83333 1.83333,0.5 3.5,-0.5 Z"/></g>
<g><path style="opacity:0.986" fill="#1976d2" d="M 463.5,-0.5 C 469.5,-0.5 475.5,-0.5 481.5,-0.5C 497.167,3.83333 507.167,13.8333 511.5,29.5C 511.5,35.5 511.5,41.5 511.5,47.5C 502.209,72.4809 484.542,81.6476 458.5,75C 442.503,68.1567 434.17,55.99 433.5,38.5C 434.492,18.5143 444.492,5.51425 463.5,-0.5 Z"/></g>
<g><path style="opacity:1" fill="#62a3fe" d="M 466.5,15.5 C 486.186,14.6871 495.686,24.0204 495,43.5C 490.173,57.6689 480.34,63.1689 465.5,60C 454.022,54.8798 448.855,46.0465 450,33.5C 452.592,24.7446 458.092,18.7446 466.5,15.5 Z"/></g>
<g><path style="opacity:0.982" fill="#1976d2" d="M 353.5,124.5 C 368.5,122.415 379.334,128.082 386,141.5C 390.236,158.864 384.069,170.697 367.5,177C 347.459,179.618 336.126,170.951 333.5,151C 334.34,137.672 341.007,128.839 353.5,124.5 Z"/></g>
<g><path style="opacity:0.984" fill="#1976d2" d="M 221.5,133.5 C 243.165,132.573 257.665,142.24 265,162.5C 268.759,191.65 256.092,208.316 227,212.5C 197.887,208.258 185.221,191.592 189,162.5C 194.404,146.588 205.237,136.922 221.5,133.5 Z"/></g>
<g><path style="opacity:1" fill="#61a2fd" d="M 357.5,140.5 C 368.032,140.199 372.199,145.199 370,155.5C 366.843,160.492 362.343,162.325 356.5,161C 350.891,157.723 349.058,152.89 351,146.5C 352.494,143.686 354.66,141.686 357.5,140.5 Z"/></g>
<g><path style="opacity:1" fill="#62a3fe" d="M 219.5,150.5 C 242.158,148.985 251.658,159.318 248,181.5C 242.27,192.781 233.104,197.281 220.5,195C 206.636,188.767 201.803,178.267 206,163.5C 209.076,157.589 213.576,153.255 219.5,150.5 Z"/></g>
<g><path style="opacity:0.983" fill="#1976d2" d="M 227.5,262.5 C 249.09,264.924 258.59,276.924 256,298.5C 248.95,316.608 236.116,322.775 217.5,317C 202.233,308.621 197.4,296.121 203,279.5C 208.069,269.249 216.236,263.582 227.5,262.5 Z"/></g>
<g><path style="opacity:1" fill="#61a3fe" d="M 224.5,279.5 C 234.962,278.609 240.129,283.276 240,293.5C 237.442,300.866 232.275,303.699 224.5,302C 218.092,298.677 215.925,293.511 218,286.5C 219.694,283.642 221.861,281.309 224.5,279.5 Z"/></g>
<g><path style="opacity:0.985" fill="#1976d2" d="M 356.5,282.5 C 387.08,284.003 401.246,300.003 399,330.5C 391.403,354.222 375.237,364.055 350.5,360C 335.233,355.733 325.733,345.899 322,330.5C 319.499,304.199 330.999,288.199 356.5,282.5 Z"/></g>
<g><path style="opacity:1" fill="#62a3fe" d="M 355.5,299.5 C 374.157,298.991 383.324,307.991 383,326.5C 376.317,343.924 364.484,348.758 347.5,341C 334.738,328.872 334.404,316.538 346.5,304C 349.324,301.921 352.324,300.421 355.5,299.5 Z"/></g>
<g><path style="opacity:0.981" fill="#1976d2" d="M 475.5,317.5 C 494.12,317.123 504.787,326.123 507.5,344.5C 504.656,364.927 492.989,373.76 472.5,371C 456.77,364.709 450.603,353.209 454,336.5C 457.948,326.377 465.115,320.044 475.5,317.5 Z"/></g>
<g><path style="opacity:1" fill="#61a2fd" d="M 475.5,334.5 C 486.49,332.992 491.324,337.658 490,348.5C 484.434,356.818 478.101,357.485 471,350.5C 467.994,343.771 469.494,338.438 475.5,334.5 Z"/></g>
<g><path style="opacity:0.983" fill="#1976d2" d="M 115.5,363.5 C 138.472,362.324 153.305,372.657 160,394.5C 162.867,418.302 153.033,433.802 130.5,441C 105.865,444.279 90.0321,434.112 83,410.5C 80.7759,385.59 91.6092,369.924 115.5,363.5 Z"/></g>
<g><path style="opacity:0.983" fill="#1976d2" d="M 253.5,376.5 C 273.358,374.578 284.691,383.412 287.5,403C 284.709,422.738 273.375,431.404 253.5,429C 235.151,421.303 229.651,408.136 237,389.5C 240.939,383.048 246.439,378.714 253.5,376.5 Z"/></g>
<g><path style="opacity:1" fill="#62a3fe" d="M 114.5,380.5 C 128.981,378.318 138.814,383.985 144,397.5C 144.678,417.154 135.178,426.321 115.5,425C 102.969,420.112 97.469,410.945 99,397.5C 101.962,389.709 107.129,384.043 114.5,380.5 Z"/></g>
<g><path style="opacity:1" fill="#61a2fd" d="M 257.5,392.5 C 266.854,392.681 271.02,397.348 270,406.5C 264.078,415.434 257.744,415.767 251,407.5C 248.915,400.48 251.081,395.48 257.5,392.5 Z"/></g>
</svg>
