<?xml version="1.0" encoding="UTF-8"?>
<!DOCTYPE svg PUBLIC "-//W3C//DTD SVG 1.1//EN" "http://www.w3.org/Graphics/SVG/1.1/DTD/svg11.dtd">
<svg xmlns="http://www.w3.org/2000/svg" version="1.1" width="512px" height="512px" style="shape-rendering:geometricPrecision; text-rendering:geometricPrecision; image-rendering:optimizeQuality; fill-rule:evenodd; clip-rule:evenodd" xmlns:xlink="http://www.w3.org/1999/xlink">
<g><path style="opacity:1" fill="#00719b" d="M -0.5,59.5 C 84.8333,59.5 170.167,59.5 255.5,59.5C 255.5,69.5 255.5,79.5 255.5,89.5C 180.167,89.5 104.833,89.5 29.5,89.5C 29.5,200.167 29.5,310.833 29.5,421.5C 104.833,421.5 180.167,421.5 255.5,421.5C 255.5,431.5 255.5,441.5 255.5,451.5C 170.167,451.5 84.8333,451.5 -0.5,451.5C -0.5,320.833 -0.5,190.167 -0.5,59.5 Z"/></g>
<g><path style="opacity:1" fill="#004b82" d="M 255.5,59.5 C 340.833,59.5 426.167,59.5 511.5,59.5C 511.5,190.167 511.5,320.833 511.5,451.5C 426.167,451.5 340.833,451.5 255.5,451.5C 255.5,441.5 255.5,431.5 255.5,421.5C 330.833,421.5 406.167,421.5 481.5,421.5C 481.5,310.833 481.5,200.167 481.5,89.5C 406.167,89.5 330.833,89.5 255.5,89.5C 255.5,79.5 255.5,69.5 255.5,59.5 Z"/></g>
<g><path style="opacity:1" fill="#fef4f4" d="M 255.5,89.5 C 255.5,200.167 255.5,310.833 255.5,421.5C 180.167,421.5 104.833,421.5 29.5,421.5C 29.5,310.833 29.5,200.167 29.5,89.5C 104.833,89.5 180.167,89.5 255.5,89.5 Z"/></g>
<g><path style="opacity:1" fill="#d7e5ea" d="M 255.5,89.5 C 330.833,89.5 406.167,89.5 481.5,89.5C 481.5,200.167 481.5,310.833 481.5,421.5C 406.167,421.5 330.833,421.5 255.5,421.5C 255.5,310.833 255.5,200.167 255.5,89.5 Z"/></g>
<g><path style="opacity:1" fill="#004b82" d="M 297.5,119.5 C 343.833,119.5 390.167,119.5 436.5,119.5C 436.5,129.5 436.5,139.5 436.5,149.5C 390.167,149.5 343.833,149.5 297.5,149.5C 297.5,139.5 297.5,129.5 297.5,119.5 Z"/></g>
<g><path style="opacity:1" fill="#b5766a" d="M 128.5,134.5 C 128.5,151.5 128.5,168.5 128.5,185.5C 138.833,185.5 149.167,185.5 159.5,185.5C 159.5,168.5 159.5,151.5 159.5,134.5C 177.5,134.5 195.5,134.5 213.5,134.5C 213.5,175.167 213.5,215.833 213.5,256.5C 167.167,256.5 120.833,256.5 74.5,256.5C 74.5,215.833 74.5,175.167 74.5,134.5C 92.5,134.5 110.5,134.5 128.5,134.5 Z"/></g>
<g><path style="opacity:1" fill="#004b82" d="M 297.5,179.5 C 343.833,179.5 390.167,179.5 436.5,179.5C 436.5,189.5 436.5,199.5 436.5,209.5C 390.167,209.5 343.833,209.5 297.5,209.5C 297.5,199.5 297.5,189.5 297.5,179.5 Z"/></g>
<g><path style="opacity:1" fill="#ddae34" d="M 128.5,134.5 C 128.833,134.5 129.167,134.5 129.5,134.5C 129.5,151.167 129.5,167.833 129.5,184.5C 139.167,184.5 148.833,184.5 158.5,184.5C 158.5,167.833 158.5,151.167 158.5,134.5C 158.833,134.5 159.167,134.5 159.5,134.5C 159.5,151.5 159.5,168.5 159.5,185.5C 149.167,185.5 138.833,185.5 128.5,185.5C 128.5,168.5 128.5,151.5 128.5,134.5 Z"/></g>
<g><path style="opacity:1" fill="#fedd00" d="M 129.5,134.5 C 139.167,134.5 148.833,134.5 158.5,134.5C 158.5,151.167 158.5,167.833 158.5,184.5C 148.833,184.5 139.167,184.5 129.5,184.5C 129.5,167.833 129.5,151.167 129.5,134.5 Z"/></g>
<g><path style="opacity:1" fill="#fe4c4c" d="M 282.5,239.5 C 338.833,239.5 395.167,239.5 451.5,239.5C 451.5,269.5 451.5,299.5 451.5,329.5C 395.167,329.5 338.833,329.5 282.5,329.5C 282.5,299.5 282.5,269.5 282.5,239.5 Z"/></g>
<g><path style="opacity:1" fill="#d7e6ea" d="M 312.5,269.5 C 348.833,269.5 385.167,269.5 421.5,269.5C 421.5,279.5 421.5,289.5 421.5,299.5C 385.167,299.5 348.833,299.5 312.5,299.5C 312.5,289.5 312.5,279.5 312.5,269.5 Z"/></g>
<g><path style="opacity:1" fill="#00719b" d="M 74.5,301.5 C 120.833,301.5 167.167,301.5 213.5,301.5C 213.5,311.5 213.5,321.5 213.5,331.5C 167.167,331.5 120.833,331.5 74.5,331.5C 74.5,321.5 74.5,311.5 74.5,301.5 Z"/></g>
<g><path style="opacity:1" fill="#00719b" d="M 74.5,361.5 C 120.833,361.5 167.167,361.5 213.5,361.5C 213.5,371.5 213.5,381.5 213.5,391.5C 167.167,391.5 120.833,391.5 74.5,391.5C 74.5,381.5 74.5,371.5 74.5,361.5 Z"/></g>
<g><path style="opacity:1" fill="#004b82" d="M 297.5,361.5 C 343.833,361.5 390.167,361.5 436.5,361.5C 436.5,371.5 436.5,381.5 436.5,391.5C 390.167,391.5 343.833,391.5 297.5,391.5C 297.5,381.5 297.5,371.5 297.5,361.5 Z"/></g>
</svg>
