<?xml version="1.0" encoding="UTF-8"?>
<!DOCTYPE svg PUBLIC "-//W3C//DTD SVG 1.1//EN" "http://www.w3.org/Graphics/SVG/1.1/DTD/svg11.dtd">
<svg xmlns="http://www.w3.org/2000/svg" version="1.1" width="512px" height="512px" style="shape-rendering:geometricPrecision; text-rendering:geometricPrecision; image-rendering:optimizeQuality; fill-rule:evenodd; clip-rule:evenodd" xmlns:xlink="http://www.w3.org/1999/xlink">
<g><path style="opacity:0.99" fill="#feb743" d="M 233.5,-0.5 C 248.167,-0.5 262.833,-0.5 277.5,-0.5C 367.555,10.0943 435.388,54.4276 481,132.5C 493.711,156.132 502.544,181.132 507.5,207.5C 471.535,172.035 435.701,136.368 400,100.5C 399.833,206.667 399.333,312.667 398.5,418.5C 398.5,312.167 398.5,205.833 398.5,99.5C 396.205,96.7029 393.705,94.0362 391,91.5C 390.503,94.146 390.336,96.8127 390.5,99.5C 390.167,99.5 389.833,99.5 389.5,99.5C 389.5,96.5 389.5,93.5 389.5,90.5C 386.833,87.1667 383.833,84.1667 380.5,81.5C 338.5,81.5 296.5,81.5 254.5,81.5C 210.167,81.5 165.833,81.5 121.5,81.5C 121.5,156.833 121.5,232.167 121.5,307.5C 111.535,317.965 101.369,328.298 91,338.5C 87.2215,346.719 88.0548,354.386 93.5,361.5C 94.795,362.488 96.1283,363.488 97.5,364.5C 105.037,373.556 113.037,382.223 121.5,390.5C 121.5,393.833 121.5,397.167 121.5,400.5C 124.5,400.5 127.5,400.5 130.5,400.5C 130.5,400.833 130.5,401.167 130.5,401.5C 127.813,401.336 125.146,401.503 122.5,402C 125.036,404.705 127.703,407.205 130.5,409.5C 133.713,409.19 136.713,409.523 139.5,410.5C 136.813,410.336 134.146,410.503 131.5,411C 134.036,413.705 136.703,416.205 139.5,418.5C 139.5,419.167 139.833,419.5 140.5,419.5C 170.5,449.833 200.5,480.167 230.5,510.5C 147.086,500.564 82.5857,460.564 37,390.5C 15.9696,355.576 3.4696,317.909 -0.5,277.5C -0.5,262.833 -0.5,248.167 -0.5,233.5C 11.9821,133.195 63.9821,61.6947 155.5,19C 180.687,8.70332 206.687,2.20332 233.5,-0.5 Z"/></g>
<g><path style="opacity:1" fill="#fefefe" d="M 254.5,81.5 C 254.5,98.5 254.5,115.5 254.5,132.5C 245.167,132.5 235.833,132.5 226.5,132.5C 226.5,139.833 226.5,147.167 226.5,154.5C 235.833,154.5 245.167,154.5 254.5,154.5C 254.5,161.167 254.5,167.833 254.5,174.5C 220.232,156.719 188.566,160.385 159.5,185.5C 135.947,210.402 130.114,239.069 142,271.5C 143.579,274.994 145.413,278.327 147.5,281.5C 139.146,290.521 130.479,299.188 121.5,307.5C 121.5,232.167 121.5,156.833 121.5,81.5C 165.833,81.5 210.167,81.5 254.5,81.5 Z"/></g>
<g><path style="opacity:1" fill="#fef4c9" d="M 254.5,81.5 C 296.5,81.5 338.5,81.5 380.5,81.5C 380.5,84.5 380.5,87.5 380.5,90.5C 380.5,194.167 380.5,297.833 380.5,401.5C 338.5,401.5 296.5,401.5 254.5,401.5C 213.167,401.5 171.833,401.5 130.5,401.5C 130.5,401.167 130.5,400.833 130.5,400.5C 171.833,400.5 213.167,400.5 254.5,400.5C 254.5,383.5 254.5,366.5 254.5,349.5C 283.5,349.5 312.5,349.5 341.5,349.5C 341.5,342.5 341.5,335.5 341.5,328.5C 312.5,328.5 283.5,328.5 254.5,328.5C 254.5,321.833 254.5,315.167 254.5,308.5C 258.143,305.865 261.81,303.199 265.5,300.5C 268.833,300.5 272.167,300.5 275.5,300.5C 275.5,297.167 275.5,293.833 275.5,290.5C 283.828,278.83 289.161,265.83 291.5,251.5C 308.167,251.5 324.833,251.5 341.5,251.5C 341.5,244.5 341.5,237.5 341.5,230.5C 324.833,230.5 308.167,230.5 291.5,230.5C 289.448,216.402 284.114,203.735 275.5,192.5C 275.5,188.833 275.5,185.167 275.5,181.5C 271.833,181.5 268.167,181.5 264.5,181.5C 261.167,179.167 257.833,176.833 254.5,174.5C 254.5,167.833 254.5,161.167 254.5,154.5C 283.5,154.5 312.5,154.5 341.5,154.5C 341.5,147.167 341.5,139.833 341.5,132.5C 312.5,132.5 283.5,132.5 254.5,132.5C 254.5,115.5 254.5,98.5 254.5,81.5 Z"/></g>
<g><path style="opacity:1" fill="#ff7d09" d="M 380.5,81.5 C 383.833,84.1667 386.833,87.1667 389.5,90.5C 386.5,90.5 383.5,90.5 380.5,90.5C 380.5,87.5 380.5,84.5 380.5,81.5 Z"/></g>
<g><path style="opacity:1" fill="#9cd64a" d="M 380.5,90.5 C 383.5,90.5 386.5,90.5 389.5,90.5C 389.5,93.5 389.5,96.5 389.5,99.5C 389.5,203.167 389.5,306.833 389.5,410.5C 344.5,410.5 299.5,410.5 254.5,410.5C 254.5,407.5 254.5,404.5 254.5,401.5C 296.5,401.5 338.5,401.5 380.5,401.5C 380.5,297.833 380.5,194.167 380.5,90.5 Z"/></g>
<g><path style="opacity:1" fill="#ff7c07" d="M 398.5,99.5 C 395.833,99.5 393.167,99.5 390.5,99.5C 390.336,96.8127 390.503,94.146 391,91.5C 393.705,94.0362 396.205,96.7029 398.5,99.5 Z"/></g>
<g><path style="opacity:1" fill="#17af92" d="M 389.5,99.5 C 389.833,99.5 390.167,99.5 390.5,99.5C 393.167,99.5 395.833,99.5 398.5,99.5C 398.5,205.833 398.5,312.167 398.5,418.5C 312.668,419.499 226.668,419.833 140.5,419.5C 139.833,419.5 139.5,419.167 139.5,418.5C 177.833,418.5 216.167,418.5 254.5,418.5C 254.5,415.833 254.5,413.167 254.5,410.5C 299.5,410.5 344.5,410.5 389.5,410.5C 389.5,306.833 389.5,203.167 389.5,99.5 Z"/></g>
<g><path style="opacity:1" fill="#ff7600" d="M 507.5,207.5 C 509.009,216.272 510.343,224.938 511.5,233.5C 511.5,248.167 511.5,262.833 511.5,277.5C 499.018,377.805 447.018,449.305 355.5,492C 330.313,502.297 304.313,508.797 277.5,511.5C 262.833,511.5 248.167,511.5 233.5,511.5C 232.791,510.596 231.791,510.263 230.5,510.5C 200.5,480.167 170.5,449.833 140.5,419.5C 226.668,419.833 312.668,419.499 398.5,418.5C 399.333,312.667 399.833,206.667 400,100.5C 435.701,136.368 471.535,172.035 507.5,207.5 Z"/></g>
<g><path style="opacity:1" fill="#84f7e8" d="M 208.5,133.5 C 192.833,133.5 177.167,133.5 161.5,133.5C 161.5,140.167 161.5,146.833 161.5,153.5C 177.167,153.5 192.833,153.5 208.5,153.5C 192.675,154.496 176.675,154.83 160.5,154.5C 160.5,147.167 160.5,139.833 160.5,132.5C 176.675,132.17 192.675,132.504 208.5,133.5 Z"/></g>
<g><path style="opacity:1" fill="#02efd1" d="M 208.5,133.5 C 208.5,140.167 208.5,146.833 208.5,153.5C 192.833,153.5 177.167,153.5 161.5,153.5C 161.5,146.833 161.5,140.167 161.5,133.5C 177.167,133.5 192.833,133.5 208.5,133.5 Z"/></g>
<g><path style="opacity:1" fill="#20efd2" d="M 254.5,132.5 C 254.5,132.833 254.5,133.167 254.5,133.5C 254.5,140.167 254.5,146.833 254.5,153.5C 254.5,153.833 254.5,154.167 254.5,154.5C 245.167,154.5 235.833,154.5 226.5,154.5C 226.5,147.167 226.5,139.833 226.5,132.5C 235.833,132.5 245.167,132.5 254.5,132.5 Z"/></g>
<g><path style="opacity:1" fill="#00ae94" d="M 254.5,133.5 C 283.167,133.5 311.833,133.5 340.5,133.5C 340.5,140.167 340.5,146.833 340.5,153.5C 311.833,153.5 283.167,153.5 254.5,153.5C 254.5,146.833 254.5,140.167 254.5,133.5 Z"/></g>
<g><path style="opacity:1" fill="#56d5b5" d="M 254.5,133.5 C 254.5,133.167 254.5,132.833 254.5,132.5C 283.5,132.5 312.5,132.5 341.5,132.5C 341.5,139.833 341.5,147.167 341.5,154.5C 312.5,154.5 283.5,154.5 254.5,154.5C 254.5,154.167 254.5,153.833 254.5,153.5C 283.167,153.5 311.833,153.5 340.5,153.5C 340.5,146.833 340.5,140.167 340.5,133.5C 311.833,133.5 283.167,133.5 254.5,133.5 Z"/></g>
<g><path style="opacity:1" fill="#94259b" d="M 254.5,174.5 C 257.833,176.833 261.167,179.167 264.5,181.5C 265.5,183.167 266.833,184.5 268.5,185.5C 264.227,191.442 259.227,196.776 253.5,201.5C 253.167,201.5 252.833,201.5 252.5,201.5C 235.665,186.298 216.332,182.131 194.5,189C 164.724,203.055 153.557,226.221 161,258.5C 164.107,266.755 168.607,274.089 174.5,280.5C 174.5,280.833 174.5,281.167 174.5,281.5C 147.5,308.167 120.5,334.833 93.5,361.5C 88.0548,354.386 87.2215,346.719 91,338.5C 101.369,328.298 111.535,317.965 121.5,307.5C 130.479,299.188 139.146,290.521 147.5,281.5C 145.413,278.327 143.579,274.994 142,271.5C 130.114,239.069 135.947,210.402 159.5,185.5C 188.566,160.385 220.232,156.719 254.5,174.5 Z"/></g>
<g><path style="opacity:1" fill="#82d1af" d="M 293.5,182.5 C 309.325,181.504 325.325,181.17 341.5,181.5C 341.5,188.833 341.5,196.167 341.5,203.5C 325.325,203.83 309.325,203.496 293.5,202.5C 309.167,202.5 324.833,202.5 340.5,202.5C 340.5,195.833 340.5,189.167 340.5,182.5C 324.833,182.5 309.167,182.5 293.5,182.5 Z"/></g>
<g><path style="opacity:1" fill="#14ad98" d="M 264.5,181.5 C 268.167,181.5 271.833,181.5 275.5,181.5C 275.5,185.167 275.5,188.833 275.5,192.5C 273.395,189.973 271.061,187.64 268.5,185.5C 266.833,184.5 265.5,183.167 264.5,181.5 Z"/></g>
<g><path style="opacity:1" fill="#01ae95" d="M 293.5,182.5 C 309.167,182.5 324.833,182.5 340.5,182.5C 340.5,189.167 340.5,195.833 340.5,202.5C 324.833,202.5 309.167,202.5 293.5,202.5C 293.5,195.833 293.5,189.167 293.5,182.5 Z"/></g>
<g><path style="opacity:1" fill="#02edd0" d="M 252.5,201.5 C 227.217,228.45 201.217,254.783 174.5,280.5C 168.607,274.089 164.107,266.755 161,258.5C 153.557,226.221 164.724,203.055 194.5,189C 216.332,182.131 235.665,186.298 252.5,201.5 Z"/></g>
<g><path style="opacity:1" fill="#500b54" d="M 268.5,185.5 C 271.061,187.64 273.395,189.973 275.5,192.5C 284.114,203.735 289.448,216.402 291.5,230.5C 292.793,237.513 292.793,244.513 291.5,251.5C 289.161,265.83 283.828,278.83 275.5,290.5C 271.833,293.5 268.5,296.833 265.5,300.5C 261.81,303.199 258.143,305.865 254.5,308.5C 228.232,322.886 201.899,323.053 175.5,309C 174.5,308.333 173.5,308.333 172.5,309C 155.298,326.035 138.298,343.201 121.5,360.5C 114.419,367.891 106.419,369.224 97.5,364.5C 96.1283,363.488 94.795,362.488 93.5,361.5C 120.5,334.833 147.5,308.167 174.5,281.5C 202.499,303.607 229.665,302.607 256,278.5C 271.654,257.807 273.654,235.807 262,212.5C 259.642,208.442 256.808,204.775 253.5,201.5C 259.227,196.776 264.227,191.442 268.5,185.5 Z"/></g>
<g><path style="opacity:1" fill="#01ad95" d="M 252.5,201.5 C 252.833,201.5 253.167,201.5 253.5,201.5C 256.808,204.775 259.642,208.442 262,212.5C 273.654,235.807 271.654,257.807 256,278.5C 229.665,302.607 202.499,303.607 174.5,281.5C 174.5,281.167 174.5,280.833 174.5,280.5C 201.217,254.783 227.217,228.45 252.5,201.5 Z"/></g>
<g><path style="opacity:1" fill="#02af96" d="M 291.5,230.5 C 308.167,230.5 324.833,230.5 341.5,230.5C 341.5,237.5 341.5,244.5 341.5,251.5C 324.833,251.5 308.167,251.5 291.5,251.5C 292.793,244.513 292.793,237.513 291.5,230.5 Z"/></g>
<g><path style="opacity:1" fill="#0caf96" d="M 293.5,279.5 C 309.5,279.5 325.5,279.5 341.5,279.5C 341.5,286.5 341.5,293.5 341.5,300.5C 325.5,300.5 309.5,300.5 293.5,300.5C 293.5,293.5 293.5,286.5 293.5,279.5 Z"/></g>
<g><path style="opacity:1" fill="#06ad96" d="M 275.5,290.5 C 275.5,293.833 275.5,297.167 275.5,300.5C 272.167,300.5 268.833,300.5 265.5,300.5C 268.5,296.833 271.833,293.5 275.5,290.5 Z"/></g>
<g><path style="opacity:1" fill="#fefefe" d="M 254.5,308.5 C 254.5,315.167 254.5,321.833 254.5,328.5C 245.167,328.5 235.833,328.5 226.5,328.5C 226.5,335.5 226.5,342.5 226.5,349.5C 235.833,349.5 245.167,349.5 254.5,349.5C 254.5,366.5 254.5,383.5 254.5,400.5C 213.167,400.5 171.833,400.5 130.5,400.5C 127.5,400.5 124.5,400.5 121.5,400.5C 121.5,397.167 121.5,393.833 121.5,390.5C 121.5,380.5 121.5,370.5 121.5,360.5C 138.298,343.201 155.298,326.035 172.5,309C 173.5,308.333 174.5,308.333 175.5,309C 201.899,323.053 228.232,322.886 254.5,308.5 Z"/></g>
<g><path style="opacity:1" fill="#0aefd1" d="M 160.5,328.5 C 176.5,328.5 192.5,328.5 208.5,328.5C 208.5,335.5 208.5,342.5 208.5,349.5C 192.5,349.5 176.5,349.5 160.5,349.5C 160.5,342.5 160.5,335.5 160.5,328.5 Z"/></g>
<g><path style="opacity:1" fill="#03eed1" d="M 254.5,328.5 C 254.5,335.5 254.5,342.5 254.5,349.5C 245.167,349.5 235.833,349.5 226.5,349.5C 226.5,342.5 226.5,335.5 226.5,328.5C 235.833,328.5 245.167,328.5 254.5,328.5 Z"/></g>
<g><path style="opacity:1" fill="#00ae95" d="M 254.5,328.5 C 283.5,328.5 312.5,328.5 341.5,328.5C 341.5,335.5 341.5,342.5 341.5,349.5C 312.5,349.5 283.5,349.5 254.5,349.5C 254.5,342.5 254.5,335.5 254.5,328.5 Z"/></g>
<g><path style="opacity:1" fill="#fe7704" d="M 121.5,360.5 C 121.5,370.5 121.5,380.5 121.5,390.5C 113.037,382.223 105.037,373.556 97.5,364.5C 106.419,369.224 114.419,367.891 121.5,360.5 Z"/></g>
<g><path style="opacity:1" fill="#ff7701" d="M 130.5,401.5 C 130.5,404.167 130.5,406.833 130.5,409.5C 127.703,407.205 125.036,404.705 122.5,402C 125.146,401.503 127.813,401.336 130.5,401.5 Z"/></g>
<g><path style="opacity:1" fill="#cfed9b" d="M 130.5,401.5 C 171.833,401.5 213.167,401.5 254.5,401.5C 254.5,404.5 254.5,407.5 254.5,410.5C 216.167,410.5 177.833,410.5 139.5,410.5C 136.713,409.523 133.713,409.19 130.5,409.5C 130.5,406.833 130.5,404.167 130.5,401.5 Z"/></g>
<g><path style="opacity:1" fill="#fd7702" d="M 139.5,410.5 C 139.5,413.167 139.5,415.833 139.5,418.5C 136.703,416.205 134.036,413.705 131.5,411C 134.146,410.503 136.813,410.336 139.5,410.5 Z"/></g>
<g><path style="opacity:1" fill="#00eed0" d="M 139.5,410.5 C 177.833,410.5 216.167,410.5 254.5,410.5C 254.5,413.167 254.5,415.833 254.5,418.5C 216.167,418.5 177.833,418.5 139.5,418.5C 139.5,415.833 139.5,413.167 139.5,410.5 Z"/></g>
</svg>
