<?xml version="1.0" encoding="UTF-8"?>
<!DOCTYPE svg PUBLIC "-//W3C//DTD SVG 1.1//EN" "http://www.w3.org/Graphics/SVG/1.1/DTD/svg11.dtd">
<svg xmlns="http://www.w3.org/2000/svg" version="1.1" width="512px" height="512px" style="shape-rendering:geometricPrecision; text-rendering:geometricPrecision; image-rendering:optimizeQuality; fill-rule:evenodd; clip-rule:evenodd" xmlns:xlink="http://www.w3.org/1999/xlink">
<g><path style="opacity:1" fill="#2296f2" d="M 474.5,25.5 C 474.821,27.0481 475.821,27.7148 477.5,27.5C 495.659,37.328 506.993,52.328 511.5,72.5C 511.5,101.5 511.5,130.5 511.5,159.5C 340.833,159.5 170.167,159.5 -0.5,159.5C -0.5,130.5 -0.5,101.5 -0.5,72.5C 6.31934,44.8478 23.6527,27.6811 51.5,21C 187.5,20.3333 323.5,20.3333 459.5,21C 464.668,22.0405 469.668,23.5405 474.5,25.5 Z"/></g>
<g><path style="opacity:0.957" fill="#45c8f4" d="M 474.5,25.5 C 475.71,25.9321 476.71,26.5987 477.5,27.5C 475.821,27.7148 474.821,27.0481 474.5,25.5 Z"/></g>
<g><path style="opacity:0.997" fill="#cfd8dc" d="M -0.5,159.5 C 170.167,159.5 340.833,159.5 511.5,159.5C 511.5,252.167 511.5,344.833 511.5,437.5C 504.787,464.714 487.787,481.881 460.5,489C 392.197,490.157 323.863,490.657 255.5,490.5C 187.137,490.657 118.803,490.157 50.5,489C 23.2132,481.881 6.21322,464.714 -0.5,437.5C -0.5,344.833 -0.5,252.167 -0.5,159.5 Z"/></g>
<g><path style="opacity:1" fill="#fefefe" d="M 42.5,201.5 C 67.1667,201.5 91.8333,201.5 116.5,201.5C 116.5,219.5 116.5,237.5 116.5,255.5C 91.8333,255.5 67.1667,255.5 42.5,255.5C 42.5,237.5 42.5,219.5 42.5,201.5 Z"/></g>
<g><path style="opacity:1" fill="#fefefe" d="M 159.5,201.5 C 184.5,201.5 209.5,201.5 234.5,201.5C 234.5,219.5 234.5,237.5 234.5,255.5C 209.5,255.5 184.5,255.5 159.5,255.5C 159.5,237.5 159.5,219.5 159.5,201.5 Z"/></g>
<g><path style="opacity:1" fill="#fefefe" d="M 276.5,201.5 C 301.5,201.5 326.5,201.5 351.5,201.5C 351.5,219.5 351.5,237.5 351.5,255.5C 326.5,255.5 301.5,255.5 276.5,255.5C 276.5,237.5 276.5,219.5 276.5,201.5 Z"/></g>
<g><path style="opacity:1" fill="#fefefe" d="M 394.5,201.5 C 419.167,201.5 443.833,201.5 468.5,201.5C 468.5,219.5 468.5,237.5 468.5,255.5C 443.833,255.5 419.167,255.5 394.5,255.5C 394.5,237.5 394.5,219.5 394.5,201.5 Z"/></g>
<g><path style="opacity:1" fill="#fefefe" d="M 42.5,297.5 C 67.1667,297.5 91.8333,297.5 116.5,297.5C 116.5,315.5 116.5,333.5 116.5,351.5C 91.8333,351.5 67.1667,351.5 42.5,351.5C 42.5,333.5 42.5,315.5 42.5,297.5 Z"/></g>
<g><path style="opacity:1" fill="#fefefe" d="M 159.5,297.5 C 184.5,297.5 209.5,297.5 234.5,297.5C 234.5,315.5 234.5,333.5 234.5,351.5C 209.5,351.5 184.5,351.5 159.5,351.5C 159.5,333.5 159.5,315.5 159.5,297.5 Z"/></g>
<g><path style="opacity:1" fill="#fefefe" d="M 276.5,297.5 C 301.5,297.5 326.5,297.5 351.5,297.5C 351.5,315.5 351.5,333.5 351.5,351.5C 326.5,351.5 301.5,351.5 276.5,351.5C 276.5,333.5 276.5,315.5 276.5,297.5 Z"/></g>
<g><path style="opacity:1" fill="#fefefe" d="M 394.5,297.5 C 419.167,297.5 443.833,297.5 468.5,297.5C 468.5,315.5 468.5,333.5 468.5,351.5C 443.833,351.5 419.167,351.5 394.5,351.5C 394.5,333.5 394.5,315.5 394.5,297.5 Z"/></g>
<g><path style="opacity:1" fill="#fefefe" d="M 42.5,393.5 C 67.1667,393.5 91.8333,393.5 116.5,393.5C 116.5,411.5 116.5,429.5 116.5,447.5C 97.4971,447.667 78.4971,447.5 59.5,447C 51.498,444.997 45.998,440.164 43,432.5C 42.5001,419.504 42.3334,406.504 42.5,393.5 Z"/></g>
<g><path style="opacity:1" fill="#fefefe" d="M 159.5,393.5 C 184.5,393.5 209.5,393.5 234.5,393.5C 234.5,411.5 234.5,429.5 234.5,447.5C 209.5,447.5 184.5,447.5 159.5,447.5C 159.5,429.5 159.5,411.5 159.5,393.5 Z"/></g>
<g><path style="opacity:1" fill="#fefefe" d="M 276.5,393.5 C 301.5,393.5 326.5,393.5 351.5,393.5C 351.5,411.5 351.5,429.5 351.5,447.5C 326.5,447.5 301.5,447.5 276.5,447.5C 276.5,429.5 276.5,411.5 276.5,393.5 Z"/></g>
<g><path style="opacity:1" fill="#fefefe" d="M 468.5,394.5 C 468.925,407.894 468.425,421.227 467,434.5C 464.013,441.321 458.846,445.321 451.5,446.5C 432.5,446.5 413.5,446.5 394.5,446.5C 394.5,429.167 394.5,411.833 394.5,394.5C 419.167,394.5 443.833,394.5 468.5,394.5 Z"/></g>
<g><path style="opacity:1" fill="#eaeef0" d="M 468.5,394.5 C 443.833,394.5 419.167,394.5 394.5,394.5C 394.5,411.833 394.5,429.167 394.5,446.5C 413.5,446.5 432.5,446.5 451.5,446.5C 432.341,447.497 413.007,447.83 393.5,447.5C 393.5,429.5 393.5,411.5 393.5,393.5C 418.672,393.169 443.672,393.502 468.5,394.5 Z"/></g>
</svg>
