<?xml version="1.0" encoding="UTF-8"?>
<!DOCTYPE svg PUBLIC "-//W3C//DTD SVG 1.1//EN" "http://www.w3.org/Graphics/SVG/1.1/DTD/svg11.dtd">
<svg xmlns="http://www.w3.org/2000/svg" version="1.1" width="512px" height="512px" style="shape-rendering:geometricPrecision; text-rendering:geometricPrecision; image-rendering:optimizeQuality; fill-rule:evenodd; clip-rule:evenodd" xmlns:xlink="http://www.w3.org/1999/xlink">
<g><path style="opacity:0.993" fill="#63332f" d="M 22.5,20.5 C 44.1692,20.3334 65.8359,20.5 87.5,21C 88,21.5 88.5,22 89,22.5C 89.4998,32.1609 89.6665,41.8276 89.5,51.5C 90.8333,51.5 92.1667,51.5 93.5,51.5C 93.5,54.5 93.5,57.5 93.5,60.5C 92.1667,60.5 90.8333,60.5 89.5,60.5C 89.6665,70.1724 89.4998,79.8391 89,89.5C 79.5834,90.4851 70.0834,90.8184 60.5,90.5C 60.5,91.5 60.5,92.5 60.5,93.5C 57.5,93.5 54.5,93.5 51.5,93.5C 51.5,92.5 51.5,91.5 51.5,90.5C 41.4944,90.6665 31.4944,90.4998 21.5,90C 20.8742,89.2496 20.3742,88.4162 20,87.5C 19.3333,66.1667 19.3333,44.8333 20,23.5C 20.6979,22.3094 21.5313,21.3094 22.5,20.5 Z"/></g>
<g><path style="opacity:0.993" fill="#63332f" d="M 423.5,20.5 C 445.169,20.3334 466.836,20.5 488.5,21C 489.308,21.3076 489.975,21.8076 490.5,22.5C 491.655,44.1235 491.822,65.7902 491,87.5C 490.626,88.4162 490.126,89.2496 489.5,90C 479.506,90.4998 469.506,90.6665 459.5,90.5C 459.5,91.5 459.5,92.5 459.5,93.5C 456.5,93.5 453.5,93.5 450.5,93.5C 450.5,92.5 450.5,91.5 450.5,90.5C 440.917,90.8184 431.417,90.4851 422,89.5C 421.5,79.8391 421.334,70.1724 421.5,60.5C 420.167,60.5 418.833,60.5 417.5,60.5C 417.5,57.5 417.5,54.5 417.5,51.5C 418.833,51.5 420.167,51.5 421.5,51.5C 421.334,41.8276 421.5,32.1609 422,22.5C 422.717,21.9558 423.217,21.2891 423.5,20.5 Z"/></g>
<g><path style="opacity:1" fill="#81d8fd" d="M 28.5,29.5 C 46.1667,29.5 63.8333,29.5 81.5,29.5C 81.5,47.1667 81.5,64.8333 81.5,82.5C 63.8333,82.5 46.1667,82.5 28.5,82.5C 28.5,64.8333 28.5,47.1667 28.5,29.5 Z"/></g>
<g><path style="opacity:1" fill="#81d8fd" d="M 429.5,29.5 C 447.167,29.5 464.833,29.5 482.5,29.5C 482.5,47.1667 482.5,64.8333 482.5,82.5C 464.833,82.5 447.167,82.5 429.5,82.5C 429.5,64.8333 429.5,47.1667 429.5,29.5 Z"/></g>
<g><path style="opacity:0.869" fill="#62302d" d="M 108.5,51.5 C 113.833,51.5 119.167,51.5 124.5,51.5C 124.5,54.5 124.5,57.5 124.5,60.5C 119.167,60.5 113.833,60.5 108.5,60.5C 108.5,57.5 108.5,54.5 108.5,51.5 Z"/></g>
<g><path style="opacity:0.865" fill="#62302d" d="M 139.5,51.5 C 144.833,51.5 150.167,51.5 155.5,51.5C 155.5,54.5 155.5,57.5 155.5,60.5C 150.167,60.5 144.833,60.5 139.5,60.5C 139.5,57.5 139.5,54.5 139.5,51.5 Z"/></g>
<g><path style="opacity:0.869" fill="#62302d" d="M 170.5,51.5 C 175.833,51.5 181.167,51.5 186.5,51.5C 186.5,54.5 186.5,57.5 186.5,60.5C 181.167,60.5 175.833,60.5 170.5,60.5C 170.5,57.5 170.5,54.5 170.5,51.5 Z"/></g>
<g><path style="opacity:0.858" fill="#62302d" d="M 201.5,51.5 C 206.833,51.5 212.167,51.5 217.5,51.5C 217.5,54.5 217.5,57.5 217.5,60.5C 212.167,60.5 206.833,60.5 201.5,60.5C 201.5,57.5 201.5,54.5 201.5,51.5 Z"/></g>
<g><path style="opacity:0.885" fill="#63302d" d="M 231.5,51.5 C 237.167,51.5 242.833,51.5 248.5,51.5C 248.5,54.5 248.5,57.5 248.5,60.5C 242.833,60.5 237.167,60.5 231.5,60.5C 231.5,57.5 231.5,54.5 231.5,51.5 Z"/></g>
<g><path style="opacity:0.848" fill="#62302d" d="M 262.5,51.5 C 268.167,51.5 273.833,51.5 279.5,51.5C 279.5,54.5 279.5,57.5 279.5,60.5C 273.833,60.5 268.167,60.5 262.5,60.5C 262.5,57.5 262.5,54.5 262.5,51.5 Z"/></g>
<g><path style="opacity:0.861" fill="#62302d" d="M 293.5,51.5 C 298.833,51.5 304.167,51.5 309.5,51.5C 309.5,54.5 309.5,57.5 309.5,60.5C 304.167,60.5 298.833,60.5 293.5,60.5C 293.5,57.5 293.5,54.5 293.5,51.5 Z"/></g>
<g><path style="opacity:0.869" fill="#62302d" d="M 324.5,51.5 C 329.833,51.5 335.167,51.5 340.5,51.5C 340.5,54.5 340.5,57.5 340.5,60.5C 335.167,60.5 329.833,60.5 324.5,60.5C 324.5,57.5 324.5,54.5 324.5,51.5 Z"/></g>
<g><path style="opacity:0.865" fill="#62302d" d="M 355.5,51.5 C 360.833,51.5 366.167,51.5 371.5,51.5C 371.5,54.5 371.5,57.5 371.5,60.5C 366.167,60.5 360.833,60.5 355.5,60.5C 355.5,57.5 355.5,54.5 355.5,51.5 Z"/></g>
<g><path style="opacity:0.869" fill="#62302d" d="M 386.5,51.5 C 391.833,51.5 397.167,51.5 402.5,51.5C 402.5,54.5 402.5,57.5 402.5,60.5C 397.167,60.5 391.833,60.5 386.5,60.5C 386.5,57.5 386.5,54.5 386.5,51.5 Z"/></g>
<g><path style="opacity:0.972" fill="#64322e" d="M 109.5,105.5 C 206.834,105.333 304.167,105.5 401.5,106C 402,106.5 402.5,107 403,107.5C 403.667,133.167 403.667,158.833 403,184.5C 402.5,185 402,185.5 401.5,186C 380.167,186.667 358.833,186.667 337.5,186C 336.333,185.5 335.5,184.667 335,183.5C 336.062,176.061 333.895,169.894 328.5,165C 318.58,163.577 308.58,163.077 298.5,163.5C 298.333,227.501 298.5,291.501 299,355.5C 300.442,359.275 302.942,362.108 306.5,364C 313.833,364.333 321.167,364.667 328.5,365C 329.308,365.308 329.975,365.808 330.5,366.5C 331.646,378.787 331.813,391.121 331,403.5C 330.626,404.416 330.126,405.25 329.5,406C 280.167,406.667 230.833,406.667 181.5,406C 180.874,405.25 180.374,404.416 180,403.5C 179.187,391.121 179.354,378.787 180.5,366.5C 181.025,365.808 181.692,365.308 182.5,365C 190.577,364.902 198.577,364.235 206.5,363C 209.106,361.062 210.939,358.562 212,355.5C 212.5,291.501 212.667,227.501 212.5,163.5C 202.42,163.077 192.42,163.577 182.5,165C 177.105,169.894 174.938,176.061 176,183.5C 175.5,184.667 174.667,185.5 173.5,186C 152.167,186.667 130.833,186.667 109.5,186C 109,185.5 108.5,185 108,184.5C 107.333,158.833 107.333,133.167 108,107.5C 108.717,106.956 109.217,106.289 109.5,105.5 Z"/></g>
<g><path style="opacity:0.869" fill="#62302d" d="M 51.5,108.5 C 54.5,108.5 57.5,108.5 60.5,108.5C 60.5,113.833 60.5,119.167 60.5,124.5C 57.5,124.5 54.5,124.5 51.5,124.5C 51.5,119.167 51.5,113.833 51.5,108.5 Z"/></g>
<g><path style="opacity:0.869" fill="#62302d" d="M 450.5,108.5 C 453.5,108.5 456.5,108.5 459.5,108.5C 459.5,113.833 459.5,119.167 459.5,124.5C 456.5,124.5 453.5,124.5 450.5,124.5C 450.5,119.167 450.5,113.833 450.5,108.5 Z"/></g>
<g><path style="opacity:1" fill="#feeccd" d="M 366.5,127.5 C 287.167,127.5 207.833,127.5 128.5,127.5C 128.5,144.167 128.5,160.833 128.5,177.5C 124.167,177.5 119.833,177.5 115.5,177.5C 115.5,156.5 115.5,135.5 115.5,114.5C 199.167,114.5 282.833,114.5 366.5,114.5C 366.5,118.833 366.5,123.167 366.5,127.5 Z"/></g>
<g><path style="opacity:1" fill="#c59858" d="M 375.5,114.5 C 375.5,135.5 375.5,156.5 375.5,177.5C 381.833,177.5 388.167,177.5 394.5,177.5C 394.5,156.5 394.5,135.5 394.5,114.5C 395.497,135.66 395.831,156.993 395.5,178.5C 388.5,178.5 381.5,178.5 374.5,178.5C 374.169,156.993 374.503,135.66 375.5,114.5 Z"/></g>
<g><path style="opacity:1" fill="#eec369" d="M 375.5,114.5 C 381.833,114.5 388.167,114.5 394.5,114.5C 394.5,135.5 394.5,156.5 394.5,177.5C 388.167,177.5 381.833,177.5 375.5,177.5C 375.5,156.5 375.5,135.5 375.5,114.5 Z"/></g>
<g><path style="opacity:1" fill="#f8dc9c" d="M 366.5,127.5 C 366.5,144.5 366.5,161.5 366.5,178.5C 358.833,178.5 351.167,178.5 343.5,178.5C 343.831,167.349 338.831,159.849 328.5,156C 307.218,154.379 285.884,154.045 264.5,155C 263.333,155.5 262.5,156.333 262,157.5C 261.333,223.833 261.333,290.167 262,356.5C 264.059,364.893 269.225,370.393 277.5,373C 282.823,373.499 288.156,373.666 293.5,373.5C 293.5,381.5 293.5,389.5 293.5,397.5C 262.833,397.5 232.167,397.5 201.5,397.5C 201.5,393.833 201.5,390.167 201.5,386.5C 219.324,385.342 229.991,376.009 233.5,358.5C 234.499,290.669 234.833,222.669 234.5,154.5C 229.167,154.5 223.833,154.5 218.5,154.5C 197.831,154.333 177.164,154.5 156.5,155C 147.249,157.417 141.582,163.25 139.5,172.5C 138.549,173.919 138.216,175.585 138.5,177.5C 135.167,177.5 131.833,177.5 128.5,177.5C 128.5,160.833 128.5,144.167 128.5,127.5C 207.833,127.5 287.167,127.5 366.5,127.5 Z"/></g>
<g><path style="opacity:0.865" fill="#62302d" d="M 51.5,139.5 C 54.5,139.5 57.5,139.5 60.5,139.5C 60.5,144.833 60.5,150.167 60.5,155.5C 57.5,155.5 54.5,155.5 51.5,155.5C 51.5,150.167 51.5,144.833 51.5,139.5 Z"/></g>
<g><path style="opacity:0.865" fill="#62302d" d="M 450.5,139.5 C 453.5,139.5 456.5,139.5 459.5,139.5C 459.5,144.833 459.5,150.167 459.5,155.5C 456.5,155.5 453.5,155.5 450.5,155.5C 450.5,150.167 450.5,144.833 450.5,139.5 Z"/></g>
<g><path style="opacity:1" fill="#fbe9ca" d="M 219.5,155.5 C 224.167,155.5 228.833,155.5 233.5,155.5C 233.5,223.167 233.5,290.833 233.5,358.5C 229.991,376.009 219.324,385.342 201.5,386.5C 201.5,390.167 201.5,393.833 201.5,397.5C 197.167,397.5 192.833,397.5 188.5,397.5C 188.5,389.5 188.5,381.5 188.5,373.5C 199.831,375.89 209.331,372.89 217,364.5C 218.275,362.283 219.275,359.949 220,357.5C 220.829,290.096 220.663,222.763 219.5,155.5 Z"/></g>
<g><path style="opacity:1" fill="#fbe4b2" d="M 218.5,154.5 C 223.833,154.5 229.167,154.5 234.5,154.5C 234.833,222.669 234.499,290.669 233.5,358.5C 233.5,290.833 233.5,223.167 233.5,155.5C 228.833,155.5 224.167,155.5 219.5,155.5C 218.833,155.5 218.5,155.167 218.5,154.5 Z"/></g>
<g><path style="opacity:1" fill="#e9bd67" d="M 167.5,177.5 C 160.833,177.5 154.167,177.5 147.5,177.5C 147.5,176.167 147.5,174.833 147.5,173.5C 148.236,169.209 150.569,166.042 154.5,164C 160.11,162.314 165.777,162.147 171.5,163.5C 168.407,167.681 167.073,172.347 167.5,177.5 Z"/></g>
<g><path style="opacity:1" fill="#edc169" d="M 269.5,163.5 C 276.167,163.5 282.833,163.5 289.5,163.5C 289.168,227.336 289.501,291.002 290.5,354.5C 290.944,358.332 292.278,361.832 294.5,365C 288.415,365.861 282.415,365.527 276.5,364C 273.255,362.019 271.089,359.186 270,355.5C 269.5,291.501 269.333,227.501 269.5,163.5 Z"/></g>
<g><path style="opacity:1" fill="#b48550" d="M 269.5,163.5 C 276.313,162.509 283.313,162.175 290.5,162.5C 290.5,226.5 290.5,290.5 290.5,354.5C 289.501,291.002 289.168,227.336 289.5,163.5C 282.833,163.5 276.167,163.5 269.5,163.5 Z"/></g>
<g><path style="opacity:0.869" fill="#62302d" d="M 51.5,170.5 C 54.5,170.5 57.5,170.5 60.5,170.5C 60.5,175.833 60.5,181.167 60.5,186.5C 57.5,186.5 54.5,186.5 51.5,186.5C 51.5,181.167 51.5,175.833 51.5,170.5 Z"/></g>
<g><path style="opacity:0.869" fill="#62302d" d="M 450.5,170.5 C 453.5,170.5 456.5,170.5 459.5,170.5C 459.5,175.833 459.5,181.167 459.5,186.5C 456.5,186.5 453.5,186.5 450.5,186.5C 450.5,181.167 450.5,175.833 450.5,170.5 Z"/></g>
<g><path style="opacity:1" fill="#b28d6f" d="M 139.5,172.5 C 139.5,174.5 139.5,176.5 139.5,178.5C 131.316,178.826 123.316,178.492 115.5,177.5C 119.833,177.5 124.167,177.5 128.5,177.5C 131.833,177.5 135.167,177.5 138.5,177.5C 138.216,175.585 138.549,173.919 139.5,172.5 Z"/></g>
<g><path style="opacity:1" fill="#a7784b" d="M 147.5,173.5 C 147.5,174.833 147.5,176.167 147.5,177.5C 154.167,177.5 160.833,177.5 167.5,177.5C 160.687,178.491 153.687,178.825 146.5,178.5C 146.216,176.585 146.549,174.919 147.5,173.5 Z"/></g>
<g><path style="opacity:0.858" fill="#62302d" d="M 51.5,201.5 C 54.5,201.5 57.5,201.5 60.5,201.5C 60.5,206.833 60.5,212.167 60.5,217.5C 57.5,217.5 54.5,217.5 51.5,217.5C 51.5,212.167 51.5,206.833 51.5,201.5 Z"/></g>
<g><path style="opacity:0.858" fill="#62302d" d="M 450.5,201.5 C 453.5,201.5 456.5,201.5 459.5,201.5C 459.5,206.833 459.5,212.167 459.5,217.5C 456.5,217.5 453.5,217.5 450.5,217.5C 450.5,212.167 450.5,206.833 450.5,201.5 Z"/></g>
<g><path style="opacity:0.853" fill="#62302d" d="M 51.5,231.5 C 54.5,231.5 57.5,231.5 60.5,231.5C 60.5,237.167 60.5,242.833 60.5,248.5C 57.5,248.5 54.5,248.5 51.5,248.5C 51.5,242.833 51.5,237.167 51.5,231.5 Z"/></g>
<g><path style="opacity:0.853" fill="#62302d" d="M 450.5,231.5 C 453.5,231.5 456.5,231.5 459.5,231.5C 459.5,237.167 459.5,242.833 459.5,248.5C 456.5,248.5 453.5,248.5 450.5,248.5C 450.5,242.833 450.5,237.167 450.5,231.5 Z"/></g>
<g><path style="opacity:0.848" fill="#62302d" d="M 51.5,262.5 C 54.5,262.5 57.5,262.5 60.5,262.5C 60.5,268.167 60.5,273.833 60.5,279.5C 57.5,279.5 54.5,279.5 51.5,279.5C 51.5,273.833 51.5,268.167 51.5,262.5 Z"/></g>
<g><path style="opacity:0.848" fill="#62302d" d="M 450.5,262.5 C 453.5,262.5 456.5,262.5 459.5,262.5C 459.5,268.167 459.5,273.833 459.5,279.5C 456.5,279.5 453.5,279.5 450.5,279.5C 450.5,273.833 450.5,268.167 450.5,262.5 Z"/></g>
<g><path style="opacity:0.858" fill="#62302d" d="M 51.5,293.5 C 54.5,293.5 57.5,293.5 60.5,293.5C 60.5,298.833 60.5,304.167 60.5,309.5C 57.5,309.5 54.5,309.5 51.5,309.5C 51.5,304.167 51.5,298.833 51.5,293.5 Z"/></g>
<g><path style="opacity:0.858" fill="#62302d" d="M 450.5,293.5 C 453.5,293.5 456.5,293.5 459.5,293.5C 459.5,298.833 459.5,304.167 459.5,309.5C 456.5,309.5 453.5,309.5 450.5,309.5C 450.5,304.167 450.5,298.833 450.5,293.5 Z"/></g>
<g><path style="opacity:0.869" fill="#62302d" d="M 51.5,324.5 C 54.5,324.5 57.5,324.5 60.5,324.5C 60.5,329.833 60.5,335.167 60.5,340.5C 57.5,340.5 54.5,340.5 51.5,340.5C 51.5,335.167 51.5,329.833 51.5,324.5 Z"/></g>
<g><path style="opacity:0.869" fill="#62302d" d="M 450.5,324.5 C 453.5,324.5 456.5,324.5 459.5,324.5C 459.5,329.833 459.5,335.167 459.5,340.5C 456.5,340.5 453.5,340.5 450.5,340.5C 450.5,335.167 450.5,329.833 450.5,324.5 Z"/></g>
<g><path style="opacity:0.865" fill="#62302d" d="M 51.5,355.5 C 54.5,355.5 57.5,355.5 60.5,355.5C 60.5,360.833 60.5,366.167 60.5,371.5C 57.5,371.5 54.5,371.5 51.5,371.5C 51.5,366.167 51.5,360.833 51.5,355.5 Z"/></g>
<g><path style="opacity:0.865" fill="#62302d" d="M 450.5,355.5 C 453.5,355.5 456.5,355.5 459.5,355.5C 459.5,360.833 459.5,366.167 459.5,371.5C 456.5,371.5 453.5,371.5 450.5,371.5C 450.5,366.167 450.5,360.833 450.5,355.5 Z"/></g>
<g><path style="opacity:1" fill="#edc169" d="M 302.5,373.5 C 309.167,373.5 315.833,373.5 322.5,373.5C 322.5,381.833 322.5,390.167 322.5,398.5C 315.833,398.5 309.167,398.5 302.5,398.5C 302.5,390.167 302.5,381.833 302.5,373.5 Z"/></g>
<g><path style="opacity:0.869" fill="#62302d" d="M 51.5,386.5 C 54.5,386.5 57.5,386.5 60.5,386.5C 60.5,391.833 60.5,397.167 60.5,402.5C 57.5,402.5 54.5,402.5 51.5,402.5C 51.5,397.167 51.5,391.833 51.5,386.5 Z"/></g>
<g><path style="opacity:0.869" fill="#62302d" d="M 450.5,386.5 C 453.5,386.5 456.5,386.5 459.5,386.5C 459.5,391.833 459.5,397.167 459.5,402.5C 456.5,402.5 453.5,402.5 450.5,402.5C 450.5,397.167 450.5,391.833 450.5,386.5 Z"/></g>
<g><path style="opacity:1" fill="#cfae81" d="M 293.5,373.5 C 294.493,381.65 294.826,389.983 294.5,398.5C 258.996,398.832 223.663,398.498 188.5,397.5C 192.833,397.5 197.167,397.5 201.5,397.5C 232.167,397.5 262.833,397.5 293.5,397.5C 293.5,389.5 293.5,381.5 293.5,373.5 Z"/></g>
<g><path style="opacity:0.993" fill="#63332f" d="M 51.5,417.5 C 54.5,417.5 57.5,417.5 60.5,417.5C 60.5,418.5 60.5,419.5 60.5,420.5C 70.0834,420.182 79.5834,420.515 89,421.5C 89.4998,431.161 89.6665,440.828 89.5,450.5C 90.8333,450.5 92.1667,450.5 93.5,450.5C 93.5,453.5 93.5,456.5 93.5,459.5C 92.1667,459.5 90.8333,459.5 89.5,459.5C 89.6665,469.172 89.4998,478.839 89,488.5C 88.5,489 88,489.5 87.5,490C 65.8333,490.667 44.1667,490.667 22.5,490C 21.6919,489.692 21.0253,489.192 20.5,488.5C 19.3447,466.876 19.178,445.21 20,423.5C 20.3742,422.584 20.8742,421.75 21.5,421C 31.4944,420.5 41.4944,420.334 51.5,420.5C 51.5,419.5 51.5,418.5 51.5,417.5 Z"/></g>
<g><path style="opacity:0.993" fill="#63332f" d="M 450.5,417.5 C 453.5,417.5 456.5,417.5 459.5,417.5C 459.5,418.5 459.5,419.5 459.5,420.5C 469.506,420.334 479.506,420.5 489.5,421C 490.126,421.75 490.626,422.584 491,423.5C 491.822,445.21 491.655,466.876 490.5,488.5C 489.975,489.192 489.308,489.692 488.5,490C 466.833,490.667 445.167,490.667 423.5,490C 423,489.5 422.5,489 422,488.5C 421.5,478.839 421.334,469.172 421.5,459.5C 420.167,459.5 418.833,459.5 417.5,459.5C 417.5,456.5 417.5,453.5 417.5,450.5C 418.833,450.5 420.167,450.5 421.5,450.5C 421.334,440.828 421.5,431.161 422,421.5C 431.417,420.515 440.917,420.182 450.5,420.5C 450.5,419.5 450.5,418.5 450.5,417.5 Z"/></g>
<g><path style="opacity:1" fill="#81d8fd" d="M 28.5,428.5 C 46.1667,428.5 63.8333,428.5 81.5,428.5C 81.5,446.167 81.5,463.833 81.5,481.5C 63.8333,481.5 46.1667,481.5 28.5,481.5C 28.5,463.833 28.5,446.167 28.5,428.5 Z"/></g>
<g><path style="opacity:1" fill="#81d8fd" d="M 429.5,428.5 C 447.167,428.5 464.833,428.5 482.5,428.5C 482.5,446.167 482.5,463.833 482.5,481.5C 464.833,481.5 447.167,481.5 429.5,481.5C 429.5,463.833 429.5,446.167 429.5,428.5 Z"/></g>
<g><path style="opacity:0.869" fill="#62302d" d="M 108.5,450.5 C 113.833,450.5 119.167,450.5 124.5,450.5C 124.5,453.5 124.5,456.5 124.5,459.5C 119.167,459.5 113.833,459.5 108.5,459.5C 108.5,456.5 108.5,453.5 108.5,450.5 Z"/></g>
<g><path style="opacity:0.865" fill="#62302d" d="M 139.5,450.5 C 144.833,450.5 150.167,450.5 155.5,450.5C 155.5,453.5 155.5,456.5 155.5,459.5C 150.167,459.5 144.833,459.5 139.5,459.5C 139.5,456.5 139.5,453.5 139.5,450.5 Z"/></g>
<g><path style="opacity:0.869" fill="#62302d" d="M 170.5,450.5 C 175.833,450.5 181.167,450.5 186.5,450.5C 186.5,453.5 186.5,456.5 186.5,459.5C 181.167,459.5 175.833,459.5 170.5,459.5C 170.5,456.5 170.5,453.5 170.5,450.5 Z"/></g>
<g><path style="opacity:0.858" fill="#62302d" d="M 201.5,450.5 C 206.833,450.5 212.167,450.5 217.5,450.5C 217.5,453.5 217.5,456.5 217.5,459.5C 212.167,459.5 206.833,459.5 201.5,459.5C 201.5,456.5 201.5,453.5 201.5,450.5 Z"/></g>
<g><path style="opacity:0.885" fill="#63302d" d="M 231.5,450.5 C 237.167,450.5 242.833,450.5 248.5,450.5C 248.5,453.5 248.5,456.5 248.5,459.5C 242.833,459.5 237.167,459.5 231.5,459.5C 231.5,456.5 231.5,453.5 231.5,450.5 Z"/></g>
<g><path style="opacity:0.848" fill="#62302d" d="M 262.5,450.5 C 268.167,450.5 273.833,450.5 279.5,450.5C 279.5,453.5 279.5,456.5 279.5,459.5C 273.833,459.5 268.167,459.5 262.5,459.5C 262.5,456.5 262.5,453.5 262.5,450.5 Z"/></g>
<g><path style="opacity:0.861" fill="#62302d" d="M 293.5,450.5 C 298.833,450.5 304.167,450.5 309.5,450.5C 309.5,453.5 309.5,456.5 309.5,459.5C 304.167,459.5 298.833,459.5 293.5,459.5C 293.5,456.5 293.5,453.5 293.5,450.5 Z"/></g>
<g><path style="opacity:0.869" fill="#62302d" d="M 324.5,450.5 C 329.833,450.5 335.167,450.5 340.5,450.5C 340.5,453.5 340.5,456.5 340.5,459.5C 335.167,459.5 329.833,459.5 324.5,459.5C 324.5,456.5 324.5,453.5 324.5,450.5 Z"/></g>
<g><path style="opacity:0.865" fill="#62302d" d="M 355.5,450.5 C 360.833,450.5 366.167,450.5 371.5,450.5C 371.5,453.5 371.5,456.5 371.5,459.5C 366.167,459.5 360.833,459.5 355.5,459.5C 355.5,456.5 355.5,453.5 355.5,450.5 Z"/></g>
<g><path style="opacity:0.869" fill="#62302d" d="M 386.5,450.5 C 391.833,450.5 397.167,450.5 402.5,450.5C 402.5,453.5 402.5,456.5 402.5,459.5C 397.167,459.5 391.833,459.5 386.5,459.5C 386.5,456.5 386.5,453.5 386.5,450.5 Z"/></g>
</svg>
