<svg version="1.1" id="Layer_1" xmlns="http://www.w3.org/2000/svg" xmlns:xlink="http://www.w3.org/1999/xlink" x="0px" y="0px"
	 width="100%" viewBox="0 0 443 114" enable-background="new 0 0 443 114" xml:space="preserve">
<path fill="#FDFDFE" opacity="1.000000" stroke="none" 
	d="
M318.000000,115.000000 
	C212.000015,115.000000 106.500023,115.000000 1.000028,115.000000 
	C1.000019,77.000015 1.000019,39.000034 1.000009,1.000039 
	C148.666641,1.000026 296.333282,1.000026 443.999939,1.000013 
	C443.999939,38.999962 443.999939,76.999924 443.999969,114.999939 
	C402.166656,115.000000 360.333344,115.000000 318.000000,115.000000 
M6.001543,57.856800 
	C6.344286,57.848633 6.687030,57.840469 7.941866,57.930435 
	C11.617684,57.897404 15.293502,57.864372 19.878069,58.036629 
	C23.877882,58.082081 27.877693,58.127533 31.896523,58.806469 
	C31.985399,59.215515 32.074276,59.624557 32.054703,60.712147 
	C32.341747,61.552914 32.628796,62.393684 32.855820,63.966599 
	C35.063671,71.647827 39.794010,76.876450 47.947659,79.468704 
	C47.947659,79.468704 48.417225,79.622185 48.417225,79.622185 
	C48.417225,79.622185 48.908150,79.567902 49.661839,79.908318 
	C50.749714,80.005379 51.837589,80.102440 53.440620,80.439888 
	C53.959473,80.632607 54.478321,80.825333 54.989441,81.925507 
	C54.991558,85.229774 54.993679,88.534035 54.143513,92.078400 
	C44.576187,92.465698 37.021313,87.898514 30.318438,82.327827 
	C22.091175,90.307755 14.022515,98.133842 5.239498,106.329559 
	C5.601573,106.589264 5.964215,107.076820 6.325643,107.075928 
	C22.207300,107.036423 38.088848,106.953781 54.860245,107.018150 
	C85.612411,107.201622 105.963585,80.223869 104.338783,57.083176 
	C98.921509,57.083176 93.479591,57.083176 87.485008,56.470551 
	C84.323845,56.313343 81.162689,56.156139 77.063965,55.997349 
	C72.305077,55.999138 67.546181,56.002167 62.787289,56.002415 
	C55.961250,56.002773 55.960903,56.001904 56.050793,49.018757 
	C56.055019,48.690697 56.075069,48.362843 56.843830,48.012302 
	C57.859077,48.021084 58.874329,48.029869 60.496937,48.145828 
	C61.870350,48.057194 63.683487,48.492783 64.533310,47.779945 
	C66.918907,45.778900 68.907356,43.304382 71.686668,40.801285 
	C82.267990,30.174852 92.849312,19.548420 104.108238,8.241499 
	C86.017471,8.241499 69.203827,7.966787 52.402607,8.306680 
	C27.954102,8.801279 7.234750,29.096390 5.246892,54.104469 
	C5.380047,55.144215 5.513201,56.183956 5.683513,57.307045 
	C5.683513,57.307045 5.722309,57.389637 6.001543,57.856800 
M214.765045,80.952705 
	C217.472794,81.327820 219.333130,80.820900 220.545837,77.786720 
	C221.060165,76.499855 223.814819,75.513435 225.578812,75.468391 
	C227.895996,75.409218 231.271851,73.738716 232.317627,77.608994 
	C233.335770,81.377029 235.831039,81.447556 239.063126,80.664703 
	C237.384232,76.504906 235.760834,72.358833 234.037506,68.254738 
	C232.816742,65.347565 231.688934,62.358616 230.063950,59.682915 
	C229.311264,58.443523 227.425659,57.112644 226.138809,57.192673 
	C224.806732,57.275505 222.993591,58.755875 222.402252,60.077492 
	C219.423691,66.734413 216.775558,73.539192 213.315979,80.094475 
	C211.555771,77.302994 209.795563,74.511513 207.915253,71.529556 
	C212.064636,69.075127 213.505615,65.465347 212.003204,61.273693 
	C210.404419,56.813110 206.233490,56.962177 202.354630,56.977592 
	C198.912994,56.991264 195.471252,56.980465 191.857391,56.980465 
	C191.857391,65.151230 191.857391,72.892975 191.857391,80.767151 
	C193.479095,80.767151 194.898987,80.767151 196.728317,80.767151 
	C196.728317,77.775146 196.728317,75.017654 196.728317,72.342842 
	C201.193192,70.729828 203.753662,72.297409 205.132477,76.178047 
	C206.676514,80.523735 209.561249,82.098236 214.765045,80.952705 
M289.670258,81.215294 
	C294.792938,80.468964 297.698547,77.409286 298.283081,72.386696 
	C298.885803,67.207909 299.154694,61.849506 294.016083,58.524059 
	C289.669830,55.711391 284.828156,55.916298 280.206787,57.838299 
	C275.795959,59.672733 274.692535,63.657684 274.451141,68.030678 
	C273.913849,77.765274 278.178040,81.725250 289.670258,81.215294 
M392.696625,79.282753 
	C397.127045,75.760788 396.640167,70.827156 396.371124,66.037575 
	C396.094147,61.106678 393.257019,58.130287 388.559814,56.989452 
	C382.574066,55.535656 376.396088,57.216232 374.300873,61.300190 
	C371.656525,66.454445 371.647156,72.018303 374.489014,77.050819 
	C377.041809,81.571533 381.856293,81.718910 386.408112,81.389488 
	C388.325684,81.250717 390.184143,80.294617 392.696625,79.282753 
M313.736511,74.817955 
	C315.590210,78.499367 317.076599,82.746704 322.925049,80.542038 
	C322.925049,72.898384 322.925049,65.165504 322.925049,57.385292 
	C321.210358,57.385292 319.708679,57.385292 317.852509,57.385292 
	C317.852509,62.598354 317.852509,67.437080 317.852509,73.620583 
	C315.201355,68.852394 313.009735,65.374359 311.282593,61.679207 
	C309.401642,57.654984 306.776917,55.841290 301.941010,57.540771 
	C301.941010,61.168972 301.941010,64.960358 301.941010,68.751747 
	C301.941010,72.702438 301.941010,76.653122 301.941010,80.630196 
	C303.923248,80.630196 305.437683,80.630196 307.340271,80.630196 
	C307.340271,75.126137 307.340271,69.980331 307.340271,63.561649 
	C309.766388,67.878029 311.543884,71.040451 313.736511,74.817955 
M368.150848,76.304909 
	C367.202606,74.745415 366.254333,73.185928 365.167755,71.398926 
	C369.011627,69.449638 371.170593,66.112404 369.551331,62.148727 
	C368.673828,60.000801 365.764862,57.691673 363.471191,57.321754 
	C358.834259,56.573891 353.992004,57.098740 349.060669,57.098740 
	C349.060669,65.113098 349.054596,72.583115 349.085205,80.052994 
	C349.086273,80.319542 349.449341,80.584610 349.801605,81.066322 
	C351.079834,80.947777 352.487854,80.817184 354.219543,80.656578 
	C354.219543,77.548912 354.219543,74.777252 354.219543,72.139206 
	C362.250000,69.882126 362.072540,77.252975 365.232758,80.719299 
	C366.833801,80.719299 368.543915,80.719299 370.728882,80.719299 
	C369.830872,79.173492 369.175598,78.045555 368.150848,76.304909 
M427.721832,56.989826 
	C426.890167,56.996548 426.054749,56.954494 425.227417,57.017879 
	C419.737640,57.438477 417.146820,59.933304 417.309814,64.609451 
	C417.462097,68.977654 420.061340,71.082214 425.490082,71.200127 
	C427.152863,71.236244 428.921936,70.857224 430.451752,71.310936 
	C432.068665,71.790489 433.458282,73.036598 434.947174,73.947838 
	C433.500397,74.922440 432.123688,76.581047 430.593140,76.737862 
	C426.677612,77.139023 422.693542,76.871651 417.194946,76.871651 
	C418.666229,78.913284 419.377777,80.819214 420.174225,80.855339 
	C424.980865,81.073418 429.840027,81.188301 434.616791,80.701424 
	C439.008453,80.253792 440.628052,77.222343 440.239258,72.860306 
	C439.865082,68.661964 437.377655,67.133163 433.597076,66.994812 
	C431.104797,66.903603 428.557159,67.228661 426.134003,66.801636 
	C424.894562,66.583214 423.874207,65.121315 422.754822,64.221436 
	C423.866333,63.216030 424.881287,61.512009 426.108368,61.342331 
	C429.211548,60.913239 432.448029,61.453079 435.553314,61.031734 
	C436.955139,60.841534 438.171875,59.287556 439.472595,58.352322 
	C439.174896,57.898342 438.877228,57.444359 438.579559,56.990379 
	C435.272522,56.990379 431.965485,56.990379 427.721832,56.989826 
M118.303993,70.846725 
	C121.286491,70.969635 124.322243,70.800499 127.230476,71.330734 
	C128.839798,71.624153 130.235641,73.088379 131.727722,74.024841 
	C130.280762,75.306519 128.957581,77.470703 127.362259,77.694427 
	C123.507042,78.235069 119.524796,77.869881 114.256134,77.869881 
	C115.625305,79.262367 116.440605,80.829437 117.332893,80.874580 
	C121.807556,81.100937 126.323494,81.188927 130.784332,80.826241 
	C135.534485,80.440033 137.431915,77.792526 137.153412,73.078880 
	C136.892853,68.669083 134.239944,67.042320 130.219864,66.962318 
	C128.059357,66.919319 125.837646,67.259445 123.755913,66.852257 
	C122.250946,66.557892 120.930969,65.317764 119.528496,64.499428 
	C120.916168,63.391712 122.213417,61.501270 123.709106,61.328468 
	C127.618347,60.876804 131.614365,61.176281 135.606400,61.176281 
	C136.431122,58.330986 136.201736,56.770367 132.920609,56.945618 
	C129.272888,57.140450 125.500015,56.477119 121.985680,57.191380 
	C119.401459,57.716602 116.162994,59.303345 114.975655,61.409161 
	C113.231956,64.501732 113.803825,68.247276 118.303993,70.846725 
M187.974579,62.955540 
	C187.095245,59.173916 184.458420,57.316650 180.832642,57.132446 
	C176.246704,56.899467 171.639954,57.076168 167.042511,57.076168 
	C167.042511,65.265755 167.042511,73.006767 167.042511,81.029701 
	C168.712158,80.916504 170.105164,80.822052 171.620209,80.719337 
	C171.795944,77.975449 171.949936,75.571007 172.099945,73.228821 
	C186.855804,71.944054 187.673615,71.449654 187.974579,62.955540 
M161.873184,65.509590 
	C161.873184,62.739090 161.873184,59.968590 161.873184,56.890987 
	C159.834671,57.056545 158.435150,57.170208 156.743774,57.307571 
	C156.743774,62.619057 156.859146,67.592590 156.701767,72.557472 
	C156.602722,75.682472 154.778290,77.424660 151.558823,77.409576 
	C148.284470,77.394241 146.070267,76.055542 146.009232,72.461769 
	C145.932999,67.974182 145.969223,63.484745 145.908371,58.996765 
	C145.900024,58.380699 145.612396,57.768421 145.397324,56.934303 
	C143.847504,57.050404 142.454269,57.154774 140.934021,57.268661 
	C140.934021,62.940926 140.915009,68.244957 140.940094,73.548782 
	C140.959747,77.703445 143.329315,80.252541 147.156143,80.792450 
	C155.380295,81.952766 162.886795,81.245880 161.884323,69.462517 
	C161.800064,68.472122 161.873184,67.468353 161.873184,65.509590 
M269.493652,61.067410 
	C273.151245,61.248974 272.426880,59.244045 271.730621,57.066334 
	C268.315491,57.066334 264.974854,56.405891 262.072998,57.251411 
	C259.149902,58.103115 255.444397,59.825172 254.197128,62.252758 
	C248.999817,72.368347 254.578094,80.975693 265.763000,80.987778 
	C266.926514,80.989037 268.100006,80.889404 269.251709,81.006081 
	C272.679871,81.353363 272.505310,79.491478 271.929810,76.879639 
	C269.549805,76.879639 267.413269,76.900017 265.277252,76.875633 
	C259.917786,76.814476 258.187622,75.066277 258.118500,69.680260 
	C258.027252,62.573433 259.849243,61.069946 269.493652,61.067410 
M346.251740,58.086746 
	C339.790710,57.754726 333.330902,57.348640 326.866119,57.240551 
	C326.383240,57.232471 325.864716,59.357521 325.150055,60.971256 
	C328.254974,61.121803 330.501343,61.230724 333.269043,61.364922 
	C333.269043,68.028397 333.269043,74.410370 333.269043,80.783333 
	C335.256531,80.783333 336.692749,80.783333 338.703125,80.783333 
	C338.703125,74.178879 338.703125,67.789665 338.703125,62.732819 
	C341.898865,61.075134 344.116730,59.924698 346.251740,58.086746 
M404.907043,73.954521 
	C404.907043,68.375793 404.907043,62.797062 404.907043,56.878399 
	C402.553741,57.056622 401.165039,57.161793 399.611908,57.279415 
	C399.611908,62.443848 399.466003,67.257538 399.647736,72.058823 
	C399.891022,78.485596 402.469055,80.850021 409.020203,81.012383 
	C411.293335,81.068726 413.569000,81.021355 415.843475,81.021355 
	C416.075623,80.433792 416.307739,79.846230 416.539856,79.258667 
	C415.320618,78.505157 414.184357,77.519493 412.864380,77.047943 
	C410.352997,76.150780 407.736633,75.547455 404.907043,73.954521 
z"/>
<path fill="#060581" opacity="1.000000" stroke="none" 
	d="
M18.969318,57.831337 
	C15.293502,57.864372 11.617684,57.897404 7.315022,57.689644 
	C6.366222,57.429111 6.044266,57.409374 5.722309,57.389633 
	C5.722309,57.389637 5.683513,57.307045 5.800278,56.819832 
	C5.833761,55.416580 5.750479,54.500546 5.667197,53.584507 
	C7.234750,29.096390 27.954102,8.801279 52.402607,8.306680 
	C69.203827,7.966787 86.017471,8.241499 104.108238,8.241499 
	C92.849312,19.548420 82.267990,30.174852 71.090614,40.711937 
	C66.352219,38.639450 62.209873,36.656311 57.767075,34.464699 
	C56.662395,33.097050 55.460728,32.036621 55.142723,30.756649 
	C54.602127,28.580767 54.617905,26.266653 54.173370,23.659561 
	C38.230080,22.499901 20.219004,37.053810 20.053116,56.991940 
	C19.511496,57.323040 19.240406,57.577190 18.969318,57.831337 
z"/>
<path fill="#050481" opacity="1.000000" stroke="none" 
	d="
M5.953851,105.959930 
	C14.022515,98.133842 22.091175,90.307755 30.318438,82.327827 
	C37.021313,87.898514 44.576187,92.465698 54.993401,92.086464 
	C73.466736,91.627213 87.861404,78.496666 89.593254,61.115650 
	C89.720772,59.835865 88.585739,58.430275 88.037674,57.083176 
	C93.479591,57.083176 98.921509,57.083176 104.338783,57.083176 
	C105.963585,80.223869 85.612411,107.201622 54.104111,106.676254 
	C37.549934,106.209541 21.751890,106.084732 5.953851,105.959930 
z"/>
<path fill="#059FAC" opacity="1.000000" stroke="none" 
	d="
M47.591873,79.122528 
	C39.794010,76.876450 35.063671,71.647827 32.911079,63.251953 
	C32.698608,61.702740 32.430882,60.868172 32.163151,60.033604 
	C32.074276,59.624557 31.985399,59.215515 31.927795,58.156654 
	C31.934641,57.284229 31.910212,57.061615 31.897661,56.436577 
	C33.494781,43.408932 40.997486,36.020733 53.839890,35.011471 
	C53.968632,39.273655 54.006950,43.051914 53.692253,46.883842 
	C52.877724,47.053967 52.416206,47.170410 51.686417,47.225128 
	C50.984436,47.455746 50.550728,47.748089 49.778503,48.111229 
	C47.860924,50.320656 46.281857,52.459290 44.491833,54.920792 
	C44.506435,57.196045 44.731995,59.148418 44.982559,61.447861 
	C47.346802,63.927299 49.686035,66.059669 52.143120,68.380486 
	C52.465534,68.792534 52.709972,68.956818 53.224354,69.346558 
	C56.450401,73.312820 55.181316,76.780853 52.925465,80.199509 
	C51.837589,80.102440 50.749714,80.005379 49.098495,79.587746 
	C48.235424,79.123329 47.920994,79.075119 47.591873,79.122528 
z"/>
<path fill="#F7F9FB" opacity="1.000000" stroke="none" 
	d="
M87.761337,56.776863 
	C88.585739,58.430275 89.720772,59.835865 89.593254,61.115650 
	C87.861404,78.496666 73.466736,91.627213 55.419544,91.966415 
	C54.993679,88.534035 54.991558,85.229774 55.376251,81.380432 
	C57.542294,80.476295 59.334549,80.171593 61.098614,79.749168 
	C71.298531,77.306747 78.415779,67.720566 77.979523,56.802456 
	C77.994995,56.356159 77.998260,56.177547 78.001526,55.998932 
	C81.162689,56.156139 84.323845,56.313343 87.761337,56.776863 
z"/>
<path fill="#0F0E83" opacity="1.000000" stroke="none" 
	d="
M213.999237,80.612686 
	C209.561249,82.098236 206.676514,80.523735 205.132477,76.178047 
	C203.753662,72.297409 201.193192,70.729828 196.728317,72.342842 
	C196.728317,75.017654 196.728317,77.775146 196.728317,80.767151 
	C194.898987,80.767151 193.479095,80.767151 191.857391,80.767151 
	C191.857391,72.892975 191.857391,65.151230 191.857391,56.980465 
	C195.471252,56.980465 198.912994,56.991264 202.354630,56.977592 
	C206.233490,56.962177 210.404419,56.813110 212.003204,61.273693 
	C213.505615,65.465347 212.064636,69.075127 207.915253,71.529556 
	C209.795563,74.511513 211.555771,77.302994 213.663315,80.273529 
	C214.010651,80.452576 213.999237,80.612686 213.999237,80.612686 
M200.454865,67.158051 
	C201.437225,67.136925 202.547852,67.401611 203.373428,67.031113 
	C204.793808,66.393661 206.036575,65.360405 207.353882,64.493279 
	C206.038315,63.379856 204.879349,61.727776 203.367844,61.288322 
	C201.445557,60.729446 199.237640,61.153004 196.661530,61.153004 
	C197.416901,63.703663 194.390350,67.157982 200.454865,67.158051 
z"/>
<path fill="#0C0B82" opacity="1.000000" stroke="none" 
	d="
M289.279602,81.293991 
	C278.178040,81.725250 273.913849,77.765274 274.451141,68.030678 
	C274.692535,63.657684 275.795959,59.672733 280.206787,57.838299 
	C284.828156,55.916298 289.669830,55.711391 294.016083,58.524059 
	C299.154694,61.849506 298.885803,67.207909 298.283081,72.386696 
	C297.698547,77.409286 294.792938,80.468964 289.279602,81.293991 
M288.951782,61.023849 
	C285.603424,60.197769 282.432983,60.418430 280.988007,64.020439 
	C279.395752,67.989479 279.035583,72.237099 282.093018,75.725525 
	C285.032318,79.079140 291.288696,77.525040 292.482300,73.052467 
	C293.605377,68.844345 293.874115,64.458435 288.951782,61.023849 
z"/>
<path fill="#0A0981" opacity="1.000000" stroke="none" 
	d="
M392.383057,79.496399 
	C390.184143,80.294617 388.325684,81.250717 386.408112,81.389488 
	C381.856293,81.718910 377.041809,81.571533 374.489014,77.050819 
	C371.647156,72.018303 371.656525,66.454445 374.300873,61.300190 
	C376.396088,57.216232 382.574066,55.535656 388.559814,56.989452 
	C393.257019,58.130287 396.094147,61.106678 396.371124,66.037575 
	C396.640167,70.827156 397.127045,75.760788 392.383057,79.496399 
M390.933136,70.277565 
	C390.729370,68.488693 390.770416,66.628204 390.272308,64.925438 
	C389.133179,61.031578 384.522583,59.239742 381.196259,61.500439 
	C377.254028,64.179733 377.327759,68.543518 378.508881,72.250374 
	C379.182617,74.364754 381.973846,76.754211 384.191193,77.222557 
	C388.373810,78.106003 390.340515,75.034729 390.933136,70.277565 
z"/>
<path fill="#090982" opacity="1.000000" stroke="none" 
	d="
M313.528961,74.510414 
	C311.543884,71.040451 309.766388,67.878029 307.340271,63.561649 
	C307.340271,69.980331 307.340271,75.126137 307.340271,80.630196 
	C305.437683,80.630196 303.923248,80.630196 301.941010,80.630196 
	C301.941010,76.653122 301.941010,72.702438 301.941010,68.751747 
	C301.941010,64.960358 301.941010,61.168972 301.941010,57.540771 
	C306.776917,55.841290 309.401642,57.654984 311.282593,61.679207 
	C313.009735,65.374359 315.201355,68.852394 317.852509,73.620583 
	C317.852509,67.437080 317.852509,62.598354 317.852509,57.385292 
	C319.708679,57.385292 321.210358,57.385292 322.925049,57.385292 
	C322.925049,65.165504 322.925049,72.898384 322.925049,80.542038 
	C317.076599,82.746704 315.590210,78.499367 313.528961,74.510414 
z"/>
<path fill="#0D0C83" opacity="1.000000" stroke="none" 
	d="
M368.335602,76.611267 
	C369.175598,78.045555 369.830872,79.173492 370.728882,80.719299 
	C368.543915,80.719299 366.833801,80.719299 365.232758,80.719299 
	C362.072540,77.252975 362.250000,69.882126 354.219543,72.139206 
	C354.219543,74.777252 354.219543,77.548912 354.219543,80.656578 
	C352.487854,80.817184 351.079834,80.947777 349.801605,81.066322 
	C349.449341,80.584610 349.086273,80.319542 349.085205,80.052994 
	C349.054596,72.583115 349.060669,65.113098 349.060669,57.098740 
	C353.992004,57.098740 358.834259,56.573891 363.471191,57.321754 
	C365.764862,57.691673 368.673828,60.000801 369.551331,62.148727 
	C371.170593,66.112404 369.011627,69.449638 365.167755,71.398926 
	C366.254333,73.185928 367.202606,74.745415 368.335602,76.611267 
M357.495911,61.125156 
	C351.975159,60.831944 354.424622,64.416954 354.298553,67.039551 
	C357.112823,67.039551 359.586456,67.264023 361.981689,66.928490 
	C362.932800,66.795273 364.474030,65.334145 364.394592,64.630188 
	C364.261719,63.452866 363.267975,62.005665 362.217468,61.404350 
	C361.209198,60.827225 359.668396,61.180443 357.495911,61.125156 
z"/>
<path fill="#079EAC" opacity="1.000000" stroke="none" 
	d="
M77.967308,57.070141 
	C78.415779,67.720566 71.298531,77.306747 61.098614,79.749168 
	C59.334549,80.171593 57.542294,80.476295 55.380112,80.926712 
	C54.478321,80.825333 53.959473,80.632607 53.183044,80.319695 
	C55.181316,76.780853 56.450401,73.312820 53.479240,69.320839 
	C53.974178,68.842720 54.444294,68.675072 54.931793,68.365845 
	C54.949181,68.224274 54.992374,67.942299 55.383377,68.038589 
	C62.428787,68.064301 64.910194,63.405212 66.352226,58.424805 
	C70.548172,57.935432 74.257736,57.502789 77.967308,57.070141 
z"/>
<path fill="#0B0B82" opacity="1.000000" stroke="none" 
	d="
M428.190125,56.990105 
	C431.965485,56.990379 435.272522,56.990379 438.579559,56.990379 
	C438.877228,57.444359 439.174896,57.898342 439.472595,58.352322 
	C438.171875,59.287556 436.955139,60.841534 435.553314,61.031734 
	C432.448029,61.453079 429.211548,60.913239 426.108368,61.342331 
	C424.881287,61.512009 423.866333,63.216030 422.754822,64.221436 
	C423.874207,65.121315 424.894562,66.583214 426.134003,66.801636 
	C428.557159,67.228661 431.104797,66.903603 433.597076,66.994812 
	C437.377655,67.133163 439.865082,68.661964 440.239258,72.860306 
	C440.628052,77.222343 439.008453,80.253792 434.616791,80.701424 
	C429.840027,81.188301 424.980865,81.073418 420.174225,80.855339 
	C419.377777,80.819214 418.666229,78.913284 417.194946,76.871651 
	C422.693542,76.871651 426.677612,77.139023 430.593140,76.737862 
	C432.123688,76.581047 433.500397,74.922440 434.947174,73.947845 
	C433.458282,73.036598 432.068665,71.790489 430.451752,71.310936 
	C428.921936,70.857224 427.152863,71.236244 425.490082,71.200127 
	C420.061340,71.082214 417.462097,68.977654 417.309814,64.609451 
	C417.146820,59.933304 419.737640,57.438477 425.227417,57.017879 
	C426.054749,56.954494 426.890167,56.996548 428.190125,56.990105 
z"/>
<path fill="#0C0C82" opacity="1.000000" stroke="none" 
	d="
M117.947281,70.625252 
	C113.803825,68.247276 113.231956,64.501732 114.975655,61.409161 
	C116.162994,59.303345 119.401459,57.716602 121.985680,57.191380 
	C125.500015,56.477119 129.272888,57.140450 132.920609,56.945618 
	C136.201736,56.770367 136.431122,58.330986 135.606400,61.176281 
	C131.614365,61.176281 127.618347,60.876804 123.709106,61.328468 
	C122.213417,61.501270 120.916168,63.391712 119.528496,64.499428 
	C120.930969,65.317764 122.250946,66.557892 123.755913,66.852257 
	C125.837646,67.259445 128.059357,66.919319 130.219864,66.962318 
	C134.239944,67.042320 136.892853,68.669083 137.153412,73.078880 
	C137.431915,77.792526 135.534485,80.440033 130.784332,80.826241 
	C126.323494,81.188927 121.807556,81.100937 117.332893,80.874580 
	C116.440605,80.829437 115.625305,79.262367 114.256134,77.869881 
	C119.524796,77.869881 123.507042,78.235069 127.362259,77.694427 
	C128.957581,77.470703 130.280762,75.306519 131.727722,74.024841 
	C130.235641,73.088379 128.839798,71.624153 127.230476,71.330734 
	C124.322243,70.800499 121.286491,70.969635 117.947281,70.625252 
z"/>
<path fill="#0E0D83" opacity="1.000000" stroke="none" 
	d="
M188.021942,63.358349 
	C187.673615,71.449654 186.855804,71.944054 172.099945,73.228821 
	C171.949936,75.571007 171.795944,77.975449 171.620209,80.719337 
	C170.105164,80.822052 168.712158,80.916504 167.042511,81.029701 
	C167.042511,73.006767 167.042511,65.265755 167.042511,57.076168 
	C171.639954,57.076168 176.246704,56.899467 180.832642,57.132446 
	C184.458420,57.316650 187.095245,59.173916 188.021942,63.358349 
M171.850220,62.762554 
	C171.850220,64.497238 171.850220,66.231918 171.850220,68.089996 
	C174.716339,68.089996 177.071854,68.449074 179.229019,67.950279 
	C180.449646,67.668015 182.116394,66.015060 182.171066,64.909676 
	C182.226791,63.783154 180.683044,61.732903 179.609589,61.565937 
	C177.158615,61.184696 174.567062,61.707130 171.850220,62.762554 
z"/>
<path fill="#0D0D82" opacity="1.000000" stroke="none" 
	d="
M214.382141,80.782700 
	C213.999237,80.612686 214.010651,80.452576 214.011047,80.372330 
	C216.775558,73.539192 219.423691,66.734413 222.402252,60.077492 
	C222.993591,58.755875 224.806732,57.275505 226.138809,57.192673 
	C227.425659,57.112644 229.311264,58.443523 230.063950,59.682915 
	C231.688934,62.358616 232.816742,65.347565 234.037506,68.254738 
	C235.760834,72.358833 237.384232,76.504906 239.063126,80.664703 
	C235.831039,81.447556 233.335770,81.377029 232.317627,77.608994 
	C231.271851,73.738716 227.895996,75.409218 225.578812,75.468391 
	C223.814819,75.513435 221.060165,76.499855 220.545837,77.786720 
	C219.333130,80.820900 217.472794,81.327820 214.382141,80.782700 
M227.768433,65.362770 
	C227.376068,64.507187 226.983704,63.651600 226.277985,62.112740 
	C224.962753,65.306892 223.879883,67.936722 222.642426,70.942001 
	C225.202255,70.942001 227.128098,70.942001 229.440765,70.942001 
	C228.887344,69.152695 228.415512,67.627182 227.768433,65.362770 
z"/>
<path fill="#0E0E83" opacity="1.000000" stroke="none" 
	d="
M161.873169,65.990189 
	C161.873184,67.468353 161.800064,68.472122 161.884323,69.462517 
	C162.886795,81.245880 155.380295,81.952766 147.156143,80.792450 
	C143.329315,80.252541 140.959747,77.703445 140.940094,73.548782 
	C140.915009,68.244957 140.934021,62.940926 140.934021,57.268661 
	C142.454269,57.154774 143.847504,57.050404 145.397324,56.934303 
	C145.612396,57.768421 145.900024,58.380699 145.908371,58.996765 
	C145.969223,63.484745 145.932999,67.974182 146.009232,72.461769 
	C146.070267,76.055542 148.284470,77.394241 151.558823,77.409576 
	C154.778290,77.424660 156.602722,75.682472 156.701767,72.557472 
	C156.859146,67.592590 156.743774,62.619057 156.743774,57.307571 
	C158.435150,57.170208 159.834671,57.056545 161.873184,56.890987 
	C161.873184,59.968590 161.873184,62.739090 161.873169,65.990189 
z"/>
<path fill="#08087F" opacity="1.000000" stroke="none" 
	d="
M269.024536,61.067738 
	C259.849243,61.069946 258.027252,62.573433 258.118500,69.680260 
	C258.187622,75.066277 259.917786,76.814476 265.277252,76.875633 
	C267.413269,76.900017 269.549805,76.879639 271.929810,76.879639 
	C272.505310,79.491478 272.679871,81.353363 269.251709,81.006081 
	C268.100006,80.889404 266.926514,80.989037 265.763000,80.987778 
	C254.578094,80.975693 248.999817,72.368347 254.197128,62.252758 
	C255.444397,59.825172 259.149902,58.103115 262.072998,57.251411 
	C264.974854,56.405891 268.315491,57.066334 271.730621,57.066334 
	C272.426880,59.244045 273.151245,61.248974 269.024536,61.067738 
z"/>
<path fill="#100F83" opacity="1.000000" stroke="none" 
	d="
M346.293152,58.430504 
	C344.116730,59.924698 341.898865,61.075134 338.703125,62.732819 
	C338.703125,67.789665 338.703125,74.178879 338.703125,80.783333 
	C336.692749,80.783333 335.256531,80.783333 333.269043,80.783333 
	C333.269043,74.410370 333.269043,68.028397 333.269043,61.364922 
	C330.501343,61.230724 328.254974,61.121803 325.150055,60.971256 
	C325.864716,59.357521 326.383240,57.232471 326.866119,57.240551 
	C333.330902,57.348640 339.790710,57.754726 346.293152,58.430504 
z"/>
<path fill="#EDF3F8" opacity="1.000000" stroke="none" 
	d="
M77.979523,56.802456 
	C74.257736,57.502789 70.548172,57.935432 66.352226,58.424805 
	C64.910194,63.405212 62.428787,68.064301 55.379936,67.587509 
	C54.985592,66.050568 55.187096,65.007622 54.942127,64.082977 
	C54.490284,62.377483 53.628036,59.271740 53.195797,59.315376 
	C50.428467,59.594707 46.832172,56.922562 44.957554,61.100796 
	C44.731995,59.148418 44.506435,57.196045 44.774788,55.267159 
	C48.290352,55.571095 51.312004,55.851540 54.915524,56.185993 
	C54.915524,52.893524 54.915524,50.452484 54.952858,47.817482 
	C54.990189,47.623512 55.056709,47.234093 55.023621,47.137253 
	C54.990528,47.040413 55.050545,46.844734 55.290791,46.924210 
	C55.691296,47.056389 55.851551,47.109085 56.024063,47.380646 
	C56.036316,47.599510 56.087749,48.034893 56.087749,48.034893 
	C56.075069,48.362843 56.055019,48.690697 56.050793,49.018757 
	C55.960903,56.001904 55.961250,56.002773 62.787289,56.002415 
	C67.546181,56.002167 72.305077,55.999138 77.532745,55.998138 
	C77.998260,56.177547 77.994995,56.356159 77.979523,56.802456 
z"/>
<path fill="#131384" opacity="1.000000" stroke="none" 
	d="
M405.035461,74.388321 
	C407.736633,75.547455 410.352997,76.150780 412.864380,77.047943 
	C414.184357,77.519493 415.320618,78.505157 416.539856,79.258667 
	C416.307739,79.846230 416.075623,80.433792 415.843475,81.021355 
	C413.569000,81.021355 411.293335,81.068726 409.020203,81.012383 
	C402.469055,80.850021 399.891022,78.485596 399.647736,72.058823 
	C399.466003,67.257538 399.611908,62.443848 399.611908,57.279415 
	C401.165039,57.161793 402.553741,57.056622 404.907043,56.878399 
	C404.907043,62.797062 404.907043,68.375793 405.035461,74.388321 
z"/>
<path fill="#079BAC" opacity="1.000000" stroke="none" 
	d="
M56.011810,47.161789 
	C55.851551,47.109085 55.691296,47.056389 55.286644,46.474243 
	C55.042042,43.340603 54.715111,40.676510 55.177013,38.157032 
	C55.414322,36.862614 57.058899,35.826187 58.067528,34.673172 
	C62.209873,36.656311 66.352219,38.639450 70.773499,40.819603 
	C68.907356,43.304382 66.918907,45.778900 64.533310,47.779945 
	C63.683487,48.492783 61.870350,48.057194 59.975407,47.817245 
	C58.306522,47.379704 57.159164,47.270744 56.011810,47.161789 
z"/>
<path fill="#010070" opacity="1.000000" stroke="none" 
	d="
M5.596672,106.144745 
	C21.751890,106.084732 37.549934,106.209541 53.659195,106.605339 
	C38.088848,106.953781 22.207300,107.036423 6.325643,107.075928 
	C5.964215,107.076820 5.601573,106.589264 5.596672,106.144745 
z"/>
<path fill="#433EA1" opacity="1.000000" stroke="none" 
	d="
M31.885782,56.838997 
	C31.910212,57.061615 31.934641,57.284229 31.918287,57.839912 
	C27.877693,58.127533 23.877882,58.082081 19.423695,57.933983 
	C19.240406,57.577190 19.511496,57.323040 20.491577,56.995155 
	C24.762306,56.893944 28.324045,56.866470 31.885782,56.838997 
z"/>
<path fill="#F5F9FB" opacity="1.000000" stroke="none" 
	d="
M56.024063,47.380650 
	C57.159164,47.270744 58.306522,47.379704 59.671726,47.763657 
	C58.874329,48.029869 57.859077,48.021084 56.465790,48.023598 
	C56.087749,48.034893 56.036316,47.599510 56.024063,47.380650 
z"/>
<path fill="#08A0AC" opacity="1.000000" stroke="none" 
	d="
M32.108925,60.372875 
	C32.430882,60.868172 32.698608,61.702740 32.941086,62.885880 
	C32.628796,62.393684 32.341747,61.552914 32.108925,60.372875 
z"/>
<path fill="#433EA1" opacity="1.000000" stroke="none" 
	d="
M5.457045,53.844490 
	C5.750479,54.500546 5.833761,55.416580 5.781700,56.778160 
	C5.513201,56.183956 5.380047,55.144215 5.457045,53.844490 
z"/>
<path fill="#433EA1" opacity="1.000000" stroke="none" 
	d="
M5.861926,57.623215 
	C6.044266,57.409374 6.366222,57.429111 6.858976,57.640575 
	C6.687030,57.840469 6.344286,57.848633 5.861926,57.623215 
z"/>
<path fill="#08A0AC" opacity="1.000000" stroke="none" 
	d="
M47.769768,79.295616 
	C47.920994,79.075119 48.235424,79.123329 48.721653,79.417542 
	C48.908150,79.567902 48.417225,79.622185 48.417225,79.622185 
	C48.417225,79.622185 47.947659,79.468704 47.769768,79.295616 
z"/>
<path fill="#F7F9FC" opacity="1.000000" stroke="none" 
	d="
M31.897661,56.436581 
	C28.324045,56.866470 24.762306,56.893944 20.762108,56.918205 
	C20.219004,37.053810 38.230080,22.499901 54.055344,24.093725 
	C54.025707,28.095152 53.887585,31.311346 53.749466,34.527542 
	C40.997486,36.020733 33.494781,43.408932 31.897661,56.436581 
z"/>
<path fill="#305696" opacity="1.000000" stroke="none" 
	d="
M53.839890,35.011471 
	C53.887585,31.311346 54.025707,28.095152 54.281853,24.444792 
	C54.617905,26.266653 54.602127,28.580767 55.142723,30.756649 
	C55.460728,32.036621 56.662395,33.097050 57.767075,34.464699 
	C57.058899,35.826187 55.414322,36.862614 55.177013,38.157032 
	C54.715111,40.676510 55.042042,43.340603 55.046394,46.394768 
	C55.050545,46.844734 54.990528,47.040413 54.764854,47.064171 
	C54.360897,47.107128 54.182621,47.126331 54.021622,47.067604 
	C54.038898,46.989677 54.045269,46.830170 54.045269,46.830170 
	C54.006950,43.051914 53.968632,39.273655 53.839890,35.011471 
z"/>
<path fill="#F5FAFD" opacity="1.000000" stroke="none" 
	d="
M44.982559,61.447861 
	C46.832172,56.922562 50.428467,59.594707 53.195797,59.315376 
	C53.628036,59.271740 54.490284,62.377483 54.942127,64.082977 
	C55.187096,65.007622 54.985592,66.050568 54.988930,67.491226 
	C54.992374,67.942299 54.949181,68.224274 54.578979,68.281601 
	C53.480942,68.289963 52.753109,68.240997 52.025272,68.192039 
	C49.686035,66.059669 47.346802,63.927299 44.982559,61.447861 
z"/>
<path fill="#FDFDFE" opacity="1.000000" stroke="none" 
	d="
M54.915524,48.011448 
	C54.915524,50.452484 54.915524,52.893524 54.915524,56.185993 
	C51.312004,55.851540 48.290352,55.571095 44.985741,54.944283 
	C46.281857,52.459290 47.860924,50.320656 50.038162,48.095520 
	C51.075790,47.768295 51.515244,47.527580 51.954697,47.286858 
	C52.416206,47.170410 52.877724,47.053967 53.692253,46.883842 
	C54.045269,46.830170 54.038898,46.989677 54.128281,47.254723 
	C54.406784,47.745384 54.639408,47.909279 54.915524,48.011448 
z"/>
<path fill="#08A0AC" opacity="1.000000" stroke="none" 
	d="
M52.143120,68.380486 
	C52.753109,68.240997 53.480942,68.289963 54.561592,68.423172 
	C54.444294,68.675072 53.974178,68.842720 53.249168,69.036087 
	C52.709972,68.956818 52.465534,68.792534 52.143120,68.380486 
z"/>
<path fill="#F5F9FB" opacity="1.000000" stroke="none" 
	d="
M51.686420,47.225132 
	C51.515244,47.527580 51.075790,47.768295 50.376678,48.024719 
	C50.550728,47.748089 50.984436,47.455746 51.686420,47.225132 
z"/>
<path fill="#F1F1F8" opacity="1.000000" stroke="none" 
	d="
M199.977570,67.162994 
	C194.390350,67.157982 197.416901,63.703663 196.661530,61.153004 
	C199.237640,61.153004 201.445557,60.729446 203.367844,61.288322 
	C204.879349,61.727776 206.038315,63.379856 207.353882,64.493271 
	C206.036575,65.360405 204.793808,66.393661 203.373428,67.031113 
	C202.547852,67.401611 201.437225,67.136925 199.977570,67.162994 
z"/>
<path fill="#F8F8FB" opacity="1.000000" stroke="none" 
	d="
M289.345886,61.162094 
	C293.874115,64.458435 293.605377,68.844345 292.482300,73.052467 
	C291.288696,77.525040 285.032318,79.079140 282.093018,75.725525 
	C279.035583,72.237099 279.395752,67.989479 280.988007,64.020439 
	C282.432983,60.418430 285.603424,60.197769 289.345886,61.162094 
z"/>
<path fill="#F7F7FB" opacity="1.000000" stroke="none" 
	d="
M390.912537,70.696533 
	C390.340515,75.034729 388.373810,78.106003 384.191193,77.222557 
	C381.973846,76.754211 379.182617,74.364754 378.508881,72.250374 
	C377.327759,68.543518 377.254028,64.179733 381.196259,61.500439 
	C384.522583,59.239742 389.133179,61.031578 390.272308,64.925438 
	C390.770416,66.628204 390.729370,68.488693 390.912537,70.696533 
z"/>
<path fill="#EDEDF8" opacity="1.000000" stroke="none" 
	d="
M357.928772,61.124989 
	C359.668396,61.180443 361.209198,60.827225 362.217468,61.404350 
	C363.267975,62.005665 364.261719,63.452866 364.394592,64.630188 
	C364.474030,65.334145 362.932800,66.795273 361.981689,66.928490 
	C359.586456,67.264023 357.112823,67.039551 354.298553,67.039551 
	C354.424622,64.416954 351.975159,60.831944 357.928772,61.124989 
z"/>
<path fill="#F3F3FA" opacity="1.000000" stroke="none" 
	d="
M171.941422,62.312515 
	C174.567062,61.707130 177.158615,61.184696 179.609589,61.565937 
	C180.683044,61.732903 182.226791,63.783154 182.171066,64.909676 
	C182.116394,66.015060 180.449646,67.668015 179.229019,67.950279 
	C177.071854,68.449074 174.716339,68.089996 171.850220,68.089996 
	C171.850220,66.231918 171.850220,64.497238 171.941422,62.312515 
z"/>
<path fill="#E6E6F3" opacity="1.000000" stroke="none" 
	d="
M227.856049,65.732224 
	C228.415512,67.627182 228.887344,69.152695 229.440765,70.942001 
	C227.128098,70.942001 225.202255,70.942001 222.642426,70.942001 
	C223.879883,67.936722 224.962753,65.306892 226.277985,62.112740 
	C226.983704,63.651600 227.376068,64.507187 227.856049,65.732224 
z"/>
<path fill="#F5F9FB" opacity="1.000000" stroke="none" 
	d="
M54.952858,47.817482 
	C54.639408,47.909279 54.406784,47.745384 54.111000,47.332649 
	C54.182621,47.126331 54.360897,47.107128 54.797943,47.161011 
	C55.056709,47.234093 54.990189,47.623512 54.952858,47.817482 
z"/>
</svg>