<?xml version="1.0" encoding="UTF-8"?>
<!DOCTYPE svg PUBLIC "-//W3C//DTD SVG 1.1//EN" "http://www.w3.org/Graphics/SVG/1.1/DTD/svg11.dtd">
<svg xmlns="http://www.w3.org/2000/svg" version="1.1" width="512px" height="512px" style="shape-rendering:geometricPrecision; text-rendering:geometricPrecision; image-rendering:optimizeQuality; fill-rule:evenodd; clip-rule:evenodd" xmlns:xlink="http://www.w3.org/1999/xlink">
<g><path style="opacity:0.975" fill="#f07471" d="M 363.5,43.5 C 352.188,62.112 341.355,81.112 331,100.5C 326.853,98.5177 323.02,96.1844 319.5,93.5C 330.068,74.0323 340.901,54.6989 352,35.5C 356.162,37.8194 359.995,40.4861 363.5,43.5 Z"/></g>
<g><path style="opacity:0.974" fill="#ef7470" d="M 288.5,84.5 C 291.262,86.7247 294.262,88.7247 297.5,90.5C 298.626,91.8084 298.626,93.1417 297.5,94.5C 288.167,124.817 278.667,155.15 269,185.5C 267.599,198.448 267.099,211.448 267.5,224.5C 266.833,224.5 266.5,224.167 266.5,223.5C 266.666,213.494 266.5,203.494 266,193.5C 262.342,190.934 258.842,188.268 255.5,185.5C 265.425,152.058 275.758,118.725 286.5,85.5C 286.957,84.7025 287.624,84.3691 288.5,84.5 Z"/></g>
<g><path style="opacity:1" fill="#c94743" d="M 363.5,43.5 C 363.5,74.1667 363.5,104.833 363.5,135.5C 362.308,140.217 360.308,144.55 357.5,148.5C 347.707,146.235 338.041,143.568 328.5,140.5C 327.417,140.461 326.417,140.127 325.5,139.5C 316.268,167.192 307.268,194.859 298.5,222.5C 298.832,179.663 298.499,136.997 297.5,94.5C 298.626,93.1417 298.626,91.8084 297.5,90.5C 294.262,88.7247 291.262,86.7247 288.5,84.5C 298.879,87.3446 309.212,90.3446 319.5,93.5C 323.02,96.1844 326.853,98.5177 331,100.5C 341.355,81.112 352.188,62.112 363.5,43.5 Z"/></g>
<g><path style="opacity:0.98" fill="#53c6fc" d="M 401.5,98.5 C 390.077,117.007 379.41,136.007 369.5,155.5C 368.5,154.833 367.5,154.167 366.5,153.5C 363.304,152.071 360.304,150.405 357.5,148.5C 360.308,144.55 362.308,140.217 363.5,135.5C 372.392,120.726 381.059,105.726 389.5,90.5C 394.321,92.2222 398.321,94.8889 401.5,98.5 Z"/></g>
<g><path style="opacity:0.999" fill="#ed534f" d="M 297.5,94.5 C 298.499,136.997 298.832,179.663 298.5,222.5C 296.834,228.499 295.167,234.499 293.5,240.5C 286.5,236.5 279.5,232.5 272.5,228.5C 271.055,226.937 269.389,225.604 267.5,224.5C 267.099,211.448 267.599,198.448 269,185.5C 278.667,155.15 288.167,124.817 297.5,94.5 Z"/></g>
<g><path style="opacity:0.996" fill="#28b9fb" d="M 401.5,98.5 C 401.405,142.838 401.738,187.171 402.5,231.5C 401.508,239.316 401.174,247.316 401.5,255.5C 401.666,261.842 401.5,268.175 401,274.5C 390.852,281.155 380.352,287.155 369.5,292.5C 369.5,246.833 369.5,201.167 369.5,155.5C 379.41,136.007 390.077,117.007 401.5,98.5 Z"/></g>
<g><path style="opacity:1" fill="#57c2f6" d="M 328.5,140.5 C 331.167,142.5 333.833,144.5 336.5,146.5C 336.5,147.5 336.5,148.5 336.5,149.5C 325.552,181.498 315.219,213.831 305.5,246.5C 304.883,246.611 304.383,246.944 304,247.5C 300.323,245.304 296.823,242.97 293.5,240.5C 295.167,234.499 296.834,228.499 298.5,222.5C 307.268,194.859 316.268,167.192 325.5,139.5C 326.417,140.127 327.417,140.461 328.5,140.5 Z"/></g>
<g><path style="opacity:1" fill="#6d9442" d="M 328.5,140.5 C 338.041,143.568 347.707,146.235 357.5,148.5C 360.304,150.405 363.304,152.071 366.5,153.5C 366.265,154.097 365.765,154.43 365,154.5C 355.904,151.523 346.737,148.856 337.5,146.5C 337.167,146.5 336.833,146.5 336.5,146.5C 333.833,144.5 331.167,142.5 328.5,140.5 Z"/></g>
<g><path style="opacity:1" fill="#239cd5" d="M 337.5,146.5 C 346.737,148.856 355.904,151.523 365,154.5C 365.765,154.43 366.265,154.097 366.5,153.5C 367.5,154.167 368.5,154.833 369.5,155.5C 369.5,201.167 369.5,246.833 369.5,292.5C 359.366,298.737 349.033,304.737 338.5,310.5C 337.501,256.003 337.168,201.336 337.5,146.5 Z"/></g>
<g><path style="opacity:1" fill="#28b9fb" d="M 336.5,149.5 C 336.5,203.5 336.5,257.5 336.5,311.5C 326.338,317.749 316.005,323.749 305.5,329.5C 305.5,301.833 305.5,274.167 305.5,246.5C 315.219,213.831 325.552,181.498 336.5,149.5 Z"/></g>
<g><path style="opacity:0.981" fill="#ef7471" d="M 234.5,172.5 C 234.443,173.609 234.11,174.609 233.5,175.5C 223.759,206.055 213.426,236.389 202.5,266.5C 198.164,264.668 194.164,262.335 190.5,259.5C 193.341,252.318 196.007,244.985 198.5,237.5C 199.899,234.301 200.899,230.968 201.5,227.5C 208.363,206.744 215.53,186.078 223,165.5C 226.814,167.984 230.647,170.318 234.5,172.5 Z"/></g>
<g><path style="opacity:0.996" fill="#ca4844" d="M 234.5,172.5 C 241.668,176.583 248.668,180.916 255.5,185.5C 258.842,188.268 262.342,190.934 266,193.5C 266.5,203.494 266.666,213.494 266.5,223.5C 264.742,223.123 263.075,222.456 261.5,221.5C 260.914,221.709 260.414,222.043 260,222.5C 251.962,247.451 243.462,272.118 234.5,296.5C 234.832,255.997 234.499,215.663 233.5,175.5C 234.11,174.609 234.443,173.609 234.5,172.5 Z"/></g>
<g><path style="opacity:1" fill="#ed534f" d="M 233.5,175.5 C 234.499,215.663 234.832,255.997 234.5,296.5C 232.833,302.5 231.167,308.5 229.5,314.5C 222.167,309.833 214.833,305.167 207.5,300.5C 205.999,299.248 204.332,298.248 202.5,297.5C 202.5,287.167 202.5,276.833 202.5,266.5C 213.426,236.389 223.759,206.055 233.5,175.5 Z"/></g>
<g><path style="opacity:1" fill="#449dc5" d="M 336.5,146.5 C 336.833,146.5 337.167,146.5 337.5,146.5C 337.168,201.336 337.501,256.003 338.5,310.5C 338.158,311.338 337.492,311.672 336.5,311.5C 336.5,257.5 336.5,203.5 336.5,149.5C 336.5,148.5 336.5,147.5 336.5,146.5 Z"/></g>
<g><path style="opacity:1" fill="#56c3f7" d="M 266.5,223.5 C 266.5,224.167 266.833,224.5 267.5,224.5C 269.389,225.604 271.055,226.937 272.5,228.5C 272.5,236.833 272.5,245.167 272.5,253.5C 271.672,247.013 271.172,240.346 271,233.5C 260.726,262.824 250.559,292.157 240.5,321.5C 236.628,319.403 232.961,317.069 229.5,314.5C 231.167,308.5 232.833,302.5 234.5,296.5C 243.462,272.118 251.962,247.451 260,222.5C 260.414,222.043 260.914,221.709 261.5,221.5C 263.075,222.456 264.742,223.123 266.5,223.5 Z"/></g>
<g><path style="opacity:0.939" fill="#576f7a" d="M 201.5,227.5 C 200.899,230.968 199.899,234.301 198.5,237.5C 191.131,241.848 183.798,246.181 176.5,250.5C 174.091,249.299 172.091,247.633 170.5,245.5C 180.662,239.251 190.995,233.251 201.5,227.5 Z"/></g>
<g><path style="opacity:1" fill="#259dd5" d="M 272.5,228.5 C 279.5,232.5 286.5,236.5 293.5,240.5C 296.823,242.97 300.323,245.304 304,247.5C 304.383,246.944 304.883,246.611 305.5,246.5C 305.5,274.167 305.5,301.833 305.5,329.5C 294.671,336.083 283.671,342.416 272.5,348.5C 272.5,316.833 272.5,285.167 272.5,253.5C 272.5,245.167 272.5,236.833 272.5,228.5 Z"/></g>
<g><path style="opacity:0.989" fill="#556f7a" d="M 402.5,231.5 C 434.779,249.976 467.112,268.476 499.5,287C 501.229,288.789 501.896,290.956 501.5,293.5C 491.195,299.989 480.861,306.489 470.5,313C 386.997,361.586 303.33,409.919 219.5,458C 215.903,459.277 212.236,459.61 208.5,459C 141.502,421.47 75.1689,382.97 9.5,343.5C 9.12785,340.077 10.4612,337.577 13.5,336C 57.6911,310.741 101.691,285.241 145.5,259.5C 143.962,264.241 141.629,268.575 138.5,272.5C 104.03,292.236 69.6969,312.236 35.5,332.5C 99.7707,370.219 164.271,407.552 229,444.5C 312.396,396.552 395.563,348.219 478.5,299.5C 452.941,284.557 427.275,269.89 401.5,255.5C 401.174,247.316 401.508,239.316 402.5,231.5 Z"/></g>
<g><path style="opacity:1" fill="#29b8fb" d="M 272.5,253.5 C 272.5,285.167 272.5,316.833 272.5,348.5C 261.869,354.819 251.202,361.152 240.5,367.5C 240.5,352.167 240.5,336.833 240.5,321.5C 250.559,292.157 260.726,262.824 271,233.5C 271.172,240.346 271.672,247.013 272.5,253.5 Z"/></g>
<g><path style="opacity:1" fill="#dbe0e3" d="M 198.5,237.5 C 196.007,244.985 193.341,252.318 190.5,259.5C 185.833,256.5 181.167,253.5 176.5,250.5C 183.798,246.181 191.131,241.848 198.5,237.5 Z"/></g>
<g><path style="opacity:0.99" fill="#ee7571" d="M 169.5,245.5 C 169.443,246.609 169.11,247.609 168.5,248.5C 158.93,265.304 149.097,281.97 139,298.5C 138.17,325.67 138.336,352.67 139.5,379.5C 138.833,380.833 138.167,380.833 137.5,379.5C 137.833,352.825 137.5,326.158 136.5,299.5C 133.139,297.489 129.806,295.489 126.5,293.5C 130.528,286.483 134.528,279.483 138.5,272.5C 141.629,268.575 143.962,264.241 145.5,259.5C 149.637,253.172 153.637,246.672 157.5,240C 162.105,240.469 166.105,242.302 169.5,245.5 Z"/></g>
<g><path style="opacity:1" fill="#ca4844" d="M 169.5,245.5 C 169.833,245.5 170.167,245.5 170.5,245.5C 172.091,247.633 174.091,249.299 176.5,250.5C 181.167,253.5 185.833,256.5 190.5,259.5C 194.164,262.335 198.164,264.668 202.5,266.5C 202.5,276.833 202.5,287.167 202.5,297.5C 200.598,296.632 198.765,295.632 197,294.5C 187.569,309.034 178.403,323.7 169.5,338.5C 169.831,308.329 169.498,278.329 168.5,248.5C 169.11,247.609 169.443,246.609 169.5,245.5 Z"/></g>
<g><path style="opacity:1" fill="#ed534f" d="M 168.5,248.5 C 169.498,278.329 169.831,308.329 169.5,338.5C 167.804,341.85 166.137,345.183 164.5,348.5C 164.5,354.167 164.5,359.833 164.5,365.5C 156.167,370.167 147.833,374.833 139.5,379.5C 138.336,352.67 138.17,325.67 139,298.5C 149.097,281.97 158.93,265.304 168.5,248.5 Z"/></g>
<g><path style="opacity:1" fill="#dce3e6" d="M 401.5,255.5 C 427.275,269.89 452.941,284.557 478.5,299.5C 395.563,348.219 312.396,396.552 229,444.5C 164.271,407.552 99.7707,370.219 35.5,332.5C 69.6969,312.236 104.03,292.236 138.5,272.5C 134.528,279.483 130.528,286.483 126.5,293.5C 126.167,320.508 126.5,347.508 127.5,374.5C 130.867,376.225 134.2,377.892 137.5,379.5C 138.167,380.833 138.833,380.833 139.5,379.5C 147.833,374.833 156.167,370.167 164.5,365.5C 164.168,376.52 164.501,387.52 165.5,398.5C 168.366,400.432 171.366,402.099 174.5,403.5C 175.251,404.573 176.251,404.74 177.5,404C 187.387,397.94 197.387,392.106 207.5,386.5C 218.337,379.914 229.337,373.581 240.5,367.5C 251.202,361.152 261.869,354.819 272.5,348.5C 283.671,342.416 294.671,336.083 305.5,329.5C 316.005,323.749 326.338,317.749 336.5,311.5C 337.492,311.672 338.158,311.338 338.5,310.5C 349.033,304.737 359.366,298.737 369.5,292.5C 380.352,287.155 390.852,281.155 401,274.5C 401.5,268.175 401.666,261.842 401.5,255.5 Z"/></g>
<g><path style="opacity:1" fill="#ca4743" d="M 126.5,293.5 C 129.806,295.489 133.139,297.489 136.5,299.5C 137.5,326.158 137.833,352.825 137.5,379.5C 134.2,377.892 130.867,376.225 127.5,374.5C 126.5,347.508 126.167,320.508 126.5,293.5 Z"/></g>
<g><path style="opacity:1" fill="#56c4f8" d="M 202.5,297.5 C 204.332,298.248 205.999,299.248 207.5,300.5C 207.5,301.5 207.5,302.5 207.5,303.5C 196.182,319.452 185.848,336.118 176.5,353.5C 172.251,352.374 168.251,350.707 164.5,348.5C 166.137,345.183 167.804,341.85 169.5,338.5C 178.403,323.7 187.569,309.034 197,294.5C 198.765,295.632 200.598,296.632 202.5,297.5 Z"/></g>
<g><path style="opacity:0.98" fill="#3f535c" d="M 501.5,293.5 C 501.666,298.844 501.499,304.177 501,309.5C 500.167,311 499,312.167 497.5,313C 406.833,365.667 316.167,418.333 225.5,471C 218.489,475.839 211.156,476.506 203.5,473C 138.754,435.879 74.2542,398.379 10,360.5C 9.50058,354.843 9.33391,349.176 9.5,343.5C 75.1689,382.97 141.502,421.47 208.5,459C 212.236,459.61 215.903,459.277 219.5,458C 303.33,409.919 386.997,361.586 470.5,313C 480.861,306.489 491.195,299.989 501.5,293.5 Z"/></g>
<g><path style="opacity:1" fill="#269dd5" d="M 207.5,300.5 C 214.833,305.167 222.167,309.833 229.5,314.5C 232.961,317.069 236.628,319.403 240.5,321.5C 240.5,336.833 240.5,352.167 240.5,367.5C 229.337,373.581 218.337,379.914 207.5,386.5C 207.5,358.833 207.5,331.167 207.5,303.5C 207.5,302.5 207.5,301.5 207.5,300.5 Z"/></g>
<g><path style="opacity:1" fill="#2bb8fb" d="M 207.5,303.5 C 207.5,331.167 207.5,358.833 207.5,386.5C 197.387,392.106 187.387,397.94 177.5,404C 176.251,404.74 175.251,404.573 174.5,403.5C 175.24,386.985 175.907,370.319 176.5,353.5C 185.848,336.118 196.182,319.452 207.5,303.5 Z"/></g>
<g><path style="opacity:1" fill="#aab3b7" d="M 443.5,334.5 C 444.5,334.5 445.5,334.5 446.5,334.5C 446.919,337.325 445.919,339.491 443.5,341C 438.479,344.346 433.146,346.846 427.5,348.5C 427.472,346.418 428.139,344.584 429.5,343C 434.397,340.392 439.063,337.559 443.5,334.5 Z"/></g>
<g><path style="opacity:1" fill="#aab3b7" d="M 418.5,348.5 C 419.833,348.5 421.167,348.5 422.5,348.5C 422.451,351.099 421.451,353.266 419.5,355C 414.526,358.321 409.193,360.821 403.5,362.5C 403.081,359.675 404.081,357.509 406.5,356C 410.732,353.725 414.732,351.225 418.5,348.5 Z"/></g>
<g><path style="opacity:1" fill="#259dd5" d="M 164.5,348.5 C 168.251,350.707 172.251,352.374 176.5,353.5C 175.907,370.319 175.24,386.985 174.5,403.5C 171.366,402.099 168.366,400.432 165.5,398.5C 164.501,387.52 164.168,376.52 164.5,365.5C 164.5,359.833 164.5,354.167 164.5,348.5 Z"/></g>
</svg>
