<?xml version="1.0" encoding="UTF-8"?>
<!DOCTYPE svg PUBLIC "-//W3C//DTD SVG 1.1//EN" "http://www.w3.org/Graphics/SVG/1.1/DTD/svg11.dtd">
<svg xmlns="http://www.w3.org/2000/svg" version="1.1" width="512px" height="512px" style="shape-rendering:geometricPrecision; text-rendering:geometricPrecision; image-rendering:optimizeQuality; fill-rule:evenodd; clip-rule:evenodd" xmlns:xlink="http://www.w3.org/1999/xlink">
<g><path style="opacity:0.986" fill="#fe4654" d="M 391.5,107.5 C 387.763,102.298 382.763,99.7979 376.5,100C 315.112,182.221 233.112,229.721 130.5,242.5C 112.568,244.96 94.5683,246.627 76.5,247.5C 132.277,230.111 184.944,205.945 234.5,175C 269.654,152.522 300.488,125.022 327,92.5C 331.696,85.9699 336.196,79.3032 340.5,72.5C 332.833,66.3394 325,60.3394 317,54.5C 315.959,51.3637 316.793,48.8637 319.5,47C 347.5,39.6667 375.5,32.3333 403.5,25C 407.781,23.5418 410.947,24.7084 413,28.5C 416.595,59.1142 419.262,89.7808 421,120.5C 418.581,123.638 415.747,124.138 412.5,122C 405.62,116.946 398.62,112.113 391.5,107.5 Z"/></g>
<g><path style="opacity:0.982" fill="#fc2b3a" d="M 391.5,107.5 C 337.682,178.063 267.682,225.23 181.5,249C 148.234,258.128 114.401,263.961 80,266.5C 71.6754,264.868 68.6754,259.868 71,251.5C 72.0183,249.072 73.8517,247.738 76.5,247.5C 94.5683,246.627 112.568,244.96 130.5,242.5C 233.112,229.721 315.112,182.221 376.5,100C 382.763,99.7979 387.763,102.298 391.5,107.5 Z"/></g>
<g><path style="opacity:0.978" fill="#8bcaff" d="M 462.5,453.5 C 437.5,453.5 412.5,453.5 387.5,453.5C 387.333,373.833 387.5,294.166 388,214.5C 388.958,209.21 392.124,206.376 397.5,206C 416.167,205.333 434.833,205.333 453.5,206C 457.922,206.758 460.755,209.258 462,213.5C 462.5,293.499 462.667,373.499 462.5,453.5 Z"/></g>
<g><path style="opacity:0.981" fill="#98db7b" d="M 349.5,453.5 C 324.5,453.5 299.5,453.5 274.5,453.5C 274.333,391.832 274.5,330.166 275,268.5C 276.167,264.667 278.667,262.167 282.5,261C 302.167,260.333 321.833,260.333 341.5,261C 345.333,262.167 347.833,264.667 349,268.5C 349.5,330.166 349.667,391.832 349.5,453.5 Z"/></g>
<g><path style="opacity:0.998" fill="#ffb956" d="M 236.5,453.5 C 211.5,453.5 186.5,453.5 161.5,453.5C 161.333,409.832 161.5,366.165 162,322.5C 163.167,319.333 165.333,317.167 168.5,316C 188.833,315.333 209.167,315.333 229.5,316C 232.756,317.587 234.923,320.087 236,323.5C 236.5,366.832 236.667,410.165 236.5,453.5 Z"/></g>
<g><path style="opacity:0.984" fill="#fee179" d="M 123.5,453.5 C 98.5,453.5 73.5,453.5 48.5,453.5C 48.0269,427.102 48.5269,400.769 50,374.5C 52.194,371.819 55.0273,370.319 58.5,370C 76.8333,369.333 95.1667,369.333 113.5,370C 117.438,370.214 120.272,372.047 122,375.5C 123.473,401.436 123.973,427.436 123.5,453.5 Z"/></g>
<g><path style="opacity:1" fill="#f7cd58" d="M 48.5,453.5 C 73.5,453.5 98.5,453.5 123.5,453.5C 123.5,459.167 123.5,464.833 123.5,470.5C 98.4023,471.827 73.4023,471.827 48.5,470.5C 48.5,464.833 48.5,459.167 48.5,453.5 Z"/></g>
<g><path style="opacity:0.981" fill="#fcab3f" d="M 161.5,453.5 C 186.5,453.5 211.5,453.5 236.5,453.5C 236.5,459.167 236.5,464.833 236.5,470.5C 211.5,471.833 186.5,471.833 161.5,470.5C 161.5,464.833 161.5,459.167 161.5,453.5 Z"/></g>
<g><path style="opacity:1" fill="#81d161" d="M 274.5,453.5 C 299.5,453.5 324.5,453.5 349.5,453.5C 349.5,459.167 349.5,464.833 349.5,470.5C 324.5,471.833 299.5,471.833 274.5,470.5C 274.5,464.833 274.5,459.167 274.5,453.5 Z"/></g>
<g><path style="opacity:0.981" fill="#6bc3fd" d="M 387.5,453.5 C 412.5,453.5 437.5,453.5 462.5,453.5C 462.5,459.167 462.5,464.833 462.5,470.5C 437.598,471.827 412.598,471.827 387.5,470.5C 387.5,464.833 387.5,459.167 387.5,453.5 Z"/></g>
<g><path style="opacity:0.977" fill="#407093" d="M 48.5,470.5 C 73.4023,471.827 98.4023,471.827 123.5,470.5C 136.167,470.5 148.833,470.5 161.5,470.5C 186.5,471.833 211.5,471.833 236.5,470.5C 249.167,470.5 261.833,470.5 274.5,470.5C 299.5,471.833 324.5,471.833 349.5,470.5C 362.167,470.5 374.833,470.5 387.5,470.5C 412.598,471.827 437.598,471.827 462.5,470.5C 477.17,470.333 491.837,470.5 506.5,471C 508.323,471.997 509.99,473.164 511.5,474.5C 511.5,477.167 511.5,479.833 511.5,482.5C 510.684,484.144 509.35,485.31 507.5,486C 339.5,486.667 171.5,486.667 3.5,486C 1.64977,485.31 0.316435,484.144 -0.5,482.5C -0.5,479.833 -0.5,477.167 -0.5,474.5C 1.01027,473.164 2.67694,471.997 4.5,471C 19.1629,470.5 33.8295,470.333 48.5,470.5 Z"/></g>
</svg>
