<?xml version="1.0" encoding="UTF-8"?>
<!DOCTYPE svg PUBLIC "-//W3C//DTD SVG 1.1//EN" "http://www.w3.org/Graphics/SVG/1.1/DTD/svg11.dtd">
<svg xmlns="http://www.w3.org/2000/svg" version="1.1" width="60px" height="60px" style="shape-rendering:geometricPrecision; text-rendering:geometricPrecision; image-rendering:optimizeQuality; fill-rule:evenodd; clip-rule:evenodd" xmlns:xlink="http://www.w3.org/1999/xlink">
<g><path style="opacity:0.901" fill="#727272" d="M 24.5,5.5 C 47.9478,4.11432 58.7812,15.1143 57,38.5C 51.3638,53.5732 40.5305,59.7398 24.5,57C 9.07429,51.5481 2.90762,40.7147 6,24.5C 9.01741,14.9839 15.1841,8.65054 24.5,5.5 Z M 28.5,9.5 C 29.5,9.5 30.5,9.5 31.5,9.5C 31.5,16.8333 31.5,24.1667 31.5,31.5C 38.8333,31.5 46.1667,31.5 53.5,31.5C 51.8439,44.4894 44.5106,51.8227 31.5,53.5C 14.7886,50.728 7.9553,41.0614 11,24.5C 14.2818,16.3755 20.1151,11.3755 28.5,9.5 Z"/></g>
</svg>
