<?xml version="1.0" encoding="UTF-8"?>
<!DOCTYPE svg PUBLIC "-//W3C//DTD SVG 1.1//EN" "http://www.w3.org/Graphics/SVG/1.1/DTD/svg11.dtd">
<svg xmlns="http://www.w3.org/2000/svg" version="1.1" width="1200px" height="1200px" style="shape-rendering:geometricPrecision; text-rendering:geometricPrecision; image-rendering:optimizeQuality; fill-rule:evenodd; clip-rule:evenodd" xmlns:xlink="http://www.w3.org/1999/xlink">
<g><path style="opacity:0.999" fill="#71c737" d="M 126.5,255.5 C 441.833,255.5 757.167,255.5 1072.5,255.5C 1072.5,322.167 1072.5,388.833 1072.5,455.5C 757.167,455.5 441.833,455.5 126.5,455.5C 126.5,388.833 126.5,322.167 126.5,255.5 Z"/></g>
<g><path style="opacity:0.976" fill="#5ed011" d="M 126.5,676.5 C 441.833,676.5 757.167,676.5 1072.5,676.5C 1072.5,742.833 1072.5,809.167 1072.5,875.5C 757.167,875.5 441.833,875.5 126.5,875.5C 126.5,809.167 126.5,742.833 126.5,676.5 Z"/></g>
<g><path style="opacity:1" fill="#70c836" d="M 127.5,677.5 C 442.167,677.5 756.833,677.5 1071.5,677.5C 1071.5,743.167 1071.5,808.833 1071.5,874.5C 756.833,874.5 442.167,874.5 127.5,874.5C 127.5,808.833 127.5,743.167 127.5,677.5 Z"/></g>
</svg>
