<?xml version="1.0" encoding="UTF-8"?>
<!DOCTYPE svg PUBLIC "-//W3C//DTD SVG 1.1//EN" "http://www.w3.org/Graphics/SVG/1.1/DTD/svg11.dtd">
<svg xmlns="http://www.w3.org/2000/svg" version="1.1" width="225px" height="225px" style="shape-rendering:geometricPrecision; text-rendering:geometricPrecision; image-rendering:optimizeQuality; fill-rule:evenodd; clip-rule:evenodd" xmlns:xlink="http://www.w3.org/1999/xlink">
<g><path style="opacity:1" fill="#fbfbfb" d="M -0.5,-0.5 C 14.1667,-0.5 28.8333,-0.5 43.5,-0.5C 24.6452,3.16804 11.1452,13.8347 3,31.5C 1.34733,36.1838 0.180668,40.8504 -0.5,45.5C -0.5,30.1667 -0.5,14.8333 -0.5,-0.5 Z"/></g>
<g><path style="opacity:1" fill="#fbfbfb" d="M 177.5,-0.5 C 193.167,-0.5 208.833,-0.5 224.5,-0.5C 224.5,13.8333 224.5,28.1667 224.5,42.5C 218.058,18.057 202.391,3.72365 177.5,-0.5 Z"/></g>
<g><path style="opacity:1" fill="#7c7c7c" d="M 43.5,-0.5 C 88.1667,-0.5 132.833,-0.5 177.5,-0.5C 202.391,3.72365 218.058,18.057 224.5,42.5C 224.5,88.5 224.5,134.5 224.5,180.5C 218.745,204.716 203.745,219.383 179.5,224.5C 133.833,224.5 88.1667,224.5 42.5,224.5C 18.057,218.058 3.72365,202.391 -0.5,177.5C -0.5,133.5 -0.5,89.5 -0.5,45.5C 0.180668,40.8504 1.34733,36.1838 3,31.5C 11.1452,13.8347 24.6452,3.16804 43.5,-0.5 Z"/></g>
<g><path style="opacity:1" fill="#252525" d="M 208.5,28.5 C 209.094,30.8553 210.094,33.022 211.5,35C 211.43,35.7648 211.097,36.2648 210.5,36.5C 202.832,20.5036 190.166,11.5036 172.5,9.5C 132.003,8.50139 91.3368,8.16806 50.5,8.5C 42.703,9.23802 35.703,11.9047 29.5,16.5C 23.8546,20.1454 19.1879,24.8121 15.5,30.5C 17.7425,31.2929 20.2425,31.2929 23,30.5C 23.2189,31.938 23.7189,33.2713 24.5,34.5C 29.1667,37.8333 33.8333,41.1667 38.5,44.5C 40.8168,47.4834 43.4834,50.1501 46.5,52.5C 47.3857,53.325 47.719,54.325 47.5,55.5C 51.2175,56.4824 54.8842,56.9824 58.5,57C 56.6707,58.1133 55.8374,59.6133 56,61.5C 57.6667,59.8333 59.3333,58.1667 61,56.5C 61.3988,56.7284 61.5654,57.0618 61.5,57.5C 57.8223,62.2056 54.1556,66.8723 50.5,71.5C 49.7839,71.2169 48.9506,70.8836 48,70.5C 48,68.5 48,66.5 48,64.5C 47.6924,65.3081 47.1924,65.9747 46.5,66.5C 41.6544,63.2433 36.9878,59.7433 32.5,56C 32.8333,55.6667 33.1667,55.3333 33.5,55C 27.0213,50.5188 21.1879,45.3522 16,39.5C 15.6667,40.5 15.3333,41.5 15,42.5C 14.7645,40.8807 13.9311,39.8807 12.5,39.5C 13.4124,38.2618 13.5791,36.9285 13,35.5C 12,37.5 11,39.5 10,41.5C 9.53566,40.9056 9.36899,40.2389 9.5,39.5C 16.6149,21.0838 29.9483,9.91713 49.5,6C 91.5,5.33333 133.5,5.33333 175.5,6C 186.542,8.43599 196.042,13.6027 204,21.5C 206.009,23.522 207.509,25.8554 208.5,28.5 Z"/></g>
<g><path style="opacity:1" fill="#2a2a2a" d="M 29.5,16.5 C 34.9128,20.3873 40.2461,24.5539 45.5,29C 47.2746,30.4389 49.2746,31.4389 51.5,32C 57.1667,37.6667 62.8333,43.3333 68.5,49C 70.0468,49.3334 71.3801,48.8334 72.5,47.5C 73.1067,47.6236 73.44,47.9569 73.5,48.5C 69.5,51.5 65.5,54.5 61.5,57.5C 61.5654,57.0618 61.3988,56.7284 61,56.5C 59.3333,58.1667 57.6667,59.8333 56,61.5C 55.8374,59.6133 56.6707,58.1133 58.5,57C 54.8842,56.9824 51.2175,56.4824 47.5,55.5C 47.719,54.325 47.3857,53.325 46.5,52.5C 43.4834,50.1501 40.8168,47.4834 38.5,44.5C 33.8333,41.1667 29.1667,37.8333 24.5,34.5C 23.7189,33.2713 23.2189,31.938 23,30.5C 20.2425,31.2929 17.7425,31.2929 15.5,30.5C 19.1879,24.8121 23.8546,20.1454 29.5,16.5 Z"/></g>
<g><path style="opacity:1" fill="#383838" d="M 50.5,8.5 C 48.9242,9.28321 47.5908,10.4499 46.5,12C 49.5,12.3333 52.5,12.6667 55.5,13C 53.5,13.3333 51.5,13.6667 49.5,14C 51.2464,14.4709 52.913,15.1376 54.5,16C 56.7894,18.492 59.1227,20.992 61.5,23.5C 68.5759,27.9253 74.5759,33.2587 79.5,39.5C 78.448,39.3505 77.448,39.5172 76.5,40C 78.4025,40.1992 79.9025,41.0325 81,42.5C 82.9643,40.3123 84.4643,40.3123 85.5,42.5C 81.1867,43.9338 77.1867,45.9338 73.5,48.5C 73.44,47.9569 73.1067,47.6236 72.5,47.5C 71.3801,48.8334 70.0468,49.3334 68.5,49C 62.8333,43.3333 57.1667,37.6667 51.5,32C 49.2746,31.4389 47.2746,30.4389 45.5,29C 40.2461,24.5539 34.9128,20.3873 29.5,16.5C 35.703,11.9047 42.703,9.23802 50.5,8.5 Z"/></g>
<g><path style="opacity:1" fill="#848484" d="M 131.5,9.5 C 134.167,9.5 136.833,9.5 139.5,9.5C 147.263,10.9308 155.263,12.4308 163.5,14C 162.167,14.3333 160.833,14.6667 159.5,15C 165.109,19.2855 170.443,23.7855 175.5,28.5C 177.288,30.5765 178.954,32.7432 180.5,35C 184.221,33.8626 186.221,35.3626 186.5,39.5C 188.76,40.1389 190.76,41.3055 192.5,43C 194.037,44.1096 194.703,45.6096 194.5,47.5C 196.975,49.5668 199.641,50.7335 202.5,51C 204.017,52.6851 205.684,54.1851 207.5,55.5C 208.934,57.2199 209.767,59.2199 210,61.5C 210.333,59.5 210.667,57.5 211,55.5C 210.947,58.6752 211.78,61.3419 213.5,63.5C 213.666,69.5092 213.499,75.5092 213,81.5C 211.913,79.0684 211.413,79.4017 211.5,82.5C 210.143,78.4649 207.81,74.9649 204.5,72C 202.866,71.5065 201.199,71.3398 199.5,71.5C 199.762,70.0222 199.429,68.6888 198.5,67.5C 197.167,66.8333 196.167,65.8333 195.5,64.5C 194.311,63.5713 192.978,63.238 191.5,63.5C 191.719,62.325 191.386,61.325 190.5,60.5C 182.876,54.8782 175.543,48.8782 168.5,42.5C 167.614,41.675 167.281,40.675 167.5,39.5C 161.92,37.7734 157.586,34.2734 154.5,29C 150.689,25.2601 146.356,22.2601 141.5,20C 140.5,18.3333 139.5,16.6667 138.5,15C 131.233,14.1861 130.567,13.1861 136.5,12C 134.347,11.9005 132.681,11.0672 131.5,9.5 Z"/></g>
<g><path style="opacity:1" fill="#909090" d="M 139.5,9.5 C 150.5,9.5 161.5,9.5 172.5,9.5C 190.166,11.5036 202.832,20.5036 210.5,36.5C 211.024,38.3057 211.691,39.9724 212.5,41.5C 213.15,43.4352 213.483,45.4352 213.5,47.5C 213.5,52.8333 213.5,58.1667 213.5,63.5C 211.78,61.3419 210.947,58.6752 211,55.5C 210.667,57.5 210.333,59.5 210,61.5C 209.767,59.2199 208.934,57.2199 207.5,55.5C 205.684,54.1851 204.017,52.6851 202.5,51C 199.641,50.7335 196.975,49.5668 194.5,47.5C 194.703,45.6096 194.037,44.1096 192.5,43C 190.76,41.3055 188.76,40.1389 186.5,39.5C 186.221,35.3626 184.221,33.8626 180.5,35C 178.954,32.7432 177.288,30.5765 175.5,28.5C 170.443,23.7855 165.109,19.2855 159.5,15C 160.833,14.6667 162.167,14.3333 163.5,14C 155.263,12.4308 147.263,10.9308 139.5,9.5 Z"/></g>
<g><path style="opacity:1" fill="#797979" d="M 122.5,9.5 C 125.5,9.5 128.5,9.5 131.5,9.5C 132.681,11.0672 134.347,11.9005 136.5,12C 130.567,13.1861 131.233,14.1861 138.5,15C 139.5,16.6667 140.5,18.3333 141.5,20C 146.356,22.2601 150.689,25.2601 154.5,29C 157.586,34.2734 161.92,37.7734 167.5,39.5C 167.281,40.675 167.614,41.675 168.5,42.5C 175.543,48.8782 182.876,54.8782 190.5,60.5C 191.386,61.325 191.719,62.325 191.5,63.5C 192.978,63.238 194.311,63.5713 195.5,64.5C 196.167,65.8333 197.167,66.8333 198.5,67.5C 199.429,68.6888 199.762,70.0222 199.5,71.5C 201.199,71.3398 202.866,71.5065 204.5,72C 207.81,74.9649 210.143,78.4649 211.5,82.5C 211.66,84.1992 211.494,85.8659 211,87.5C 210.667,86.5 210.333,85.5 210,84.5C 209.667,84.8333 209.333,85.1667 209,85.5C 208.667,83.8333 208.333,82.1667 208,80.5C 207.692,81.3081 207.192,81.9747 206.5,82.5C 200.142,75.894 193.475,69.7274 186.5,64C 185.552,63.5172 184.552,63.3505 183.5,63.5C 183.762,62.0222 183.429,60.6888 182.5,59.5C 177.002,57.0689 172.669,53.2355 169.5,48C 168.5,47.6667 167.5,47.3333 166.5,47C 159.275,40.7331 151.942,34.5665 144.5,28.5C 143.61,25.4428 141.61,23.6095 138.5,23C 136.138,20.308 133.804,17.6413 131.5,15C 130.062,14.7811 128.729,14.2811 127.5,13.5C 127.709,12.914 128.043,12.414 128.5,12C 126.167,11.6667 123.833,11.3333 121.5,11C 122.056,10.6174 122.389,10.1174 122.5,9.5 Z"/></g>
<g><path style="opacity:1" fill="#656565" d="M 95.5,9.5 C 100.833,9.5 106.167,9.5 111.5,9.5C 112.171,10.8471 112.171,12.0138 111.5,13C 123.209,21.3675 134.042,30.8675 144,41.5C 144.725,39.842 145.892,39.342 147.5,40C 147.043,40.414 146.709,40.914 146.5,41.5C 149.832,42.3097 151.332,44.3097 151,47.5C 149.989,46.6634 148.822,46.33 147.5,46.5C 143.931,44.8815 140.264,43.5481 136.5,42.5C 131.958,40.4309 127.292,38.7643 122.5,37.5C 121.436,35.9514 119.436,34.7848 116.5,34C 117.624,33.7508 118.624,33.2508 119.5,32.5C 112.199,27.0219 105.199,21.1886 98.5,15C 98.8333,14.6667 99.1667,14.3333 99.5,14C 98.2068,13.51 96.8734,13.3433 95.5,13.5C 95.5,12.1667 95.5,10.8333 95.5,9.5 Z"/></g>
<g><path style="opacity:1" fill="#585858" d="M 95.5,9.5 C 95.5,10.8333 95.5,12.1667 95.5,13.5C 96.8734,13.3433 98.2068,13.51 99.5,14C 99.1667,14.3333 98.8333,14.6667 98.5,15C 105.199,21.1886 112.199,27.0219 119.5,32.5C 118.624,33.2508 117.624,33.7508 116.5,34C 119.436,34.7848 121.436,35.9514 122.5,37.5C 117.833,37.5 113.167,37.5 108.5,37.5C 107.048,36.6981 105.382,36.1981 103.5,36C 104.833,35.6667 106.167,35.3333 107.5,35C 105.483,34.3257 103.817,33.1591 102.5,31.5C 100.902,32.4847 99.235,32.6514 97.5,32C 98.1667,31.6667 98.8333,31.3333 99.5,31C 93.8686,26.0174 88.2019,21.0174 82.5,16C 79.4557,15.6411 79.1224,14.9745 81.5,14C 79.5,13.6667 77.5,13.3333 75.5,13C 76.3081,12.6924 76.9747,12.1924 77.5,11.5C 76.2713,10.7189 74.938,10.2189 73.5,10C 80.8258,9.50034 88.1591,9.33368 95.5,9.5 Z"/></g>
<g><path style="opacity:1" fill="#484848" d="M 50.5,8.5 C 91.3368,8.16806 132.003,8.50139 172.5,9.5C 161.5,9.5 150.5,9.5 139.5,9.5C 136.833,9.5 134.167,9.5 131.5,9.5C 128.5,9.5 125.5,9.5 122.5,9.5C 118.833,9.5 115.167,9.5 111.5,9.5C 106.167,9.5 100.833,9.5 95.5,9.5C 88.1591,9.33368 80.8258,9.50034 73.5,10C 74.938,10.2189 76.2713,10.7189 77.5,11.5C 76.9747,12.1924 76.3081,12.6924 75.5,13C 77.5,13.3333 79.5,13.6667 81.5,14C 79.1224,14.9745 79.4557,15.6411 82.5,16C 88.2019,21.0174 93.8686,26.0174 99.5,31C 98.8333,31.3333 98.1667,31.6667 97.5,32C 99.235,32.6514 100.902,32.4847 102.5,31.5C 103.817,33.1591 105.483,34.3257 107.5,35C 106.167,35.3333 104.833,35.6667 103.5,36C 105.382,36.1981 107.048,36.6981 108.5,37.5C 104.106,37.8437 99.7722,38.5103 95.5,39.5C 92.0369,40.0991 88.7036,41.0991 85.5,42.5C 84.4643,40.3123 82.9643,40.3123 81,42.5C 79.9025,41.0325 78.4025,40.1992 76.5,40C 77.448,39.5172 78.448,39.3505 79.5,39.5C 74.5759,33.2587 68.5759,27.9253 61.5,23.5C 59.1227,20.992 56.7894,18.492 54.5,16C 52.913,15.1376 51.2464,14.4709 49.5,14C 51.5,13.6667 53.5,13.3333 55.5,13C 52.5,12.6667 49.5,12.3333 46.5,12C 47.5908,10.4499 48.9242,9.28321 50.5,8.5 Z"/></g>
<g><path style="opacity:1" fill="#1b1b1b" d="M 12.5,39.5 C 13.9311,39.8807 14.7645,40.8807 15,42.5C 15.3333,41.5 15.6667,40.5 16,39.5C 21.1879,45.3522 27.0213,50.5188 33.5,55C 33.1667,55.3333 32.8333,55.6667 32.5,56C 36.9878,59.7433 41.6544,63.2433 46.5,66.5C 47.1924,65.9747 47.6924,65.3081 48,64.5C 48,66.5 48,68.5 48,70.5C 48.9506,70.8836 49.7839,71.2169 50.5,71.5C 48.8195,74.9072 47.1528,78.2406 45.5,81.5C 45.5654,81.0618 45.3988,80.7284 45,80.5C 43.75,83.1707 41.9167,85.3374 39.5,87C 39.8333,87.3333 40.1667,87.6667 40.5,88C 36.827,93.8422 33.827,100.009 31.5,106.5C 30.5041,106.414 29.6708,106.748 29,107.5C 28.7506,110.177 27.7506,112.51 26,114.5C 24.3691,118.689 23.5357,123.022 23.5,127.5C 22.5,127.5 21.5,127.5 20.5,127.5C 20.1667,138.167 19.8333,148.833 19.5,159.5C 20.8333,159.5 22.1667,159.5 23.5,159.5C 23.5,162.167 23.5,164.833 23.5,167.5C 26.1667,167.5 28.8333,167.5 31.5,167.5C 31.5,170.167 31.5,172.833 31.5,175.5C 34.1667,175.5 36.8333,175.5 39.5,175.5C 39.5,178.167 39.5,180.833 39.5,183.5C 44.9326,182.636 50.266,182.636 55.5,183.5C 53.8333,190.5 56.5,193.167 63.5,191.5C 63.5,194.167 63.5,196.833 63.5,199.5C 66.1667,199.5 68.8333,199.5 71.5,199.5C 71.5,202.5 71.5,205.5 71.5,208.5C 92.7919,208.504 92.7919,209.171 71.5,210.5C 76.8025,211.329 82.1358,211.829 87.5,212C 76.8333,212.333 66.1667,212.667 55.5,213C 78.8157,214.469 102.149,214.802 125.5,214C 129.957,210.418 134.624,207.251 139.5,204.5C 140.452,202.955 140.785,201.288 140.5,199.5C 141.5,199.5 142.5,199.5 143.5,199.5C 143.5,198.5 143.5,197.5 143.5,196.5C 145.39,196.703 146.89,196.037 148,194.5C 148.554,190.717 150.554,188.05 154,186.5C 154.333,184.833 154.667,183.167 155,181.5C 157.777,178.244 160.277,174.911 162.5,171.5C 162.351,172.552 162.517,173.552 163,174.5C 164.167,172.833 165.333,171.167 166.5,169.5C 166.88,171.021 167.046,172.687 167,174.5C 167.333,174.167 167.667,173.833 168,173.5C 172.115,176.799 176.282,179.966 180.5,183C 180.167,183.333 179.833,183.667 179.5,184C 182.72,186.103 185.72,188.436 188.5,191C 188.167,191.333 187.833,191.667 187.5,192C 191.238,194.197 194.571,196.864 197.5,200C 198.332,200.688 198.998,200.521 199.5,199.5C 199.977,198.069 200.643,196.736 201.5,195.5C 202.83,197.347 202.497,198.847 200.5,200C 201.167,200.667 201.833,201.333 202.5,202C 201.177,202.816 200.511,203.983 200.5,205.5C 192.904,212.461 183.904,216.461 173.5,217.5C 132.499,217.667 91.4986,217.5 50.5,217C 90.8333,216.667 131.167,216.333 171.5,216C 131.833,215.667 92.1667,215.333 52.5,215C 41.7137,213.689 32.2137,209.522 24,202.5C 25.663,205.498 28.163,207.998 31.5,210C 37.2316,212.799 43.2316,214.799 49.5,216C 47.8659,216.494 46.1992,216.66 44.5,216.5C 23.8035,210.509 11.3035,196.842 7,175.5C 6.33333,132.833 6.33333,90.1667 7,47.5C 7.60767,45.8455 8.10767,44.1789 8.5,42.5C 8.36279,87.3009 8.52945,132.301 9,177.5C 10.467,185.432 13.8003,192.432 19,198.5C 17.0169,193.523 14.6836,188.523 12,183.5C 11.587,180.768 10.9203,178.101 10,175.5C 9.33333,135.5 9.33333,95.5 10,55.5C 10.3615,50.0719 11.1948,44.7385 12.5,39.5 Z"/></g>
<g><path style="opacity:1" fill="#8c8c8c" d="M 108.5,37.5 C 113.167,37.5 117.833,37.5 122.5,37.5C 127.292,38.7643 131.958,40.4309 136.5,42.5C 136.833,43.1667 137.167,43.8333 137.5,44.5C 133.366,42.7169 129.033,41.7169 124.5,41.5C 116.386,39.225 108.052,38.8916 99.5,40.5C 97.901,40.7678 96.5676,40.4345 95.5,39.5C 99.7722,38.5103 104.106,37.8437 108.5,37.5 Z"/></g>
<g><path style="opacity:1" fill="#252524" d="M 124.5,41.5 C 116.08,43.1256 107.747,45.1256 99.5,47.5C 99.719,48.675 99.3857,49.675 98.5,50.5C 96.8988,51.1654 95.3988,51.4988 94,51.5C 93.8726,52.7766 94.3726,53.9433 95.5,55C 95.1667,55.5 94.8333,56 94.5,56.5C 90.5218,57.2676 86.8552,58.6009 83.5,60.5C 82.1667,60.5 80.8333,60.5 79.5,60.5C 79.5,61.5 79.5,62.5 79.5,63.5C 76.8602,63.954 74.5268,65.1207 72.5,67C 69.4661,70.173 66.4661,73.3396 63.5,76.5C 63.5,74.8333 63.5,73.1667 63.5,71.5C 64.1667,71.5 64.5,71.1667 64.5,70.5C 67.2109,66.7881 70.5442,63.7881 74.5,61.5C 76.371,61.1412 77.871,60.1412 79,58.5C 79.3333,58.8333 79.6667,59.1667 80,59.5C 83.5393,55.9607 87.0393,52.4607 90.5,49C 90.0946,48.0546 89.428,47.3879 88.5,47C 89.8333,46.6667 91.1667,46.3333 92.5,46C 91.7476,45.3292 91.4142,44.4959 91.5,43.5C 94.1667,42.5 96.8333,41.5 99.5,40.5C 108.052,38.8916 116.386,39.225 124.5,41.5 Z"/></g>
<g><path style="opacity:1" fill="#6d6d6d" d="M 111.5,9.5 C 115.167,9.5 118.833,9.5 122.5,9.5C 122.389,10.1174 122.056,10.6174 121.5,11C 123.833,11.3333 126.167,11.6667 128.5,12C 128.043,12.414 127.709,12.914 127.5,13.5C 128.729,14.2811 130.062,14.7811 131.5,15C 133.804,17.6413 136.138,20.308 138.5,23C 141.61,23.6095 143.61,25.4428 144.5,28.5C 151.942,34.5665 159.275,40.7331 166.5,47C 167.5,47.3333 168.5,47.6667 169.5,48C 172.669,53.2355 177.002,57.0689 182.5,59.5C 183.429,60.6888 183.762,62.0222 183.5,63.5C 184.552,63.3505 185.552,63.5172 186.5,64C 193.475,69.7274 200.142,75.894 206.5,82.5C 207.192,81.9747 207.692,81.3081 208,80.5C 208.333,82.1667 208.667,83.8333 209,85.5C 209.333,85.1667 209.667,84.8333 210,84.5C 210.333,85.5 210.667,86.5 211,87.5C 211.494,85.8659 211.66,84.1992 211.5,82.5C 211.413,79.4017 211.913,79.0684 213,81.5C 213.499,75.5092 213.666,69.5092 213.5,63.5C 213.5,58.1667 213.5,52.8333 213.5,47.5C 214.496,63.3246 214.83,79.3246 214.5,95.5C 213.673,100.651 213.173,105.984 213,111.5C 212.667,109.5 212.333,107.5 212,105.5C 211.667,106.833 211.333,108.167 211,109.5C 210.597,106.292 209.597,103.292 208,100.5C 207.667,101.5 207.333,102.5 207,103.5C 202.28,98.7754 197.28,94.4421 192,90.5C 191.517,89.552 191.351,88.552 191.5,87.5C 190.127,87.6567 188.793,87.49 187.5,87C 184.616,84.9515 182.283,82.4515 180.5,79.5C 179.478,79.8555 178.811,80.5222 178.5,81.5C 171.367,67.0318 161.034,55.3651 147.5,46.5C 148.822,46.33 149.989,46.6634 151,47.5C 151.332,44.3097 149.832,42.3097 146.5,41.5C 146.709,40.914 147.043,40.414 147.5,40C 145.892,39.342 144.725,39.842 144,41.5C 134.042,30.8675 123.209,21.3675 111.5,13C 112.171,12.0138 112.171,10.8471 111.5,9.5 Z"/></g>
<g><path style="opacity:1" fill="#3d3b3b" d="M 91.5,43.5 C 91.4142,44.4959 91.7476,45.3292 92.5,46C 91.1667,46.3333 89.8333,46.6667 88.5,47C 89.428,47.3879 90.0946,48.0546 90.5,49C 87.0393,52.4607 83.5393,55.9607 80,59.5C 79.6667,59.1667 79.3333,58.8333 79,58.5C 77.871,60.1412 76.371,61.1412 74.5,61.5C 75.8121,59.5212 77.4788,57.8545 79.5,56.5C 80.4618,53.059 81.6284,49.7257 83,46.5C 85.4194,44.4152 88.2528,43.4152 91.5,43.5 Z"/></g>
<g><path style="opacity:1" fill="#1d1c1c" d="M 124.5,41.5 C 129.033,41.7169 133.366,42.7169 137.5,44.5C 156.868,52.3683 170.368,66.035 178,85.5C 180.608,92.2667 182.108,99.2667 182.5,106.5C 182.623,113.529 182.29,120.529 181.5,127.5C 180.472,132.584 178.472,137.25 175.5,141.5C 175.5,138.167 175.5,134.833 175.5,131.5C 175.5,123.5 175.5,115.5 175.5,107.5C 172.914,102.342 170.914,96.8422 169.5,91C 165,86.4774 161.666,81.3108 159.5,75.5C 158.258,73.7499 156.758,72.0832 155,70.5C 154.867,67.4749 153.867,64.8082 152,62.5C 151.581,63.6721 150.915,64.6721 150,65.5C 148.204,64.233 146.371,64.233 144.5,65.5C 143.77,63.6587 143.103,61.8254 142.5,60C 137.504,59.3893 132.504,58.8893 127.5,58.5C 117.013,57.5056 106.346,57.1722 95.5,57.5C 95.5,58.5 95.5,59.5 95.5,60.5C 91.5,60.5 87.5,60.5 83.5,60.5C 86.8552,58.6009 90.5218,57.2676 94.5,56.5C 94.8333,56 95.1667,55.5 95.5,55C 94.3726,53.9433 93.8726,52.7766 94,51.5C 95.3988,51.4988 96.8988,51.1654 98.5,50.5C 99.3857,49.675 99.719,48.675 99.5,47.5C 107.747,45.1256 116.08,43.1256 124.5,41.5 Z"/></g>
<g><path style="opacity:1" fill="#1f261e" d="M 127.5,58.5 C 132.504,58.8893 137.504,59.3893 142.5,60C 143.103,61.8254 143.77,63.6587 144.5,65.5C 146.371,64.233 148.204,64.233 150,65.5C 150.915,64.6721 151.581,63.6721 152,62.5C 153.867,64.8082 154.867,67.4749 155,70.5C 156.758,72.0832 158.258,73.7499 159.5,75.5C 158.448,75.6495 157.448,75.4828 156.5,75C 154.027,73.4385 152.027,71.4385 150.5,69C 148.235,67.8822 145.901,67.0488 143.5,66.5C 138.477,64.3493 133.143,63.3493 127.5,63.5C 127.5,62.5 127.5,61.5 127.5,60.5C 127.5,59.8333 127.5,59.1667 127.5,58.5 Z"/></g>
<g><path style="opacity:1" fill="#1e2e1b" d="M 127.5,58.5 C 127.5,59.1667 127.5,59.8333 127.5,60.5C 116.833,60.5 106.167,60.5 95.5,60.5C 95.5,59.5 95.5,58.5 95.5,57.5C 106.346,57.1722 117.013,57.5056 127.5,58.5 Z"/></g>
<g><path style="opacity:1" fill="#233e20" d="M 95.5,60.5 C 106.167,60.5 116.833,60.5 127.5,60.5C 127.5,61.5 127.5,62.5 127.5,63.5C 116.833,63.5 106.167,63.5 95.5,63.5C 95.5,62.5 95.5,61.5 95.5,60.5 Z"/></g>
<g><path style="opacity:1" fill="#234e1f" d="M 95.5,63.5 C 106.167,63.5 116.833,63.5 127.5,63.5C 133.143,63.3493 138.477,64.3493 143.5,66.5C 143.5,67.8333 143.5,69.1667 143.5,70.5C 143.217,71.2891 142.717,71.9558 142,72.5C 137.354,70.0751 132.521,69.4085 127.5,70.5C 123.008,70.7307 118.675,70.0641 114.5,68.5C 108.254,70.0072 101.921,70.6739 95.5,70.5C 95.5,71.5 95.5,72.5 95.5,73.5C 90.8301,74.2208 86.1635,75.0541 81.5,76C 80.0267,76.7096 79.3601,77.8762 79.5,79.5C 79.5,79.8333 79.5,80.1667 79.5,80.5C 78.5084,80.3284 77.8417,80.6618 77.5,81.5C 76.0222,81.238 74.6888,81.5713 73.5,82.5C 70.1486,84.8586 66.8153,87.1919 63.5,89.5C 63.5,88.5 63.5,87.5 63.5,86.5C 68.6887,84.3915 73.022,81.0582 76.5,76.5C 79.3252,75.6168 81.9919,74.4502 84.5,73C 82.6183,72.8019 80.9516,72.3019 79.5,71.5C 79.5,69.8333 79.5,68.1667 79.5,66.5C 85.1236,66.4578 90.4569,65.4578 95.5,63.5 Z"/></g>
<g><path style="opacity:1" fill="#b4b4b4" d="M 136.5,42.5 C 140.264,43.5481 143.931,44.8815 147.5,46.5C 161.034,55.3651 171.367,67.0318 178.5,81.5C 180.202,86.9335 181.869,92.2669 183.5,97.5C 183.5,99.5 183.5,101.5 183.5,103.5C 183.737,104.791 183.404,105.791 182.5,106.5C 182.108,99.2667 180.608,92.2667 178,85.5C 170.368,66.035 156.868,52.3683 137.5,44.5C 137.167,43.8333 136.833,43.1667 136.5,42.5 Z"/></g>
<g><path style="opacity:1" fill="#1c211a" d="M 83.5,60.5 C 87.5,60.5 91.5,60.5 95.5,60.5C 95.5,61.5 95.5,62.5 95.5,63.5C 90.4569,65.4578 85.1236,66.4578 79.5,66.5C 77.6883,66.7713 76.0217,67.438 74.5,68.5C 69.0819,75.5515 63.2486,82.2181 57,88.5C 56.5034,90.8098 56.3367,93.1432 56.5,95.5C 53.9505,95.5608 52.4505,96.8941 52,99.5C 50.846,103.447 50.0127,107.447 49.5,111.5C 49.1667,111.5 48.8333,111.5 48.5,111.5C 48.7315,106.01 49.7315,100.676 51.5,95.5C 52.7518,91.3982 54.7518,87.7315 57.5,84.5C 59.5244,81.8149 61.5244,79.1482 63.5,76.5C 66.4661,73.3396 69.4661,70.173 72.5,67C 74.5268,65.1207 76.8602,63.954 79.5,63.5C 79.5,62.5 79.5,61.5 79.5,60.5C 80.8333,60.5 82.1667,60.5 83.5,60.5 Z"/></g>
<g><path style="opacity:1" fill="#22431d" d="M 79.5,71.5 C 80.9516,72.3019 82.6183,72.8019 84.5,73C 81.9919,74.4502 79.3252,75.6168 76.5,76.5C 73.022,81.0582 68.6887,84.3915 63.5,86.5C 63.5,87.5 63.5,88.5 63.5,89.5C 61.7484,91.2459 60.4151,93.2459 59.5,95.5C 59.1667,95.5 58.8333,95.5 58.5,95.5C 58.1667,95.5 57.8333,95.5 57.5,95.5C 57.3379,93.4727 57.5045,91.4727 58,89.5C 62.7931,86.2424 67.2931,82.9091 71.5,79.5C 71.8333,74.5 74.5,71.8333 79.5,71.5 Z"/></g>
<g><path style="opacity:1" fill="#3a3a3a" d="M 63.5,71.5 C 63.5,73.1667 63.5,74.8333 63.5,76.5C 61.5244,79.1482 59.5244,81.8149 57.5,84.5C 57.4003,81.8915 58.0669,79.5582 59.5,77.5C 60.3403,75.1475 61.6736,73.1475 63.5,71.5 Z"/></g>
<g><path style="opacity:1" fill="#329032" d="M 127.5,74.5 C 127.5,74.8333 127.5,75.1667 127.5,75.5C 122.167,75.5 116.833,75.5 111.5,75.5C 106.167,75.5 100.833,75.5 95.5,75.5C 99.8962,73.9669 104.563,73.3002 109.5,73.5C 115.509,73.7671 121.509,74.1004 127.5,74.5 Z"/></g>
<g><path style="opacity:1" fill="#28642a" d="M 127.5,75.5 C 127.5,75.1667 127.5,74.8333 127.5,74.5C 132.97,74.2465 138.304,74.9132 143.5,76.5C 143.5,77.5 143.5,78.5 143.5,79.5C 138.528,77.0352 133.194,75.7019 127.5,75.5 Z"/></g>
<g><path style="opacity:1" fill="#28512a" d="M 143.5,70.5 C 144.93,70.4208 146.264,70.7542 147.5,71.5C 152.213,75.3281 156.213,79.6614 159.5,84.5C 157.5,84.1667 155.5,83.8333 153.5,83.5C 153.719,82.325 153.386,81.325 152.5,80.5C 150.253,79.6258 147.92,79.2924 145.5,79.5C 144.833,79.5 144.167,79.5 143.5,79.5C 143.5,78.5 143.5,77.5 143.5,76.5C 138.304,74.9132 132.97,74.2465 127.5,74.5C 127.5,73.1667 127.5,71.8333 127.5,70.5C 132.521,69.4085 137.354,70.0751 142,72.5C 142.717,71.9558 143.217,71.2891 143.5,70.5 Z"/></g>
<g><path style="opacity:1" fill="#1e5d1a" d="M 127.5,70.5 C 127.5,71.8333 127.5,73.1667 127.5,74.5C 121.509,74.1004 115.509,73.7671 109.5,73.5C 104.563,73.3002 99.8962,73.9669 95.5,75.5C 93.1432,75.3367 90.8098,75.5034 88.5,76C 85.5319,77.3219 82.5319,78.4886 79.5,79.5C 79.3601,77.8762 80.0267,76.7096 81.5,76C 86.1635,75.0541 90.8301,74.2208 95.5,73.5C 95.5,72.5 95.5,71.5 95.5,70.5C 101.921,70.6739 108.254,70.0072 114.5,68.5C 118.675,70.0641 123.008,70.7307 127.5,70.5 Z"/></g>
<g><path style="opacity:1" fill="#21321f" d="M 79.5,66.5 C 79.5,68.1667 79.5,69.8333 79.5,71.5C 74.5,71.8333 71.8333,74.5 71.5,79.5C 67.2931,82.9091 62.7931,86.2424 58,89.5C 57.5045,91.4727 57.3379,93.4727 57.5,95.5C 54.6018,100.685 52.2685,106.018 50.5,111.5C 50.1667,111.5 49.8333,111.5 49.5,111.5C 50.0127,107.447 50.846,103.447 52,99.5C 52.4505,96.8941 53.9505,95.5608 56.5,95.5C 56.3367,93.1432 56.5034,90.8098 57,88.5C 63.2486,82.2181 69.0819,75.5515 74.5,68.5C 76.0217,67.438 77.6883,66.7713 79.5,66.5 Z"/></g>
<g><path style="opacity:1" fill="#45bb46" d="M 111.5,76.5 C 118.333,76.2263 125,77.0597 131.5,79C 128.447,79.1786 125.447,79.6786 122.5,80.5C 122.137,81.1835 121.804,81.8501 121.5,82.5C 118.495,84.3966 115.161,85.7299 111.5,86.5C 108.538,88.7559 106.871,91.7559 106.5,95.5C 105.687,97.2608 104.687,98.9275 103.5,100.5C 103.5,98.8333 103.5,97.1667 103.5,95.5C 102.5,95.5 101.5,95.5 100.5,95.5C 100.822,93.5248 100.822,91.8582 100.5,90.5C 100.5,89.5 100.5,88.5 100.5,87.5C 101.5,87.5 102.5,87.5 103.5,87.5C 103.5,86.1667 103.5,84.8333 103.5,83.5C 105.297,80.6403 107.963,79.307 111.5,79.5C 111.5,78.5 111.5,77.5 111.5,76.5 Z"/></g>
<g><path style="opacity:1" fill="#575859" d="M 59.5,77.5 C 58.0669,79.5582 57.4003,81.8915 57.5,84.5C 54.7518,87.7315 52.7518,91.3982 51.5,95.5C 52.0071,88.4902 54.6737,82.4902 59.5,77.5 Z"/></g>
<g><path style="opacity:1" fill="#4cad50" d="M 111.5,76.5 C 111.5,76.1667 111.5,75.8333 111.5,75.5C 116.833,75.5 122.167,75.5 127.5,75.5C 133.194,75.7019 138.528,77.0352 143.5,79.5C 143.5,81.5 143.5,83.5 143.5,85.5C 145.288,85.2148 146.955,85.5481 148.5,86.5C 150.874,89.0283 151.874,92.0283 151.5,95.5C 150.127,95.3433 148.793,95.51 147.5,96C 148.423,98.0408 148.756,100.208 148.5,102.5C 147.883,102.389 147.383,102.056 147,101.5C 146.505,99.5273 146.338,97.5273 146.5,95.5C 145.5,95.5 144.5,95.5 143.5,95.5C 142.633,86.4306 137.466,81.7639 128,81.5C 125.784,81.6527 123.617,81.9861 121.5,82.5C 121.804,81.8501 122.137,81.1835 122.5,80.5C 125.447,79.6786 128.447,79.1786 131.5,79C 125,77.0597 118.333,76.2263 111.5,76.5 Z"/></g>
<g><path style="opacity:1" fill="#62c55f" d="M 148.5,102.5 C 148.5,105.5 148.5,108.5 148.5,111.5C 147.807,114.91 146.14,117.577 143.5,119.5C 140.833,119.5 138.167,119.5 135.5,119.5C 132.618,119.986 129.952,119.986 127.5,119.5C 134.537,118.463 138.537,114.463 139.5,107.5C 140.822,107.67 141.989,107.337 143,106.5C 143.667,103.167 143.667,99.8333 143,96.5C 140.296,94.2664 138.463,91.4331 137.5,88C 133.216,86.6743 128.883,86.0076 124.5,86C 120.19,87.1403 116.19,88.9736 112.5,91.5C 111.571,92.6888 111.238,94.0222 111.5,95.5C 109.833,95.5 108.167,95.5 106.5,95.5C 106.871,91.7559 108.538,88.7559 111.5,86.5C 115.161,85.7299 118.495,84.3966 121.5,82.5C 123.617,81.9861 125.784,81.6527 128,81.5C 137.466,81.7639 142.633,86.4306 143.5,95.5C 144.5,95.5 145.5,95.5 146.5,95.5C 146.338,97.5273 146.505,99.5273 147,101.5C 147.383,102.056 147.883,102.389 148.5,102.5 Z"/></g>
<g><path style="opacity:1" fill="#1f5421" d="M 145.5,79.5 C 147.92,79.2924 150.253,79.6258 152.5,80.5C 153.386,81.325 153.719,82.325 153.5,83.5C 155.5,83.8333 157.5,84.1667 159.5,84.5C 161.411,86.9171 163.578,89.2504 166,91.5C 166.49,92.7932 166.657,94.1266 166.5,95.5C 164.786,92.7872 162.453,90.7872 159.5,89.5C 154.576,86.584 149.91,83.2506 145.5,79.5 Z"/></g>
<g><path style="opacity:1" fill="#233821" d="M 143.5,66.5 C 145.901,67.0488 148.235,67.8822 150.5,69C 152.027,71.4385 154.027,73.4385 156.5,75C 157.448,75.4828 158.448,75.6495 159.5,75.5C 161.666,81.3108 165,86.4774 169.5,91C 170.914,96.8422 172.914,102.342 175.5,107.5C 174.373,105.249 172.706,103.415 170.5,102C 170.162,99.3911 169.162,97.2244 167.5,95.5C 167.167,95.5 166.833,95.5 166.5,95.5C 166.657,94.1266 166.49,92.7932 166,91.5C 163.578,89.2504 161.411,86.9171 159.5,84.5C 156.213,79.6614 152.213,75.3281 147.5,71.5C 146.264,70.7542 144.93,70.4208 143.5,70.5C 143.5,69.1667 143.5,67.8333 143.5,66.5 Z"/></g>
<g><path style="opacity:1" fill="#363636" d="M 12.5,39.5 C 11.1948,44.7385 10.3615,50.0719 10,55.5C 9.33333,95.5 9.33333,135.5 10,175.5C 10.9203,178.101 11.587,180.768 12,183.5C 14.6836,188.523 17.0169,193.523 19,198.5C 13.8003,192.432 10.467,185.432 9,177.5C 8.52945,132.301 8.36279,87.3009 8.5,42.5C 8.26269,41.209 8.59603,40.209 9.5,39.5C 9.36899,40.2389 9.53566,40.9056 10,41.5C 11,39.5 12,37.5 13,35.5C 13.5791,36.9285 13.4124,38.2618 12.5,39.5 Z"/></g>
<g><path style="opacity:1" fill="#81d277" d="M 127.5,119.5 C 125.469,119.028 123.802,118.028 122.5,116.5C 124.415,116.784 126.081,116.451 127.5,115.5C 128.93,115.579 130.264,115.246 131.5,114.5C 133.516,111.78 135.516,109.113 137.5,106.5C 138.875,92.8835 132.875,87.8835 119.5,91.5C 118.491,94.337 116.491,95.6703 113.5,95.5C 114.092,98.1272 114.425,100.794 114.5,103.5C 111.828,101.609 110.828,98.9419 111.5,95.5C 111.238,94.0222 111.571,92.6888 112.5,91.5C 116.19,88.9736 120.19,87.1403 124.5,86C 128.883,86.0076 133.216,86.6743 137.5,88C 138.463,91.4331 140.296,94.2664 143,96.5C 143.667,99.8333 143.667,103.167 143,106.5C 141.989,107.337 140.822,107.67 139.5,107.5C 138.537,114.463 134.537,118.463 127.5,119.5 Z"/></g>
<g><path style="opacity:1" fill="#5c5c5c" d="M 214.5,95.5 C 214.5,101.167 214.5,106.833 214.5,112.5C 213.677,115.977 213.177,119.644 213,123.5C 212.667,122.167 212.333,120.833 212,119.5C 211.259,120.641 210.425,120.641 209.5,119.5C 203.668,113.933 197.002,108.433 189.5,103C 188.167,100.667 186.833,98.3333 185.5,96C 184.184,95.4719 183.517,95.9719 183.5,97.5C 181.869,92.2669 180.202,86.9335 178.5,81.5C 178.811,80.5222 179.478,79.8555 180.5,79.5C 182.283,82.4515 184.616,84.9515 187.5,87C 188.793,87.49 190.127,87.6567 191.5,87.5C 191.351,88.552 191.517,89.552 192,90.5C 197.28,94.4421 202.28,98.7754 207,103.5C 207.333,102.5 207.667,101.5 208,100.5C 209.597,103.292 210.597,106.292 211,109.5C 211.333,108.167 211.667,106.833 212,105.5C 212.333,107.5 212.667,109.5 213,111.5C 213.173,105.984 213.673,100.651 214.5,95.5 Z"/></g>
<g><path style="opacity:1" fill="#3c903d" d="M 143.5,79.5 C 144.167,79.5 144.833,79.5 145.5,79.5C 149.91,83.2506 154.576,86.584 159.5,89.5C 163.576,93.2175 165.576,97.8842 165.5,103.5C 164.178,103.33 163.011,103.663 162,104.5C 161.338,106.813 160.838,109.146 160.5,111.5C 160.167,111.5 159.833,111.5 159.5,111.5C 159.676,106.12 159.342,100.787 158.5,95.5C 156.167,95.5 153.833,95.5 151.5,95.5C 151.874,92.0283 150.874,89.0283 148.5,86.5C 146.955,85.5481 145.288,85.2148 143.5,85.5C 143.5,83.5 143.5,81.5 143.5,79.5 Z"/></g>
<g><path style="opacity:1" fill="#515151" d="M 214.5,112.5 C 214.5,121.5 214.5,130.5 214.5,139.5C 213.833,139.5 213.5,139.833 213.5,140.5C 212.698,139.048 212.198,137.382 212,135.5C 211.667,136.5 211.333,137.5 211,138.5C 210,136.5 209,134.5 208,132.5C 202.124,128.91 196.79,124.577 192,119.5C 190.665,116.776 190.498,114.11 191.5,111.5C 190.5,111.5 189.5,111.5 188.5,111.5C 188.649,112.552 188.483,113.552 188,114.5C 186.525,111.878 185.359,109.212 184.5,106.5C 184.737,105.209 184.404,104.209 183.5,103.5C 183.5,101.5 183.5,99.5 183.5,97.5C 183.517,95.9719 184.184,95.4719 185.5,96C 186.833,98.3333 188.167,100.667 189.5,103C 197.002,108.433 203.668,113.933 209.5,119.5C 210.425,120.641 211.259,120.641 212,119.5C 212.333,120.833 212.667,122.167 213,123.5C 213.177,119.644 213.677,115.977 214.5,112.5 Z"/></g>
<g><path style="opacity:1" fill="#858684" d="M 64.5,70.5 C 64.5,71.1667 64.1667,71.5 63.5,71.5C 61.6736,73.1475 60.3403,75.1475 59.5,77.5C 54.6737,82.4902 52.0071,88.4902 51.5,95.5C 49.7315,100.676 48.7315,106.01 48.5,111.5C 47.1667,116.833 47.1667,122.167 48.5,127.5C 48.0268,133.391 49.3601,138.724 52.5,143.5C 54.109,149.385 56.7757,154.718 60.5,159.5C 57.55,157.379 55.05,154.713 53,151.5C 40.9635,129.26 39.2968,106.26 48,82.5C 52.4798,71.8674 59.3131,63.2007 68.5,56.5C 68.8333,56.6667 69.1667,56.8333 69.5,57C 68.5,58 67.5,59 66.5,60C 67.7376,59.9227 68.7376,60.0894 69.5,60.5C 68.147,61.6853 66.9803,63.0186 66,64.5C 65.3828,65.4491 65.5494,66.2825 66.5,67C 65.0267,67.7096 64.3601,68.8762 64.5,70.5 Z"/></g>
<g><path style="opacity:1" fill="#98de88" d="M 127.5,115.5 C 127.5,114.167 127.5,112.833 127.5,111.5C 128.978,111.762 130.311,111.429 131.5,110.5C 132.355,107.433 133.688,104.6 135.5,102C 133.987,100.121 133.321,97.9541 133.5,95.5C 132.5,95.5 131.5,95.5 130.5,95.5C 130.5,94.5 130.5,93.5 130.5,92.5C 126.781,92.0025 123.447,92.8358 120.5,95C 122.81,95.4966 125.143,95.6633 127.5,95.5C 127.5,96.5 127.5,97.5 127.5,98.5C 124.223,98.2161 121.057,98.5495 118,99.5C 116.734,103.395 116.234,107.395 116.5,111.5C 114.631,109.365 113.964,106.698 114.5,103.5C 114.425,100.794 114.092,98.1272 113.5,95.5C 116.491,95.6703 118.491,94.337 119.5,91.5C 132.875,87.8835 138.875,92.8835 137.5,106.5C 135.516,109.113 133.516,111.78 131.5,114.5C 130.264,115.246 128.93,115.579 127.5,115.5 Z"/></g>
<g><path style="opacity:1" fill="#40a944" d="M 151.5,95.5 C 153.833,95.5 156.167,95.5 158.5,95.5C 159.342,100.787 159.676,106.12 159.5,111.5C 157.833,112.833 156.167,112.833 154.5,111.5C 152.5,111.5 150.5,111.5 148.5,111.5C 148.5,108.5 148.5,105.5 148.5,102.5C 148.756,100.208 148.423,98.0408 147.5,96C 148.793,95.51 150.127,95.3433 151.5,95.5 Z"/></g>
<g><path style="opacity:1" fill="#ace799" d="M 127.5,111.5 C 127.5,112.833 127.5,114.167 127.5,115.5C 126.081,116.451 124.415,116.784 122.5,116.5C 118.968,116.632 116.968,114.966 116.5,111.5C 116.234,107.395 116.734,103.395 118,99.5C 121.057,98.5495 124.223,98.2161 127.5,98.5C 127.5,97.5 127.5,96.5 127.5,95.5C 125.143,95.6633 122.81,95.4966 120.5,95C 123.447,92.8358 126.781,92.0025 130.5,92.5C 130.5,93.5 130.5,94.5 130.5,95.5C 131.5,95.5 132.5,95.5 133.5,95.5C 133.321,97.9541 133.987,100.121 135.5,102C 133.688,104.6 132.355,107.433 131.5,110.5C 130.311,111.429 128.978,111.762 127.5,111.5 Z"/></g>
<g><path style="opacity:1" fill="#101010" d="M 45.5,81.5 C 31.8005,121.899 42.4672,154.065 77.5,178C 103.251,190.328 128.251,188.995 152.5,174C 159.374,168.627 165.374,162.46 170.5,155.5C 171.043,155.56 171.376,155.893 171.5,156.5C 169.914,158.173 169.247,160.173 169.5,162.5C 166.87,165.147 164.537,168.147 162.5,171.5C 160.277,174.911 157.777,178.244 155,181.5C 154.667,183.167 154.333,184.833 154,186.5C 150.554,188.05 148.554,190.717 148,194.5C 146.89,196.037 145.39,196.703 143.5,196.5C 143.5,197.5 143.5,198.5 143.5,199.5C 142.5,199.5 141.5,199.5 140.5,199.5C 138.331,201.636 135.664,203.136 132.5,204C 130.963,205.11 130.297,206.61 130.5,208.5C 126.833,208.5 123.167,208.5 119.5,208.5C 119.5,205.5 119.5,202.5 119.5,199.5C 108.73,199.88 98.0634,199.047 87.5,197C 84.5829,195.767 81.9163,194.267 79.5,192.5C 76.9135,191.52 74.2469,191.187 71.5,191.5C 71.0644,184.762 67.3977,182.096 60.5,183.5C 60.5,180.833 60.5,178.167 60.5,175.5C 58.8333,175.5 57.1667,175.5 55.5,175.5C 55.5,172.833 55.5,170.167 55.5,167.5C 52.8333,167.5 50.1667,167.5 47.5,167.5C 47.719,166.325 47.3857,165.325 46.5,164.5C 38.8102,159.431 34.4769,152.431 33.5,143.5C 31.8333,143.5 30.1667,143.5 28.5,143.5C 28.5,140.833 28.5,138.167 28.5,135.5C 27.5,135.5 26.5,135.5 25.5,135.5C 25.0833,125.198 27.0833,115.532 31.5,106.5C 33.827,100.009 36.827,93.8422 40.5,88C 40.1667,87.6667 39.8333,87.3333 39.5,87C 41.9167,85.3374 43.75,83.1707 45,80.5C 45.3988,80.7284 45.5654,81.0618 45.5,81.5 Z"/></g>
<g><path style="opacity:1" fill="#151515" d="M 31.5,106.5 C 27.0833,115.532 25.0833,125.198 25.5,135.5C 26.5,135.5 27.5,135.5 28.5,135.5C 28.5,138.167 28.5,140.833 28.5,143.5C 30.1667,143.5 31.8333,143.5 33.5,143.5C 34.4769,152.431 38.8102,159.431 46.5,164.5C 47.3857,165.325 47.719,166.325 47.5,167.5C 50.1667,167.5 52.8333,167.5 55.5,167.5C 55.5,170.167 55.5,172.833 55.5,175.5C 57.1667,175.5 58.8333,175.5 60.5,175.5C 60.5,178.167 60.5,180.833 60.5,183.5C 67.3977,182.096 71.0644,184.762 71.5,191.5C 74.2469,191.187 76.9135,191.52 79.5,192.5C 81.9163,194.267 84.5829,195.767 87.5,197C 98.0634,199.047 108.73,199.88 119.5,199.5C 119.5,202.5 119.5,205.5 119.5,208.5C 123.167,208.5 126.833,208.5 130.5,208.5C 130.297,206.61 130.963,205.11 132.5,204C 135.664,203.136 138.331,201.636 140.5,199.5C 140.785,201.288 140.452,202.955 139.5,204.5C 134.624,207.251 129.957,210.418 125.5,214C 102.149,214.802 78.8157,214.469 55.5,213C 66.1667,212.667 76.8333,212.333 87.5,212C 82.1358,211.829 76.8025,211.329 71.5,210.5C 92.7919,209.171 92.7919,208.504 71.5,208.5C 71.5,205.5 71.5,202.5 71.5,199.5C 68.8333,199.5 66.1667,199.5 63.5,199.5C 63.5,196.833 63.5,194.167 63.5,191.5C 56.5,193.167 53.8333,190.5 55.5,183.5C 50.266,182.636 44.9326,182.636 39.5,183.5C 39.5,180.833 39.5,178.167 39.5,175.5C 36.8333,175.5 34.1667,175.5 31.5,175.5C 31.5,172.833 31.5,170.167 31.5,167.5C 28.8333,167.5 26.1667,167.5 23.5,167.5C 23.5,164.833 23.5,162.167 23.5,159.5C 22.1667,159.5 20.8333,159.5 19.5,159.5C 19.8333,148.833 20.1667,138.167 20.5,127.5C 21.5,127.5 22.5,127.5 23.5,127.5C 23.5357,123.022 24.3691,118.689 26,114.5C 27.7506,112.51 28.7506,110.177 29,107.5C 29.6708,106.748 30.5041,106.414 31.5,106.5 Z"/></g>
<g><path style="opacity:1" fill="#dcf5d2" d="M 127.5,111.5 C 124.167,111.5 120.833,111.5 117.5,111.5C 116.394,103.607 119.727,100.607 127.5,102.5C 127.5,105.5 127.5,108.5 127.5,111.5 Z"/></g>
<g><path style="opacity:1" fill="#82e36e" d="M 106.5,95.5 C 108.167,95.5 109.833,95.5 111.5,95.5C 110.828,98.9419 111.828,101.609 114.5,103.5C 113.964,106.698 114.631,109.365 116.5,111.5C 116.968,114.966 118.968,116.632 122.5,116.5C 123.802,118.028 125.469,119.028 127.5,119.5C 129.952,119.986 132.618,119.986 135.5,119.5C 135.5,120.5 135.5,121.5 135.5,122.5C 132.833,122.5 130.167,122.5 127.5,122.5C 122.816,120.435 118.149,118.269 113.5,116C 111.963,114.89 111.297,113.39 111.5,111.5C 109.167,111.5 106.833,111.5 104.5,111.5C 103.252,110.666 102.585,109.333 102.5,107.5C 102.753,105.142 103.086,102.808 103.5,100.5C 104.687,98.9275 105.687,97.2608 106.5,95.5 Z"/></g>
<g><path style="opacity:1" fill="#1b9613" d="M 95.5,75.5 C 100.833,75.5 106.167,75.5 111.5,75.5C 111.5,75.8333 111.5,76.1667 111.5,76.5C 105.326,76.4683 99.3256,77.4683 93.5,79.5C 91.0332,82.6632 87.8665,84.9966 84,86.5C 83.3632,88.3031 82.1965,89.6364 80.5,90.5C 79.5481,92.0453 79.2148,93.712 79.5,95.5C 78.1667,95.5 76.8333,95.5 75.5,95.5C 73.371,100.658 71.5376,105.992 70,111.5C 68.0031,124.846 71.0031,136.846 79,147.5C 79.4935,149.134 79.6602,150.801 79.5,152.5C 74.9734,150.181 71.8067,146.514 70,141.5C 65.9394,131.863 64.6061,121.863 66,111.5C 68.1408,104.079 70.4742,96.7453 73,89.5C 75.3876,86.3663 78.5543,84.533 82.5,84C 86.2188,80.094 90.5521,77.2607 95.5,75.5 Z"/></g>
<g><path style="opacity:1" fill="#2c7323" d="M 77.5,81.5 C 74.4288,84.0658 71.4288,86.8991 68.5,90C 66.9751,91.0086 65.3084,91.5086 63.5,91.5C 62.228,97.028 60.3946,102.361 58,107.5C 57.3333,115.167 57.3333,122.833 58,130.5C 58.5046,133.517 60.0046,135.851 62.5,137.5C 63.3184,140.107 63.8184,142.774 64,145.5C 68.6401,148.906 72.1401,153.239 74.5,158.5C 76.0453,159.452 77.712,159.785 79.5,159.5C 79.2865,161.144 79.6198,162.644 80.5,164C 88.1229,167.812 96.1229,170.479 104.5,172C 109.5,172.667 114.5,172.667 119.5,172C 128.098,170.612 136.431,168.445 144.5,165.5C 141.724,167.141 138.724,168.641 135.5,170C 133.314,171.412 131.648,173.245 130.5,175.5C 117.144,179.666 103.811,179.499 90.5,175C 88.3353,171.514 85.1686,169.681 81,169.5C 79.9701,169.164 79.4701,168.497 79.5,167.5C 79.6068,165.621 79.1068,165.288 78,166.5C 75.6922,165.123 74.1922,163.123 73.5,160.5C 72.3112,159.571 70.9778,159.238 69.5,159.5C 69.6567,158.127 69.49,156.793 69,155.5C 65.9798,152.645 62.8132,149.979 59.5,147.5C 56.1217,134.784 54.9551,121.784 56,108.5C 58.4954,104.515 59.662,100.182 59.5,95.5C 60.4151,93.2459 61.7484,91.2459 63.5,89.5C 66.8153,87.1919 70.1486,84.8586 73.5,82.5C 74.6888,81.5713 76.0222,81.238 77.5,81.5 Z"/></g>
<g><path style="opacity:1" fill="#296522" d="M 159.5,89.5 C 162.453,90.7872 164.786,92.7872 166.5,95.5C 166.833,95.5 167.167,95.5 167.5,95.5C 167.895,100.083 169.062,104.416 171,108.5C 171.667,115.833 171.667,123.167 171,130.5C 170.764,132.119 169.931,133.119 168.5,133.5C 168.666,124.827 168.5,116.16 168,107.5C 167.148,106.429 166.315,105.429 165.5,104.5C 165.5,104.167 165.5,103.833 165.5,103.5C 165.576,97.8842 163.576,93.2175 159.5,89.5 Z"/></g>
<g><path style="opacity:1" fill="#1b1b1b" d="M 214.5,160.5 C 214.5,153.5 214.5,146.5 214.5,139.5C 214.5,130.5 214.5,121.5 214.5,112.5C 214.5,106.833 214.5,101.167 214.5,95.5C 214.83,79.3246 214.496,63.3246 213.5,47.5C 213.483,45.4352 213.15,43.4352 212.5,41.5C 212.369,40.7611 212.536,40.0944 213,39.5C 213.667,41.5 214.333,43.5 215,45.5C 216.818,89.5122 216.818,133.512 215,177.5C 214.501,171.843 214.334,166.176 214.5,160.5 Z"/></g>
<g><path style="opacity:1" fill="#33c125" d="M 100.5,90.5 C 100.822,91.8582 100.822,93.5248 100.5,95.5C 99.0002,96.5875 97.6669,97.9208 96.5,99.5C 95.5713,100.689 95.238,102.022 95.5,103.5C 94.5,103.5 93.5,103.5 92.5,103.5C 89.4276,108.68 87.0943,114.347 85.5,120.5C 87.5216,133.028 94.5216,141.528 106.5,146C 111.5,146.667 116.5,146.667 121.5,146C 122.672,145.581 123.672,144.915 124.5,144C 123.306,141.342 124.306,140.176 127.5,140.5C 127.383,138.516 128.05,136.85 129.5,135.5C 128.452,134.452 127.452,133.452 126.5,132.5C 127.301,130.958 127.634,129.292 127.5,127.5C 131.167,127.5 134.833,127.5 138.5,127.5C 138.833,127.5 139.167,127.5 139.5,127.5C 138.949,130.267 137.616,132.6 135.5,134.5C 135.709,135.086 136.043,135.586 136.5,136C 135.897,137.825 135.23,139.659 134.5,141.5C 123.374,152.114 110.708,153.948 96.5,147C 81.5705,135.961 77.5705,121.795 84.5,104.5C 87.4379,102.098 90.1045,99.4314 92.5,96.5C 93.325,95.6143 94.325,95.281 95.5,95.5C 95.9633,92.7448 97.6299,91.0781 100.5,90.5 Z"/></g>
<g><path style="opacity:1" fill="#7e7e7e" d="M 183.5,103.5 C 184.404,104.209 184.737,105.209 184.5,106.5C 184.625,112.203 184.292,117.87 183.5,123.5C 183.483,125.565 183.15,127.565 182.5,129.5C 181.662,129.158 181.328,128.492 181.5,127.5C 182.29,120.529 182.623,113.529 182.5,106.5C 183.404,105.791 183.737,104.791 183.5,103.5 Z"/></g>
<g><path style="opacity:1" fill="#274e1f" d="M 167.5,95.5 C 169.162,97.2244 170.162,99.3911 170.5,102C 172.706,103.415 174.373,105.249 175.5,107.5C 175.5,115.5 175.5,123.5 175.5,131.5C 173.249,139.416 169.749,146.75 165,153.5C 165.026,157.305 163.192,159.305 159.5,159.5C 159.201,157.396 159.534,155.396 160.5,153.5C 162.149,152.352 163.649,151.019 165,149.5C 166.918,144.326 168.084,138.993 168.5,133.5C 169.931,133.119 170.764,132.119 171,130.5C 171.667,123.167 171.667,115.833 171,108.5C 169.062,104.416 167.895,100.083 167.5,95.5 Z"/></g>
<g><path style="opacity:1" fill="#474748" d="M 184.5,106.5 C 185.359,109.212 186.525,111.878 188,114.5C 188.483,113.552 188.649,112.552 188.5,111.5C 189.5,111.5 190.5,111.5 191.5,111.5C 190.498,114.11 190.665,116.776 192,119.5C 196.79,124.577 202.124,128.91 208,132.5C 209,134.5 210,136.5 211,138.5C 211.333,137.5 211.667,136.5 212,135.5C 212.198,137.382 212.698,139.048 213.5,140.5C 213.664,143.187 213.497,145.854 213,148.5C 212,146.5 211,144.5 210,142.5C 206.226,140.803 202.726,137.97 199.5,134C 195.355,131.513 191.522,128.679 188,125.5C 187.692,126.308 187.192,126.975 186.5,127.5C 185.85,125.816 184.85,124.483 183.5,123.5C 184.292,117.87 184.625,112.203 184.5,106.5 Z"/></g>
<g><path style="opacity:1" fill="#60e24e" d="M 100.5,95.5 C 101.5,95.5 102.5,95.5 103.5,95.5C 103.5,97.1667 103.5,98.8333 103.5,100.5C 103.086,102.808 102.753,105.142 102.5,107.5C 102.585,109.333 103.252,110.666 104.5,111.5C 105.897,117.045 109.563,119.878 115.5,120C 116.252,120.671 116.586,121.504 116.5,122.5C 116.121,123.806 115.788,125.139 115.5,126.5C 119.445,127.491 123.445,127.824 127.5,127.5C 127.634,129.292 127.301,130.958 126.5,132.5C 126.167,132.5 125.833,132.5 125.5,132.5C 121.053,131.461 116.386,131.461 111.5,132.5C 111.5,130.833 111.5,129.167 111.5,127.5C 109.076,127.808 106.743,127.474 104.5,126.5C 102.514,121.732 99.6811,118.399 96,116.5C 95.5065,114.866 95.3398,113.199 95.5,111.5C 95.5,108.833 95.5,106.167 95.5,103.5C 95.238,102.022 95.5713,100.689 96.5,99.5C 97.6669,97.9208 99.0002,96.5875 100.5,95.5 Z"/></g>
<g><path style="opacity:1" fill="#2e5824" d="M 57.5,95.5 C 57.8333,95.5 58.1667,95.5 58.5,95.5C 58.6602,97.1992 58.4935,98.8659 58,100.5C 56.4728,102.221 55.4728,104.221 55,106.5C 54.118,118.903 54.618,131.236 56.5,143.5C 52.0649,133.558 50.0649,122.892 50.5,111.5C 52.2685,106.018 54.6018,100.685 57.5,95.5 Z"/></g>
<g><path style="opacity:1" fill="#3d3d3d" d="M 183.5,123.5 C 184.85,124.483 185.85,125.816 186.5,127.5C 187.192,126.975 187.692,126.308 188,125.5C 191.522,128.679 195.355,131.513 199.5,134C 202.726,137.97 206.226,140.803 210,142.5C 211,144.5 212,146.5 213,148.5C 213.497,145.854 213.664,143.187 213.5,140.5C 213.5,139.833 213.833,139.5 214.5,139.5C 214.5,146.5 214.5,153.5 214.5,160.5C 213.698,161.952 213.198,163.618 213,165.5C 212.505,163.527 212.338,161.527 212.5,159.5C 211.5,159.5 210.5,159.5 209.5,159.5C 209.657,160.873 209.49,162.207 209,163.5C 208.64,161.392 207.973,159.392 207,157.5C 199.199,151.665 192.366,145.498 186.5,139C 184.003,137.017 182.836,137.85 183,141.5C 182.819,138.305 182.319,135.305 181.5,132.5C 181.557,131.391 181.89,130.391 182.5,129.5C 183.15,127.565 183.483,125.565 183.5,123.5 Z"/></g>
<g><path style="opacity:1" fill="#2b7322" d="M 165.5,104.5 C 166.315,105.429 167.148,106.429 168,107.5C 168.5,116.16 168.666,124.827 168.5,133.5C 166.583,139.736 163.916,145.736 160.5,151.5C 155.492,152.804 152.825,156.138 152.5,161.5C 150.681,162.32 149.014,163.32 147.5,164.5C 148.844,161.626 150.01,158.626 151,155.5C 154.143,152.21 156.976,148.877 159.5,145.5C 161.942,145.646 162.609,144.813 161.5,143C 163.251,139.956 164.751,136.789 166,133.5C 166.725,123.806 166.559,114.14 165.5,104.5 Z"/></g>
<g><path style="opacity:1" fill="#313131" d="M 208.5,28.5 C 212.907,33.9914 215.74,40.3248 217,47.5C 217.667,90.1667 217.667,132.833 217,175.5C 216.698,179.245 215.531,182.578 213.5,185.5C 214.167,183.181 214.334,180.847 214,178.5C 213.598,179.872 213.098,181.205 212.5,182.5C 211.998,183.521 211.332,183.688 210.5,183C 208.306,181.193 206.973,178.86 206.5,176C 205.167,175.667 203.833,175.333 202.5,175C 198.392,170.894 193.726,167.56 188.5,165C 186.983,163.315 185.316,161.815 183.5,160.5C 184.376,159.749 185.376,159.249 186.5,159C 181.012,158.042 177.012,154.875 174.5,149.5C 177.398,144.16 179.731,138.493 181.5,132.5C 182.319,135.305 182.819,138.305 183,141.5C 182.836,137.85 184.003,137.017 186.5,139C 192.366,145.498 199.199,151.665 207,157.5C 207.973,159.392 208.64,161.392 209,163.5C 209.49,162.207 209.657,160.873 209.5,159.5C 210.5,159.5 211.5,159.5 212.5,159.5C 212.338,161.527 212.505,163.527 213,165.5C 213.198,163.618 213.698,161.952 214.5,160.5C 214.334,166.176 214.501,171.843 215,177.5C 216.818,133.512 216.818,89.5122 215,45.5C 214.333,43.5 213.667,41.5 213,39.5C 212.536,40.0944 212.369,40.7611 212.5,41.5C 211.691,39.9724 211.024,38.3057 210.5,36.5C 211.097,36.2648 211.43,35.7648 211.5,35C 210.094,33.022 209.094,30.8553 208.5,28.5 Z"/></g>
<g><path style="opacity:1" fill="#18a40e" d="M 111.5,76.5 C 111.5,77.5 111.5,78.5 111.5,79.5C 107.963,79.307 105.297,80.6403 103.5,83.5C 98.2518,86.2888 92.9184,88.9554 87.5,91.5C 87.5,92.8333 87.5,94.1667 87.5,95.5C 84.4594,95.4056 82.7928,96.9056 82.5,100C 81.552,100.483 80.552,100.649 79.5,100.5C 78.6944,104.525 77.5277,108.525 76,112.5C 75.3333,118.167 75.3333,123.833 76,129.5C 78.2227,131.723 79.556,134.389 80,137.5C 82.1448,140.166 84.6448,142.166 87.5,143.5C 88.8333,146.167 90.1667,148.833 91.5,151.5C 93.924,151.192 96.2573,151.526 98.5,152.5C 99.9122,153.806 101.579,154.64 103.5,155C 112.326,156.08 120.993,155.413 129.5,153C 133.308,150.523 136.808,147.69 140,144.5C 142.239,141.985 143.406,138.985 143.5,135.5C 144.675,135.719 145.675,135.386 146.5,134.5C 146.942,133.261 147.609,132.261 148.5,131.5C 147.341,137.48 145.341,143.147 142.5,148.5C 137.409,151.423 132.742,154.923 128.5,159C 123.038,161.051 117.372,162.551 111.5,163.5C 108.389,163.306 105.389,162.639 102.5,161.5C 101.833,161.833 101.167,162.167 100.5,162.5C 99.3044,162.154 99.3044,161.654 100.5,161C 97.2744,159.801 93.941,159.301 90.5,159.5C 86.9614,156.901 83.2947,154.568 79.5,152.5C 79.6602,150.801 79.4935,149.134 79,147.5C 71.0031,136.846 68.0031,124.846 70,111.5C 71.5376,105.992 73.371,100.658 75.5,95.5C 76.8333,95.5 78.1667,95.5 79.5,95.5C 79.2148,93.712 79.5481,92.0453 80.5,90.5C 82.1965,89.6364 83.3632,88.3031 84,86.5C 87.8665,84.9966 91.0332,82.6632 93.5,79.5C 99.3256,77.4683 105.326,76.4683 111.5,76.5 Z"/></g>
<g><path style="opacity:1" fill="#2a4325" d="M 48.5,111.5 C 48.8333,111.5 49.1667,111.5 49.5,111.5C 49.8333,111.5 50.1667,111.5 50.5,111.5C 50.0649,122.892 52.0649,133.558 56.5,143.5C 57.1949,147.547 59.1949,150.881 62.5,153.5C 63.4656,155.396 63.7989,157.396 63.5,159.5C 59.4344,154.436 55.7677,149.102 52.5,143.5C 51.3705,138.004 50.0372,132.671 48.5,127.5C 47.1667,122.167 47.1667,116.833 48.5,111.5 Z"/></g>
<g><path style="opacity:1" fill="#23b417" d="M 103.5,83.5 C 103.5,84.8333 103.5,86.1667 103.5,87.5C 102.5,87.5 101.5,87.5 100.5,87.5C 100.5,88.5 100.5,89.5 100.5,90.5C 97.6299,91.0781 95.9633,92.7448 95.5,95.5C 94.325,95.281 93.325,95.6143 92.5,96.5C 90.1045,99.4314 87.4379,102.098 84.5,104.5C 77.5705,121.795 81.5705,135.961 96.5,147C 110.708,153.948 123.374,152.114 134.5,141.5C 135.23,139.659 135.897,137.825 136.5,136C 136.043,135.586 135.709,135.086 135.5,134.5C 137.616,132.6 138.949,130.267 139.5,127.5C 140.833,127.5 142.167,127.5 143.5,127.5C 143.5,130.167 143.5,132.833 143.5,135.5C 143.406,138.985 142.239,141.985 140,144.5C 136.808,147.69 133.308,150.523 129.5,153C 120.993,155.413 112.326,156.08 103.5,155C 101.579,154.64 99.9122,153.806 98.5,152.5C 96.2573,151.526 93.924,151.192 91.5,151.5C 90.1667,148.833 88.8333,146.167 87.5,143.5C 84.6448,142.166 82.1448,140.166 80,137.5C 79.556,134.389 78.2227,131.723 76,129.5C 75.3333,123.833 75.3333,118.167 76,112.5C 77.5277,108.525 78.6944,104.525 79.5,100.5C 80.552,100.649 81.552,100.483 82.5,100C 82.7928,96.9056 84.4594,95.4056 87.5,95.5C 87.5,94.1667 87.5,92.8333 87.5,91.5C 92.9184,88.9554 98.2518,86.2888 103.5,83.5 Z"/></g>
<g><path style="opacity:1" fill="#2e6425" d="M 58.5,95.5 C 58.8333,95.5 59.1667,95.5 59.5,95.5C 59.662,100.182 58.4954,104.515 56,108.5C 54.9551,121.784 56.1217,134.784 59.5,147.5C 62.8132,149.979 65.9798,152.645 69,155.5C 69.49,156.793 69.6567,158.127 69.5,159.5C 70.9778,159.238 72.3112,159.571 73.5,160.5C 74.1922,163.123 75.6922,165.123 78,166.5C 79.1068,165.288 79.6068,165.621 79.5,167.5C 77.4727,167.662 75.4727,167.495 73.5,167C 71.6867,162.34 68.3534,159.84 63.5,159.5C 63.7989,157.396 63.4656,155.396 62.5,153.5C 59.1949,150.881 57.1949,147.547 56.5,143.5C 54.618,131.236 54.118,118.903 55,106.5C 55.4728,104.221 56.4728,102.221 58,100.5C 58.4935,98.8659 58.6602,97.1992 58.5,95.5 Z"/></g>
<g><path style="opacity:1" fill="#1f8e18" d="M 95.5,75.5 C 90.5521,77.2607 86.2188,80.094 82.5,84C 78.5543,84.533 75.3876,86.3663 73,89.5C 70.4742,96.7453 68.1408,104.079 66,111.5C 64.6061,121.863 65.9394,131.863 70,141.5C 71.8067,146.514 74.9734,150.181 79.5,152.5C 83.2947,154.568 86.9614,156.901 90.5,159.5C 91.9025,160.931 93.5692,162.098 95.5,163C 107.273,166.516 118.94,166.183 130.5,162C 133.563,160.475 136.23,158.475 138.5,156C 140.025,154.991 141.692,154.491 143.5,154.5C 143.5,153.5 143.5,152.5 143.5,151.5C 144.5,151.5 145.5,151.5 146.5,151.5C 146.606,148.892 147.772,146.892 150,145.5C 150.844,138.481 152.844,131.814 156,125.5C 156.885,122.462 156.385,119.795 154.5,117.5C 154.5,115.5 154.5,113.5 154.5,111.5C 156.167,112.833 157.833,112.833 159.5,111.5C 159.833,111.5 160.167,111.5 160.5,111.5C 161.5,111.5 162.5,111.5 163.5,111.5C 163.666,118.175 163.5,124.842 163,131.5C 160.307,134.567 158.973,138.234 159,142.5C 154.969,148.041 150.803,153.541 146.5,159C 142.432,158.707 139.098,160.041 136.5,163C 120.187,170.294 103.854,170.294 87.5,163C 85.4417,160.555 82.9417,158.722 80,157.5C 79.5172,156.552 79.3505,155.552 79.5,154.5C 77.0968,154.607 75.2635,153.607 74,151.5C 63.811,136.826 60.4777,120.493 64,102.5C 65.9028,100.559 66.7361,98.2257 66.5,95.5C 68.9418,95.8808 69.6085,95.2141 68.5,93.5C 70.9667,88.6932 74.6334,85.3599 79.5,83.5C 79.5,82.5 79.5,81.5 79.5,80.5C 79.5,80.1667 79.5,79.8333 79.5,79.5C 82.5319,78.4886 85.5319,77.3219 88.5,76C 90.8098,75.5034 93.1432,75.3367 95.5,75.5 Z"/></g>
<g><path style="opacity:1" fill="#282828" d="M 174.5,149.5 C 177.012,154.875 181.012,158.042 186.5,159C 185.376,159.249 184.376,159.749 183.5,160.5C 185.316,161.815 186.983,163.315 188.5,165C 193.726,167.56 198.392,170.894 202.5,175C 203.833,175.333 205.167,175.667 206.5,176C 206.973,178.86 208.306,181.193 210.5,183C 211.332,183.688 211.998,183.521 212.5,182.5C 213.098,181.205 213.598,179.872 214,178.5C 214.334,180.847 214.167,183.181 213.5,185.5C 213.448,188.346 212.448,190.68 210.5,192.5C 211.218,190.863 211.384,189.197 211,187.5C 209.985,190.21 208.485,192.543 206.5,194.5C 205.396,193.369 205.729,192.535 207.5,192C 204.004,189.67 201.004,186.837 198.5,183.5C 195.027,179.929 191.027,177.096 186.5,175C 184.578,173.58 183.245,171.747 182.5,169.5C 180.063,168.197 177.896,166.53 176,164.5C 175.667,164.833 175.333,165.167 175,165.5C 175.268,156.998 173.768,156.498 170.5,164C 168.365,164.605 168.031,164.105 169.5,162.5C 169.247,160.173 169.914,158.173 171.5,156.5C 171.376,155.893 171.043,155.56 170.5,155.5C 171.441,153.228 172.774,151.228 174.5,149.5 Z"/></g>
<g><path style="opacity:1" fill="#222222" d="M 210.5,192.5 C 208.317,197.688 204.983,202.021 200.5,205.5C 200.511,203.983 201.177,202.816 202.5,202C 201.833,201.333 201.167,200.667 200.5,200C 202.497,198.847 202.83,197.347 201.5,195.5C 200.643,196.736 199.977,198.069 199.5,199.5C 198.998,200.521 198.332,200.688 197.5,200C 194.571,196.864 191.238,194.197 187.5,192C 187.833,191.667 188.167,191.333 188.5,191C 185.72,188.436 182.72,186.103 179.5,184C 179.833,183.667 180.167,183.333 180.5,183C 176.282,179.966 172.115,176.799 168,173.5C 167.667,173.833 167.333,174.167 167,174.5C 167.046,172.687 166.88,171.021 166.5,169.5C 165.333,171.167 164.167,172.833 163,174.5C 162.517,173.552 162.351,172.552 162.5,171.5C 164.537,168.147 166.87,165.147 169.5,162.5C 168.031,164.105 168.365,164.605 170.5,164C 173.768,156.498 175.268,156.998 175,165.5C 175.333,165.167 175.667,164.833 176,164.5C 177.896,166.53 180.063,168.197 182.5,169.5C 183.245,171.747 184.578,173.58 186.5,175C 191.027,177.096 195.027,179.929 198.5,183.5C 201.004,186.837 204.004,189.67 207.5,192C 205.729,192.535 205.396,193.369 206.5,194.5C 208.485,192.543 209.985,190.21 211,187.5C 211.384,189.197 211.218,190.863 210.5,192.5 Z"/></g>
<g><path style="opacity:1" fill="#26801e" d="M 79.5,80.5 C 79.5,81.5 79.5,82.5 79.5,83.5C 74.6334,85.3599 70.9667,88.6932 68.5,93.5C 69.6085,95.2141 68.9418,95.8808 66.5,95.5C 66.7361,98.2257 65.9028,100.559 64,102.5C 60.4777,120.493 63.811,136.826 74,151.5C 75.2635,153.607 77.0968,154.607 79.5,154.5C 79.3505,155.552 79.5172,156.552 80,157.5C 82.9417,158.722 85.4417,160.555 87.5,163C 103.854,170.294 120.187,170.294 136.5,163C 139.098,160.041 142.432,158.707 146.5,159C 150.803,153.541 154.969,148.041 159,142.5C 158.973,138.234 160.307,134.567 163,131.5C 163.5,124.842 163.666,118.175 163.5,111.5C 162.5,111.5 161.5,111.5 160.5,111.5C 160.838,109.146 161.338,106.813 162,104.5C 163.011,103.663 164.178,103.33 165.5,103.5C 165.5,103.833 165.5,104.167 165.5,104.5C 166.559,114.14 166.725,123.806 166,133.5C 164.751,136.789 163.251,139.956 161.5,143C 162.609,144.813 161.942,145.646 159.5,145.5C 156.976,148.877 154.143,152.21 151,155.5C 150.01,158.626 148.844,161.626 147.5,164.5C 146.209,164.263 145.209,164.596 144.5,165.5C 136.431,168.445 128.098,170.612 119.5,172C 114.5,172.667 109.5,172.667 104.5,172C 96.1229,170.479 88.1229,167.812 80.5,164C 79.6198,162.644 79.2865,161.144 79.5,159.5C 77.712,159.785 76.0453,159.452 74.5,158.5C 72.1401,153.239 68.6401,148.906 64,145.5C 63.8184,142.774 63.3184,140.107 62.5,137.5C 60.0046,135.851 58.5046,133.517 58,130.5C 57.3333,122.833 57.3333,115.167 58,107.5C 60.3946,102.361 62.228,97.028 63.5,91.5C 65.3084,91.5086 66.9751,91.0086 68.5,90C 71.4288,86.8991 74.4288,84.0658 77.5,81.5C 77.8417,80.6618 78.5084,80.3284 79.5,80.5 Z"/></g>
<g><path style="opacity:1" fill="#189b10" d="M 154.5,117.5 C 156.385,119.795 156.885,122.462 156,125.5C 152.844,131.814 150.844,138.481 150,145.5C 147.772,146.892 146.606,148.892 146.5,151.5C 145.5,151.5 144.5,151.5 143.5,151.5C 143.5,152.5 143.5,153.5 143.5,154.5C 141.692,154.491 140.025,154.991 138.5,156C 136.23,158.475 133.563,160.475 130.5,162C 118.94,166.183 107.273,166.516 95.5,163C 93.5692,162.098 91.9025,160.931 90.5,159.5C 93.941,159.301 97.2744,159.801 100.5,161C 99.3044,161.654 99.3044,162.154 100.5,162.5C 101.167,162.167 101.833,161.833 102.5,161.5C 105.389,162.639 108.389,163.306 111.5,163.5C 117.372,162.551 123.038,161.051 128.5,159C 132.742,154.923 137.409,151.423 142.5,148.5C 145.341,143.147 147.341,137.48 148.5,131.5C 151.114,128.032 152.114,124.032 151.5,119.5C 153.179,119.715 154.179,119.048 154.5,117.5 Z"/></g>
<g><path style="opacity:1" fill="#3fce2a" d="M 95.5,103.5 C 95.5,106.167 95.5,108.833 95.5,111.5C 94.0689,111.881 93.2355,112.881 93,114.5C 90.8032,120.415 91.1365,126.082 94,131.5C 97.3124,133.645 100.146,136.312 102.5,139.5C 104.976,140.229 107.476,140.896 110,141.5C 113.708,140.113 117.541,139.279 121.5,139C 123.116,138.385 124.449,137.385 125.5,136C 124.833,135.667 124.167,135.333 123.5,135C 124.381,134.292 125.047,133.458 125.5,132.5C 125.833,132.5 126.167,132.5 126.5,132.5C 127.452,133.452 128.452,134.452 129.5,135.5C 128.05,136.85 127.383,138.516 127.5,140.5C 124.306,140.176 123.306,141.342 124.5,144C 123.672,144.915 122.672,145.581 121.5,146C 116.5,146.667 111.5,146.667 106.5,146C 94.5216,141.528 87.5216,133.028 85.5,120.5C 87.0943,114.347 89.4276,108.68 92.5,103.5C 93.5,103.5 94.5,103.5 95.5,103.5 Z"/></g>
<g><path style="opacity:1" fill="#4dda37" d="M 95.5,111.5 C 95.3398,113.199 95.5065,114.866 96,116.5C 99.6811,118.399 102.514,121.732 104.5,126.5C 106.743,127.474 109.076,127.808 111.5,127.5C 111.5,129.167 111.5,130.833 111.5,132.5C 116.386,131.461 121.053,131.461 125.5,132.5C 125.047,133.458 124.381,134.292 123.5,135C 124.167,135.333 124.833,135.667 125.5,136C 124.449,137.385 123.116,138.385 121.5,139C 117.541,139.279 113.708,140.113 110,141.5C 107.476,140.896 104.976,140.229 102.5,139.5C 100.146,136.312 97.3124,133.645 94,131.5C 91.1365,126.082 90.8032,120.415 93,114.5C 93.2355,112.881 94.0689,111.881 95.5,111.5 Z"/></g>
<g><path style="opacity:1" fill="#2eb12b" d="M 148.5,111.5 C 150.5,111.5 152.5,111.5 154.5,111.5C 154.5,113.5 154.5,115.5 154.5,117.5C 154.179,119.048 153.179,119.715 151.5,119.5C 152.114,124.032 151.114,128.032 148.5,131.5C 147.609,132.261 146.942,133.261 146.5,134.5C 145.675,135.386 144.675,135.719 143.5,135.5C 143.5,132.833 143.5,130.167 143.5,127.5C 142.167,127.5 140.833,127.5 139.5,127.5C 139.167,127.5 138.833,127.5 138.5,127.5C 140.221,124.798 141.888,122.131 143.5,119.5C 146.14,117.577 147.807,114.91 148.5,111.5 Z"/></g>
<g><path style="opacity:1" fill="#64d956" d="M 135.5,119.5 C 138.167,119.5 140.833,119.5 143.5,119.5C 141.888,122.131 140.221,124.798 138.5,127.5C 134.833,127.5 131.167,127.5 127.5,127.5C 123.445,127.824 119.445,127.491 115.5,126.5C 115.788,125.139 116.121,123.806 116.5,122.5C 118.277,122.786 119.944,123.453 121.5,124.5C 123.717,124.122 125.717,123.455 127.5,122.5C 130.167,122.5 132.833,122.5 135.5,122.5C 135.5,121.5 135.5,120.5 135.5,119.5 Z"/></g>
<g><path style="opacity:1" fill="#80ed67" d="M 104.5,111.5 C 106.833,111.5 109.167,111.5 111.5,111.5C 111.297,113.39 111.963,114.89 113.5,116C 118.149,118.269 122.816,120.435 127.5,122.5C 125.717,123.455 123.717,124.122 121.5,124.5C 119.944,123.453 118.277,122.786 116.5,122.5C 116.586,121.504 116.252,120.671 115.5,120C 109.563,119.878 105.897,117.045 104.5,111.5 Z"/></g>
<g><path style="opacity:1" fill="#fbfbfb" d="M 224.5,180.5 C 224.5,195.167 224.5,209.833 224.5,224.5C 209.5,224.5 194.5,224.5 179.5,224.5C 203.745,219.383 218.745,204.716 224.5,180.5 Z"/></g>
<g><path style="opacity:1" fill="#fbfbfb" d="M -0.5,177.5 C 3.72365,202.391 18.057,218.058 42.5,224.5C 28.1667,224.5 13.8333,224.5 -0.5,224.5C -0.5,208.833 -0.5,193.167 -0.5,177.5 Z"/></g>
<g><path style="opacity:1" fill="#4f5150" d="M 95.5,39.5 C 96.5676,40.4345 97.901,40.7678 99.5,40.5C 96.8333,41.5 94.1667,42.5 91.5,43.5C 88.2528,43.4152 85.4194,44.4152 83,46.5C 81.6284,49.7257 80.4618,53.059 79.5,56.5C 77.4788,57.8545 75.8121,59.5212 74.5,61.5C 70.5442,63.7881 67.2109,66.7881 64.5,70.5C 64.3601,68.8762 65.0267,67.7096 66.5,67C 65.5494,66.2825 65.3828,65.4491 66,64.5C 66.9803,63.0186 68.147,61.6853 69.5,60.5C 68.7376,60.0894 67.7376,59.9227 66.5,60C 67.5,59 68.5,58 69.5,57C 69.1667,56.8333 68.8333,56.6667 68.5,56.5C 59.3131,63.2007 52.4798,71.8674 48,82.5C 39.2968,106.26 40.9635,129.26 53,151.5C 55.05,154.713 57.55,157.379 60.5,159.5C 88.7504,188.815 120.084,192.315 154.5,170C 162.384,162.746 169.217,154.579 175,145.5C 175.49,144.207 175.657,142.873 175.5,141.5C 178.472,137.25 180.472,132.584 181.5,127.5C 181.328,128.492 181.662,129.158 182.5,129.5C 181.89,130.391 181.557,131.391 181.5,132.5C 179.731,138.493 177.398,144.16 174.5,149.5C 172.774,151.228 171.441,153.228 170.5,155.5C 165.374,162.46 159.374,168.627 152.5,174C 128.251,188.995 103.251,190.328 77.5,178C 42.4672,154.065 31.8005,121.899 45.5,81.5C 47.1528,78.2406 48.8195,74.9072 50.5,71.5C 54.1556,66.8723 57.8223,62.2056 61.5,57.5C 65.5,54.5 69.5,51.5 73.5,48.5C 77.1867,45.9338 81.1867,43.9338 85.5,42.5C 88.7036,41.0991 92.0369,40.0991 95.5,39.5 Z"/></g>
<g><path style="opacity:1" fill="#2a6421" d="M 168.5,133.5 C 168.084,138.993 166.918,144.326 165,149.5C 163.649,151.019 162.149,152.352 160.5,153.5C 159.534,155.396 159.201,157.396 159.5,159.5C 152.731,165.392 145.397,170.559 137.5,175C 135.19,175.497 132.857,175.663 130.5,175.5C 131.648,173.245 133.314,171.412 135.5,170C 138.724,168.641 141.724,167.141 144.5,165.5C 145.209,164.596 146.209,164.263 147.5,164.5C 149.014,163.32 150.681,162.32 152.5,161.5C 152.825,156.138 155.492,152.804 160.5,151.5C 163.916,145.736 166.583,139.736 168.5,133.5 Z"/></g>
<g><path style="opacity:1" fill="#121d11" d="M 175.5,131.5 C 175.5,134.833 175.5,138.167 175.5,141.5C 175.657,142.873 175.49,144.207 175,145.5C 169.217,154.579 162.384,162.746 154.5,170C 120.084,192.315 88.7504,188.815 60.5,159.5C 56.7757,154.718 54.109,149.385 52.5,143.5C 55.7677,149.102 59.4344,154.436 63.5,159.5C 90.0431,186.476 119.376,189.643 151.5,169C 154.824,166.194 157.491,163.027 159.5,159.5C 163.192,159.305 165.026,157.305 165,153.5C 169.749,146.75 173.249,139.416 175.5,131.5 Z"/></g>
<g><path style="opacity:1" fill="#2a4d24" d="M 63.5,159.5 C 68.3534,159.84 71.6867,162.34 73.5,167C 75.4727,167.495 77.4727,167.662 79.5,167.5C 79.4701,168.497 79.9701,169.164 81,169.5C 85.1686,169.681 88.3353,171.514 90.5,175C 103.811,179.499 117.144,179.666 130.5,175.5C 132.857,175.663 135.19,175.497 137.5,175C 145.397,170.559 152.731,165.392 159.5,159.5C 157.491,163.027 154.824,166.194 151.5,169C 119.376,189.643 90.0431,186.476 63.5,159.5 Z"/></g>
<g><path style="opacity:1" fill="#121d10" d="M 48.5,127.5 C 50.0372,132.671 51.3705,138.004 52.5,143.5C 49.3601,138.724 48.0268,133.391 48.5,127.5 Z"/></g>
<g><path style="opacity:1" fill="#333333" d="M 173.5,217.5 C 131.669,218.665 89.6687,218.831 47.5,218C 46.2625,217.768 45.2625,217.268 44.5,216.5C 46.1992,216.66 47.8659,216.494 49.5,216C 43.2316,214.799 37.2316,212.799 31.5,210C 28.163,207.998 25.663,205.498 24,202.5C 32.2137,209.522 41.7137,213.689 52.5,215C 92.1667,215.333 131.833,215.667 171.5,216C 131.167,216.333 90.8333,216.667 50.5,217C 91.4986,217.5 132.499,217.667 173.5,217.5 Z"/></g>
</svg>
