<?xml version="1.0" encoding="UTF-8"?>
<!DOCTYPE svg PUBLIC "-//W3C//DTD SVG 1.1//EN" "http://www.w3.org/Graphics/SVG/1.1/DTD/svg11.dtd">
<svg xmlns="http://www.w3.org/2000/svg" version="1.1" width="516px" height="463px" style="shape-rendering:geometricPrecision; text-rendering:geometricPrecision; image-rendering:optimizeQuality; fill-rule:evenodd; clip-rule:evenodd" xmlns:xlink="http://www.w3.org/1999/xlink">
<g><path style="opacity:1" fill="#fefefe" d="M -0.5,-0.5 C 171.5,-0.5 343.5,-0.5 515.5,-0.5C 515.5,153.833 515.5,308.167 515.5,462.5C 343.5,462.5 171.5,462.5 -0.5,462.5C -0.5,308.167 -0.5,153.833 -0.5,-0.5 Z"/></g>
<g><path style="opacity:1" fill="#6b6b6b" d="M 55.5,9.5 C 54.5484,145.358 54.2151,280.858 54.5,416C 55.0707,417.599 56.0707,418.766 57.5,419.5C 56.8333,419.5 56.1667,419.5 55.5,419.5C 54.5,418.833 53.5,418.167 52.5,417.5C 52.5,281.5 52.5,145.5 52.5,9.5C 53.5,9.5 54.5,9.5 55.5,9.5 Z"/></g>
<g><path style="opacity:1" fill="#565656" d="M 55.5,9.5 C 55.8333,9.5 56.1667,9.5 56.5,9.5C 56.3333,145.167 56.5,280.834 57,416.5C 191.43,417.499 325.93,417.832 460.5,417.5C 326.504,419.498 192.171,420.165 57.5,419.5C 56.0707,418.766 55.0707,417.599 54.5,416C 54.2151,280.858 54.5484,145.358 55.5,9.5 Z"/></g>
<g><path style="opacity:1" fill="#656565" d="M 56.5,9.5 C 59.1667,9.5 61.8333,9.5 64.5,9.5C 63.5026,139.602 63.1693,269.602 63.5,399.5C 63.8988,401.197 64.3988,402.863 65,404.5C 65.5,272.834 65.6667,141.167 65.5,9.5C 66.1667,9.5 66.8333,9.5 67.5,9.5C 67.5,140.833 67.5,272.167 67.5,403.5C 67.5,404.5 67.5,405.5 67.5,406.5C 198.5,406.5 329.5,406.5 460.5,406.5C 460.5,410.167 460.5,413.833 460.5,417.5C 325.93,417.832 191.43,417.499 57,416.5C 56.5,280.834 56.3333,145.167 56.5,9.5 Z"/></g>
<g><path style="opacity:1" fill="#555555" d="M 64.5,9.5 C 64.8333,9.5 65.1667,9.5 65.5,9.5C 65.6667,141.167 65.5,272.834 65,404.5C 64.3988,402.863 63.8988,401.197 63.5,399.5C 63.1693,269.602 63.5026,139.602 64.5,9.5 Z"/></g>
<g><path style="opacity:1" fill="#cecece" d="M 67.5,9.5 C 66.8333,9.5 66.1667,9.5 65.5,9.5C 65.1667,9.5 64.8333,9.5 64.5,9.5C 61.8333,9.5 59.1667,9.5 56.5,9.5C 56.1667,9.5 55.8333,9.5 55.5,9.5C 54.5,9.5 53.5,9.5 52.5,9.5C 52.5,145.5 52.5,281.5 52.5,417.5C 51.8826,417.389 51.3826,417.056 51,416.5C 50.5,280.5 50.3333,144.5 50.5,8.5C 56.358,8.1778 62.0247,8.51114 67.5,9.5 Z"/></g>
<g><path style="opacity:1" fill="#e8e5e3" d="M 30.5,28.5 C 34.5138,28.3345 38.5138,28.5012 42.5,29C 43.7435,30.8697 44.4101,33.0363 44.5,35.5C 44.4677,37.7588 44.1344,39.9255 43.5,42C 38.8452,42.4992 34.1785,42.6658 29.5,42.5C 29.2256,37.737 29.559,33.0704 30.5,28.5 Z"/></g>
<g><path style="opacity:1" fill="#cbcbcb" d="M 31.5,30.5 C 35.1667,30.5 38.8333,30.5 42.5,30.5C 42.7892,34.1064 42.4558,37.6064 41.5,41C 38.2228,40.7988 34.8895,40.6321 31.5,40.5C 31.5,37.1667 31.5,33.8333 31.5,30.5 Z"/></g>
<g><path style="opacity:1" fill="#eae8e7" d="M 30.5,74.5 C 34.8461,74.3343 39.1794,74.501 43.5,75C 44.8333,79.3333 44.8333,83.6667 43.5,88C 38.8452,88.4992 34.1785,88.6658 29.5,88.5C 28.1962,83.7157 28.5295,79.049 30.5,74.5 Z"/></g>
<g><path style="opacity:1" fill="#cbcbcb" d="M 31.5,76.5 C 35.1667,76.5 38.8333,76.5 42.5,76.5C 42.5,79.8333 42.5,83.1667 42.5,86.5C 38.8333,86.5 35.1667,86.5 31.5,86.5C 31.5,83.1667 31.5,79.8333 31.5,76.5 Z"/></g>
<g><path style="opacity:1" fill="#eaf7fb" d="M 192.5,79.5 C 208.744,79.1752 224.911,79.5086 241,80.5C 241.5,106.498 241.667,132.498 241.5,158.5C 258.077,158.175 274.577,158.508 291,159.5C 291.638,160.609 292.138,161.775 292.5,163C 291.547,179.632 291.214,196.132 291.5,212.5C 307.578,212.817 323.578,212.484 339.5,211.5C 323.534,213.485 307.201,214.152 290.5,213.5C 290.667,195.83 290.5,178.164 290,160.5C 273.577,159.508 257.077,159.175 240.5,159.5C 240.831,133.328 240.498,107.328 239.5,81.5C 223.833,80.8333 208.167,80.1667 192.5,79.5 Z"/></g>
<g><path style="opacity:1" fill="#b9dff9" d="M 188.5,81.5 C 188.5,100.167 188.5,118.833 188.5,137.5C 187.833,137.5 187.167,137.5 186.5,137.5C 187.155,118.735 187.821,100.069 188.5,81.5 Z"/></g>
<g><path style="opacity:1" fill="#2baeff" d="M 190.5,83.5 C 191.756,83.4614 192.756,83.9614 193.5,85C 192.674,102.093 192.174,119.26 192,136.5C 191.617,135.944 191.117,135.611 190.5,135.5C 189.176,118.069 189.176,100.736 190.5,83.5 Z"/></g>
<g><path style="opacity:1" fill="#72c6fa" d="M 188.5,81.5 C 205.342,81.1702 222.008,81.5035 238.5,82.5C 222.325,82.1703 206.325,82.5036 190.5,83.5C 189.176,100.736 189.176,118.069 190.5,135.5C 189.833,136.167 189.167,136.833 188.5,137.5C 188.5,118.833 188.5,100.167 188.5,81.5 Z"/></g>
<g><path style="opacity:1" fill="#34b9fe" d="M 190.5,83.5 C 206.325,82.5036 222.325,82.1703 238.5,82.5C 238.171,115.74 238.504,148.907 239.5,182C 238.383,183.892 236.716,184.725 234.5,184.5C 219.167,184.5 203.833,184.5 188.5,184.5C 188.445,169.45 188.445,154.617 188.5,140C 171.759,139.182 155.093,139.349 138.5,140.5C 154.975,138.838 171.642,137.838 188.5,137.5C 189.167,136.833 189.833,136.167 190.5,135.5C 191.117,135.611 191.617,135.944 192,136.5C 192.174,119.26 192.674,102.093 193.5,85C 192.756,83.9614 191.756,83.4614 190.5,83.5 Z"/></g>
<g><path style="opacity:1" fill="#b7e0fb" d="M 239.5,81.5 C 240.498,107.328 240.831,133.328 240.5,159.5C 257.077,159.175 273.577,159.508 290,160.5C 290.5,178.164 290.667,195.83 290.5,213.5C 307.201,214.152 323.534,213.485 339.5,211.5C 339.5,184.833 339.5,158.167 339.5,131.5C 339.833,131.5 340.167,131.5 340.5,131.5C 340.5,158.5 340.5,185.5 340.5,212.5C 340.672,213.492 340.338,214.158 339.5,214.5C 322.833,214.5 306.167,214.5 289.5,214.5C 289.167,213.833 288.833,213.167 288.5,212.5C 288.5,195.167 288.5,177.833 288.5,160.5C 272.167,160.5 255.833,160.5 239.5,160.5C 239.5,134.167 239.5,107.833 239.5,81.5 Z"/></g>
<g><path style="opacity:1" fill="#e9e9e8" d="M 30.5,119.5 C 42.4867,116.321 46.9867,120.655 44,132.5C 43.5,133 43,133.5 42.5,134C 38.2452,134.796 34.0785,134.629 30,133.5C 29.2266,128.748 29.3932,124.081 30.5,119.5 Z"/></g>
<g><path style="opacity:1" fill="#cbcbcb" d="M 32.5,121.5 C 35.7644,122.324 39.0977,122.658 42.5,122.5C 41.8655,125.666 41.5322,128.832 41.5,132C 38.1832,132.498 34.8499,132.665 31.5,132.5C 31.244,128.731 31.5773,125.064 32.5,121.5 Z"/></g>
<g><path style="opacity:1" fill="#20abfe" d="M 390.5,130.5 C 389.09,147.84 389.257,165.174 391,182.5C 391.667,183.167 392.333,183.833 393,184.5C 408.084,184.784 423.251,184.451 438.5,183.5C 439.713,183.747 440.38,184.414 440.5,185.5C 423.833,185.5 407.167,185.5 390.5,185.5C 391.279,195.82 391.612,205.82 391.5,215.5C 374.833,215.5 358.167,215.5 341.5,215.5C 341.5,214.5 341.5,213.5 341.5,212.5C 341.5,185.5 341.5,158.5 341.5,131.5C 357.881,131.804 374.214,131.471 390.5,130.5 Z"/></g>
<g><path style="opacity:1" fill="#5bbef8" d="M 390.5,130.5 C 374.214,131.471 357.881,131.804 341.5,131.5C 341.5,158.5 341.5,185.5 341.5,212.5C 341.167,212.5 340.833,212.5 340.5,212.5C 340.5,185.5 340.5,158.5 340.5,131.5C 340.611,130.883 340.944,130.383 341.5,130C 358.005,129.172 374.339,129.338 390.5,130.5 Z"/></g>
<g><path style="opacity:1" fill="#c2e3f9" d="M 392.5,180.5 C 392.167,180.5 391.833,180.5 391.5,180.5C 391.83,163.658 391.497,146.992 390.5,130.5C 374.339,129.338 358.005,129.172 341.5,130C 340.944,130.383 340.611,130.883 340.5,131.5C 340.167,131.5 339.833,131.5 339.5,131.5C 339.414,130.504 339.748,129.671 340.5,129C 357.5,128.333 374.5,128.333 391.5,129C 392.492,146.09 392.825,163.256 392.5,180.5 Z"/></g>
<g><path style="opacity:1" fill="#20abfe" d="M 188.5,184.5 C 186.953,186.807 186.287,189.473 186.5,192.5C 186.577,209.636 186.577,226.636 186.5,243.5C 170.833,243.5 155.167,243.5 139.5,243.5C 139.828,231.655 139.495,219.988 138.5,208.5C 138.614,196.608 138.614,184.608 138.5,172.5C 138.5,161.833 138.5,151.167 138.5,140.5C 155.093,139.349 171.759,139.182 188.5,140C 188.445,154.617 188.445,169.45 188.5,184.5 Z"/></g>
<g><path style="opacity:1" fill="#98ccfe" d="M 288.5,212.5 C 288.833,213.167 289.167,213.833 289.5,214.5C 288.548,220.075 288.214,225.741 288.5,231.5C 272.5,231.5 256.5,231.5 240.5,231.5C 240.83,215.991 240.496,200.658 239.5,185.5C 240.483,184.15 241.816,183.15 243.5,182.5C 242.675,181.614 241.675,181.281 240.5,181.5C 240.334,175.158 240.5,168.825 241,162.5C 241.414,162.043 241.914,161.709 242.5,161.5C 256.789,162.317 271.122,162.817 285.5,163C 286.833,178.667 286.833,194.333 285.5,210C 286.191,211.067 286.691,212.234 287,213.5C 287.383,212.944 287.883,212.611 288.5,212.5 Z"/></g>
<g><path style="opacity:1" fill="#88cefd" d="M 192.5,79.5 C 208.167,80.1667 223.833,80.8333 239.5,81.5C 239.5,107.833 239.5,134.167 239.5,160.5C 255.833,160.5 272.167,160.5 288.5,160.5C 288.5,177.833 288.5,195.167 288.5,212.5C 287.883,212.611 287.383,212.944 287,213.5C 286.691,212.234 286.191,211.067 285.5,210C 286.833,194.333 286.833,178.667 285.5,163C 271.122,162.817 256.789,162.317 242.5,161.5C 241.914,161.709 241.414,162.043 241,162.5C 240.5,168.825 240.334,175.158 240.5,181.5C 241.675,181.281 242.675,181.614 243.5,182.5C 241.816,183.15 240.483,184.15 239.5,185.5C 237.833,185.5 236.167,185.5 234.5,185.5C 234.5,185.167 234.5,184.833 234.5,184.5C 236.716,184.725 238.383,183.892 239.5,182C 238.504,148.907 238.171,115.74 238.5,82.5C 222.008,81.5035 205.342,81.1702 188.5,81.5C 189.514,80.3263 190.847,79.6596 192.5,79.5 Z"/></g>
<g><path style="opacity:1" fill="#e9e6e4" d="M 31.5,165.5 C 44.4893,163.332 48.156,168.166 42.5,180C 38.4425,180.767 34.4425,180.6 30.5,179.5C 28.9878,174.562 29.3212,169.896 31.5,165.5 Z"/></g>
<g><path style="opacity:1" fill="#cbcbcb" d="M 31.5,167.5 C 34.8499,167.335 38.1832,167.502 41.5,168C 42.8333,171 42.8333,174 41.5,177C 38.1464,177.455 34.8131,177.955 31.5,178.5C 31.5,174.833 31.5,171.167 31.5,167.5 Z"/></g>
<g><path style="opacity:1" fill="#e2f1f6" d="M 137.5,137.5 C 137.828,148.679 137.495,159.679 136.5,170.5C 120.153,170.167 103.82,170.501 87.5,171.5C 87.8,183.273 87.4667,194.94 86.5,206.5C 86.5613,208.653 87.5613,209.986 89.5,210.5C 89.5,211.167 89.1667,211.5 88.5,211.5C 87.8333,211.5 87.1667,211.5 86.5,211.5C 85.1908,197.637 85.1908,183.803 86.5,170C 103.163,169.5 119.83,169.333 136.5,169.5C 136.172,158.654 136.506,147.987 137.5,137.5 Z"/></g>
<g><path style="opacity:1" fill="#b0defc" d="M 136.5,170.5 C 120.868,172.485 104.868,173.151 88.5,172.5C 88.5,184.5 88.5,196.5 88.5,208.5C 104.5,209.167 120.5,209.833 136.5,210.5C 120.833,210.5 105.167,210.5 89.5,210.5C 87.5613,209.986 86.5613,208.653 86.5,206.5C 87.4667,194.94 87.8,183.273 87.5,171.5C 103.82,170.501 120.153,170.167 136.5,170.5 Z"/></g>
<g><path style="opacity:1" fill="#95ccfe" d="M 137.5,137.5 C 153.833,137.5 170.167,137.5 186.5,137.5C 187.167,137.5 187.833,137.5 188.5,137.5C 171.642,137.838 154.975,138.838 138.5,140.5C 138.5,151.167 138.5,161.833 138.5,172.5C 137.505,184.322 137.172,196.322 137.5,208.5C 121.167,208.5 104.833,208.5 88.5,208.5C 88.5,196.5 88.5,184.5 88.5,172.5C 104.868,173.151 120.868,172.485 136.5,170.5C 137.495,159.679 137.828,148.679 137.5,137.5 Z"/></g>
<g><path style="opacity:1" fill="#43b9fe" d="M 138.5,172.5 C 138.614,184.608 138.614,196.608 138.5,208.5C 138.167,208.5 137.833,208.5 137.5,208.5C 137.172,196.322 137.505,184.322 138.5,172.5 Z"/></g>
<g><path style="opacity:1" fill="#ede6df" d="M 190.5,186.5 C 206.5,186.5 222.5,186.5 238.5,186.5C 238.297,201.497 238.631,216.831 239.5,232.5C 255.783,234.831 272.116,235.165 288.5,233.5C 289.464,246.784 289.797,260.117 289.5,273.5C 305.8,275.485 322.466,276.152 339.5,275.5C 339.5,276.167 339.5,276.833 339.5,277.5C 338.5,277.5 337.5,277.5 336.5,277.5C 336.212,298.527 336.546,319.527 337.5,340.5C 323.829,340.667 310.163,340.5 296.5,340C 296.833,339.667 297.167,339.333 297.5,339C 296.676,325.908 296.176,312.742 296,299.5C 295.744,296.443 295.244,293.443 294.5,290.5C 295.647,287.393 295.314,284.393 293.5,281.5C 292.833,286.317 292.166,290.983 291.5,295.5C 291.693,291.434 291.36,287.434 290.5,283.5C 290.167,282.833 289.833,282.167 289.5,281.5C 291.713,281.152 293.713,280.319 295.5,279C 278.17,278.5 260.837,278.333 243.5,278.5C 243.829,272.794 243.495,267.128 242.5,261.5C 241.503,268.134 241.17,274.8 241.5,281.5C 240.833,275.5 240.167,269.5 239.5,263.5C 239.389,262.883 239.056,262.383 238.5,262C 222.167,261.333 205.833,261.333 189.5,262C 188.944,262.383 188.611,262.883 188.5,263.5C 187.504,279.658 187.17,295.991 187.5,312.5C 186.169,295.764 186.169,278.931 187.5,262C 186.207,261.51 184.873,261.343 183.5,261.5C 183.703,278.42 183.703,295.42 183.5,312.5C 169.5,312.5 155.5,312.5 141.5,312.5C 141.786,310.723 142.453,309.056 143.5,307.5C 142.5,305.833 141.5,304.167 140.5,302.5C 141.325,301.614 142.325,301.281 143.5,301.5C 143.326,299.139 142.993,296.806 142.5,294.5C 143.552,294.649 144.552,294.483 145.5,294C 143.833,293 142.5,291.667 141.5,290C 140.552,289.517 139.552,289.351 138.5,289.5C 121.833,289.5 105.167,289.5 88.5,289.5C 88.5,289.167 88.5,288.833 88.5,288.5C 103.182,288.833 117.848,288.499 132.5,287.5C 133.855,284.961 135.355,284.961 137,287.5C 138.394,286.387 139.561,285.053 140.5,283.5C 140,283.167 139.5,282.833 139,282.5C 123.061,283.819 107.227,285.152 91.5,286.5C 90.2502,286.423 89.4169,285.756 89,284.5C 88.5,260.169 88.3334,235.836 88.5,211.5C 89.1667,211.5 89.5,211.167 89.5,210.5C 105.167,210.5 120.833,210.5 136.5,210.5C 137.344,214.099 137.677,217.766 137.5,221.5C 136.508,229.316 136.174,237.316 136.5,245.5C 140.452,246.272 144.452,246.605 148.5,246.5C 153.422,247.493 158.422,248.16 163.5,248.5C 171.379,247.708 179.046,247.041 186.5,246.5C 187.209,245.596 188.209,245.263 189.5,245.5C 189.17,225.66 189.503,205.993 190.5,186.5 Z"/></g>
<g><path style="opacity:1" fill="#56befc" d="M 390.5,130.5 C 391.497,146.992 391.83,163.658 391.5,180.5C 407.992,181.497 424.658,181.83 441.5,181.5C 441.5,204.833 441.5,228.167 441.5,251.5C 425.167,251.5 408.833,251.5 392.5,251.5C 392.5,251.167 392.5,250.833 392.5,250.5C 408.5,250.5 424.5,250.5 440.5,250.5C 440.5,228.833 440.5,207.167 440.5,185.5C 440.38,184.414 439.713,183.747 438.5,183.5C 423.251,184.451 408.084,184.784 393,184.5C 392.333,183.833 391.667,183.167 391,182.5C 389.257,165.174 389.09,147.84 390.5,130.5 Z"/></g>
<g><path style="opacity:1" fill="#9fd3f9" d="M 391.5,180.5 C 391.833,180.5 392.167,180.5 392.5,180.5C 409.167,180.5 425.833,180.5 442.5,180.5C 442.831,204.672 442.498,228.672 441.5,252.5C 424.991,252.83 408.658,252.496 392.5,251.5C 408.833,251.5 425.167,251.5 441.5,251.5C 441.5,228.167 441.5,204.833 441.5,181.5C 424.658,181.83 407.992,181.497 391.5,180.5 Z"/></g>
<g><path style="opacity:1" fill="#c0e1f8" d="M 190.5,186.5 C 204.99,185.504 219.657,185.171 234.5,185.5C 236.167,185.5 237.833,185.5 239.5,185.5C 240.496,200.658 240.83,215.991 240.5,231.5C 256.5,232.167 272.5,232.833 288.5,233.5C 272.116,235.165 255.783,234.831 239.5,232.5C 238.631,216.831 238.297,201.497 238.5,186.5C 222.5,186.5 206.5,186.5 190.5,186.5 Z"/></g>
<g><path style="opacity:1" fill="#5dbff6" d="M 188.5,184.5 C 189.155,204.861 188.488,224.861 186.5,244.5C 186.5,244.167 186.5,243.833 186.5,243.5C 186.577,226.636 186.577,209.636 186.5,192.5C 186.287,189.473 186.953,186.807 188.5,184.5 Z"/></g>
<g><path style="opacity:1" fill="#91d1f5" d="M 88.5,208.5 C 104.833,208.5 121.167,208.5 137.5,208.5C 137.833,208.5 138.167,208.5 138.5,208.5C 138.5,220.5 138.5,232.5 138.5,244.5C 137.508,237.018 137.175,229.352 137.5,221.5C 137.677,217.766 137.344,214.099 136.5,210.5C 120.5,209.833 104.5,209.167 88.5,208.5 Z"/></g>
<g><path style="opacity:1" fill="#ebeae9" d="M 30.5,211.5 C 34.8461,211.334 39.1794,211.501 43.5,212C 44.8333,216.333 44.8333,220.667 43.5,225C 38.8452,225.499 34.1785,225.666 29.5,225.5C 29.2256,220.737 29.559,216.07 30.5,211.5 Z"/></g>
<g><path style="opacity:1" fill="#cdcdcd" d="M 31.5,212.5 C 35.1667,212.5 38.8333,212.5 42.5,212.5C 42.5,216.167 42.5,219.833 42.5,223.5C 38.5,223.5 34.5,223.5 30.5,223.5C 30.244,219.731 30.5773,216.064 31.5,212.5 Z"/></g>
<g><path style="opacity:1" fill="#76c8fc" d="M 289.5,214.5 C 306.167,214.5 322.833,214.5 339.5,214.5C 323.342,215.496 307.009,215.83 290.5,215.5C 290.5,221.5 290.5,227.5 290.5,233.5C 289.833,232.833 289.167,232.167 288.5,231.5C 288.214,225.741 288.548,220.075 289.5,214.5 Z"/></g>
<g><path style="opacity:1" fill="#9ed4f5" d="M 341.5,217.5 C 357.837,217.333 374.17,217.5 390.5,218C 391.487,229.085 391.821,240.252 391.5,251.5C 391.167,251.5 390.833,251.5 390.5,251.5C 390.5,249.5 390.5,247.5 390.5,245.5C 390.5,245.167 390.5,244.833 390.5,244.5C 390.826,235.983 390.493,227.65 389.5,219.5C 373.675,218.504 357.675,218.17 341.5,218.5C 341.5,225.833 341.5,233.167 341.5,240.5C 341.5,241.5 341.5,242.5 341.5,243.5C 340.506,252.986 340.173,262.652 340.5,272.5C 340.5,272.833 340.5,273.167 340.5,273.5C 340.167,273.5 339.833,273.5 339.5,273.5C 339.333,255.497 339.5,237.497 340,219.5C 340.278,218.584 340.778,217.918 341.5,217.5 Z"/></g>
<g><path style="opacity:1" fill="#36bafe" d="M 440.5,185.5 C 440.5,207.167 440.5,228.833 440.5,250.5C 424.5,250.5 408.5,250.5 392.5,250.5C 392.821,239.252 392.487,228.085 391.5,217C 374.662,216.172 357.995,216.338 341.5,217.5C 340.778,217.918 340.278,218.584 340,219.5C 339.5,237.497 339.333,255.497 339.5,273.5C 323.167,274.833 306.833,274.833 290.5,273.5C 290.5,260.167 290.5,246.833 290.5,233.5C 290.5,227.5 290.5,221.5 290.5,215.5C 307.009,215.83 323.342,215.496 339.5,214.5C 340.338,214.158 340.672,213.492 340.5,212.5C 340.833,212.5 341.167,212.5 341.5,212.5C 341.5,213.5 341.5,214.5 341.5,215.5C 358.167,215.5 374.833,215.5 391.5,215.5C 391.612,205.82 391.279,195.82 390.5,185.5C 407.167,185.5 423.833,185.5 440.5,185.5 Z"/></g>
<g><path style="opacity:1" fill="#22adfe" d="M 291.5,218.5 C 307.328,217.339 323.328,217.172 339.5,218C 338.681,226.755 338.181,235.589 338,244.5C 337.5,235.84 337.334,227.173 337.5,218.5C 322.167,218.5 306.833,218.5 291.5,218.5 Z"/></g>
<g><path style="opacity:1" fill="#ededed" d="M 86.5,211.5 C 87.1667,211.5 87.8333,211.5 88.5,211.5C 88.3334,235.836 88.5,260.169 89,284.5C 89.4169,285.756 90.2502,286.423 91.5,286.5C 90.5,287.167 89.5,287.833 88.5,288.5C 88.5,288.833 88.5,289.167 88.5,289.5C 87.8333,289.833 87.1667,290.167 86.5,290.5C 86.5648,263.801 86.5648,237.468 86.5,211.5 Z"/></g>
<g><path style="opacity:1" fill="#ede6df" d="M 389.5,219.5 C 389.5,226.5 389.5,233.5 389.5,240.5C 373.5,240.5 357.5,240.5 341.5,240.5C 341.5,233.167 341.5,225.833 341.5,218.5C 357.675,218.17 373.675,218.504 389.5,219.5 Z"/></g>
<g><path style="opacity:1" fill="#6ec5f8" d="M 341.5,217.5 C 357.995,216.338 374.662,216.172 391.5,217C 392.487,228.085 392.821,239.252 392.5,250.5C 392.5,250.833 392.5,251.167 392.5,251.5C 392.167,251.5 391.833,251.5 391.5,251.5C 391.821,240.252 391.487,229.085 390.5,218C 374.17,217.5 357.837,217.333 341.5,217.5 Z"/></g>
<g><path style="opacity:1" fill="#92d2f4" d="M 240.5,231.5 C 256.5,231.5 272.5,231.5 288.5,231.5C 289.167,232.167 289.833,232.833 290.5,233.5C 290.5,246.833 290.5,260.167 290.5,273.5C 290.167,273.5 289.833,273.5 289.5,273.5C 289.797,260.117 289.464,246.784 288.5,233.5C 272.5,232.833 256.5,232.167 240.5,231.5 Z"/></g>
<g><path style="opacity:1" fill="#e3eaed" d="M 389.5,219.5 C 390.493,227.65 390.826,235.983 390.5,244.5C 374.265,243.538 357.932,243.205 341.5,243.5C 341.5,242.5 341.5,241.5 341.5,240.5C 357.5,240.5 373.5,240.5 389.5,240.5C 389.5,233.5 389.5,226.5 389.5,219.5 Z"/></g>
<g><path style="opacity:1" fill="#4abcfd" d="M 138.5,208.5 C 139.495,219.988 139.828,231.655 139.5,243.5C 155.167,243.5 170.833,243.5 186.5,243.5C 186.5,243.833 186.5,244.167 186.5,244.5C 170.5,244.5 154.5,244.5 138.5,244.5C 138.5,232.5 138.5,220.5 138.5,208.5 Z"/></g>
<g><path style="opacity:1" fill="#a7d7f1" d="M 188.5,184.5 C 203.833,184.5 219.167,184.5 234.5,184.5C 234.5,184.833 234.5,185.167 234.5,185.5C 219.657,185.171 204.99,185.504 190.5,186.5C 189.503,205.993 189.17,225.66 189.5,245.5C 188.209,245.263 187.209,245.596 186.5,246.5C 173.686,245.236 161.02,245.236 148.5,246.5C 144.452,246.605 140.452,246.272 136.5,245.5C 136.174,237.316 136.508,229.316 137.5,221.5C 137.175,229.352 137.508,237.018 138.5,244.5C 154.5,244.5 170.5,244.5 186.5,244.5C 188.488,224.861 189.155,204.861 188.5,184.5 Z"/></g>
<g><path style="opacity:1" fill="#e4b3ca" d="M 341.5,243.5 C 357.932,243.205 374.265,243.538 390.5,244.5C 390.5,244.833 390.5,245.167 390.5,245.5C 373.799,244.848 357.466,245.515 341.5,247.5C 341.5,248.5 341.5,249.5 341.5,250.5C 341.5,250.833 341.5,251.167 341.5,251.5C 341.5,258.5 341.5,265.5 341.5,272.5C 341.167,272.5 340.833,272.5 340.5,272.5C 340.173,262.652 340.506,252.986 341.5,243.5 Z"/></g>
<g><path style="opacity:1" fill="#ed76ac" d="M 390.5,245.5 C 390.5,247.5 390.5,249.5 390.5,251.5C 390.5,263.833 390.5,276.167 390.5,288.5C 389.504,274.677 389.171,260.677 389.5,246.5C 373.402,247.379 357.402,247.713 341.5,247.5C 357.466,245.515 373.799,244.848 390.5,245.5 Z"/></g>
<g><path style="opacity:1" fill="#e1e8ea" d="M 148.5,246.5 C 161.02,245.236 173.686,245.236 186.5,246.5C 179.046,247.041 171.379,247.708 163.5,248.5C 158.422,248.16 153.422,247.493 148.5,246.5 Z"/></g>
<g><path style="opacity:1" fill="#e0ecee" d="M 138.5,250.5 C 152.24,250.054 165.907,250.554 179.5,252C 178.271,252.781 176.938,253.281 175.5,253.5C 171.733,251.948 167.733,251.282 163.5,251.5C 155.132,252.925 146.799,253.592 138.5,253.5C 138.5,252.5 138.5,251.5 138.5,250.5 Z"/></g>
<g><path style="opacity:1" fill="#ee75ab" d="M 341.5,251.5 C 341.5,251.167 341.5,250.833 341.5,250.5C 356.848,250.167 372.181,250.501 387.5,251.5C 378.002,253.894 368.336,255.061 358.5,255C 361.647,256.128 364.98,256.628 368.5,256.5C 374.179,256.036 379.846,255.869 385.5,256C 383.19,256.497 380.857,256.663 378.5,256.5C 378.67,257.822 378.337,258.989 377.5,260C 368.434,260.211 359.434,260.378 350.5,260.5C 350.5,261.5 350.5,262.5 350.5,263.5C 356.883,260.12 359.717,262.12 359,269.5C 357.601,270.227 356.101,270.727 354.5,271C 356.256,271.202 357.922,271.702 359.5,272.5C 358.167,274.167 358.167,275.833 359.5,277.5C 355.341,277.893 351.008,278.226 346.5,278.5C 346.34,276.801 346.506,275.134 347,273.5C 348.183,274.731 349.349,274.731 350.5,273.5C 349.482,272.148 348.149,271.148 346.5,270.5C 350.617,268.772 350.95,267.105 347.5,265.5C 346.572,264.232 346.405,262.899 347,261.5C 348.675,260.405 349.842,258.905 350.5,257C 352.5,256.667 354.5,256.333 356.5,256C 355.663,254.989 355.33,253.822 355.5,252.5C 350.797,252.563 346.13,252.229 341.5,251.5 Z"/></g>
<g><path style="opacity:1" fill="#ee66aa" d="M 390.5,288.5 C 388.82,290.726 389.153,292.393 391.5,293.5C 408.358,293.838 425.025,294.838 441.5,296.5C 433.075,295.847 424.575,295.514 416,295.5C 407.342,295.346 398.842,295.846 390.5,297C 391.832,328.598 391.832,360.098 390.5,391.5C 386.353,392.325 382.019,392.825 377.5,393C 382.019,393.175 386.353,393.675 390.5,394.5C 357.167,394.5 323.833,394.5 290.5,394.5C 289.377,378.411 289.377,362.411 290.5,346.5C 306.59,346.228 322.757,346.561 339,347.5C 341.847,347.002 342.681,345.669 341.5,343.5C 341.5,319.833 341.5,296.167 341.5,272.5C 341.5,265.5 341.5,258.5 341.5,251.5C 346.13,252.229 350.797,252.563 355.5,252.5C 355.33,253.822 355.663,254.989 356.5,256C 354.5,256.333 352.5,256.667 350.5,257C 349.842,258.905 348.675,260.405 347,261.5C 346.405,262.899 346.572,264.232 347.5,265.5C 350.95,267.105 350.617,268.772 346.5,270.5C 348.149,271.148 349.482,272.148 350.5,273.5C 349.349,274.731 348.183,274.731 347,273.5C 346.506,275.134 346.34,276.801 346.5,278.5C 351.008,278.226 355.341,277.893 359.5,277.5C 358.167,275.833 358.167,274.167 359.5,272.5C 357.922,271.702 356.256,271.202 354.5,271C 356.101,270.727 357.601,270.227 359,269.5C 359.717,262.12 356.883,260.12 350.5,263.5C 350.5,262.5 350.5,261.5 350.5,260.5C 359.434,260.378 368.434,260.211 377.5,260C 378.337,258.989 378.67,257.822 378.5,256.5C 380.857,256.663 383.19,256.497 385.5,256C 379.846,255.869 374.179,256.036 368.5,256.5C 364.98,256.628 361.647,256.128 358.5,255C 368.336,255.061 378.002,253.894 387.5,251.5C 372.181,250.501 356.848,250.167 341.5,250.5C 341.5,249.5 341.5,248.5 341.5,247.5C 357.402,247.713 373.402,247.379 389.5,246.5C 389.171,260.677 389.504,274.677 390.5,288.5 Z"/></g>
<g><path style="opacity:1" fill="#c6e1f4" d="M 391.5,251.5 C 391.833,251.5 392.167,251.5 392.5,251.5C 408.658,252.496 424.991,252.83 441.5,252.5C 441.5,252.833 441.5,253.167 441.5,253.5C 425.167,253.5 408.833,253.5 392.5,253.5C 392.167,253.5 391.833,253.5 391.5,253.5C 391.5,252.833 391.5,252.167 391.5,251.5 Z"/></g>
<g><path style="opacity:1" fill="#ee91bc" d="M 390.5,251.5 C 390.833,251.5 391.167,251.5 391.5,251.5C 391.5,252.167 391.5,252.833 391.5,253.5C 391.436,267.013 391.436,280.346 391.5,293.5C 389.153,292.393 388.82,290.726 390.5,288.5C 390.5,276.167 390.5,263.833 390.5,251.5 Z"/></g>
<g><path style="opacity:1" fill="#edb8d1" d="M 391.5,253.5 C 391.833,253.5 392.167,253.5 392.5,253.5C 392.5,265.167 392.5,276.833 392.5,288.5C 392.5,289.833 392.5,291.167 392.5,292.5C 394.833,292.5 397.167,292.5 399.5,292.5C 399.5,292.833 399.5,293.167 399.5,293.5C 396.833,293.5 394.167,293.5 391.5,293.5C 391.436,280.346 391.436,267.013 391.5,253.5 Z"/></g>
<g><path style="opacity:1" fill="#e9e8e8" d="M 30.5,257.5 C 34.8461,257.334 39.1794,257.501 43.5,258C 44.6295,262.079 44.7961,266.245 44,270.5C 39.5868,271.632 35.0868,271.799 30.5,271C 29.1943,266.501 29.1943,262.001 30.5,257.5 Z"/></g>
<g><path style="opacity:1" fill="#cacaca" d="M 32.5,258.5 C 35.728,259.414 39.0613,259.747 42.5,259.5C 42.5,262.833 42.5,266.167 42.5,269.5C 38.8333,269.5 35.1667,269.5 31.5,269.5C 31.244,265.731 31.5773,262.064 32.5,258.5 Z"/></g>
<g><path style="opacity:1" fill="#ede6df" d="M 392.5,253.5 C 408.833,253.5 425.167,253.5 441.5,253.5C 441.409,265.375 441.409,277.375 441.5,289.5C 425.864,290.116 410.364,289.449 395,287.5C 394.098,287.743 393.265,288.077 392.5,288.5C 392.5,276.833 392.5,265.167 392.5,253.5 Z"/></g>
<g><path style="opacity:1" fill="#ee92bc" d="M 239.5,263.5 C 239.5,269.833 239.5,276.167 239.5,282.5C 237.544,276.588 236.877,270.255 237.5,263.5C 221.833,263.5 206.167,263.5 190.5,263.5C 189.833,281.167 189.167,298.833 188.5,316.5C 188.5,298.833 188.5,281.167 188.5,263.5C 188.611,262.883 188.944,262.383 189.5,262C 205.833,261.333 222.167,261.333 238.5,262C 239.056,262.383 239.389,262.883 239.5,263.5 Z"/></g>
<g><path style="opacity:1" fill="#e7eaeb" d="M 393.5,256.5 C 395.564,256.687 397.564,257.187 399.5,258C 410.833,258.333 422.167,258.667 433.5,259C 421.5,259.333 409.5,259.667 397.5,260C 396.517,268.415 396.183,276.915 396.5,285.5C 395.5,285.5 394.5,285.5 393.5,285.5C 393.5,275.833 393.5,266.167 393.5,256.5 Z"/></g>
<g><path style="opacity:1" fill="#ee68aa" d="M 190.5,263.5 C 206.167,263.5 221.833,263.5 237.5,263.5C 236.877,270.255 237.544,276.588 239.5,282.5C 240.167,282.5 240.833,282.5 241.5,282.5C 242.167,282.5 242.833,282.5 243.5,282.5C 258.676,282.171 273.676,282.504 288.5,283.5C 272.452,283.182 256.452,283.515 240.5,284.5C 239.667,320.162 239.167,355.829 239,391.5C 238.5,392 238,392.5 237.5,393C 255.013,394.485 272.68,394.985 290.5,394.5C 323.833,394.5 357.167,394.5 390.5,394.5C 407.5,394.5 424.5,394.5 441.5,394.5C 340.668,395.499 239.668,395.833 138.5,395.5C 138.5,395.167 138.5,394.833 138.5,394.5C 155.928,394.972 173.261,394.472 190.5,393C 190,392.5 189.5,392 189,391.5C 188.5,367.169 188.333,342.836 188.5,318.5C 185.941,318.802 183.607,318.468 181.5,317.5C 184.5,317.5 187.5,317.5 190.5,317.5C 190.5,299.5 190.5,281.5 190.5,263.5 Z"/></g>
<g><path style="opacity:1" fill="#ee75ac" d="M 193.5,268.5 C 207.167,268.5 220.833,268.5 234.5,268.5C 234.5,273.167 234.5,277.833 234.5,282.5C 232.876,282.64 231.71,281.973 231,280.5C 231.664,276.818 231.497,273.152 230.5,269.5C 228.167,269.5 225.833,269.5 223.5,269.5C 223.5,270.5 223.5,271.5 223.5,272.5C 222.167,272.5 220.833,272.5 219.5,272.5C 219.5,271.5 219.5,270.5 219.5,269.5C 214.526,270.045 209.526,270.378 204.5,270.5C 200.435,270.489 196.768,269.822 193.5,268.5 Z"/></g>
<g><path style="opacity:1" fill="#ebb6cf" d="M 239.5,263.5 C 240.167,269.5 240.833,275.5 241.5,281.5C 241.5,281.833 241.5,282.167 241.5,282.5C 240.833,282.5 240.167,282.5 239.5,282.5C 239.5,276.167 239.5,269.833 239.5,263.5 Z"/></g>
<g><path style="opacity:1" fill="#ef89b8" d="M 340.5,272.5 C 340.833,272.5 341.167,272.5 341.5,272.5C 341.5,296.167 341.5,319.833 341.5,343.5C 341.5,344.833 340.833,345.5 339.5,345.5C 340.489,322.242 340.823,298.908 340.5,275.5C 340.5,274.833 340.5,274.167 340.5,273.5C 340.5,273.167 340.5,272.833 340.5,272.5 Z"/></g>
<g><path style="opacity:1" fill="#c2dff4" d="M 289.5,273.5 C 289.833,273.5 290.167,273.5 290.5,273.5C 306.833,274.833 323.167,274.833 339.5,273.5C 339.833,273.5 340.167,273.5 340.5,273.5C 340.5,274.167 340.5,274.833 340.5,275.5C 340.167,275.5 339.833,275.5 339.5,275.5C 322.466,276.152 305.8,275.485 289.5,273.5 Z"/></g>
<g><path style="opacity:1" fill="#e5eaed" d="M 289.5,281.5 C 273.991,281.17 258.658,281.504 243.5,282.5C 242.833,282.5 242.167,282.5 241.5,282.5C 241.5,282.167 241.5,281.833 241.5,281.5C 241.17,274.8 241.503,268.134 242.5,261.5C 243.495,267.128 243.829,272.794 243.5,278.5C 260.837,278.333 278.17,278.5 295.5,279C 293.713,280.319 291.713,281.152 289.5,281.5 Z"/></g>
<g><path style="opacity:1" fill="#f6b4d6" d="M 243.5,282.5 C 258.658,281.504 273.991,281.17 289.5,281.5C 289.833,282.167 290.167,282.833 290.5,283.5C 290.167,283.5 289.833,283.5 289.5,283.5C 289.167,283.5 288.833,283.5 288.5,283.5C 273.676,282.504 258.676,282.171 243.5,282.5 Z"/></g>
<g><path style="opacity:1" fill="#ee75ab" d="M 352.5,282.5 C 353.833,282.5 355.167,282.5 356.5,282.5C 355.903,303.959 356.57,325.292 358.5,346.5C 354.395,346.234 350.395,346.734 346.5,348C 345.62,349.356 345.286,350.856 345.5,352.5C 344.448,352.351 343.448,352.517 342.5,353C 344.134,353.494 345.801,353.66 347.5,353.5C 347.5,354.833 347.5,356.167 347.5,357.5C 345.257,358.312 342.924,358.979 340.5,359.5C 339.167,359.167 337.833,358.833 336.5,358.5C 339.095,357.149 341.762,355.983 344.5,355C 327.913,352.425 311.246,351.925 294.5,353.5C 297.118,356.692 296.118,358.025 291.5,357.5C 291.244,355.208 291.577,353.041 292.5,351C 308.5,350.667 324.5,350.333 340.5,350C 342.977,348.633 344.977,346.8 346.5,344.5C 348.396,343.534 350.396,343.201 352.5,343.5C 352.5,323.167 352.5,302.833 352.5,282.5 Z"/></g>
<g><path style="opacity:1" fill="#dfecef" d="M 88.5,288.5 C 89.5,287.833 90.5,287.167 91.5,286.5C 107.227,285.152 123.061,283.819 139,282.5C 139.5,282.833 140,283.167 140.5,283.5C 139.561,285.053 138.394,286.387 137,287.5C 135.355,284.961 133.855,284.961 132.5,287.5C 117.848,288.499 103.182,288.833 88.5,288.5 Z"/></g>
<g><path style="opacity:1" fill="#ed459b" d="M 288.5,283.5 C 288.833,283.5 289.167,283.5 289.5,283.5C 289.5,303.833 289.5,324.167 289.5,344.5C 289.328,345.492 289.662,346.158 290.5,346.5C 289.377,362.411 289.377,378.411 290.5,394.5C 272.68,394.985 255.013,394.485 237.5,393C 238,392.5 238.5,392 239,391.5C 239.167,355.829 239.667,320.162 240.5,284.5C 256.452,283.515 272.452,283.182 288.5,283.5 Z"/></g>
<g><path style="opacity:1" fill="#ee75ab" d="M 377.5,285.5 C 380.166,285.933 382.832,286.433 385.5,287C 384.062,287.219 382.729,287.719 381.5,288.5C 382.908,289.243 384.241,290.077 385.5,291C 384.324,292.674 382.99,294.174 381.5,295.5C 382.167,295.833 382.833,296.167 383.5,296.5C 387.475,293.384 389.808,294.384 390.5,299.5C 389.754,300.736 389.421,302.07 389.5,303.5C 385.743,302.622 382.076,302.289 378.5,302.5C 379.383,301.452 380.05,300.285 380.5,299C 378.571,297.306 377.571,295.139 377.5,292.5C 382.421,292.865 382.755,291.865 378.5,289.5C 377.571,288.311 377.238,286.978 377.5,285.5 Z"/></g>
<g><path style="opacity:1" fill="#eae9ed" d="M 442.5,180.5 C 441.927,252.105 441.927,323.438 442.5,394.5C 443.149,360.278 442.482,326.278 440.5,292.5C 427.043,292.417 413.376,292.417 399.5,292.5C 397.167,292.5 394.833,292.5 392.5,292.5C 392.5,291.167 392.5,289.833 392.5,288.5C 393.265,288.077 394.098,287.743 395,287.5C 410.364,289.449 425.864,290.116 441.5,289.5C 441.409,277.375 441.409,265.375 441.5,253.5C 441.5,253.167 441.5,252.833 441.5,252.5C 442.498,228.672 442.831,204.672 442.5,180.5 Z"/></g>
<g><path style="opacity:1" fill="#ee66aa" d="M 88.5,291.5 C 104.5,291.5 120.5,291.5 136.5,291.5C 136.334,299.84 136.5,308.173 137,316.5C 137.383,317.056 137.883,317.389 138.5,317.5C 137.228,339.958 137.228,362.625 138.5,385.5C 137.357,388.621 137.023,391.621 137.5,394.5C 121.167,394.5 104.833,394.5 88.5,394.5C 88.5,360.167 88.5,325.833 88.5,291.5 Z"/></g>
<g><path style="opacity:1" fill="#ee75ab" d="M 234.5,292.5 C 235.5,292.5 236.5,292.5 237.5,292.5C 237.5,325.5 237.5,358.5 237.5,391.5C 221.833,390.167 206.167,390.167 190.5,391.5C 190.167,367.158 190.5,342.824 191.5,318.5C 192.825,319.791 194.158,321.124 195.5,322.5C 195.167,323.5 194.5,324.167 193.5,324.5C 192.5,344.489 192.167,364.489 192.5,384.5C 193.5,384.5 194.5,384.5 195.5,384.5C 195.52,386.143 194.853,387.476 193.5,388.5C 205.601,390.326 217.434,389.326 229,385.5C 231.527,385.67 232.027,386.67 230.5,388.5C 231.689,389.429 233.022,389.762 234.5,389.5C 234.5,357.167 234.5,324.833 234.5,292.5 Z"/></g>
<g><path style="opacity:1" fill="#e0d4d9" d="M 440.5,292.5 C 426.87,293.446 413.203,293.78 399.5,293.5C 399.5,293.167 399.5,292.833 399.5,292.5C 413.376,292.417 427.043,292.417 440.5,292.5 Z"/></g>
<g><path style="opacity:1" fill="#ed469b" d="M 441.5,296.5 C 441.5,329.167 441.5,361.833 441.5,394.5C 424.5,394.5 407.5,394.5 390.5,394.5C 386.353,393.675 382.019,393.175 377.5,393C 382.019,392.825 386.353,392.325 390.5,391.5C 391.832,360.098 391.832,328.598 390.5,297C 398.842,295.846 407.342,295.346 416,295.5C 424.575,295.514 433.075,295.847 441.5,296.5 Z"/></g>
<g><path style="opacity:1" fill="#f097c0" d="M 440.5,292.5 C 442.482,326.278 443.149,360.278 442.5,394.5C 442.167,394.5 441.833,394.5 441.5,394.5C 441.5,361.833 441.5,329.167 441.5,296.5C 425.025,294.838 408.358,293.838 391.5,293.5C 394.167,293.5 396.833,293.5 399.5,293.5C 413.203,293.78 426.87,293.446 440.5,292.5 Z"/></g>
<g><path style="opacity:1" fill="#e5e7e7" d="M 339.5,277.5 C 339.989,299.984 339.489,322.317 338,344.5C 322.333,343.833 306.667,343.167 291,342.5C 290.265,326.815 290.431,311.149 291.5,295.5C 292.166,290.983 292.833,286.317 293.5,281.5C 295.314,284.393 295.647,287.393 294.5,290.5C 295.244,293.443 295.744,296.443 296,299.5C 296.176,312.742 296.676,325.908 297.5,339C 297.167,339.333 296.833,339.667 296.5,340C 310.163,340.5 323.829,340.667 337.5,340.5C 336.546,319.527 336.212,298.527 336.5,277.5C 337.5,277.5 338.5,277.5 339.5,277.5 Z"/></g>
<g><path style="opacity:1" fill="#e8e9ea" d="M 187.5,312.5 C 187.5,313.5 187.5,314.5 187.5,315.5C 171.497,315.667 155.497,315.5 139.5,315C 138.517,306.585 138.183,298.085 138.5,289.5C 139.552,289.351 140.552,289.517 141.5,290C 142.5,291.667 143.833,293 145.5,294C 144.552,294.483 143.552,294.649 142.5,294.5C 142.993,296.806 143.326,299.139 143.5,301.5C 142.325,301.281 141.325,301.614 140.5,302.5C 141.5,304.167 142.5,305.833 143.5,307.5C 142.453,309.056 141.786,310.723 141.5,312.5C 155.5,312.5 169.5,312.5 183.5,312.5C 183.703,295.42 183.703,278.42 183.5,261.5C 184.873,261.343 186.207,261.51 187.5,262C 186.169,278.931 186.169,295.764 187.5,312.5 Z"/></g>
<g><path style="opacity:1" fill="#e9e6e4" d="M 31.5,302.5 C 35.5705,302.234 39.5705,302.567 43.5,303.5C 47.4791,316.188 43.1458,320.521 30.5,316.5C 28.9878,311.562 29.3212,306.896 31.5,302.5 Z"/></g>
<g><path style="opacity:1" fill="#cbcbcb" d="M 32.5,304.5 C 35.728,305.414 39.0613,305.747 42.5,305.5C 42.7839,308.777 42.4505,311.943 41.5,315C 38.1436,314.387 34.8102,314.554 31.5,315.5C 31.244,311.731 31.5773,308.064 32.5,304.5 Z"/></g>
<g><path style="opacity:1" fill="#efa7c9" d="M 188.5,263.5 C 188.5,281.167 188.5,298.833 188.5,316.5C 171.83,316.667 155.163,316.5 138.5,316C 137.517,307.585 137.183,299.085 137.5,290.5C 120.991,290.17 104.658,290.504 88.5,291.5C 88.5,325.833 88.5,360.167 88.5,394.5C 104.833,394.5 121.167,394.5 137.5,394.5C 137.833,394.5 138.167,394.5 138.5,394.5C 138.5,394.833 138.5,395.167 138.5,395.5C 121.5,395.5 104.5,395.5 87.5,395.5C 86.5016,360.671 86.1683,325.671 86.5,290.5C 87.1667,290.167 87.8333,289.833 88.5,289.5C 105.167,289.5 121.833,289.5 138.5,289.5C 138.183,298.085 138.517,306.585 139.5,315C 155.497,315.5 171.497,315.667 187.5,315.5C 187.5,314.5 187.5,313.5 187.5,312.5C 187.17,295.991 187.504,279.658 188.5,263.5 Z"/></g>
<g><path style="opacity:1" fill="#ee81b4" d="M 190.5,263.5 C 190.5,281.5 190.5,299.5 190.5,317.5C 187.5,317.5 184.5,317.5 181.5,317.5C 167.167,317.5 152.833,317.5 138.5,317.5C 137.883,317.389 137.383,317.056 137,316.5C 136.5,308.173 136.334,299.84 136.5,291.5C 120.5,291.5 104.5,291.5 88.5,291.5C 104.658,290.504 120.991,290.17 137.5,290.5C 137.183,299.085 137.517,307.585 138.5,316C 155.163,316.5 171.83,316.667 188.5,316.5C 189.167,298.833 189.833,281.167 190.5,263.5 Z"/></g>
<g><path style="opacity:1" fill="#ee75ac" d="M 131.5,318.5 C 132.884,317.199 134.384,317.199 136,318.5C 136.5,342.831 136.667,367.164 136.5,391.5C 121.854,390.753 107.187,390.253 92.5,390C 105.829,389.5 119.163,389.333 132.5,389.5C 131.529,365.665 131.196,341.999 131.5,318.5 Z"/></g>
<g><path style="opacity:1" fill="#ed459b" d="M 138.5,317.5 C 152.833,317.5 167.167,317.5 181.5,317.5C 183.607,318.468 185.941,318.802 188.5,318.5C 188.333,342.836 188.5,367.169 189,391.5C 189.5,392 190,392.5 190.5,393C 173.261,394.472 155.928,394.972 138.5,394.5C 138.167,394.5 137.833,394.5 137.5,394.5C 137.023,391.621 137.357,388.621 138.5,385.5C 137.228,362.625 137.228,339.958 138.5,317.5 Z"/></g>
<g><path style="opacity:1" fill="#ee74ac" d="M 341.5,343.5 C 342.681,345.669 341.847,347.002 339,347.5C 322.757,346.561 306.59,346.228 290.5,346.5C 289.662,346.158 289.328,345.492 289.5,344.5C 306.119,345.471 322.786,345.805 339.5,345.5C 340.833,345.5 341.5,344.833 341.5,343.5 Z"/></g>
<g><path style="opacity:1" fill="#efaacb" d="M 339.5,275.5 C 339.833,275.5 340.167,275.5 340.5,275.5C 340.823,298.908 340.489,322.242 339.5,345.5C 322.786,345.805 306.119,345.471 289.5,344.5C 289.5,324.167 289.5,303.833 289.5,283.5C 289.833,283.5 290.167,283.5 290.5,283.5C 291.36,287.434 291.693,291.434 291.5,295.5C 290.431,311.149 290.265,326.815 291,342.5C 306.667,343.167 322.333,343.833 338,344.5C 339.489,322.317 339.989,299.984 339.5,277.5C 339.5,276.833 339.5,276.167 339.5,275.5 Z"/></g>
<g><path style="opacity:1" fill="#e8e6e3" d="M 30.5,348.5 C 34.5138,348.334 38.5138,348.501 42.5,349C 43.7435,350.87 44.4101,353.036 44.5,355.5C 44.4677,357.759 44.1344,359.925 43.5,362C 38.8452,362.499 34.1785,362.666 29.5,362.5C 29.7507,359.091 29.4173,355.758 28.5,352.5C 29.1799,351.14 29.8466,349.807 30.5,348.5 Z"/></g>
<g><path style="opacity:1" fill="#cbcbcb" d="M 31.5,350.5 C 41.6544,347.817 44.9877,351.317 41.5,361C 38.1832,361.498 34.8499,361.665 31.5,361.5C 31.5,357.833 31.5,354.167 31.5,350.5 Z"/></g>
<g><path style="opacity:1" fill="#ee74ab" d="M 390.5,391.5 C 357.495,390.208 324.495,390.208 291.5,391.5C 291.5,389.5 291.5,387.5 291.5,385.5C 292.5,385.5 293.5,385.5 294.5,385.5C 294.33,386.822 294.663,387.989 295.5,389C 325.595,390.102 355.595,389.602 385.5,387.5C 385.5,386.5 385.5,385.5 385.5,384.5C 386.833,384.5 388.167,384.5 389.5,384.5C 389.448,386.903 389.781,389.236 390.5,391.5 Z"/></g>
<g><path style="opacity:1" fill="#facbe3" d="M 441.5,394.5 C 441.833,394.5 442.167,394.5 442.5,394.5C 383.67,395.833 324.504,396.5 265,396.5C 205.666,396.5 146.499,396.167 87.5,395.5C 104.5,395.5 121.5,395.5 138.5,395.5C 239.668,395.833 340.668,395.499 441.5,394.5 Z"/></g>
<g><path style="opacity:1" fill="#c8c8c9" d="M 67.5,9.5 C 69.4983,140.496 70.165,271.829 69.5,403.5C 200.001,403.167 330.334,403.5 460.5,404.5C 330.167,404.5 199.833,404.5 69.5,404.5C 68.8333,404.167 68.1667,403.833 67.5,403.5C 67.5,272.167 67.5,140.833 67.5,9.5 Z"/></g>
<g><path style="opacity:1" fill="#a4a3a6" d="M 69.5,404.5 C 199.833,404.5 330.167,404.5 460.5,404.5C 461.338,404.842 461.672,405.508 461.5,406.5C 461.167,406.5 460.833,406.5 460.5,406.5C 330.167,405.833 199.833,405.167 69.5,404.5 Z"/></g>
<g><path style="opacity:1" fill="#848484" d="M 67.5,403.5 C 68.1667,403.833 68.8333,404.167 69.5,404.5C 199.833,405.167 330.167,405.833 460.5,406.5C 329.5,406.5 198.5,406.5 67.5,406.5C 67.5,405.5 67.5,404.5 67.5,403.5 Z"/></g>
<g><path style="opacity:1" fill="#ebe8e5" d="M 42.5,395.5 C 43.7943,397.048 44.4609,399.048 44.5,401.5C 44.3333,403.5 44.1667,405.5 44,407.5C 39.2633,408.469 34.43,408.803 29.5,408.5C 29.3343,404.154 29.501,399.821 30,395.5C 34.2669,394.178 38.4336,394.178 42.5,395.5 Z"/></g>
<g><path style="opacity:1" fill="#cccccc" d="M 42.5,395.5 C 42.5,399.167 42.5,402.833 42.5,406.5C 38.8333,406.5 35.1667,406.5 31.5,406.5C 31.5,402.833 31.5,399.167 31.5,395.5C 35.1667,395.5 38.8333,395.5 42.5,395.5 Z"/></g>
<g><path style="opacity:1" fill="#7e7e7e" d="M 460.5,406.5 C 460.833,406.5 461.167,406.5 461.5,406.5C 461.5,411.167 461.5,415.833 461.5,420.5C 326.167,420.5 190.833,420.5 55.5,420.5C 55.5,420.167 55.5,419.833 55.5,419.5C 56.1667,419.5 56.8333,419.5 57.5,419.5C 192.171,420.165 326.504,419.498 460.5,417.5C 460.5,413.833 460.5,410.167 460.5,406.5 Z"/></g>
<g><path style="opacity:1" fill="#d1d1d2" d="M 55.5,420.5 C 190.833,420.5 326.167,420.5 461.5,420.5C 394.503,421.833 327.17,422.5 259.5,422.5C 192.167,422.333 124.833,422.167 57.5,422C 56.5842,421.722 55.9175,421.222 55.5,420.5 Z"/></g>
<g><path style="opacity:1" fill="#eaeaea" d="M 340.5,428.5 C 344.833,428.5 349.167,428.5 353.5,428.5C 353.666,433.179 353.499,437.845 353,442.5C 348.667,443.833 344.333,443.833 340,442.5C 339.227,437.748 339.393,433.081 340.5,428.5 Z"/></g>
<g><path style="opacity:1" fill="#cecece" d="M 67.5,429.5 C 71.1064,429.211 74.6064,429.544 78,430.5C 81.5189,441.648 77.8523,445.315 67,441.5C 66.2375,437.413 66.4042,433.413 67.5,429.5 Z"/></g>
<g><path style="opacity:1" fill="#e9e9e8" d="M 112.5,428.5 C 116.514,428.334 120.514,428.501 124.5,429C 125.833,433.667 125.833,438.333 124.5,443C 120.179,443.499 115.846,443.666 111.5,443.5C 110.207,438.407 110.54,433.407 112.5,428.5 Z"/></g>
<g><path style="opacity:1" fill="#cbcbcb" d="M 112.5,430.5 C 115.85,430.335 119.183,430.502 122.5,431C 126.139,440.527 123.139,443.694 113.5,440.5C 113.744,437.294 113.411,433.961 112.5,430.5 Z"/></g>
<g><path style="opacity:1" fill="#e8e8e8" d="M 203.5,428.5 C 207.833,428.5 212.167,428.5 216.5,428.5C 216.5,433.5 216.5,438.5 216.5,443.5C 202.572,446.615 198.239,441.615 203.5,428.5 Z"/></g>
<g><path style="opacity:1" fill="#cbcbcb" d="M 205.5,430.5 C 208.5,430.5 211.5,430.5 214.5,430.5C 214.5,434.167 214.5,437.833 214.5,441.5C 204.773,443.457 201.773,439.791 205.5,430.5 Z"/></g>
<g><path style="opacity:1" fill="#e8e8e8" d="M 249.5,428.5 C 253.514,428.334 257.514,428.501 261.5,429C 262.811,433.469 262.811,437.969 261.5,442.5C 257.217,443.492 252.884,443.826 248.5,443.5C 246.856,438.312 247.19,433.312 249.5,428.5 Z"/></g>
<g><path style="opacity:1" fill="#cbcbcb" d="M 250.5,430.5 C 253.833,430.5 257.167,430.5 260.5,430.5C 260.5,434.167 260.5,437.833 260.5,441.5C 256.894,441.789 253.394,441.456 250,440.5C 250.243,437.12 250.41,433.787 250.5,430.5 Z"/></g>
<g><path style="opacity:1" fill="#cecece" d="M 341.5,429.5 C 344.833,429.5 348.167,429.5 351.5,429.5C 351.632,433.096 351.799,436.762 352,440.5C 348.27,441.46 344.437,441.793 340.5,441.5C 340.237,437.4 340.57,433.4 341.5,429.5 Z"/></g>
<g><path style="opacity:1" fill="#eae9e9" d="M 431.5,428.5 C 436.099,428.2 440.599,428.533 445,429.5C 445.772,433.89 445.606,438.223 444.5,442.5C 441.164,443.24 437.83,443.906 434.5,444.5C 432.139,443.46 430.805,441.627 430.5,439C 430.594,435.504 430.927,432.004 431.5,428.5 Z"/></g>
<g><path style="opacity:1" fill="#cbcbcb" d="M 433.5,430.5 C 436.777,430.216 439.943,430.549 443,431.5C 442.652,434.719 442.486,437.886 442.5,441C 439.24,441.784 436.073,441.617 433,440.5C 433.243,437.12 433.41,433.787 433.5,430.5 Z"/></g>
<g><path style="opacity:1" fill="#e8e8e8" d="M 157.5,428.5 C 162.099,428.2 166.599,428.533 171,429.5C 171.772,433.89 171.606,438.223 170.5,442.5C 157.266,446.815 152.933,442.148 157.5,428.5 Z"/></g>
<g><path style="opacity:1" fill="#cbcaca" d="M 159.5,430.5 C 162.572,430.183 165.572,430.516 168.5,431.5C 168.566,434.7 168.566,437.867 168.5,441C 158.764,443.464 155.764,439.964 159.5,430.5 Z"/></g>
<g><path style="opacity:1" fill="#e9e9e8" d="M 386.5,428.5 C 390.767,428.203 394.934,428.536 399,429.5C 399.799,434.087 399.632,438.587 398.5,443C 394.245,443.796 390.079,443.629 386,442.5C 385.227,437.748 385.393,433.081 386.5,428.5 Z"/></g>
<g><path style="opacity:1" fill="#cdcdcd" d="M 387.5,429.5 C 390.833,429.5 394.167,429.5 397.5,429.5C 397.5,433.5 397.5,437.5 397.5,441.5C 393.894,441.789 390.394,441.456 387,440.5C 386.245,436.745 386.411,433.078 387.5,429.5 Z"/></g>
<g><path style="opacity:1" fill="#e9e9e8" d="M 295.5,429.5 C 299.566,428.178 303.733,428.178 308,429.5C 307.735,433.039 307.901,436.539 308.5,440C 308.241,441.261 307.574,442.261 306.5,443C 302.245,443.796 298.079,443.629 294,442.5C 293.333,438.5 293.333,434.5 294,430.5C 294.383,429.944 294.883,429.611 295.5,429.5 Z"/></g>
<g><path style="opacity:1" fill="#cdcdcd" d="M 295.5,429.5 C 299.167,429.5 302.833,429.5 306.5,429.5C 306.665,433.182 306.499,436.848 306,440.5C 302.667,441.833 299.333,441.833 296,440.5C 296.09,436.95 295.924,433.283 295.5,429.5 Z"/></g>
</svg>
