<?xml version="1.0" encoding="UTF-8"?>
<!DOCTYPE svg PUBLIC "-//W3C//DTD SVG 1.1//EN" "http://www.w3.org/Graphics/SVG/1.1/DTD/svg11.dtd">
<svg xmlns="http://www.w3.org/2000/svg" version="1.1" width="512px" height="512px" style="shape-rendering:geometricPrecision; text-rendering:geometricPrecision; image-rendering:optimizeQuality; fill-rule:evenodd; clip-rule:evenodd" xmlns:xlink="http://www.w3.org/1999/xlink">
<g><path style="opacity:0.959" fill="#7a8c97" d="M 29.5,-0.5 C 32.5,-0.5 35.5,-0.5 38.5,-0.5C 39.1217,0.626561 39.955,1.62656 41,2.5C 41.5,160.166 41.6667,317.833 41.5,475.5C 36.1667,475.5 30.8333,475.5 25.5,475.5C 25.5,464.167 25.5,452.833 25.5,441.5C 21.8183,441.665 18.1516,441.499 14.5,441C 7.13638,436.308 6.80305,431.308 13.5,426C 17.4862,425.501 21.4862,425.334 25.5,425.5C 25.5,412.5 25.5,399.5 25.5,386.5C 21.4862,386.666 17.4862,386.499 13.5,386C 6.86751,380.955 6.86751,375.955 13.5,371C 17.4862,370.501 21.4862,370.334 25.5,370.5C 25.5,357.5 25.5,344.5 25.5,331.5C 21.4862,331.666 17.4862,331.499 13.5,331C 7.317,326.774 6.98367,322.108 12.5,317C 16.6996,315.633 21.0329,315.133 25.5,315.5C 25.5,302.5 25.5,289.5 25.5,276.5C 21.1539,276.666 16.8206,276.499 12.5,276C 7.16667,271.333 7.16667,266.667 12.5,262C 16.6996,260.633 21.0329,260.133 25.5,260.5C 25.5,247.833 25.5,235.167 25.5,222.5C 21.8183,222.665 18.1516,222.499 14.5,222C 7.64174,217.775 6.97507,212.775 12.5,207C 16.8206,206.501 21.1539,206.334 25.5,206.5C 25.5,193.5 25.5,180.5 25.5,167.5C 21.8183,167.665 18.1516,167.499 14.5,167C 7.17981,162.4 6.84648,157.4 13.5,152C 17.4862,151.501 21.4862,151.334 25.5,151.5C 25.5,138.5 25.5,125.5 25.5,112.5C 21.4862,112.666 17.4862,112.499 13.5,112C 6.86751,107.045 6.86751,102.045 13.5,97C 17.4862,96.5012 21.4862,96.3345 25.5,96.5C 25.5,83.5 25.5,70.5 25.5,57.5C 21.4862,57.6655 17.4862,57.4988 13.5,57C 7.33719,52.8161 7.00386,48.1494 12.5,43C 16.6996,41.6326 21.0329,41.1326 25.5,41.5C 25.3335,29.1622 25.5001,16.8288 26,4.5C 26.9973,2.67694 28.1639,1.01027 29.5,-0.5 Z"/></g>
<g><path style="opacity:0.928" fill="#798c98" d="M 71.5,41.5 C 74.5184,41.3354 77.5184,41.502 80.5,42C 85.9055,43.9803 87.7389,47.8136 86,53.5C 84.8333,54.6667 83.6667,55.8333 82.5,57C 78.1667,57.6667 73.8333,57.6667 69.5,57C 65.7884,54.4425 64.6217,50.9425 66,46.5C 67.1065,43.887 68.9399,42.2203 71.5,41.5 Z"/></g>
<g><path style="opacity:0.923" fill="#798c98" d="M 105.5,41.5 C 111.262,41.1493 116.928,41.6493 122.5,43C 126.779,48.033 126.446,52.6997 121.5,57C 115.5,57.6667 109.5,57.6667 103.5,57C 97.8703,50.9882 98.537,45.8215 105.5,41.5 Z"/></g>
<g><path style="opacity:0.926" fill="#798c98" d="M 144.5,41.5 C 150.262,41.1493 155.928,41.6493 161.5,43C 165.771,48.0781 165.437,52.7448 160.5,57C 154.5,57.6667 148.5,57.6667 142.5,57C 136.87,50.9882 137.537,45.8215 144.5,41.5 Z"/></g>
<g><path style="opacity:0.928" fill="#798c98" d="M 183.5,41.5 C 189.262,41.1493 194.928,41.6493 200.5,43C 203.803,46.795 204.303,50.9617 202,55.5C 201.25,56.1258 200.416,56.6258 199.5,57C 193.5,57.6667 187.5,57.6667 181.5,57C 175.87,50.9882 176.537,45.8215 183.5,41.5 Z"/></g>
<g><path style="opacity:0.93" fill="#7a8b98" d="M 222.5,41.5 C 228.262,41.1493 233.928,41.6493 239.5,43C 242.803,46.795 243.303,50.9617 241,55.5C 240.25,56.1258 239.416,56.6258 238.5,57C 232.5,57.6667 226.5,57.6667 220.5,57C 214.792,51.0014 215.459,45.8347 222.5,41.5 Z"/></g>
<g><path style="opacity:0.932" fill="#798c98" d="M 261.5,41.5 C 267.29,41.0962 272.956,41.5962 278.5,43C 281.803,46.795 282.303,50.9617 280,55.5C 279.25,56.1258 278.416,56.6258 277.5,57C 271.5,57.6667 265.5,57.6667 259.5,57C 253.792,51.0014 254.459,45.8347 261.5,41.5 Z"/></g>
<g><path style="opacity:0.928" fill="#798d99" d="M 300.5,41.5 C 308.671,39.4143 314.004,42.2476 316.5,50C 316.097,52.8872 314.764,55.2205 312.5,57C 307.833,57.6667 303.167,57.6667 298.5,57C 292.792,51.0014 293.459,45.8347 300.5,41.5 Z"/></g>
<g><path style="opacity:0.992" fill="#b2dafe" d="M 475.5,82.5 C 397.107,97.6786 318.774,113.179 240.5,129C 238.714,129.785 237.214,130.951 236,132.5C 208.167,170.333 180.333,208.167 152.5,246C 123.835,246.5 95.1686,246.667 66.5,246.5C 66.3334,220.498 66.5,194.498 67,168.5C 68.4659,166.675 70.2992,166.175 72.5,167C 94.9515,175.042 117.618,182.042 140.5,188C 150.333,172.833 160.167,157.667 170,142.5C 190.5,123.333 211,104.167 231.5,85C 311.508,73.2131 391.508,61.3798 471.5,49.5C 473.425,49.5904 474.592,50.5904 475,52.5C 475.5,62.4944 475.666,72.4944 475.5,82.5 Z"/></g>
<g><path style="opacity:1" fill="#8ec8fb" d="M 475.5,82.5 C 475.5,203.167 475.5,323.833 475.5,444.5C 474.5,331.668 474.167,218.668 474.5,105.5C 474.265,104.903 473.765,104.57 473,104.5C 462.215,106.616 451.715,109.283 441.5,112.5C 379.343,124.915 317.343,138.082 255.5,152C 229.667,187.167 203.833,222.333 178,257.5C 174.968,261.359 171.802,265.026 168.5,268.5C 134.5,268.5 100.5,268.5 66.5,268.5C 66.5,261.167 66.5,253.833 66.5,246.5C 95.1686,246.667 123.835,246.5 152.5,246C 180.333,208.167 208.167,170.333 236,132.5C 237.214,130.951 238.714,129.785 240.5,129C 318.774,113.179 397.107,97.6786 475.5,82.5 Z"/></g>
<g><path style="opacity:1" fill="#fdc065" d="M 474.5,105.5 C 467.116,115.555 460.116,125.888 453.5,136.5C 424.066,179.848 394.733,223.348 365.5,267C 363.365,267.635 361.365,267.301 359.5,266C 333.88,248.54 307.88,231.707 281.5,215.5C 280.833,215.833 280.167,216.167 279.5,216.5C 242.361,270.138 205.028,323.638 167.5,377C 164.983,377.257 162.65,376.59 160.5,375C 129.97,356.903 99.303,339.069 68.5,321.5C 68.1583,320.662 67.4916,320.328 66.5,320.5C 66.5,309.833 66.5,299.167 66.5,288.5C 97.1052,305.471 127.439,322.971 157.5,341C 159.365,342.301 161.365,342.635 163.5,342C 201.167,288.333 238.833,234.667 276.5,181C 277.5,180.333 278.5,180.333 279.5,181C 305.167,198 330.833,215 356.5,232C 358.167,232.667 359.833,232.667 361.5,232C 388.301,192.224 414.967,152.391 441.5,112.5C 451.715,109.283 462.215,106.616 473,104.5C 473.765,104.57 474.265,104.903 474.5,105.5 Z"/></g>
<g><path style="opacity:1" fill="#cb97e6" d="M 474.5,105.5 C 474.167,218.668 474.5,331.668 475.5,444.5C 475.5,454.833 475.5,465.167 475.5,475.5C 468.167,475.5 460.833,475.5 453.5,475.5C 453.5,362.5 453.5,249.5 453.5,136.5C 460.116,125.888 467.116,115.555 474.5,105.5 Z"/></g>
<g><path style="opacity:1" fill="#fdcd85" d="M 441.5,112.5 C 414.967,152.391 388.301,192.224 361.5,232C 359.833,232.667 358.167,232.667 356.5,232C 330.833,215 305.167,198 279.5,181C 278.5,180.333 277.5,180.333 276.5,181C 238.833,234.667 201.167,288.333 163.5,342C 161.365,342.635 159.365,342.301 157.5,341C 127.439,322.971 97.1052,305.471 66.5,288.5C 66.5,286.5 66.5,284.5 66.5,282.5C 67.4849,278.366 67.8182,274.032 67.5,269.5C 101.337,269.832 135.004,269.498 168.5,268.5C 171.802,265.026 174.968,261.359 178,257.5C 203.833,222.333 229.667,187.167 255.5,152C 317.343,138.082 379.343,124.915 441.5,112.5 Z"/></g>
<g><path style="opacity:1" fill="#d9b1ed" d="M 453.5,136.5 C 453.5,249.5 453.5,362.5 453.5,475.5C 324.5,475.5 195.5,475.5 66.5,475.5C 66.5,465.167 66.5,454.833 66.5,444.5C 67.1667,403.5 67.8333,362.5 68.5,321.5C 99.303,339.069 129.97,356.903 160.5,375C 162.65,376.59 164.983,377.257 167.5,377C 205.028,323.638 242.361,270.138 279.5,216.5C 280.167,216.167 280.833,215.833 281.5,215.5C 307.88,231.707 333.88,248.54 359.5,266C 361.365,267.301 363.365,267.635 365.5,267C 394.733,223.348 424.066,179.848 453.5,136.5 Z"/></g>
<g><path style="opacity:1" fill="#cfccb6" d="M 66.5,268.5 C 100.5,268.5 134.5,268.5 168.5,268.5C 135.004,269.498 101.337,269.832 67.5,269.5C 67.8182,274.032 67.4849,278.366 66.5,282.5C 66.5,277.833 66.5,273.167 66.5,268.5 Z"/></g>
<g><path style="opacity:0.867" fill="#eabab6" d="M 66.5,320.5 C 67.4916,320.328 68.1583,320.662 68.5,321.5C 67.8333,362.5 67.1667,403.5 66.5,444.5C 66.5,403.167 66.5,361.833 66.5,320.5 Z"/></g>
<g><path style="opacity:0.999" fill="#9facba" d="M 25.5,475.5 C 30.8333,475.5 36.1667,475.5 41.5,475.5C 49.8333,475.5 58.1667,475.5 66.5,475.5C 195.5,475.5 324.5,475.5 453.5,475.5C 460.833,475.5 468.167,475.5 475.5,475.5C 478.167,475.5 480.833,475.5 483.5,475.5C 484.688,476.364 485.855,477.364 487,478.5C 487.667,488.5 487.667,498.5 487,508.5C 485.955,509.373 485.122,510.373 484.5,511.5C 324.5,511.5 164.5,511.5 4.5,511.5C 4.01328,510.527 3.51328,509.527 3,508.5C 2.83333,503.667 2.66667,498.833 2.5,494C 2.38018,488.393 2.88018,482.893 4,477.5C 4.5,477 5,476.5 5.5,476C 12.1583,475.5 18.825,475.334 25.5,475.5 Z"/></g>
<g><path style="opacity:1" fill="#8d9ca8" d="M 483.5,475.5 C 490.841,475.334 498.174,475.5 505.5,476C 506,476.5 506.5,477 507,477.5C 508.12,482.893 508.62,488.393 508.5,494C 508.333,498.833 508.167,503.667 508,508.5C 507.487,509.527 506.987,510.527 506.5,511.5C 499.167,511.5 491.833,511.5 484.5,511.5C 485.122,510.373 485.955,509.373 487,508.5C 487.667,498.5 487.667,488.5 487,478.5C 485.855,477.364 484.688,476.364 483.5,475.5 Z"/></g>
</svg>
