<?xml version="1.0" encoding="UTF-8"?>
<!DOCTYPE svg PUBLIC "-//W3C//DTD SVG 1.1//EN" "http://www.w3.org/Graphics/SVG/1.1/DTD/svg11.dtd">
<svg xmlns="http://www.w3.org/2000/svg" version="1.1" width="512px" height="512px" style="shape-rendering:geometricPrecision; text-rendering:geometricPrecision; image-rendering:optimizeQuality; fill-rule:evenodd; clip-rule:evenodd" xmlns:xlink="http://www.w3.org/1999/xlink">
<g><path style="opacity:0.989" fill="#2b73fa" d="M 142.5,66.5 C 200.501,66.3333 258.501,66.5 316.5,67C 322.734,68.9031 328.234,72.0698 333,76.5C 363.706,110.871 394.039,145.537 424,180.5C 424.862,182.087 425.529,183.754 426,185.5C 426.667,199.5 426.667,213.5 426,227.5C 420.184,237.925 412.017,240.425 401.5,235C 398.533,232.9 396.7,230.066 396,226.5C 395.5,219.508 395.334,212.508 395.5,205.5C 378.125,205.912 360.791,205.412 343.5,204C 319.363,196.532 305.196,180.365 301,155.5C 300.5,136.17 300.333,116.836 300.5,97.5C 249.499,97.3333 198.499,97.5 147.5,98C 133.89,101.045 126.724,109.545 126,123.5C 125.667,158.167 125.333,192.833 125,227.5C 118.961,237.386 110.794,239.552 100.5,234C 97.7504,231.33 95.9171,228.164 95,224.5C 94.0374,186.467 94.3707,148.467 96,110.5C 102.977,86.6866 118.477,72.02 142.5,66.5 Z M 331.5,123.5 C 346.449,140.121 361.449,156.788 376.5,173.5C 368.855,174.665 361.188,174.831 353.5,174C 340.965,171.108 333.798,163.274 332,150.5C 331.5,141.506 331.334,132.506 331.5,123.5 Z"/></g>
<g><path style="opacity:0.968" fill="#ec508e" d="M 65.5,259.5 C 77.5046,259.333 89.5046,259.5 101.5,260C 112.279,265.615 114.779,273.782 109,284.5C 106.9,287.467 104.066,289.3 100.5,290C 89.1667,290.667 77.8333,290.667 66.5,290C 55.5488,284.818 52.7155,276.651 58,265.5C 60.1141,262.879 62.6141,260.879 65.5,259.5 Z"/></g>
<g><path style="opacity:0.973" fill="#ec508e" d="M 136.5,259.5 C 155.17,259.333 173.836,259.5 192.5,260C 201.177,264.19 204.343,271.024 202,280.5C 200.073,285.428 196.573,288.594 191.5,290C 173.5,290.667 155.5,290.667 137.5,290C 126.553,284.832 123.72,276.665 129,265.5C 131.114,262.879 133.614,260.879 136.5,259.5 Z"/></g>
<g><path style="opacity:0.971" fill="#ec508e" d="M 227.5,259.5 C 246.17,259.333 264.836,259.5 283.5,260C 292.177,264.19 295.343,271.024 293,280.5C 291.073,285.428 287.573,288.594 282.5,290C 264.5,290.667 246.5,290.667 228.5,290C 217.255,284.932 214.421,276.766 220,265.5C 222.114,262.879 224.614,260.879 227.5,259.5 Z"/></g>
<g><path style="opacity:0.972" fill="#ec4f8e" d="M 318.5,259.5 C 337.17,259.333 355.836,259.5 374.5,260C 382.871,263.909 386.037,270.409 384,279.5C 382.5,285 379,288.5 373.5,290C 355.5,290.667 337.5,290.667 319.5,290C 311.995,287.827 308.329,282.827 308.5,275C 308.452,267.583 311.786,262.417 318.5,259.5 Z"/></g>
<g><path style="opacity:0.968" fill="#ec508e" d="M 409.5,259.5 C 421.505,259.333 433.505,259.5 445.5,260C 454.814,264.931 457.647,272.431 454,282.5C 451.913,286.302 448.746,288.802 444.5,290C 433.167,290.667 421.833,290.667 410.5,290C 399.723,285.276 396.556,277.442 401,266.5C 403.441,263.546 406.275,261.213 409.5,259.5 Z"/></g>
<g><path style="opacity:0.992" fill="#2b74f9" d="M 104.5,307.5 C 112.542,305.803 119.042,308.136 124,314.5C 125.038,341.135 126.038,367.802 127,394.5C 129.404,403.237 134.904,409.071 143.5,412C 182.621,413.155 221.788,413.655 261,413.5C 298.833,413.333 336.667,413.167 374.5,413C 385.333,410.167 392.167,403.333 395,392.5C 395.333,369.167 395.667,345.833 396,322.5C 400.56,311.396 408.394,308.229 419.5,313C 422.433,315.264 424.6,318.098 426,321.5C 426.667,346.5 426.667,371.5 426,396.5C 420.833,423 405,438.833 378.5,444C 299.833,444.667 221.167,444.667 142.5,444C 118.3,438.8 102.8,424.3 96,400.5C 94.3872,373.535 94.0538,346.535 95,319.5C 96.1937,313.819 99.3604,309.819 104.5,307.5 Z"/></g>
</svg>
