<?xml version="1.0" encoding="UTF-8"?>
<!DOCTYPE svg PUBLIC "-//W3C//DTD SVG 1.1//EN" "http://www.w3.org/Graphics/SVG/1.1/DTD/svg11.dtd">
<svg xmlns="http://www.w3.org/2000/svg" version="1.1" width="512px" height="512px" style="shape-rendering:geometricPrecision; text-rendering:geometricPrecision; image-rendering:optimizeQuality; fill-rule:evenodd; clip-rule:evenodd" xmlns:xlink="http://www.w3.org/1999/xlink">
<g><path style="opacity:0.994" fill="#93e267" d="M 274.5,-0.5 C 276.167,-0.5 277.833,-0.5 279.5,-0.5C 343.479,5.00367 394.312,33.6703 432,85.5C 464.534,131.94 480.7,183.607 480.5,240.5C 412.166,240.667 343.833,240.5 275.5,240C 274.069,239.535 272.903,238.701 272,237.5C 270.339,159.915 270.006,82.2482 271,4.5C 271.997,2.67694 273.164,1.01027 274.5,-0.5 Z"/></g>
<g><path style="opacity:0.983" fill="#61ce5b" d="M 279.5,-0.5 C 284.5,-0.5 289.5,-0.5 294.5,-0.5C 385.012,11.8229 450.512,58.8229 491,140.5C 501.609,164.945 508.442,190.278 511.5,216.5C 511.5,223.167 511.5,229.833 511.5,236.5C 509.99,237.836 508.323,239.003 506.5,240C 497.84,240.5 489.173,240.666 480.5,240.5C 480.7,183.607 464.534,131.94 432,85.5C 394.312,33.6703 343.479,5.00367 279.5,-0.5 Z"/></g>
<g><path style="opacity:0.997" fill="#14cefe" d="M 236.5,274.5 C 163.089,244.955 90.0886,214.622 17.5,183.5C 45.5919,118.576 92.9253,74.0759 159.5,50C 182.878,42.1237 206.878,38.1237 231.5,38C 233.667,38.8333 235.167,40.3333 236,42.5C 236.5,119.833 236.667,197.166 236.5,274.5 Z"/></g>
<g><path style="opacity:0.997" fill="#3b87f4" d="M 17.5,183.5 C 90.0886,214.622 163.089,244.955 236.5,274.5C 180.806,330.86 124.806,386.86 68.5,442.5C 28.6421,401.986 5.64208,353.32 -0.5,296.5C -0.5,282.167 -0.5,267.833 -0.5,253.5C 2.05175,229.293 8.05175,205.96 17.5,183.5 Z"/></g>
<g><path style="opacity:0.998" fill="#9154e2" d="M 236.5,274.5 C 304.833,274.5 373.167,274.5 441.5,274.5C 441.527,348.916 414.861,411.749 361.5,463C 331.692,488.569 297.359,504.403 258.5,510.5C 257.833,510.5 257.5,510.833 257.5,511.5C 243.167,511.5 228.833,511.5 214.5,511.5C 157.779,505.135 109.112,482.135 68.5,442.5C 124.806,386.86 180.806,330.86 236.5,274.5 Z"/></g>
<g><path style="opacity:0.977" fill="#793bcc" d="M 441.5,274.5 C 450.506,274.334 459.506,274.5 468.5,275C 472.235,276.8 473.902,279.8 473.5,284C 467.015,372.025 426.015,438.358 350.5,483C 321.736,498.533 291.069,507.699 258.5,510.5C 297.359,504.403 331.692,488.569 361.5,463C 414.861,411.749 441.527,348.916 441.5,274.5 Z"/></g>
</svg>
