<?xml version="1.0" encoding="UTF-8"?>
<!DOCTYPE svg PUBLIC "-//W3C//DTD SVG 1.1//EN" "http://www.w3.org/Graphics/SVG/1.1/DTD/svg11.dtd">
<svg xmlns="http://www.w3.org/2000/svg" version="1.1" width="50px" height="50px" style="shape-rendering:geometricPrecision; text-rendering:geometricPrecision; image-rendering:optimizeQuality; fill-rule:evenodd; clip-rule:evenodd" xmlns:xlink="http://www.w3.org/1999/xlink">
<g><path style="opacity:0.989" fill="#fa5251" d="M 3.5,3.5 C 5.02449,4.17376 6.35782,5.17376 7.5,6.5C 11.4233,4.14669 15.4233,3.98003 19.5,6C 22.4628,7.96064 25.1294,10.294 27.5,13C 30.6057,13.8438 33.439,13.3438 36,11.5C 40.3752,18.2972 43.3752,25.6305 45,33.5C 42.0828,35.3933 38.9162,35.8933 35.5,35C 32.1134,31.9465 28.4467,29.2798 24.5,27C 22.0871,26.5162 19.7538,26.8495 17.5,28C 16.9781,28.5613 16.6448,29.228 16.5,30C 18.3619,34.8905 20.3619,39.7238 22.5,44.5C 21.9984,45.521 21.3317,45.6877 20.5,45C 14.1323,31.4344 8.46568,17.601 3.5,3.5 Z"/></g>
</svg>
