<?xml version="1.0" encoding="UTF-8"?>
<!DOCTYPE svg PUBLIC "-//W3C//DTD SVG 1.1//EN" "http://www.w3.org/Graphics/SVG/1.1/DTD/svg11.dtd">
<svg xmlns="http://www.w3.org/2000/svg" version="1.1" width="24px" height="24px" style="shape-rendering:geometricPrecision; text-rendering:geometricPrecision; image-rendering:optimizeQuality; fill-rule:evenodd; clip-rule:evenodd" xmlns:xlink="http://www.w3.org/1999/xlink">
<g><path style="opacity:0.938" fill="#607c8b" d="M 2.5,1.5 C 4.60395,1.2011 6.60395,1.53443 8.5,2.5C 6.02867,6.6108 6.02867,10.7775 8.5,15C 14.6562,16.5127 17.3228,14.0127 16.5,7.5C 16.2837,5.61611 15.617,3.94944 14.5,2.5C 16.5,1.16667 18.5,1.16667 20.5,2.5C 18.8153,6.59747 17.982,10.9308 18,15.5C 13.6667,19.5 9.33333,19.5 5,15.5C 4.90951,10.6177 4.07617,5.95104 2.5,1.5 Z"/></g>
<g><path style="opacity:0.977" fill="#2095f3" d="M 3.5,19.5 C 8.8746,19.1718 14.2079,19.5052 19.5,20.5C 16.8333,20.8333 14.1667,21.1667 11.5,21.5C 8.40984,21.4783 5.74317,20.8117 3.5,19.5 Z"/></g>
</svg>
