<?xml version="1.0" encoding="UTF-8"?>
<!DOCTYPE svg PUBLIC "-//W3C//DTD SVG 1.1//EN" "http://www.w3.org/Graphics/SVG/1.1/DTD/svg11.dtd">
<svg xmlns="http://www.w3.org/2000/svg" version="1.1" width="512px" height="512px" style="shape-rendering:geometricPrecision; text-rendering:geometricPrecision; image-rendering:optimizeQuality; fill-rule:evenodd; clip-rule:evenodd" xmlns:xlink="http://www.w3.org/1999/xlink">
<g><path style="opacity:0.989" fill="#d72b5c" d="M 13.5,248.5 C 13.5,253.167 13.5,257.833 13.5,262.5C 13.5,339.5 13.5,416.5 13.5,493.5C 169.167,493.5 324.833,493.5 480.5,493.5C 480.333,421.833 480.5,350.166 481,278.5C 484,274.5 487,274.5 490,278.5C 490.5,350.166 490.667,421.833 490.5,493.5C 496.842,493.334 503.175,493.5 509.5,494C 510.044,494.717 510.711,495.217 511.5,495.5C 511.5,498.833 511.5,502.167 511.5,505.5C 510.118,506.801 508.452,507.634 506.5,508C 339.5,508.667 172.5,508.667 5.5,508C 3.11327,507.436 1.11327,506.27 -0.5,504.5C -0.5,338.5 -0.5,172.5 -0.5,6.5C 4.02198,1.31573 8.52198,1.31573 13,6.5C 13.5,87.166 13.6667,167.833 13.5,248.5 Z"/></g>
<g><path style="opacity:0.996" fill="#7ca3c2" d="M 13.5,262.5 C 13.5,257.833 13.5,253.167 13.5,248.5C 34.7345,232.767 53.5679,214.434 70,193.5C 76.0105,185.487 81.0105,176.82 85,167.5C 93.0609,145.985 100.728,124.318 108,102.5C 111.833,89.9906 118.333,79.1573 127.5,70C 135.316,65.272 143.649,64.272 152.5,67C 159.948,70.7816 165.782,76.2816 170,83.5C 179.647,101.44 186.314,120.44 190,140.5C 193.296,161.578 196.963,182.578 201,203.5C 203.127,212.276 207.627,219.443 214.5,225C 223.829,227.604 231.662,225.104 238,217.5C 243.665,210.844 248.332,203.51 252,195.5C 256.061,185.318 259.728,174.985 263,164.5C 267.483,152.696 274.316,142.53 283.5,134C 293.433,126.488 303.1,126.822 312.5,135C 316.036,139.237 319.202,143.737 322,148.5C 329.863,169.089 337.53,189.756 345,210.5C 348.7,219.409 353.533,227.576 359.5,235C 365.472,239.721 371.805,240.388 378.5,237C 383.083,233.088 386.917,228.588 390,223.5C 395.413,213.006 401.079,202.673 407,192.5C 416.08,182.944 424.08,183.944 431,195.5C 435.496,204.159 439.163,213.159 442,222.5C 446.735,232.895 453.901,241.062 463.5,247C 470.515,250.675 477.848,253.508 485.5,255.5C 467.405,258.801 453.571,268.134 444,283.5C 440.28,296.268 434.947,308.268 428,319.5C 420.701,326.395 413.701,326.061 407,318.5C 401.079,308.327 395.413,297.994 390,287.5C 386.917,282.412 383.083,277.912 378.5,274C 371.772,270.436 365.439,271.102 359.5,276C 353.533,283.424 348.7,291.591 345,300.5C 338.742,316.273 333.075,332.273 328,348.5C 324.222,359.901 318.056,369.734 309.5,378C 300.648,384.086 291.981,383.753 283.5,377C 274.316,368.47 267.483,358.304 263,346.5C 258.503,329.321 251.503,313.321 242,298.5C 237.756,293.585 232.923,289.419 227.5,286C 218.627,282.957 211.793,285.457 207,293.5C 203.885,298.844 201.552,304.511 200,310.5C 196.497,331.858 192.83,353.191 189,374.5C 185.58,392.427 179.58,409.427 171,425.5C 166.833,433.667 160.667,439.833 152.5,444C 139.706,448.29 129.206,445.123 121,434.5C 115.612,426.391 111.279,417.724 108,408.5C 100.728,386.682 93.0609,365.015 85,343.5C 78.2488,328.325 69.2488,314.658 58,302.5C 44.4689,287.456 29.6356,274.122 13.5,262.5 Z"/></g>
<g><path style="opacity:1" fill="#f2f0f1" d="M 51.5,251.5 C 181.167,251.333 310.834,251.5 440.5,252C 442.725,254.025 443.059,256.358 441.5,259C 311.167,259.667 180.833,259.667 50.5,259C 49.046,256.216 49.3794,253.716 51.5,251.5 Z"/></g>
</svg>
