<?xml version="1.0" encoding="UTF-8"?>
<!DOCTYPE svg PUBLIC "-//W3C//DTD SVG 1.1//EN" "http://www.w3.org/Graphics/SVG/1.1/DTD/svg11.dtd">
<svg xmlns="http://www.w3.org/2000/svg" version="1.1" width="225px" height="225px" style="shape-rendering:geometricPrecision; text-rendering:geometricPrecision; image-rendering:optimizeQuality; fill-rule:evenodd; clip-rule:evenodd" xmlns:xlink="http://www.w3.org/1999/xlink">
<g><path style="opacity:1" fill="#fefefe" d="M -0.5,-0.5 C 74.5,-0.5 149.5,-0.5 224.5,-0.5C 224.5,74.5 224.5,149.5 224.5,224.5C 149.5,224.5 74.5,224.5 -0.5,224.5C -0.5,149.5 -0.5,74.5 -0.5,-0.5 Z"/></g>
<g><path style="opacity:1" fill="#e8f97a" d="M 81.5,16.5 C 123.406,16.1699 165.239,16.5032 207,17.5C 207.667,59.1667 207.667,100.833 207,142.5C 206.282,143.451 205.449,143.617 204.5,143C 192.833,131.333 181.167,119.667 169.5,108C 168.5,107.333 167.5,107.333 166.5,108C 133.627,141.207 100.46,174.04 67,206.5C 49.8333,190.667 33.3333,174.167 17.5,157C 49.9596,123.54 82.793,90.3733 116,57.5C 116.667,56.5 116.667,55.5 116,54.5C 104.333,42.8333 92.6667,31.1667 81,19.5C 80.5304,18.4232 80.6971,17.4232 81.5,16.5 Z"/></g>
<g><path style="opacity:1" fill="#edf850" d="M 203.5,20.5 C 164.663,20.1681 125.996,20.5015 87.5,21.5C 86.9569,21.44 86.6236,21.1067 86.5,20.5C 125.665,19.1695 164.665,19.1695 203.5,20.5 Z"/></g>
<g><path style="opacity:1" fill="#f8f547" d="M 203.5,20.5 C 203.832,59.3369 203.499,98.0036 202.5,136.5C 191.368,125.869 180.368,115.035 169.5,104C 168.5,103.333 167.5,103.333 166.5,104C 133.833,136.667 101.167,169.333 68.5,202C 67.5,202.667 66.5,202.667 65.5,202C 50.7706,186.988 36.1039,171.988 21.5,157C 54.4815,123.018 87.8149,89.3516 121.5,56C 109.987,44.6534 98.6532,33.1534 87.5,21.5C 125.996,20.5015 164.663,20.1681 203.5,20.5 Z"/></g>
<g><path style="opacity:1" fill="#f0fd3a" d="M 203.5,20.5 C 204.831,59.3354 204.831,98.3354 203.5,137.5C 202.893,137.376 202.56,137.043 202.5,136.5C 203.499,98.0036 203.832,59.3369 203.5,20.5 Z"/></g>
</svg>
