<?xml version="1.0" encoding="UTF-8"?>
<!DOCTYPE svg PUBLIC "-//W3C//DTD SVG 1.1//EN" "http://www.w3.org/Graphics/SVG/1.1/DTD/svg11.dtd">
<svg xmlns="http://www.w3.org/2000/svg" version="1.1" width="100px" height="106px" style="shape-rendering:geometricPrecision; text-rendering:geometricPrecision; image-rendering:optimizeQuality; fill-rule:evenodd; clip-rule:evenodd" xmlns:xlink="http://www.w3.org/1999/xlink">
<g><path style="opacity:1" fill="#e9e9e9" d="M -0.5,-0.5 C 4.16667,-0.5 8.83333,-0.5 13.5,-0.5C 5.62724,0.372531 0.960576,4.70586 -0.5,12.5C -0.5,8.16667 -0.5,3.83333 -0.5,-0.5 Z"/></g>
<g><path style="opacity:1" fill="#282827" d="M 13.5,-0.5 C 37.1667,-0.5 60.8333,-0.5 84.5,-0.5C 88.172,0.240816 91.8387,1.40748 95.5,3C 97.4506,4.73423 98.4506,6.9009 98.5,9.5C 97.4261,24.6761 96.4261,40.0095 95.5,55.5C 92.2893,55.012 89.456,55.6787 87,57.5C 86.6667,52.5 86.3333,47.5 86,42.5C 85.7508,41.376 85.2508,40.376 84.5,39.5C 84.1667,39.8333 83.8333,40.1667 83.5,40.5C 85.292,46.0457 85.792,51.7124 85,57.5C 84.7923,53.0823 84.1256,48.749 83,44.5C 82.5172,45.448 82.3505,46.448 82.5,47.5C 81.3979,43.5271 80.0646,39.5271 78.5,35.5C 78.6567,34.1266 78.49,32.7932 78,31.5C 75.4697,28.9367 73.303,26.1033 71.5,23C 67.6123,19.8051 63.279,17.6384 58.5,16.5C 56.1103,14.5928 53.277,13.5928 50,13.5C 40.0396,14.2568 31.7063,18.2568 25,25.5C 23.7978,27.6775 23.2978,30.0108 23.5,32.5C 17.7137,41.1231 16.047,50.4565 18.5,60.5C 18.5,61.5 18.5,62.5 18.5,63.5C 17.0337,64.347 16.2004,65.6803 16,67.5C 15.8333,66.5 15.6667,65.5 15.5,64.5C 16.5476,57.8564 16.7143,51.1897 16,44.5C 15.5014,48.1516 15.3347,51.8183 15.5,55.5C 12.1667,55.5 8.83333,55.5 5.5,55.5C 3.03696,42.3006 1.53696,28.9673 1,15.5C 0.617425,14.944 0.117425,14.6107 -0.5,14.5C -0.5,13.8333 -0.5,13.1667 -0.5,12.5C 0.960576,4.70586 5.62724,0.372531 13.5,-0.5 Z"/></g>
<g><path style="opacity:1" fill="#eeeeee" d="M 84.5,-0.5 C 89.5,-0.5 94.5,-0.5 99.5,-0.5C 99.5,2.83333 99.5,6.16667 99.5,9.5C 99.1667,9.5 98.8333,9.5 98.5,9.5C 98.4506,6.9009 97.4506,4.73423 95.5,3C 91.8387,1.40748 88.172,0.240816 84.5,-0.5 Z"/></g>
<g><path style="opacity:1" fill="#232323" d="M 98.5,9.5 C 98.8333,9.5 99.1667,9.5 99.5,9.5C 99.5,37.5 99.5,65.5 99.5,93.5C 98.5132,100.487 94.5132,104.487 87.5,105.5C 62.1667,105.5 36.8333,105.5 11.5,105.5C 4.23918,103.653 0.239176,98.9866 -0.5,91.5C -0.5,65.8333 -0.5,40.1667 -0.5,14.5C 0.117425,14.6107 0.617425,14.944 1,15.5C 1.53696,28.9673 3.03696,42.3006 5.5,55.5C 8.83333,55.5 12.1667,55.5 15.5,55.5C 15.3347,51.8183 15.5014,48.1516 16,44.5C 16.7143,51.1897 16.5476,57.8564 15.5,64.5C 15.6667,65.5 15.8333,66.5 16,67.5C 16.2004,65.6803 17.0337,64.347 18.5,63.5C 19.6737,64.5137 20.3404,65.847 20.5,67.5C 19.2502,67.4226 18.4169,66.756 18,65.5C 17.3333,67.1667 17.3333,68.8333 18,70.5C 19.2226,75.5015 21.2226,80.1682 24,84.5C 28.0271,87.6937 32.1938,90.6937 36.5,93.5C 37.707,98.0788 40.707,100.245 45.5,100C 51.2367,100.789 56.9034,100.456 62.5,99C 63.3366,97.9887 63.67,96.8221 63.5,95.5C 66.5372,95.5523 69.2039,94.5523 71.5,92.5C 74.075,89.681 76.4083,86.681 78.5,83.5C 80.5,79.1667 82.5,74.8333 84.5,70.5C 81.9422,68.8799 81.9422,67.3799 84.5,66C 82.8034,65.6155 81.1368,65.7822 79.5,66.5C 79.5,65.5 79.5,64.5 79.5,63.5C 80.5375,62.0697 81.2041,60.403 81.5,58.5C 82.4816,55.0381 82.815,51.3714 82.5,47.5C 82.3505,46.448 82.5172,45.448 83,44.5C 84.1256,48.749 84.7923,53.0823 85,57.5C 85.792,51.7124 85.292,46.0457 83.5,40.5C 83.8333,40.1667 84.1667,39.8333 84.5,39.5C 85.2508,40.376 85.7508,41.376 86,42.5C 86.3333,47.5 86.6667,52.5 87,57.5C 89.456,55.6787 92.2893,55.012 95.5,55.5C 96.4261,40.0095 97.4261,24.6761 98.5,9.5 Z"/></g>
<g><path style="opacity:1" fill="#382e05" d="M 58.5,16.5 C 63.279,17.6384 67.6123,19.8051 71.5,23C 73.303,26.1033 75.4697,28.9367 78,31.5C 78.49,32.7932 78.6567,34.1266 78.5,35.5C 66.6849,21.5296 52.0182,17.5296 34.5,23.5C 33.2935,22.1196 33.6269,20.9529 35.5,20C 37.7173,18.7246 40.0506,17.7246 42.5,17C 47.8229,16.5006 53.1563,16.334 58.5,16.5 Z"/></g>
<g><path style="opacity:1" fill="#2a250a" d="M 58.5,16.5 C 53.1563,16.334 47.8229,16.5006 42.5,17C 40.0506,17.7246 37.7173,18.7246 35.5,20C 33.6269,20.9529 33.2935,22.1196 34.5,23.5C 30.5428,26.1218 26.8761,29.1218 23.5,32.5C 23.2978,30.0108 23.7978,27.6775 25,25.5C 31.7063,18.2568 40.0396,14.2568 50,13.5C 53.277,13.5928 56.1103,14.5928 58.5,16.5 Z"/></g>
<g><path style="opacity:1" fill="#ad7f07" d="M 78.5,35.5 C 80.0646,39.5271 81.3979,43.5271 82.5,47.5C 82.815,51.3714 82.4816,55.0381 81.5,58.5C 81.1667,56.5 80.8333,54.5 80.5,52.5C 78.7829,33.9498 68.6162,23.9498 50,22.5C 31.0682,23.5631 20.5682,33.5631 18.5,52.5C 18.5,54.1667 18.5,55.8333 18.5,57.5C 18.5,58.5 18.5,59.5 18.5,60.5C 16.047,50.4565 17.7137,41.1231 23.5,32.5C 26.8761,29.1218 30.5428,26.1218 34.5,23.5C 52.0182,17.5296 66.6849,21.5296 78.5,35.5 Z"/></g>
<g><path style="opacity:1" fill="#b96e02" d="M 80.5,52.5 C 78.6213,48.6122 75.9546,45.2789 72.5,42.5C 71.4563,40.1571 69.7897,38.4905 67.5,37.5C 66.6993,35.9582 66.366,34.2915 66.5,32.5C 65.5,32.5 64.5,32.5 63.5,32.5C 63.5,31.5 63.5,30.5 63.5,29.5C 55.6102,27.3301 47.6102,26.9968 39.5,28.5C 38.9285,30.36 38.9285,32.0267 39.5,33.5C 37.5659,34.1103 35.8993,35.1103 34.5,36.5C 30.9485,38.1108 27.9485,40.4442 25.5,43.5C 22.925,46.319 20.5917,49.319 18.5,52.5C 20.5682,33.5631 31.0682,23.5631 50,22.5C 68.6162,23.9498 78.7829,33.9498 80.5,52.5 Z"/></g>
<g><path style="opacity:1" fill="#ba8001" d="M 67.5,37.5 C 58.6726,32.6785 49.3392,31.3452 39.5,33.5C 38.9285,32.0267 38.9285,30.36 39.5,28.5C 47.6102,26.9968 55.6102,27.3301 63.5,29.5C 63.5,30.5 63.5,31.5 63.5,32.5C 64.5,32.5 65.5,32.5 66.5,32.5C 66.366,34.2915 66.6993,35.9582 67.5,37.5 Z"/></g>
<g><path style="opacity:1" fill="#faac04" d="M 34.5,36.5 C 34.2076,40.5644 33.2076,44.3977 31.5,48C 31.9172,50.4979 32.2505,52.9979 32.5,55.5C 30.0194,55.3234 28.1861,56.3234 27,58.5C 25.9207,61.0627 25.4207,63.7294 25.5,66.5C 25.7959,68.403 26.4625,70.0697 27.5,71.5C 27.5,72.1667 27.5,72.8333 27.5,73.5C 26.609,72.8902 25.609,72.5569 24.5,72.5C 22.9373,71.0552 21.604,69.3885 20.5,67.5C 20.3404,65.847 19.6737,64.5137 18.5,63.5C 18.5,62.5 18.5,61.5 18.5,60.5C 18.5,59.5 18.5,58.5 18.5,57.5C 19.8171,60.833 21.3171,64.1663 23,67.5C 24.4288,62.2152 25.9288,56.8819 27.5,51.5C 27.4095,48.664 26.7429,45.9973 25.5,43.5C 27.9485,40.4442 30.9485,38.1108 34.5,36.5 Z"/></g>
<g><path style="opacity:1" fill="#fbbc04" d="M 67.5,37.5 C 69.7897,38.4905 71.4563,40.1571 72.5,42.5C 72.4142,43.4959 72.7476,44.3292 73.5,45C 70.8333,46 70.8333,47 73.5,48C 72.0564,49.126 71.3898,50.626 71.5,52.5C 72.9748,55.949 74.3081,59.449 75.5,63C 75.3948,64.5915 75.0614,66.0915 74.5,67.5C 70.9335,66.9112 67.2668,66.9112 63.5,67.5C 62.5641,65.061 63.5641,63.3943 66.5,62.5C 64.2623,60.7415 63.2623,58.4082 63.5,55.5C 62.5,55.5 61.5,55.5 60.5,55.5C 60.162,52.8431 60.8287,50.5098 62.5,48.5C 61.9108,44.5335 60.5775,40.8668 58.5,37.5C 54.2989,37.1285 50.2989,36.1285 46.5,34.5C 44.8986,35.2042 43.5652,36.3708 42.5,38C 41.552,38.4828 40.552,38.6495 39.5,38.5C 39.7309,44.3338 39.7309,50.0005 39.5,55.5C 38.5,55.5 37.5,55.5 36.5,55.5C 36.1667,58.1667 35.8333,60.8333 35.5,63.5C 34.1667,63.5 32.8333,63.5 31.5,63.5C 31.5,64.5 31.5,65.5 31.5,66.5C 29.7411,66.9539 27.7411,66.9539 25.5,66.5C 25.4207,63.7294 25.9207,61.0627 27,58.5C 28.1861,56.3234 30.0194,55.3234 32.5,55.5C 32.2505,52.9979 31.9172,50.4979 31.5,48C 33.2076,44.3977 34.2076,40.5644 34.5,36.5C 35.8993,35.1103 37.5659,34.1103 39.5,33.5C 49.3392,31.3452 58.6726,32.6785 67.5,37.5 Z"/></g>
<g><path style="opacity:1" fill="#fb9b03" d="M 72.5,42.5 C 75.9546,45.2789 78.6213,48.6122 80.5,52.5C 80.8333,54.5 81.1667,56.5 81.5,58.5C 81.2041,60.403 80.5375,62.0697 79.5,63.5C 77.8583,66.1025 76.1916,68.7692 74.5,71.5C 73.7435,72.7733 73.0768,72.7733 72.5,71.5C 73.1667,70.1667 73.8333,68.8333 74.5,67.5C 75.0614,66.0915 75.3948,64.5915 75.5,63C 74.3081,59.449 72.9748,55.949 71.5,52.5C 71.3898,50.626 72.0564,49.126 73.5,48C 70.8333,47 70.8333,46 73.5,45C 72.7476,44.3292 72.4142,43.4959 72.5,42.5 Z"/></g>
<g><path style="opacity:1" fill="#fa9603" d="M 25.5,43.5 C 26.7429,45.9973 27.4095,48.664 27.5,51.5C 25.9288,56.8819 24.4288,62.2152 23,67.5C 21.3171,64.1663 19.8171,60.833 18.5,57.5C 18.5,55.8333 18.5,54.1667 18.5,52.5C 20.5917,49.319 22.925,46.319 25.5,43.5 Z"/></g>
<g><path style="opacity:1" fill="#fcd010" d="M 63.5,67.5 C 52.8018,67.7369 42.1351,67.4036 31.5,66.5C 31.5,65.5 31.5,64.5 31.5,63.5C 32.8333,63.5 34.1667,63.5 35.5,63.5C 35.8333,60.8333 36.1667,58.1667 36.5,55.5C 37.5,55.5 38.5,55.5 39.5,55.5C 39.7309,50.0005 39.7309,44.3338 39.5,38.5C 40.552,38.6495 41.552,38.4828 42.5,38C 43.5652,36.3708 44.8986,35.2042 46.5,34.5C 50.2989,36.1285 54.2989,37.1285 58.5,37.5C 60.5775,40.8668 61.9108,44.5335 62.5,48.5C 60.8287,50.5098 60.162,52.8431 60.5,55.5C 61.5,55.5 62.5,55.5 63.5,55.5C 63.2623,58.4082 64.2623,60.7415 66.5,62.5C 63.5641,63.3943 62.5641,65.061 63.5,67.5 Z"/></g>
<g><path style="opacity:1" fill="#fbe24f" d="M 55.5,42.5 C 59.1396,44.1019 59.4729,46.4352 56.5,49.5C 51.9692,50.8106 47.4692,50.8106 43,49.5C 42.1791,41.6682 45.6791,38.8349 53.5,41C 54.4158,41.2784 55.0825,41.7784 55.5,42.5 Z"/></g>
<g><path style="opacity:1" fill="#fbeb80" d="M 55.5,42.5 C 55.9167,45.0792 55.25,47.2458 53.5,49C 50.0074,50.0037 46.8408,49.5037 44,47.5C 43.2888,45.6332 43.7888,44.1332 45.5,43C 48.8168,42.5017 52.1501,42.335 55.5,42.5 Z"/></g>
<g><path style="opacity:1" fill="#fcf6c8" d="M 47.5,43.5 C 49.1667,43.5 50.8333,43.5 52.5,43.5C 52.5,44.8333 52.5,46.1667 52.5,47.5C 50.8333,47.5 49.1667,47.5 47.5,47.5C 47.5,46.1667 47.5,44.8333 47.5,43.5 Z"/></g>
<g><path style="opacity:1" fill="#151414" d="M 20.5,67.5 C 21.604,69.3885 22.9373,71.0552 24.5,72.5C 32.0494,82.9736 42.3827,87.1402 55.5,85C 66.6123,82.7048 74.6123,76.5381 79.5,66.5C 81.1368,65.7822 82.8034,65.6155 84.5,66C 81.9422,67.3799 81.9422,68.8799 84.5,70.5C 82.5,74.8333 80.5,79.1667 78.5,83.5C 76.4083,86.681 74.075,89.681 71.5,92.5C 69.2039,94.5523 66.5372,95.5523 63.5,95.5C 63.67,96.8221 63.3366,97.9887 62.5,99C 56.9034,100.456 51.2367,100.789 45.5,100C 40.707,100.245 37.707,98.0788 36.5,93.5C 32.1938,90.6937 28.0271,87.6937 24,84.5C 21.2226,80.1682 19.2226,75.5015 18,70.5C 17.3333,68.8333 17.3333,67.1667 18,65.5C 18.4169,66.756 19.2502,67.4226 20.5,67.5 Z"/></g>
<g><path style="opacity:1" fill="#fed34a" d="M 25.5,66.5 C 27.7411,66.9539 29.7411,66.9539 31.5,66.5C 42.1351,67.4036 52.8018,67.7369 63.5,67.5C 67.2668,66.9112 70.9335,66.9112 74.5,67.5C 73.8333,68.8333 73.1667,70.1667 72.5,71.5C 71.8333,72.1667 71.1667,72.8333 70.5,73.5C 69.7095,72.5987 68.7095,71.9321 67.5,71.5C 66.7611,71.369 66.0944,71.5357 65.5,72C 66.6956,72.6543 66.6956,73.1543 65.5,73.5C 53.8143,71.8228 41.981,70.8228 30,70.5C 29.0979,70.7432 28.2646,71.0766 27.5,71.5C 26.4625,70.0697 25.7959,68.403 25.5,66.5 Z"/></g>
<g><path style="opacity:1" fill="#fdda69" d="M 67.5,71.5 C 69.0337,73.3421 68.7003,74.6754 66.5,75.5C 57.1667,74.8333 47.8333,74.1667 38.5,73.5C 35.2623,75.0954 32.2623,74.7621 29.5,72.5C 28.8933,72.6236 28.56,72.9569 28.5,73.5C 28.1667,73.5 27.8333,73.5 27.5,73.5C 27.5,72.8333 27.5,72.1667 27.5,71.5C 28.2646,71.0766 29.0979,70.7432 30,70.5C 41.981,70.8228 53.8143,71.8228 65.5,73.5C 66.6956,73.1543 66.6956,72.6543 65.5,72C 66.0944,71.5357 66.7611,71.369 67.5,71.5 Z"/></g>
<g><path style="opacity:1" fill="#fde090" d="M 67.5,71.5 C 68.7095,71.9321 69.7095,72.5987 70.5,73.5C 68.8333,75.8333 66.8333,77.8333 64.5,79.5C 56.0983,78.1721 47.5983,78.1721 39,79.5C 37.6243,76.8753 36.4577,76.8753 35.5,79.5C 32.6313,78.1934 30.298,76.1934 28.5,73.5C 28.56,72.9569 28.8933,72.6236 29.5,72.5C 32.2623,74.7621 35.2623,75.0954 38.5,73.5C 47.8333,74.1667 57.1667,74.8333 66.5,75.5C 68.7003,74.6754 69.0337,73.3421 67.5,71.5 Z"/></g>
<g><path style="opacity:1" fill="#e3b21b" d="M 79.5,63.5 C 79.5,64.5 79.5,65.5 79.5,66.5C 74.6123,76.5381 66.6123,82.7048 55.5,85C 42.3827,87.1402 32.0494,82.9736 24.5,72.5C 25.609,72.5569 26.609,72.8902 27.5,73.5C 27.8333,73.5 28.1667,73.5 28.5,73.5C 30.298,76.1934 32.6313,78.1934 35.5,79.5C 45.1405,83.4615 54.8071,83.4615 64.5,79.5C 66.8333,77.8333 68.8333,75.8333 70.5,73.5C 71.1667,72.8333 71.8333,72.1667 72.5,71.5C 73.0768,72.7733 73.7435,72.7733 74.5,71.5C 76.1916,68.7692 77.8583,66.1025 79.5,63.5 Z"/></g>
<g><path style="opacity:1" fill="#fdeab8" d="M 64.5,79.5 C 54.8071,83.4615 45.1405,83.4615 35.5,79.5C 36.4577,76.8753 37.6243,76.8753 39,79.5C 47.5983,78.1721 56.0983,78.1721 64.5,79.5 Z"/></g>
<g><path style="opacity:1" fill="#ececec" d="M -0.5,91.5 C 0.239176,98.9866 4.23918,103.653 11.5,105.5C 7.5,105.5 3.5,105.5 -0.5,105.5C -0.5,100.833 -0.5,96.1667 -0.5,91.5 Z"/></g>
<g><path style="opacity:1" fill="#efefef" d="M 99.5,93.5 C 99.5,97.5 99.5,101.5 99.5,105.5C 95.5,105.5 91.5,105.5 87.5,105.5C 94.5132,104.487 98.5132,100.487 99.5,93.5 Z"/></g>
</svg>
