<?xml version="1.0" encoding="UTF-8"?>
<!DOCTYPE svg PUBLIC "-//W3C//DTD SVG 1.1//EN" "http://www.w3.org/Graphics/SVG/1.1/DTD/svg11.dtd">
<svg xmlns="http://www.w3.org/2000/svg" version="1.1" width="225px" height="225px" style="shape-rendering:geometricPrecision; text-rendering:geometricPrecision; image-rendering:optimizeQuality; fill-rule:evenodd; clip-rule:evenodd" xmlns:xlink="http://www.w3.org/1999/xlink">
<g><path style="opacity:1" fill="#fefefe" d="M -0.5,-0.5 C 74.5,-0.5 149.5,-0.5 224.5,-0.5C 224.5,74.5 224.5,149.5 224.5,224.5C 149.5,224.5 74.5,224.5 -0.5,224.5C -0.5,149.5 -0.5,74.5 -0.5,-0.5 Z"/></g>
<g><path style="opacity:1" fill="#e4fc6e" d="M 72.5,27.5 C 73.552,27.3505 74.552,27.5172 75.5,28C 102,54.5 128.5,81 155,107.5C 167.167,95.3333 179.333,83.1667 191.5,71C 193.112,70.2797 194.612,70.4464 196,71.5C 196.83,113.071 196.663,154.571 195.5,196C 153.929,196.83 112.429,196.663 71,195.5C 70.3333,194.167 70.3333,192.833 71,191.5C 83.1667,179.333 95.3333,167.167 107.5,155C 80.4594,128.293 53.7927,101.293 27.5,74C 42.3271,58.3395 57.3271,42.8395 72.5,27.5 Z"/></g>
<g><path style="opacity:1" fill="#f6f15d" d="M 189.5,80.5 C 190.498,116.996 190.832,153.663 190.5,190.5C 153.663,190.832 116.996,190.498 80.5,189.5C 92.2068,178.794 103.207,167.461 113.5,155.5C 113.333,154.833 113.167,154.167 113,153.5C 86.6528,127.32 60.4862,100.986 34.5,74.5C 47.3736,61.1269 60.3736,47.9602 73.5,35C 74.1667,34.3333 74.8333,34.3333 75.5,35C 101.5,61 127.5,87 153.5,113C 154.833,113.667 156.167,113.667 157.5,113C 168.369,102.298 179.035,91.4651 189.5,80.5 Z"/></g>
<g><path style="opacity:1" fill="#f6fb56" d="M 189.5,80.5 C 189.56,79.9569 189.893,79.6236 190.5,79.5C 191.5,116.827 191.833,154.161 191.5,191.5C 154.161,191.833 116.827,191.5 79.5,190.5C 79.6236,189.893 79.9569,189.56 80.5,189.5C 116.996,190.498 153.663,190.832 190.5,190.5C 190.832,153.663 190.498,116.996 189.5,80.5 Z"/></g>
</svg>
