<?xml version="1.0" encoding="UTF-8"?>
<!DOCTYPE svg PUBLIC "-//W3C//DTD SVG 1.1//EN" "http://www.w3.org/Graphics/SVG/1.1/DTD/svg11.dtd">
<svg xmlns="http://www.w3.org/2000/svg" version="1.1" width="67px" height="67px" style="shape-rendering:geometricPrecision; text-rendering:geometricPrecision; image-rendering:optimizeQuality; fill-rule:evenodd; clip-rule:evenodd" xmlns:xlink="http://www.w3.org/1999/xlink">
<g><path style="opacity:0.914" fill="#000000" d="M 6.5,1.5 C 18.8378,1.33346 31.1712,1.50012 43.5,2C 57.7764,5.66224 61.7764,14.1622 55.5,27.5C 54.0186,28.4803 52.6853,29.647 51.5,31C 58.1314,33.3947 61.4647,38.228 61.5,45.5C 61.3364,54.3434 57.003,59.8434 48.5,62C 34.5371,63.3421 20.5371,63.8421 6.5,63.5C 6.5,59.8333 6.5,56.1667 6.5,52.5C 8.5,52.5 10.5,52.5 12.5,52.5C 12.5,38.8333 12.5,25.1667 12.5,11.5C 10.5,11.5 8.5,11.5 6.5,11.5C 6.5,8.16667 6.5,4.83333 6.5,1.5 Z M 27.5,11.5 C 31.6049,11.2338 35.6049,11.7338 39.5,13C 44.9229,17.8071 44.5896,22.1404 38.5,26C 34.8484,26.4986 31.1817,26.6653 27.5,26.5C 27.5,21.5 27.5,16.5 27.5,11.5 Z M 27.5,36.5 C 31.8461,36.3343 36.1794,36.501 40.5,37C 45.48,39.8514 46.8133,44.0181 44.5,49.5C 43.3349,50.5836 42.0016,51.4169 40.5,52C 36.1794,52.499 31.8461,52.6657 27.5,52.5C 27.5,47.1667 27.5,41.8333 27.5,36.5 Z"/></g>
</svg>
