<?xml version="1.0" encoding="UTF-8"?>
<!DOCTYPE svg PUBLIC "-//W3C//DTD SVG 1.1//EN" "http://www.w3.org/Graphics/SVG/1.1/DTD/svg11.dtd">
<svg xmlns="http://www.w3.org/2000/svg" version="1.1" width="203px" height="192px" style="shape-rendering:geometricPrecision; text-rendering:geometricPrecision; image-rendering:optimizeQuality; fill-rule:evenodd; clip-rule:evenodd" xmlns:xlink="http://www.w3.org/1999/xlink">
<g><path style="opacity:1" fill="#121100" d="M 154.5,107.5 C 120.663,107.168 86.9959,107.502 53.5,108.5C 52.8333,108.5 52.5,108.833 52.5,109.5C 51.5655,110.568 51.2322,111.901 51.5,113.5C 48.8661,111.46 48.8661,109.293 51.5,107C 86.0025,106.169 120.336,106.336 154.5,107.5 Z"/></g>
<g><path style="opacity:1" fill="#ac0038" d="M 53.5,108.5 C 86.8333,108.5 120.167,108.5 153.5,108.5C 153.657,109.873 153.49,111.207 153,112.5C 141.271,124.062 129.771,135.728 118.5,147.5C 117.942,146.21 116.942,145.377 115.5,145C 107.596,142.19 99.5962,141.857 91.5,144C 89.4156,144.697 87.7489,145.864 86.5,147.5C 75.896,136.395 65.0627,125.395 54,114.5C 52.9914,112.975 52.4914,111.308 52.5,109.5C 52.5,108.833 52.8333,108.5 53.5,108.5 Z"/></g>
<g><path style="opacity:1" fill="#280e0c" d="M 53.5,108.5 C 86.9959,107.502 120.663,107.168 154.5,107.5C 155.695,107.866 156.361,108.699 156.5,110C 155.683,111.49 154.85,112.99 154,114.5C 140.137,128.029 126.637,141.862 113.5,156C 107.617,160.977 101.284,161.644 94.5,158C 79.5723,143.575 65.2389,128.742 51.5,113.5C 51.2322,111.901 51.5655,110.568 52.5,109.5C 52.4914,111.308 52.9914,112.975 54,114.5C 65.0627,125.395 75.896,136.395 86.5,147.5C 97.1177,162.148 107.784,162.148 118.5,147.5C 129.771,135.728 141.271,124.062 153,112.5C 153.49,111.207 153.657,109.873 153.5,108.5C 120.167,108.5 86.8333,108.5 53.5,108.5 Z"/></g>
<g><path style="opacity:1" fill="#eb2364" d="M 118.5,147.5 C 107.784,162.148 97.1177,162.148 86.5,147.5C 87.7489,145.864 89.4156,144.697 91.5,144C 99.5962,141.857 107.596,142.19 115.5,145C 116.942,145.377 117.942,146.21 118.5,147.5 Z"/></g>
</svg>
