<?xml version="1.0" encoding="UTF-8"?>
<!DOCTYPE svg PUBLIC "-//W3C//DTD SVG 1.1//EN" "http://www.w3.org/Graphics/SVG/1.1/DTD/svg11.dtd">
<svg xmlns="http://www.w3.org/2000/svg" version="1.1" width="148px" height="148px" style="shape-rendering:geometricPrecision; text-rendering:geometricPrecision; image-rendering:optimizeQuality; fill-rule:evenodd; clip-rule:evenodd" xmlns:xlink="http://www.w3.org/1999/xlink">
<g><path style="opacity:1" fill="#fdfdfd" d="M -0.5,-0.5 C 48.8333,-0.5 98.1667,-0.5 147.5,-0.5C 147.5,48.8333 147.5,98.1667 147.5,147.5C 128.5,147.5 109.5,147.5 90.5,147.5C 97.9892,145.516 103.156,140.849 106,133.5C 106.5,113.503 106.667,93.5028 106.5,73.5C 119.53,73.7562 132.53,73.4229 145.5,72.5C 145.628,70.3453 145.128,68.3453 144,66.5C 122.833,45.3333 101.667,24.1667 80.5,3C 76.4023,0.114345 72.0689,-0.218988 67.5,2C 45.3048,23.8614 23.4715,46.0281 2,68.5C 1.28885,70.3668 1.78885,71.8668 3.5,73C 15.8288,73.4999 28.1622,73.6665 40.5,73.5C 40.3334,93.8361 40.5,114.169 41,134.5C 44.2659,141.279 49.4326,145.612 56.5,147.5C 37.5,147.5 18.5,147.5 -0.5,147.5C -0.5,98.1667 -0.5,48.8333 -0.5,-0.5 Z"/></g>
<g><path style="opacity:1" fill="#848284" d="M 90.5,147.5 C 79.1667,147.5 67.8333,147.5 56.5,147.5C 49.4326,145.612 44.2659,141.279 41,134.5C 40.5,114.169 40.3334,93.8361 40.5,73.5C 28.1622,73.6665 15.8288,73.4999 3.5,73C 1.78885,71.8668 1.28885,70.3668 2,68.5C 23.4715,46.0281 45.3048,23.8614 67.5,2C 72.0689,-0.218988 76.4023,0.114345 80.5,3C 101.667,24.1667 122.833,45.3333 144,66.5C 145.128,68.3453 145.628,70.3453 145.5,72.5C 132.53,73.4229 119.53,73.7562 106.5,73.5C 106.667,93.5028 106.5,113.503 106,133.5C 103.156,140.849 97.9892,145.516 90.5,147.5 Z"/></g>
</svg>
