<?xml version="1.0" encoding="UTF-8"?>
<!DOCTYPE svg PUBLIC "-//W3C//DTD SVG 1.1//EN" "http://www.w3.org/Graphics/SVG/1.1/DTD/svg11.dtd">
<svg xmlns="http://www.w3.org/2000/svg" version="1.1" width="204px" height="204px" style="shape-rendering:geometricPrecision; text-rendering:geometricPrecision; image-rendering:optimizeQuality; fill-rule:evenodd; clip-rule:evenodd" xmlns:xlink="http://www.w3.org/1999/xlink">
<g><path style="opacity:1" fill="#fefefe" d="M -0.5,-0.5 C 67.5,-0.5 135.5,-0.5 203.5,-0.5C 203.5,67.5 203.5,135.5 203.5,203.5C 135.5,203.5 67.5,203.5 -0.5,203.5C -0.5,135.5 -0.5,67.5 -0.5,-0.5 Z"/></g>
<g><path style="opacity:1" fill="#808080" d="M 147.5,23.5 C 147.5,49.8333 147.5,76.1667 147.5,102.5C 164.167,102.5 180.833,102.5 197.5,102.5C 199.246,103.249 200.246,104.583 200.5,106.5C 199.299,109.872 197.466,112.872 195,115.5C 166.109,145.058 136.609,173.892 106.5,202C 101.816,203.102 97.4826,202.436 93.5,200C 65.0279,172.528 36.8612,144.695 9,116.5C 5.80979,113.455 3.64312,109.788 2.5,105.5C 2.51595,103.484 3.51595,102.484 5.5,102.5C 22.1667,102.5 38.8333,102.5 55.5,102.5C 55.5,76.8333 55.5,51.1667 55.5,25.5C 56.9,12.5958 63.9,4.42914 76.5,1C 92.8333,0.333333 109.167,0.333333 125.5,1C 137.776,3.77505 145.109,11.275 147.5,23.5 Z"/></g>
<g><path style="opacity:1" fill="#dddddd" d="M 55.5,25.5 C 55.5,51.1667 55.5,76.8333 55.5,102.5C 38.8333,102.5 22.1667,102.5 5.5,102.5C 21.6581,101.504 37.9915,101.17 54.5,101.5C 54.1689,75.9945 54.5023,50.6612 55.5,25.5 Z"/></g>
<g><path style="opacity:1" fill="#dadada" d="M 147.5,23.5 C 148.498,49.328 148.831,75.328 148.5,101.5C 165.009,101.17 181.342,101.504 197.5,102.5C 180.833,102.5 164.167,102.5 147.5,102.5C 147.5,76.1667 147.5,49.8333 147.5,23.5 Z"/></g>
</svg>
