<?xml version="1.0" encoding="UTF-8"?>
<!DOCTYPE svg PUBLIC "-//W3C//DTD SVG 1.1//EN" "http://www.w3.org/Graphics/SVG/1.1/DTD/svg11.dtd">
<svg xmlns="http://www.w3.org/2000/svg" version="1.1" width="225px" height="224px" style="shape-rendering:geometricPrecision; text-rendering:geometricPrecision; image-rendering:optimizeQuality; fill-rule:evenodd; clip-rule:evenodd" xmlns:xlink="http://www.w3.org/1999/xlink">
<g><path style="opacity:1" fill="#fefefe" d="M -0.5,-0.5 C 35.8333,-0.5 72.1667,-0.5 108.5,-0.5C 71.5285,34.8046 35.1951,70.8046 -0.5,107.5C -0.5,71.5 -0.5,35.5 -0.5,-0.5 Z"/></g>
<g><path style="opacity:1" fill="#fe747d" d="M 108.5,-0.5 C 110.5,-0.5 112.5,-0.5 114.5,-0.5C 116.019,0.409824 117.685,1.24316 119.5,2C 154.729,37.0616 189.729,72.2283 224.5,107.5C 224.5,109.833 224.5,112.167 224.5,114.5C 190.116,150.386 155.116,185.886 119.5,221C 117.685,221.757 116.019,222.59 114.5,223.5C 112.5,223.5 110.5,223.5 108.5,223.5C 72.5898,189.091 37.0898,154.091 2,118.5C 1.3918,116.934 0.558465,115.6 -0.5,114.5C -0.5,112.167 -0.5,109.833 -0.5,107.5C 35.1951,70.8046 71.5285,34.8046 108.5,-0.5 Z"/></g>
<g><path style="opacity:1" fill="#fefefe" d="M 114.5,-0.5 C 151.167,-0.5 187.833,-0.5 224.5,-0.5C 224.5,35.5 224.5,71.5 224.5,107.5C 189.729,72.2283 154.729,37.0616 119.5,2C 117.685,1.24316 116.019,0.409824 114.5,-0.5 Z"/></g>
<g><path style="opacity:1" fill="#fefefe" d="M -0.5,114.5 C 0.558465,115.6 1.3918,116.934 2,118.5C 37.0898,154.091 72.5898,189.091 108.5,223.5C 72.1667,223.5 35.8333,223.5 -0.5,223.5C -0.5,187.167 -0.5,150.833 -0.5,114.5 Z"/></g>
<g><path style="opacity:1" fill="#fefefe" d="M 224.5,114.5 C 224.5,150.833 224.5,187.167 224.5,223.5C 187.833,223.5 151.167,223.5 114.5,223.5C 116.019,222.59 117.685,221.757 119.5,221C 155.116,185.886 190.116,150.386 224.5,114.5 Z"/></g>
</svg>
