<?xml version="1.0" encoding="UTF-8"?>
<!DOCTYPE svg PUBLIC "-//W3C//DTD SVG 1.1//EN" "http://www.w3.org/Graphics/SVG/1.1/DTD/svg11.dtd">
<svg xmlns="http://www.w3.org/2000/svg" version="1.1" width="526px" height="278px" style="shape-rendering:geometricPrecision; text-rendering:geometricPrecision; image-rendering:optimizeQuality; fill-rule:evenodd; clip-rule:evenodd" xmlns:xlink="http://www.w3.org/1999/xlink">
<g><path style="opacity:1" fill="#fefefe" d="M -0.5,-0.5 C 174.833,-0.5 350.167,-0.5 525.5,-0.5C 525.5,42.5 525.5,85.5 525.5,128.5C 523.453,126.925 521.119,125.925 518.5,125.5C 515.001,122.754 511.001,121.087 506.5,120.5C 504.967,118.755 502.967,117.755 500.5,117.5C 499.833,117.5 499.167,117.5 498.5,117.5C 497.738,115.738 496.404,114.738 494.5,114.5C 487.631,110.087 480.298,106.421 472.5,103.5C 468.626,100.733 464.293,98.733 459.5,97.5C 457.572,95.7061 455.238,94.7061 452.5,94.5C 451.508,94.6716 450.842,94.3382 450.5,93.5C 448.245,91.6197 445.578,90.6197 442.5,90.5C 440.544,89.522 438.544,88.522 436.5,87.5C 436.027,86.0937 435.027,85.427 433.5,85.5C 427.152,80.8252 420.152,77.4919 412.5,75.5C 410.517,75.8432 409.183,75.1765 408.5,73.5C 408.5,72.5 408.5,71.5 408.5,70.5C 406.097,70.552 403.764,70.2186 401.5,69.5C 400.833,69.5 400.167,69.5 399.5,69.5C 398.508,69.6716 397.842,69.3382 397.5,68.5C 395.299,65.6814 392.299,64.0147 388.5,63.5C 388.167,63.5 387.833,63.5 387.5,63.5C 377.42,57.1264 366.753,51.7931 355.5,47.5C 350.602,44.2927 345.268,41.9594 339.5,40.5C 333.045,36.4347 326.378,32.6013 319.5,29C 317.134,28.5604 314.801,28.0604 312.5,27.5C 310.254,26.5448 307.921,25.8782 305.5,25.5C 305.167,24.8333 304.833,24.1667 304.5,23.5C 297.02,18.7609 289.02,15.0942 280.5,12.5C 277.515,11.6743 274.849,10.341 272.5,8.5C 270.608,6.57911 268.275,5.24578 265.5,4.5C 264.274,4.51954 263.274,4.85287 262.5,5.5C 261.502,29.3275 261.169,53.3275 261.5,77.5C 174.167,77.5 86.8333,77.5 -0.5,77.5C -0.5,51.5 -0.5,25.5 -0.5,-0.5 Z"/></g>
<g><path style="opacity:1" fill="#fffad2" d="M 272.5,8.5 C 270.421,8.02935 268.421,7.36268 266.5,6.5C 265.791,5.59603 264.791,5.26269 263.5,5.5C 263.5,29.5 263.5,53.5 263.5,77.5C 263.167,77.5 262.833,77.5 262.5,77.5C 262.5,53.5 262.5,29.5 262.5,5.5C 263.274,4.85287 264.274,4.51954 265.5,4.5C 268.275,5.24578 270.608,6.57911 272.5,8.5 Z"/></g>
<g><path style="opacity:1" fill="#fff9d4" d="M 280.5,12.5 C 289.02,15.0942 297.02,18.7609 304.5,23.5C 303.833,23.5 303.167,23.5 302.5,23.5C 297.167,21.1667 291.833,18.8333 286.5,16.5C 284.5,15.1667 282.5,13.8333 280.5,12.5 Z"/></g>
<g><path style="opacity:1" fill="#f7dc67" d="M 266.5,6.5 C 268.421,7.36268 270.421,8.02935 272.5,8.5C 274.849,10.341 277.515,11.6743 280.5,12.5C 282.5,13.8333 284.5,15.1667 286.5,16.5C 283.729,16.5793 281.063,16.0793 278.5,15C 274.715,11.774 270.381,9.60737 265.5,8.5C 265.831,31.6727 265.498,54.6727 264.5,77.5C 263.843,53.4764 264.51,29.8098 266.5,6.5 Z"/></g>
<g><path style="opacity:1" fill="#fee154" d="M 289.5,20.5 C 290.833,20.5 292.167,20.5 293.5,20.5C 293.5,21.5 293.5,22.5 293.5,23.5C 297.922,24.2173 302.256,25.2173 306.5,26.5C 305.547,28.61 303.881,29.7767 301.5,30C 297.514,30.4988 293.514,30.6655 289.5,30.5C 289.5,34.5 289.5,38.5 289.5,42.5C 293.007,41.9935 296.174,42.6602 299,44.5C 300.446,49.9135 302.946,54.7468 306.5,59C 305.903,60.0617 305.57,61.2284 305.5,62.5C 306.064,64.9088 306.897,67.2421 308,69.5C 309,70.8333 310,70.8333 311,69.5C 312.731,71.6166 314.898,73.1166 317.5,74C 318.167,75.6667 318.833,77.3333 319.5,79C 321.727,79.121 323.56,79.9544 325,81.5C 327.908,80.9645 330.741,80.7978 333.5,81C 332.643,81.6891 331.977,82.5224 331.5,83.5C 333.316,84.8149 334.983,86.3149 336.5,88C 355.037,92.0547 373.37,96.2214 391.5,100.5C 390.551,101.152 389.385,101.486 388,101.5C 385.674,101.051 383.507,100.217 381.5,99C 374.167,98.6667 366.833,98.3333 359.5,98C 355.669,95.0873 351.336,93.254 346.5,92.5C 343.611,92.9306 340.778,93.5972 338,94.5C 323.556,92.1165 309.056,89.9498 294.5,88C 294.833,87.6667 295.167,87.3333 295.5,87C 291.633,85.1035 289.966,81.9369 290.5,77.5C 284.811,76.3296 279.144,76.3296 273.5,77.5C 272.647,66.8391 271.98,56.1725 271.5,45.5C 272.5,45.5 273.5,45.5 274.5,45.5C 274.5,40.1667 274.5,34.8333 274.5,29.5C 278.514,29.6655 282.514,29.4988 286.5,29C 287.833,27 287.833,25 286.5,23C 287.571,22.1482 288.571,21.3149 289.5,20.5 Z"/></g>
<g><path style="opacity:1" fill="#fae26e" d="M 286.5,16.5 C 291.833,18.8333 297.167,21.1667 302.5,23.5C 302.973,24.9063 303.973,25.573 305.5,25.5C 307.921,25.8782 310.254,26.5448 312.5,27.5C 312.833,28.1667 313.167,28.8333 313.5,29.5C 310.771,29.2455 308.438,28.2455 306.5,26.5C 302.256,25.2173 297.922,24.2173 293.5,23.5C 293.5,22.5 293.5,21.5 293.5,20.5C 292.167,20.5 290.833,20.5 289.5,20.5C 288.789,18.9699 287.789,17.6366 286.5,16.5 Z"/></g>
<g><path style="opacity:1" fill="#f8ea96" d="M 302.5,23.5 C 303.167,23.5 303.833,23.5 304.5,23.5C 304.833,24.1667 305.167,24.8333 305.5,25.5C 303.973,25.573 302.973,24.9063 302.5,23.5 Z"/></g>
<g><path style="opacity:1" fill="#fee35b" d="M 306.5,26.5 C 308.438,28.2455 310.771,29.2455 313.5,29.5C 313.833,29.5 314.167,29.5 314.5,29.5C 314.5,30.5 314.5,31.5 314.5,32.5C 317.734,33.576 321.068,34.2427 324.5,34.5C 326.033,36.2451 328.033,37.2451 330.5,37.5C 332.284,37.8925 333.95,38.5592 335.5,39.5C 336.344,41.7593 338.011,42.7593 340.5,42.5C 340.881,43.9311 341.881,44.7645 343.5,45C 343.043,45.414 342.709,45.914 342.5,46.5C 340.282,47.0574 337.949,47.0574 335.5,46.5C 332.411,45.2611 329.411,43.7611 326.5,42C 321.167,41.3333 315.833,41.3333 310.5,42C 309.056,43.126 308.39,44.626 308.5,46.5C 310.358,52.5389 313.524,57.8723 318,62.5C 319,64.8333 320,67.1667 321,69.5C 323.445,70.9771 325.612,72.8104 327.5,75C 334.5,78.6667 341.5,82.3333 348.5,86C 351.72,87.3524 355.053,88.1857 358.5,88.5C 360.741,89.6207 363.075,90.7874 365.5,92C 380.315,92.9626 394.649,95.9626 408.5,101C 413.155,101.499 417.821,101.666 422.5,101.5C 423.167,102.167 423.833,102.833 424.5,103.5C 422.738,103.643 421.071,103.309 419.5,102.5C 415.354,104.654 411.354,104.821 407.5,103C 402.095,102.472 396.762,101.639 391.5,100.5C 373.37,96.2214 355.037,92.0547 336.5,88C 334.983,86.3149 333.316,84.8149 331.5,83.5C 331.977,82.5224 332.643,81.6891 333.5,81C 330.741,80.7978 327.908,80.9645 325,81.5C 323.56,79.9544 321.727,79.121 319.5,79C 318.833,77.3333 318.167,75.6667 317.5,74C 314.898,73.1166 312.731,71.6166 311,69.5C 310,70.8333 309,70.8333 308,69.5C 306.897,67.2421 306.064,64.9088 305.5,62.5C 305.57,61.2284 305.903,60.0617 306.5,59C 302.946,54.7468 300.446,49.9135 299,44.5C 296.174,42.6602 293.007,41.9935 289.5,42.5C 289.5,38.5 289.5,34.5 289.5,30.5C 293.514,30.6655 297.514,30.4988 301.5,30C 303.881,29.7767 305.547,28.61 306.5,26.5 Z"/></g>
<g><path style="opacity:1" fill="#ecd379" d="M 266.5,6.5 C 264.51,29.8098 263.843,53.4764 264.5,77.5C 264.167,77.5 263.833,77.5 263.5,77.5C 263.5,53.5 263.5,29.5 263.5,5.5C 264.791,5.26269 265.791,5.59603 266.5,6.5 Z"/></g>
<g><path style="opacity:1" fill="#f9e475" d="M 314.5,29.5 C 318.052,30.7911 321.386,32.4578 324.5,34.5C 321.068,34.2427 317.734,33.576 314.5,32.5C 314.5,31.5 314.5,30.5 314.5,29.5 Z"/></g>
<g><path style="opacity:1" fill="#fffadc" d="M 312.5,27.5 C 314.801,28.0604 317.134,28.5604 319.5,29C 326.378,32.6013 333.045,36.4347 339.5,40.5C 338.167,40.1667 336.833,39.8333 335.5,39.5C 333.95,38.5592 332.284,37.8925 330.5,37.5C 328.967,35.7549 326.967,34.7549 324.5,34.5C 321.386,32.4578 318.052,30.7911 314.5,29.5C 314.167,29.5 313.833,29.5 313.5,29.5C 313.167,28.8333 312.833,28.1667 312.5,27.5 Z"/></g>
<g><path style="opacity:1" fill="#fae994" d="M 324.5,34.5 C 326.967,34.7549 328.967,35.7549 330.5,37.5C 328.033,37.2451 326.033,36.2451 324.5,34.5 Z"/></g>
<g><path style="opacity:1" fill="#fee669" d="M 335.5,46.5 C 337.925,49.7616 341.258,51.2616 345.5,51C 350.621,54.6075 356.288,57.2741 362.5,59C 366.282,61.9016 370.615,63.5682 375.5,64C 376.252,64.6708 376.586,65.5041 376.5,66.5C 375.833,66.5 375.167,66.5 374.5,66.5C 371.341,64.9205 368.007,63.9205 364.5,63.5C 362.377,60.4382 359.377,58.9382 355.5,59C 348.58,56.0368 341.913,52.8702 335.5,49.5C 330.534,48.5465 325.534,47.2131 320.5,45.5C 318.865,46.0463 317.199,46.3796 315.5,46.5C 316.367,49.9083 317.533,53.2416 319,56.5C 322.534,61.1197 325.701,65.9531 328.5,71C 333.169,71.8233 336.502,74.3233 338.5,78.5C 345.789,80.8113 352.456,84.1446 358.5,88.5C 355.053,88.1857 351.72,87.3524 348.5,86C 341.5,82.3333 334.5,78.6667 327.5,75C 325.612,72.8104 323.445,70.9771 321,69.5C 320,67.1667 319,64.8333 318,62.5C 313.524,57.8723 310.358,52.5389 308.5,46.5C 308.39,44.626 309.056,43.126 310.5,42C 315.833,41.3333 321.167,41.3333 326.5,42C 329.411,43.7611 332.411,45.2611 335.5,46.5 Z"/></g>
<g><path style="opacity:1" fill="#f6e685" d="M 335.5,39.5 C 336.833,39.8333 338.167,40.1667 339.5,40.5C 341.076,41.1429 342.41,42.1429 343.5,43.5C 342.391,43.4431 341.391,43.1098 340.5,42.5C 338.011,42.7593 336.344,41.7593 335.5,39.5 Z"/></g>
<g><path style="opacity:1" fill="#fefcde" d="M 339.5,40.5 C 345.268,41.9594 350.602,44.2927 355.5,47.5C 354.833,47.5 354.167,47.5 353.5,47.5C 351.685,46.3702 349.685,45.7036 347.5,45.5C 347.027,44.0937 346.027,43.427 344.5,43.5C 344.167,43.5 343.833,43.5 343.5,43.5C 342.41,42.1429 341.076,41.1429 339.5,40.5 Z"/></g>
<g><path style="opacity:1" fill="#faec9e" d="M 344.5,43.5 C 346.027,43.427 347.027,44.0937 347.5,45.5C 345.973,45.573 344.973,44.9063 344.5,43.5 Z"/></g>
<g><path style="opacity:1" fill="#fee874" d="M 335.5,49.5 C 331.44,49.4847 327.44,49.9847 323.5,51C 323.141,56.7372 324.474,62.2372 327.5,67.5C 333.45,70.7945 339.117,74.4611 344.5,78.5C 350.644,82.0733 356.977,85.4066 363.5,88.5C 361.833,88.5 360.167,88.5 358.5,88.5C 352.456,84.1446 345.789,80.8113 338.5,78.5C 336.502,74.3233 333.169,71.8233 328.5,71C 325.701,65.9531 322.534,61.1197 319,56.5C 317.533,53.2416 316.367,49.9083 315.5,46.5C 317.199,46.3796 318.865,46.0463 320.5,45.5C 325.534,47.2131 330.534,48.5465 335.5,49.5 Z"/></g>
<g><path style="opacity:1" fill="#fce45f" d="M 340.5,42.5 C 341.391,43.1098 342.391,43.4431 343.5,43.5C 343.833,43.5 344.167,43.5 344.5,43.5C 344.973,44.9063 345.973,45.573 347.5,45.5C 349.685,45.7036 351.685,46.3702 353.5,47.5C 353.973,48.9063 354.973,49.573 356.5,49.5C 356.833,49.5 357.167,49.5 357.5,49.5C 357.973,50.9063 358.973,51.573 360.5,51.5C 363.622,52.5612 366.622,53.8946 369.5,55.5C 369.973,56.9063 370.973,57.573 372.5,57.5C 377.154,59.4925 381.82,61.4925 386.5,63.5C 386.973,64.9063 387.973,65.573 389.5,65.5C 389.833,65.5 390.167,65.5 390.5,65.5C 390.5,65.8333 390.5,66.1667 390.5,66.5C 393.154,69.2524 396.487,70.9191 400.5,71.5C 401.167,71.5 401.833,71.5 402.5,71.5C 402.241,75.0681 400.241,76.4015 396.5,75.5C 389.922,72.5201 383.255,69.5201 376.5,66.5C 376.586,65.5041 376.252,64.6708 375.5,64C 370.615,63.5682 366.282,61.9016 362.5,59C 356.288,57.2741 350.621,54.6075 345.5,51C 341.258,51.2616 337.925,49.7616 335.5,46.5C 337.949,47.0574 340.282,47.0574 342.5,46.5C 342.709,45.914 343.043,45.414 343.5,45C 341.881,44.7645 340.881,43.9311 340.5,42.5 Z"/></g>
<g><path style="opacity:1" fill="#faf2ab" d="M 353.5,47.5 C 354.167,47.5 354.833,47.5 355.5,47.5C 355.833,48.1667 356.167,48.8333 356.5,49.5C 354.973,49.573 353.973,48.9063 353.5,47.5 Z"/></g>
<g><path style="opacity:1" fill="#feeb80" d="M 335.5,49.5 C 341.913,52.8702 348.58,56.0368 355.5,59C 359.377,58.9382 362.377,60.4382 364.5,63.5C 359.165,62.5892 354.165,60.9225 349.5,58.5C 346.947,56.4163 343.947,55.083 340.5,54.5C 335.404,50.3432 330.404,50.5098 325.5,55C 325.986,58.4271 327.153,61.5937 329,64.5C 330.734,66.4506 332.901,67.4506 335.5,67.5C 335.351,68.552 335.517,69.552 336,70.5C 338.729,73.3993 341.562,76.066 344.5,78.5C 339.117,74.4611 333.45,70.7945 327.5,67.5C 324.474,62.2372 323.141,56.7372 323.5,51C 327.44,49.9847 331.44,49.4847 335.5,49.5 Z"/></g>
<g><path style="opacity:1" fill="#fcefa7" d="M 357.5,49.5 C 359.027,49.427 360.027,50.0937 360.5,51.5C 358.973,51.573 357.973,50.9063 357.5,49.5 Z"/></g>
<g><path style="opacity:1" fill="#fffbdb" d="M 355.5,47.5 C 366.753,51.7931 377.42,57.1264 387.5,63.5C 387.167,63.5 386.833,63.5 386.5,63.5C 381.82,61.4925 377.154,59.4925 372.5,57.5C 372.027,56.0937 371.027,55.427 369.5,55.5C 366.622,53.8946 363.622,52.5612 360.5,51.5C 360.027,50.0937 359.027,49.427 357.5,49.5C 357.167,49.5 356.833,49.5 356.5,49.5C 356.167,48.8333 355.833,48.1667 355.5,47.5 Z"/></g>
<g><path style="opacity:1" fill="#fbeb96" d="M 369.5,55.5 C 371.027,55.427 372.027,56.0937 372.5,57.5C 370.973,57.573 369.973,56.9063 369.5,55.5 Z"/></g>
<g><path style="opacity:1" fill="#fffae2" d="M 348.5,61.5 C 351.542,61.7329 354.208,62.7329 356.5,64.5C 355.167,64.5 353.833,64.5 352.5,64.5C 353.011,67.0215 354.011,69.3549 355.5,71.5C 353.407,70.9553 351.407,70.122 349.5,69C 348.427,66.3434 346.76,64.1768 344.5,62.5C 345.689,61.5713 347.022,61.238 348.5,61.5 Z"/></g>
<g><path style="opacity:1" fill="#fbeda4" d="M 386.5,63.5 C 386.833,63.5 387.167,63.5 387.5,63.5C 387.833,63.5 388.167,63.5 388.5,63.5C 388.833,64.1667 389.167,64.8333 389.5,65.5C 387.973,65.573 386.973,64.9063 386.5,63.5 Z"/></g>
<g><path style="opacity:1" fill="#fef1a1" d="M 340.5,54.5 C 343.947,55.083 346.947,56.4163 349.5,58.5C 344.636,57.1 339.636,56.4334 334.5,56.5C 334.343,57.8734 334.51,59.2068 335,60.5C 337.077,62.0758 338.577,64.0758 339.5,66.5C 344.239,71.5735 349.573,75.9069 355.5,79.5C 350.59,79.3804 346.923,77.2137 344.5,73C 342.833,72.6667 341.167,72.3333 339.5,72C 337.086,67.5819 333.919,63.7485 330,60.5C 328.405,58.5752 328.238,56.5752 329.5,54.5C 333.139,53.5397 336.805,53.5397 340.5,54.5 Z"/></g>
<g><path style="opacity:1" fill="#fffcdd" d="M 388.5,63.5 C 392.299,64.0147 395.299,65.6814 397.5,68.5C 396.167,68.1667 394.833,67.8333 393.5,67.5C 393.027,66.0937 392.027,65.427 390.5,65.5C 390.167,65.5 389.833,65.5 389.5,65.5C 389.167,64.8333 388.833,64.1667 388.5,63.5 Z"/></g>
<g><path style="opacity:1" fill="#fceb9f" d="M 390.5,66.5 C 390.5,66.1667 390.5,65.8333 390.5,65.5C 392.027,65.427 393.027,66.0937 393.5,67.5C 392.391,67.4431 391.391,67.1098 390.5,66.5 Z"/></g>
<g><path style="opacity:1" fill="#fff7d0" d="M 362.5,66.5 C 364.5,66.5 366.5,66.5 368.5,66.5C 372.274,68.4248 376.274,69.7581 380.5,70.5C 382.033,72.2451 384.033,73.2451 386.5,73.5C 387.167,74.1667 387.833,74.8333 388.5,75.5C 380.239,72.6901 371.905,70.1901 363.5,68C 362.944,67.6174 362.611,67.1174 362.5,66.5 Z"/></g>
<g><path style="opacity:1" fill="#fcf099" d="M 364.5,63.5 C 368.007,63.9205 371.341,64.9205 374.5,66.5C 376.364,68.0138 378.364,69.3472 380.5,70.5C 376.274,69.7581 372.274,68.4248 368.5,66.5C 367.167,65.5 365.833,64.5 364.5,63.5 Z"/></g>
<g><path style="opacity:1" fill="#fdec80" d="M 374.5,66.5 C 375.167,66.5 375.833,66.5 376.5,66.5C 383.255,69.5201 389.922,72.5201 396.5,75.5C 395.167,75.5 393.833,75.5 392.5,75.5C 391.167,75.5 389.833,75.5 388.5,75.5C 387.833,74.8333 387.167,74.1667 386.5,73.5C 384.967,71.7549 382.967,70.7549 380.5,70.5C 378.364,69.3472 376.364,68.0138 374.5,66.5 Z"/></g>
<g><path style="opacity:1" fill="#fffcf3" d="M 356.5,64.5 C 358.5,65.1667 360.5,65.8333 362.5,66.5C 362.611,67.1174 362.944,67.6174 363.5,68C 371.905,70.1901 380.239,72.6901 388.5,75.5C 389.635,77.2132 391.302,77.8799 393.5,77.5C 393.47,78.4972 393.97,79.1639 395,79.5C 401.663,82.0001 407.996,85.0001 414,88.5C 414.432,89.6001 413.932,90.2668 412.5,90.5C 409.217,89.673 405.884,89.3396 402.5,89.5C 402.389,88.8826 402.056,88.3826 401.5,88C 391.997,85.5007 382.997,81.8341 374.5,77C 368.075,75.3914 361.742,73.5581 355.5,71.5C 354.011,69.3549 353.011,67.0215 352.5,64.5C 353.833,64.5 355.167,64.5 356.5,64.5 Z"/></g>
<g><path style="opacity:1" fill="#fae272" d="M 390.5,66.5 C 391.391,67.1098 392.391,67.4431 393.5,67.5C 394.833,67.8333 396.167,68.1667 397.5,68.5C 397.842,69.3382 398.508,69.6716 399.5,69.5C 399.833,70.1667 400.167,70.8333 400.5,71.5C 396.487,70.9191 393.154,69.2524 390.5,66.5 Z"/></g>
<g><path style="opacity:1" fill="#fbefae" d="M 399.5,69.5 C 400.167,69.5 400.833,69.5 401.5,69.5C 401.833,70.1667 402.167,70.8333 402.5,71.5C 401.833,71.5 401.167,71.5 400.5,71.5C 400.167,70.8333 399.833,70.1667 399.5,69.5 Z"/></g>
<g><path style="opacity:1" fill="#fefbe3" d="M 401.5,69.5 C 403.764,70.2186 406.097,70.552 408.5,70.5C 408.5,71.5 408.5,72.5 408.5,73.5C 406.282,73.3862 404.282,72.7196 402.5,71.5C 402.167,70.8333 401.833,70.1667 401.5,69.5 Z"/></g>
<g><path style="opacity:1" fill="#fef7d3" d="M 348.5,61.5 C 347.022,61.238 345.689,61.5713 344.5,62.5C 346.76,64.1768 348.427,66.3434 349.5,69C 351.407,70.122 353.407,70.9553 355.5,71.5C 359.593,73.7411 363.593,76.2411 367.5,79C 374.908,79.3035 381.575,81.4701 387.5,85.5C 380.251,83.3784 372.918,81.545 365.5,80C 359.804,76.4078 353.804,73.4078 347.5,71C 344.783,68.0225 343.116,64.5225 342.5,60.5C 344.735,60.2053 346.735,60.5386 348.5,61.5 Z"/></g>
<g><path style="opacity:1" fill="#fdf09d" d="M 380.5,70.5 C 382.967,70.7549 384.967,71.7549 386.5,73.5C 384.033,73.2451 382.033,72.2451 380.5,70.5 Z"/></g>
<g><path style="opacity:1" fill="#fedf52" d="M 286.5,16.5 C 287.789,17.6366 288.789,18.9699 289.5,20.5C 288.571,21.3149 287.571,22.1482 286.5,23C 287.833,25 287.833,27 286.5,29C 282.514,29.4988 278.514,29.6655 274.5,29.5C 274.5,34.8333 274.5,40.1667 274.5,45.5C 273.5,45.5 272.5,45.5 271.5,45.5C 271.98,56.1725 272.647,66.8391 273.5,77.5C 279.144,76.3296 284.811,76.3296 290.5,77.5C 289.966,81.9369 291.633,85.1035 295.5,87C 295.167,87.3333 294.833,87.6667 294.5,88C 309.056,89.9498 323.556,92.1165 338,94.5C 340.778,93.5972 343.611,92.9306 346.5,92.5C 351.336,93.254 355.669,95.0873 359.5,98C 366.833,98.3333 374.167,98.6667 381.5,99C 383.507,100.217 385.674,101.051 388,101.5C 389.385,101.486 390.551,101.152 391.5,100.5C 396.762,101.639 402.095,102.472 407.5,103C 411.354,104.821 415.354,104.654 419.5,102.5C 421.071,103.309 422.738,103.643 424.5,103.5C 425.791,103.263 426.791,103.596 427.5,104.5C 429.019,105.41 430.685,106.243 432.5,107C 439.636,107.048 446.636,107.881 453.5,109.5C 456.979,108.968 460.479,108.635 464,108.5C 470.133,109.586 476.3,110.252 482.5,110.5C 483.391,111.11 484.391,111.443 485.5,111.5C 485.833,111.5 486.167,111.5 486.5,111.5C 486.973,112.906 487.973,113.573 489.5,113.5C 490.791,113.263 491.791,113.596 492.5,114.5C 493.5,115.167 494.5,115.833 495.5,116.5C 495.721,117.735 496.388,118.735 497.5,119.5C 502.36,121.757 507.36,123.423 512.5,124.5C 512.973,125.906 513.973,126.573 515.5,126.5C 515.721,127.735 516.388,128.735 517.5,129.5C 516.5,130.167 515.5,130.833 514.5,131.5C 507.365,133.246 500.365,135.246 493.5,137.5C 493.439,140.05 492.106,141.55 489.5,142C 487.5,142.333 485.5,142.667 483.5,143C 478.334,146.772 472.668,149.272 466.5,150.5C 466.719,151.675 466.386,152.675 465.5,153.5C 456.005,156.622 447.005,160.788 438.5,166C 434.027,167.73 429.361,168.897 424.5,169.5C 425.958,167.989 427.791,166.989 430,166.5C 430.167,166.167 430.333,165.833 430.5,165.5C 429.333,165.167 428.167,164.833 427,164.5C 417.593,166.04 408.426,168.04 399.5,170.5C 396.794,170.887 394.461,171.887 392.5,173.5C 388.076,173.272 384.076,174.272 380.5,176.5C 371.064,179.922 361.397,182.589 351.5,184.5C 349.5,184.5 347.5,184.5 345.5,184.5C 337.992,186.044 330.659,188.211 323.5,191C 318.466,195.906 315.133,201.739 313.5,208.5C 320.836,207.574 328.169,206.574 335.5,205.5C 335.53,206.497 335.03,207.164 334,207.5C 328.994,207.726 324.494,209.226 320.5,212C 314.65,213.895 310.317,212.228 307.5,207C 308.083,204.082 308.916,201.249 310,198.5C 315.499,195.501 320.333,191.668 324.5,187C 320.398,185.459 316.231,184.293 312,183.5C 311.554,180.59 312.221,177.923 314,175.5C 315.734,174.751 317.567,174.251 319.5,174C 313.843,173.501 308.176,173.334 302.5,173.5C 302.54,170.119 302.207,166.786 301.5,163.5C 300.167,163.5 298.833,163.5 297.5,163.5C 295.942,166.63 294.942,169.963 294.5,173.5C 291.833,173.5 289.167,173.5 286.5,173.5C 286.301,166.249 284.801,159.583 282,153.5C 280.581,152.54 279.081,151.707 277.5,151C 267.786,150.791 258.286,150.958 249,151.5C 239.351,148.099 230.184,148.933 221.5,154C 224.167,154.667 224.167,155.333 221.5,156C 223.5,157 225.5,158 227.5,159C 227.167,160 226.833,161 226.5,162C 223.833,163 221.167,164 218.5,165C 212.027,165.72 205.694,166.886 199.5,168.5C 199.291,169.086 198.957,169.586 198.5,170C 202.838,170.342 206.838,171.675 210.5,174C 208.602,175.417 206.936,176.917 205.5,178.5C 195.831,178.789 186.165,179.122 176.5,179.5C 176.833,178.5 177.5,177.833 178.5,177.5C 186.041,177.775 189.541,174.109 189,166.5C 192.036,158.478 197.869,154.811 206.5,155.5C 206.5,153.167 206.5,150.833 206.5,148.5C 210.182,148.665 213.848,148.499 217.5,148C 226.323,143.863 235.156,143.696 244,147.5C 252.666,147.417 261.499,147.417 270.5,147.5C 270.732,140.679 267.399,138.013 260.5,139.5C 260.5,129.5 260.5,119.5 260.5,109.5C 267.422,109.812 274.256,109.479 281,108.5C 281.397,105.024 280.23,102.191 277.5,100C 277.833,99.6667 278.167,99.3333 278.5,99C 275.487,98.4978 272.487,97.9978 269.5,97.5C 269.5,96.1667 269.5,94.8333 269.5,93.5C 270.5,93.5 271.5,93.5 272.5,93.5C 272.5,90.8333 272.5,88.1667 272.5,85.5C 269.996,85.1717 268.162,83.8384 267,81.5C 266.283,82.0442 265.783,82.7109 265.5,83.5C 264.596,82.791 264.263,81.791 264.5,80.5C 264.5,79.5 264.5,78.5 264.5,77.5C 265.498,54.6727 265.831,31.6727 265.5,8.5C 270.381,9.60737 274.715,11.774 278.5,15C 281.063,16.0793 283.729,16.5793 286.5,16.5 Z"/></g>
<g><path style="opacity:1" fill="#fff4be" d="M 388.5,75.5 C 389.833,75.5 391.167,75.5 392.5,75.5C 392.833,76.1667 393.167,76.8333 393.5,77.5C 391.302,77.8799 389.635,77.2132 388.5,75.5 Z"/></g>
<g><path style="opacity:1" fill="#fef9d3" d="M 262.5,5.5 C 262.5,29.5 262.5,53.5 262.5,77.5C 175.173,79.4974 87.5063,80.1641 -0.5,79.5C -0.5,78.8333 -0.5,78.1667 -0.5,77.5C 86.8333,77.5 174.167,77.5 261.5,77.5C 261.169,53.3275 261.502,29.3275 262.5,5.5 Z"/></g>
<g><path style="opacity:1" fill="#f4d55c" d="M 262.5,77.5 C 262.833,77.5 263.167,77.5 263.5,77.5C 263.833,77.5 264.167,77.5 264.5,77.5C 264.5,78.5 264.5,79.5 264.5,80.5C 263.833,80.5 263.167,80.5 262.5,80.5C 190.5,80.5 118.5,80.5 46.5,80.5C 32.1667,80.5 17.8333,80.5 3.5,80.5C 2.16667,80.5 0.833333,80.5 -0.5,80.5C -0.5,80.1667 -0.5,79.8333 -0.5,79.5C 87.5063,80.1641 175.173,79.4974 262.5,77.5 Z"/></g>
<g><path style="opacity:1" fill="#fedd4f" d="M 3.5,80.5 C 17.8333,80.5 32.1667,80.5 46.5,80.5C 46.3893,81.1174 46.056,81.6174 45.5,82C 52.6384,81.9877 59.6384,82.8211 66.5,84.5C 67.737,84.4435 68.737,83.9435 69.5,83C 134.174,83.164 198.508,82.3307 262.5,80.5C 263.167,80.5 263.833,80.5 264.5,80.5C 264.263,81.791 264.596,82.791 265.5,83.5C 260.911,85.875 255.911,86.875 250.5,86.5C 185.526,84.2587 120.526,83.9253 55.5,85.5C 45.1613,85.3335 34.828,85.5002 24.5,86C 22.159,89.848 20.4923,94.0147 19.5,98.5C 21.2362,112.552 21.9029,126.886 21.5,141.5C 25.8333,141.5 30.1667,141.5 34.5,141.5C 34.7561,149.78 38.7561,153.114 46.5,151.5C 46.6715,153.492 46.0049,155.158 44.5,156.5C 45.0253,157.192 45.6919,157.692 46.5,158C 54.1606,158.595 61.8272,159.095 69.5,159.5C 77.4958,158.733 85.4958,158.567 93.5,159C 93.8333,159.333 94.1667,159.667 94.5,160C 79.4899,160.445 64.4899,161.111 49.5,162C 47.1088,163.309 47.1088,164.309 49.5,165C 49.1667,165.333 48.8333,165.667 48.5,166C 57.9934,166.34 67.3268,167.174 76.5,168.5C 68.0985,169.18 59.5985,169.846 51,170.5C 50.586,170.043 50.086,169.709 49.5,169.5C 44.2996,172.222 38.9662,173.556 33.5,173.5C 31.5323,174.1 30.5323,175.433 30.5,177.5C 27.2027,177.671 26.8694,177.005 29.5,175.5C 28.8333,174.833 28.1667,174.167 27.5,173.5C 28.5202,171.568 28.6869,169.568 28,167.5C 24.0401,163.206 19.8735,159.206 15.5,155.5C 13.624,141.22 13.124,126.887 14,112.5C 14.9794,103.373 16.146,94.3729 17.5,85.5C 13.5483,84.7279 9.5483,84.3946 5.5,84.5C 5.47291,82.8007 4.80624,81.4674 3.5,80.5 Z"/></g>
<g><path style="opacity:1" fill="#fed947" d="M 46.5,80.5 C 118.5,80.5 190.5,80.5 262.5,80.5C 198.508,82.3307 134.174,83.164 69.5,83C 68.737,83.9435 67.737,84.4435 66.5,84.5C 59.6384,82.8211 52.6384,81.9877 45.5,82C 46.056,81.6174 46.3893,81.1174 46.5,80.5 Z"/></g>
<g><path style="opacity:1" fill="#fefbd8" d="M 412.5,75.5 C 420.152,77.4919 427.152,80.8252 433.5,85.5C 431.708,85.634 430.042,85.3007 428.5,84.5C 424.176,80.8737 419.176,78.5404 413.5,77.5C 413.167,76.8333 412.833,76.1667 412.5,75.5 Z"/></g>
<g><path style="opacity:1" fill="#fef4bd" d="M 349.5,58.5 C 354.165,60.9225 359.165,62.5892 364.5,63.5C 365.833,64.5 367.167,65.5 368.5,66.5C 366.5,66.5 364.5,66.5 362.5,66.5C 360.5,65.8333 358.5,65.1667 356.5,64.5C 354.208,62.7329 351.542,61.7329 348.5,61.5C 346.735,60.5386 344.735,60.2053 342.5,60.5C 343.116,64.5225 344.783,68.0225 347.5,71C 353.804,73.4078 359.804,76.4078 365.5,80C 372.918,81.545 380.251,83.3784 387.5,85.5C 392.217,87.5819 397.217,88.9152 402.5,89.5C 402.5,89.8333 402.5,90.1667 402.5,90.5C 404.148,91.9265 406.148,92.7599 408.5,93C 413.507,94.2548 418.507,94.4215 423.5,93.5C 421.878,91.359 419.878,89.6924 417.5,88.5C 413.789,86.493 410.122,84.493 406.5,82.5C 412.833,85.1667 419.167,87.8333 425.5,90.5C 426.492,90.3284 427.158,90.6618 427.5,91.5C 428.942,92.8195 429.608,94.4862 429.5,96.5C 418.86,96.7312 408.527,95.0645 398.5,91.5C 384.617,86.323 370.284,82.323 355.5,79.5C 349.573,75.9069 344.239,71.5735 339.5,66.5C 338.577,64.0758 337.077,62.0758 335,60.5C 334.51,59.2068 334.343,57.8734 334.5,56.5C 339.636,56.4334 344.636,57.1 349.5,58.5 Z"/></g>
<g><path style="opacity:1" fill="#fef8df" d="M 355.5,71.5 C 361.742,73.5581 368.075,75.3914 374.5,77C 382.997,81.8341 391.997,85.5007 401.5,88C 402.056,88.3826 402.389,88.8826 402.5,89.5C 397.217,88.9152 392.217,87.5819 387.5,85.5C 381.575,81.4701 374.908,79.3035 367.5,79C 363.593,76.2411 359.593,73.7411 355.5,71.5 Z"/></g>
<g><path style="opacity:1" fill="#fcf097" d="M 392.5,75.5 C 393.833,75.5 395.167,75.5 396.5,75.5C 397.749,77.1361 399.416,78.3028 401.5,79C 410.429,81.235 418.429,85.0683 425.5,90.5C 419.167,87.8333 412.833,85.1667 406.5,82.5C 402.25,80.6385 397.917,78.9718 393.5,77.5C 393.167,76.8333 392.833,76.1667 392.5,75.5 Z"/></g>
<g><path style="opacity:1" fill="#feefa7" d="M 355.5,79.5 C 370.284,82.323 384.617,86.323 398.5,91.5C 397.167,91.5 395.833,91.5 394.5,91.5C 387.362,89.7986 380.362,87.6319 373.5,85C 370.167,84.6667 366.833,84.3333 363.5,84C 360.443,83.0835 357.776,81.5835 355.5,79.5 Z"/></g>
<g><path style="opacity:1" fill="#fce770" d="M 402.5,71.5 C 404.282,72.7196 406.282,73.3862 408.5,73.5C 409.183,75.1765 410.517,75.8432 412.5,75.5C 412.833,76.1667 413.167,76.8333 413.5,77.5C 419.176,78.5404 424.176,80.8737 428.5,84.5C 425.413,84.4569 422.413,84.2903 419.5,84C 423.956,86.7481 428.289,89.5814 432.5,92.5C 430.784,92.3713 429.117,92.038 427.5,91.5C 427.158,90.6618 426.492,90.3284 425.5,90.5C 418.429,85.0683 410.429,81.235 401.5,79C 399.416,78.3028 397.749,77.1361 396.5,75.5C 400.241,76.4015 402.241,75.0681 402.5,71.5 Z"/></g>
<g><path style="opacity:1" fill="#fde25a" d="M 413.5,77.5 C 414.562,78.5754 414.562,79.5754 413.5,80.5C 409.584,79.8753 406.251,78.2087 403.5,75.5C 404.167,75.1667 404.833,74.8333 405.5,74.5C 407.974,76.0725 410.64,77.0725 413.5,77.5 Z"/></g>
<g><path style="opacity:1" fill="#fdd74b" d="M -0.5,81.5 C -0.5,81.1667 -0.5,80.8333 -0.5,80.5C 0.833333,80.5 2.16667,80.5 3.5,80.5C 4.80624,81.4674 5.47291,82.8007 5.5,84.5C 9.5483,84.3946 13.5483,84.7279 17.5,85.5C 16.146,94.3729 14.9794,103.373 14,112.5C 13.124,126.887 13.624,141.22 15.5,155.5C 19.8735,159.206 24.0401,163.206 28,167.5C 28.6869,169.568 28.5202,171.568 27.5,173.5C 28.1667,174.167 28.8333,174.833 29.5,175.5C 26.8694,177.005 27.2027,177.671 30.5,177.5C 31.5,177.833 32.1667,178.5 32.5,179.5C 20.6492,180.47 14.1492,175.137 13,163.5C 10.9376,161.099 9.27095,158.433 8,155.5C 7.03018,135.608 7.53018,115.775 9.5,96C 8.89568,93.4762 8.22901,90.9762 7.5,88.5C 4.86181,88.154 2.52848,86.8206 0.5,84.5C 0.737305,83.209 0.403972,82.209 -0.5,81.5 Z"/></g>
<g><path style="opacity:1" fill="#fdf5bf" d="M 433.5,86.5 C 433.5,86.1667 433.5,85.8333 433.5,85.5C 435.027,85.427 436.027,86.0937 436.5,87.5C 435.391,87.4431 434.391,87.1098 433.5,86.5 Z"/></g>
<g><path style="opacity:1" fill="#fdeb8d" d="M 340.5,54.5 C 336.805,53.5397 333.139,53.5397 329.5,54.5C 328.238,56.5752 328.405,58.5752 330,60.5C 333.919,63.7485 337.086,67.5819 339.5,72C 341.167,72.3333 342.833,72.6667 344.5,73C 346.923,77.2137 350.59,79.3804 355.5,79.5C 357.776,81.5835 360.443,83.0835 363.5,84C 366.833,84.3333 370.167,84.6667 373.5,85C 380.362,87.6319 387.362,89.7986 394.5,91.5C 394.5,91.8333 394.5,92.1667 394.5,92.5C 385.133,89.6146 375.467,87.7812 365.5,87C 359.864,84.1817 354.197,81.515 348.5,79C 347.207,78.51 345.873,78.3433 344.5,78.5C 341.562,76.066 338.729,73.3993 336,70.5C 335.517,69.552 335.351,68.552 335.5,67.5C 332.901,67.4506 330.734,66.4506 329,64.5C 327.153,61.5937 325.986,58.4271 325.5,55C 330.404,50.5098 335.404,50.3432 340.5,54.5 Z"/></g>
<g><path style="opacity:1" fill="#fde46a" d="M 358.5,88.5 C 360.167,88.5 361.833,88.5 363.5,88.5C 376.883,91.753 390.55,94.253 404.5,96C 410.325,98.7838 416.325,100.617 422.5,101.5C 417.821,101.666 413.155,101.499 408.5,101C 394.649,95.9626 380.315,92.9626 365.5,92C 363.075,90.7874 360.741,89.6207 358.5,88.5 Z"/></g>
<g><path style="opacity:1" fill="#fdf9dc" d="M 393.5,77.5 C 397.917,78.9718 402.25,80.6385 406.5,82.5C 410.122,84.493 413.789,86.493 417.5,88.5C 417.5,89.8333 417.5,91.1667 417.5,92.5C 412.364,92.5666 407.364,91.9 402.5,90.5C 402.5,90.1667 402.5,89.8333 402.5,89.5C 405.884,89.3396 409.217,89.673 412.5,90.5C 413.932,90.2668 414.432,89.6001 414,88.5C 407.996,85.0001 401.663,82.0001 395,79.5C 393.97,79.1639 393.47,78.4972 393.5,77.5 Z"/></g>
<g><path style="opacity:1" fill="#f7e379" d="M 433.5,86.5 C 434.391,87.1098 435.391,87.4431 436.5,87.5C 438.544,88.522 440.544,89.522 442.5,90.5C 443.5,91.1667 444.5,91.8333 445.5,92.5C 444.5,92.5 443.5,92.5 442.5,92.5C 439.262,90.7247 436.262,88.7247 433.5,86.5 Z"/></g>
<g><path style="opacity:1" fill="#fde567" d="M 428.5,84.5 C 430.042,85.3007 431.708,85.634 433.5,85.5C 433.5,85.8333 433.5,86.1667 433.5,86.5C 436.262,88.7247 439.262,90.7247 442.5,92.5C 442.369,93.2389 442.536,93.9056 443,94.5C 446.958,96.297 450.125,98.9637 452.5,102.5C 453.429,103.689 453.762,105.022 453.5,106.5C 444.833,105.833 436.167,105.167 427.5,104.5C 426.791,103.596 425.791,103.263 424.5,103.5C 423.833,102.833 423.167,102.167 422.5,101.5C 430.097,103.05 437.764,103.55 445.5,103C 446.747,101.542 446.747,100.042 445.5,98.5C 442.232,94.2614 437.898,92.2614 432.5,92.5C 428.289,89.5814 423.956,86.7481 419.5,84C 422.413,84.2903 425.413,84.4569 428.5,84.5 Z"/></g>
<g><path style="opacity:1" fill="#fef8c9" d="M 442.5,90.5 C 445.578,90.6197 448.245,91.6197 450.5,93.5C 448.708,93.634 447.042,93.3007 445.5,92.5C 444.5,91.8333 443.5,91.1667 442.5,90.5 Z"/></g>
<g><path style="opacity:1" fill="#fdf7cc" d="M 417.5,88.5 C 419.878,89.6924 421.878,91.359 423.5,93.5C 418.507,94.4215 413.507,94.2548 408.5,93C 406.148,92.7599 404.148,91.9265 402.5,90.5C 407.364,91.9 412.364,92.5666 417.5,92.5C 417.5,91.1667 417.5,89.8333 417.5,88.5 Z"/></g>
<g><path style="opacity:1" fill="#fee264" d="M 250.5,86.5 C 254.54,88.1167 258.873,88.95 263.5,89C 263.961,94.5609 261.961,99.2276 257.5,103C 253.227,104.535 248.894,105.869 244.5,107C 232.53,108.318 220.53,109.152 208.5,109.5C 163.165,109.667 117.832,109.5 72.5,109C 64.8836,108.289 57.3836,107.123 50,105.5C 49.1268,105.735 48.2935,106.069 47.5,106.5C 43.7056,105.103 40.0389,103.436 36.5,101.5C 34.2887,98.2444 31.9554,95.0777 29.5,92C 31.424,90.2502 33.0907,88.4169 34.5,86.5C 41.6866,86.8245 48.6866,86.4912 55.5,85.5C 120.526,83.9253 185.526,84.2587 250.5,86.5 Z"/></g>
<g><path style="opacity:1" fill="#fee053" d="M 178.5,177.5 C 178.804,176.85 179.137,176.183 179.5,175.5C 174.92,172.713 170.087,171.713 165,172.5C 134.721,171.171 105.221,169.837 76.5,168.5C 67.3268,167.174 57.9934,166.34 48.5,166C 48.8333,165.667 49.1667,165.333 49.5,165C 47.1088,164.309 47.1088,163.309 49.5,162C 64.4899,161.111 79.4899,160.445 94.5,160C 94.1667,159.667 93.8333,159.333 93.5,159C 85.4958,158.567 77.4958,158.733 69.5,159.5C 61.8272,159.095 54.1606,158.595 46.5,158C 45.6919,157.692 45.0253,157.192 44.5,156.5C 46.0049,155.158 46.6715,153.492 46.5,151.5C 38.7561,153.114 34.7561,149.78 34.5,141.5C 30.1667,141.5 25.8333,141.5 21.5,141.5C 21.9029,126.886 21.2362,112.552 19.5,98.5C 20.4923,94.0147 22.159,89.848 24.5,86C 34.828,85.5002 45.1613,85.3335 55.5,85.5C 48.6866,86.4912 41.6866,86.8245 34.5,86.5C 27.7915,85.5485 24.1248,88.3818 23.5,95C 24.6953,96.5325 24.6953,98.0325 23.5,99.5C 24.8267,102.159 26.1601,104.826 27.5,107.5C 28.7946,108.098 30.1279,108.598 31.5,109C 32.1552,110.487 33.1552,111.653 34.5,112.5C 36.87,111.096 38.2034,109.43 38.5,107.5C 43.3792,108.989 48.3792,109.822 53.5,110C 54,110.5 54.5,111 55,111.5C 106.264,110.836 157.431,110.169 208.5,109.5C 220.53,109.152 232.53,108.318 244.5,107C 248.894,105.869 253.227,104.535 257.5,103C 261.961,99.2276 263.961,94.5609 263.5,89C 258.873,88.95 254.54,88.1167 250.5,86.5C 255.911,86.875 260.911,85.875 265.5,83.5C 265.783,82.7109 266.283,82.0442 267,81.5C 268.162,83.8384 269.996,85.1717 272.5,85.5C 272.5,88.1667 272.5,90.8333 272.5,93.5C 271.5,93.5 270.5,93.5 269.5,93.5C 269.5,94.8333 269.5,96.1667 269.5,97.5C 272.487,97.9978 275.487,98.4978 278.5,99C 278.167,99.3333 277.833,99.6667 277.5,100C 280.23,102.191 281.397,105.024 281,108.5C 274.256,109.479 267.422,109.812 260.5,109.5C 260.5,119.5 260.5,129.5 260.5,139.5C 267.399,138.013 270.732,140.679 270.5,147.5C 261.499,147.417 252.666,147.417 244,147.5C 235.156,143.696 226.323,143.863 217.5,148C 213.848,148.499 210.182,148.665 206.5,148.5C 206.5,150.833 206.5,153.167 206.5,155.5C 197.869,154.811 192.036,158.478 189,166.5C 189.541,174.109 186.041,177.775 178.5,177.5 Z"/></g>
<g><path style="opacity:1" fill="#fdec7f" d="M 46.5,88.5 C 46.5,89.1667 46.5,89.8333 46.5,90.5C 45.2438,90.4614 44.2438,90.9614 43.5,92C 44.9661,93.5522 45.9661,95.3855 46.5,97.5C 52.276,99.6147 57.9427,101.615 63.5,103.5C 54.059,104.661 45.7257,102.328 38.5,96.5C 36.7438,94.8087 36.2438,92.8087 37,90.5C 39.9508,88.9239 43.1174,88.2572 46.5,88.5 Z"/></g>
<g><path style="opacity:1" fill="#fff1b6" d="M 202.5,88.5 C 201.833,88.5 201.167,88.5 200.5,88.5C 156.485,88.2041 112.485,88.5375 68.5,89.5C 66.8333,89.5 65.1667,89.5 63.5,89.5C 63.5,89.1667 63.5,88.8333 63.5,88.5C 109.99,87.205 156.323,87.205 202.5,88.5 Z"/></g>
<g><path style="opacity:1" fill="#fee25b" d="M 34.5,86.5 C 33.0907,88.4169 31.424,90.2502 29.5,92C 31.9554,95.0777 34.2887,98.2444 36.5,101.5C 40.0389,103.436 43.7056,105.103 47.5,106.5C 48.2935,106.069 49.1268,105.735 50,105.5C 57.3836,107.123 64.8836,108.289 72.5,109C 117.832,109.5 163.165,109.667 208.5,109.5C 157.431,110.169 106.264,110.836 55,111.5C 54.5,111 54,110.5 53.5,110C 48.3792,109.822 43.3792,108.989 38.5,107.5C 38.2034,109.43 36.87,111.096 34.5,112.5C 33.1552,111.653 32.1552,110.487 31.5,109C 30.1279,108.598 28.7946,108.098 27.5,107.5C 26.1601,104.826 24.8267,102.159 23.5,99.5C 24.6953,98.0325 24.6953,96.5325 23.5,95C 24.1248,88.3818 27.7915,85.5485 34.5,86.5 Z"/></g>
<g><path style="opacity:1" fill="#feea93" d="M 209.5,86.5 C 213.97,87.4861 218.637,87.8195 223.5,87.5C 223.5,87.8333 223.5,88.1667 223.5,88.5C 220.167,88.5 216.833,88.5 213.5,88.5C 209.833,88.5 206.167,88.5 202.5,88.5C 156.323,87.205 109.99,87.205 63.5,88.5C 58.5409,88.0653 53.8743,88.8986 49.5,91C 52.4474,92.2805 54.7807,94.2805 56.5,97C 58.9944,98.0317 61.3277,99.1983 63.5,100.5C 58.5584,99.9085 53.8918,98.4085 49.5,96C 48.2423,94.2591 47.2423,92.4258 46.5,90.5C 46.5,89.8333 46.5,89.1667 46.5,88.5C 46.5,88.1667 46.5,87.8333 46.5,87.5C 100.827,86.5933 155.16,86.26 209.5,86.5 Z"/></g>
<g><path style="opacity:1" fill="#fdfad7" d="M 452.5,94.5 C 455.238,94.7061 457.572,95.7061 459.5,97.5C 456.519,97.8176 454.185,96.8176 452.5,94.5 Z"/></g>
<g><path style="opacity:1" fill="#f7e680" d="M 445.5,92.5 C 447.042,93.3007 448.708,93.634 450.5,93.5C 450.842,94.3382 451.508,94.6716 452.5,94.5C 454.185,96.8176 456.519,97.8176 459.5,97.5C 459.833,98.1667 460.167,98.8333 460.5,99.5C 454.896,98.2033 449.896,95.87 445.5,92.5 Z"/></g>
<g><path style="opacity:1" fill="#fef9d8" d="M 200.5,88.5 C 205.694,89.2996 211.028,90.1329 216.5,91C 211.283,95.1425 205.283,97.1425 198.5,97C 160.998,97.8311 123.664,97.6644 86.5,96.5C 122.004,96.8317 157.337,96.4984 192.5,95.5C 194.167,94.8333 195.833,94.1667 197.5,93.5C 197.833,93.5 198.167,93.5 198.5,93.5C 208.092,92.1496 208.425,90.9829 199.5,90C 158.459,89.1782 117.459,89.3449 76.5,90.5C 74.1432,90.3367 71.8098,90.5034 69.5,91C 71.2395,92.517 72.9062,94.017 74.5,95.5C 71.757,94.6118 69.0904,93.4451 66.5,92C 66.1667,91.6667 65.8333,91.3333 65.5,91C 66.7375,90.7679 67.7375,90.2679 68.5,89.5C 112.485,88.5375 156.485,88.2041 200.5,88.5 Z"/></g>
<g><path style="opacity:1" fill="#fef6ca" d="M 200.5,88.5 C 201.167,88.5 201.833,88.5 202.5,88.5C 206.167,88.5 209.833,88.5 213.5,88.5C 216.305,89.3195 219.305,89.8195 222.5,90C 222.833,91 223.167,92 223.5,93C 219.084,95.2508 214.417,96.9175 209.5,98C 167.848,99.5616 126.181,99.8949 84.5,99C 77.9308,97.6079 71.2641,96.6079 64.5,96C 62.981,94.6487 61.6477,93.1487 60.5,91.5C 61.6016,90.8243 62.6016,90.1577 63.5,89.5C 65.1667,89.5 66.8333,89.5 68.5,89.5C 67.7375,90.2679 66.7375,90.7679 65.5,91C 65.8333,91.3333 66.1667,91.6667 66.5,92C 69.0904,93.4451 71.757,94.6118 74.5,95.5C 78.4809,96.0209 82.4809,96.3542 86.5,96.5C 123.664,97.6644 160.998,97.8311 198.5,97C 205.283,97.1425 211.283,95.1425 216.5,91C 211.028,90.1329 205.694,89.2996 200.5,88.5 Z"/></g>
<g><path style="opacity:1" fill="#feee99" d="M 394.5,92.5 C 394.5,92.1667 394.5,91.8333 394.5,91.5C 395.833,91.5 397.167,91.5 398.5,91.5C 408.527,95.0645 418.86,96.7312 429.5,96.5C 429.608,94.4862 428.942,92.8195 427.5,91.5C 429.117,92.038 430.784,92.3713 432.5,92.5C 434.599,94.587 436.265,96.9203 437.5,99.5C 431.824,99.6661 426.157,99.4994 420.5,99C 411.947,96.3143 403.28,94.1476 394.5,92.5 Z"/></g>
<g><path style="opacity:1" fill="#fce25c" d="M 442.5,92.5 C 443.5,92.5 444.5,92.5 445.5,92.5C 449.896,95.87 454.896,98.2033 460.5,99.5C 460.833,99.5 461.167,99.5 461.5,99.5C 461.973,100.906 462.973,101.573 464.5,101.5C 466.5,102.167 468.5,102.833 470.5,103.5C 470.973,104.906 471.973,105.573 473.5,105.5C 473.833,105.5 474.167,105.5 474.5,105.5C 474.973,106.906 475.973,107.573 477.5,107.5C 477.833,107.5 478.167,107.5 478.5,107.5C 478.973,108.906 479.973,109.573 481.5,109.5C 481.833,109.5 482.167,109.5 482.5,109.5C 482.5,109.833 482.5,110.167 482.5,110.5C 476.3,110.252 470.133,109.586 464,108.5C 460.479,108.635 456.979,108.968 453.5,109.5C 446.636,107.881 439.636,107.048 432.5,107C 430.685,106.243 429.019,105.41 427.5,104.5C 436.167,105.167 444.833,105.833 453.5,106.5C 453.762,105.022 453.429,103.689 452.5,102.5C 450.125,98.9637 446.958,96.297 443,94.5C 442.536,93.9056 442.369,93.2389 442.5,92.5 Z"/></g>
<g><path style="opacity:1" fill="#fef2b8" d="M 213.5,88.5 C 216.833,88.5 220.167,88.5 223.5,88.5C 224.5,88.5 225.5,88.5 226.5,88.5C 231.257,89.872 231.591,92.0387 227.5,95C 226.255,95.7914 224.922,96.2914 223.5,96.5C 214.667,98.7902 205.667,99.9568 196.5,100C 158.5,100.667 120.5,100.667 82.5,100C 75.7672,99.4722 69.1006,98.6389 62.5,97.5C 59.4156,95.9224 56.749,93.7557 54.5,91C 57.2784,89.6081 60.2784,89.1081 63.5,89.5C 62.6016,90.1577 61.6016,90.8243 60.5,91.5C 61.6477,93.1487 62.981,94.6487 64.5,96C 71.2641,96.6079 77.9308,97.6079 84.5,99C 126.181,99.8949 167.848,99.5616 209.5,98C 214.417,96.9175 219.084,95.2508 223.5,93C 223.167,92 222.833,91 222.5,90C 219.305,89.8195 216.305,89.3195 213.5,88.5 Z"/></g>
<g><path style="opacity:1" fill="#fefbe2" d="M 76.5,90.5 C 77.911,92.539 79.911,93.539 82.5,93.5C 83.9516,94.3019 85.6183,94.8019 87.5,95C 122.498,95.5 157.498,95.6667 192.5,95.5C 157.337,96.4984 122.004,96.8317 86.5,96.5C 82.4809,96.3542 78.4809,96.0209 74.5,95.5C 72.9062,94.017 71.2395,92.517 69.5,91C 71.8098,90.5034 74.1432,90.3367 76.5,90.5 Z"/></g>
<g><path style="opacity:1" fill="#fefcee" d="M 82.5,93.5 C 120.833,93.5 159.167,93.5 197.5,93.5C 195.833,94.1667 194.167,94.8333 192.5,95.5C 157.498,95.6667 122.498,95.5 87.5,95C 85.6183,94.8019 83.9516,94.3019 82.5,93.5 Z"/></g>
<g><path style="opacity:1" fill="#fefcec" d="M 198.5,93.5 C 198.5,92.5 198.5,91.5 198.5,90.5C 158.832,90.3333 119.165,90.5 79.5,91C 80.5707,91.8518 81.5707,92.6851 82.5,93.5C 79.911,93.539 77.911,92.539 76.5,90.5C 117.459,89.3449 158.459,89.1782 199.5,90C 208.425,90.9829 208.092,92.1496 198.5,93.5 Z"/></g>
<g><path style="opacity:1" fill="#fefef6" d="M 198.5,93.5 C 198.167,93.5 197.833,93.5 197.5,93.5C 159.167,93.5 120.833,93.5 82.5,93.5C 81.5707,92.6851 80.5707,91.8518 79.5,91C 119.165,90.5 158.832,90.3333 198.5,90.5C 198.5,91.5 198.5,92.5 198.5,93.5 Z"/></g>
<g><path style="opacity:1" fill="#fee87e" d="M 344.5,78.5 C 345.873,78.3433 347.207,78.51 348.5,79C 354.197,81.515 359.864,84.1817 365.5,87C 375.467,87.7812 385.133,89.6146 394.5,92.5C 403.28,94.1476 411.947,96.3143 420.5,99C 426.157,99.4994 431.824,99.6661 437.5,99.5C 436.265,96.9203 434.599,94.587 432.5,92.5C 437.898,92.2614 442.232,94.2614 445.5,98.5C 446.747,100.042 446.747,101.542 445.5,103C 437.764,103.55 430.097,103.05 422.5,101.5C 416.325,100.617 410.325,98.7838 404.5,96C 390.55,94.253 376.883,91.753 363.5,88.5C 356.977,85.4066 350.644,82.0733 344.5,78.5 Z"/></g>
<g><path style="opacity:1" fill="#fef0ae" d="M 223.5,96.5 C 223.38,97.5862 222.713,98.2528 221.5,98.5C 217.841,99.2763 214.175,99.943 210.5,100.5C 165.189,101.646 119.856,101.813 74.5,101C 70.3531,99.8905 66.3531,98.7239 62.5,97.5C 69.1006,98.6389 75.7672,99.4722 82.5,100C 120.5,100.667 158.5,100.667 196.5,100C 205.667,99.9568 214.667,98.7902 223.5,96.5 Z"/></g>
<g><path style="opacity:1" fill="#fdec9a" d="M 226.5,88.5 C 230.774,88.2573 234.441,89.5906 237.5,92.5C 235.01,95.1553 232.344,97.6553 229.5,100C 223.215,101.27 216.882,102.103 210.5,102.5C 209.5,102.5 208.5,102.5 207.5,102.5C 208.5,101.833 209.5,101.167 210.5,100.5C 214.175,99.943 217.841,99.2763 221.5,98.5C 222.713,98.2528 223.38,97.5862 223.5,96.5C 224.922,96.2914 226.255,95.7914 227.5,95C 231.591,92.0387 231.257,89.872 226.5,88.5 Z"/></g>
<g><path style="opacity:1" fill="#fbeea0" d="M 461.5,99.5 C 463.027,99.427 464.027,100.094 464.5,101.5C 462.973,101.573 461.973,100.906 461.5,99.5 Z"/></g>
<g><path style="opacity:1" fill="#fefbdf" d="M 459.5,97.5 C 464.293,98.733 468.626,100.733 472.5,103.5C 471.833,103.5 471.167,103.5 470.5,103.5C 468.5,102.833 466.5,102.167 464.5,101.5C 464.027,100.094 463.027,99.427 461.5,99.5C 461.167,99.5 460.833,99.5 460.5,99.5C 460.167,98.8333 459.833,98.1667 459.5,97.5 Z"/></g>
<g><path style="opacity:1" fill="#feeea1" d="M 63.5,88.5 C 63.5,88.8333 63.5,89.1667 63.5,89.5C 60.2784,89.1081 57.2784,89.6081 54.5,91C 56.749,93.7557 59.4156,95.9224 62.5,97.5C 66.3531,98.7239 70.3531,99.8905 74.5,101C 119.856,101.813 165.189,101.646 210.5,100.5C 209.5,101.167 208.5,101.833 207.5,102.5C 164.185,103.64 120.852,103.806 77.5,103C 72.878,101.844 68.2113,101.01 63.5,100.5C 61.3277,99.1983 58.9944,98.0317 56.5,97C 54.7807,94.2805 52.4474,92.2805 49.5,91C 53.8743,88.8986 58.5409,88.0653 63.5,88.5 Z"/></g>
<g><path style="opacity:1" fill="#feeb8f" d="M 46.5,90.5 C 47.2423,92.4258 48.2423,94.2591 49.5,96C 53.8918,98.4085 58.5584,99.9085 63.5,100.5C 68.2113,101.01 72.878,101.844 77.5,103C 120.852,103.806 164.185,103.64 207.5,102.5C 208.5,102.5 209.5,102.5 210.5,102.5C 209.048,103.302 207.382,103.802 205.5,104C 158.822,104.787 112.156,104.621 65.5,103.5C 64.8333,103.5 64.1667,103.5 63.5,103.5C 57.9427,101.615 52.276,99.6147 46.5,97.5C 45.9661,95.3855 44.9661,93.5522 43.5,92C 44.2438,90.9614 45.2438,90.4614 46.5,90.5 Z"/></g>
<g><path style="opacity:1" fill="#fee986" d="M 223.5,88.5 C 223.5,88.1667 223.5,87.8333 223.5,87.5C 231.334,87.106 239.001,87.9393 246.5,90C 247.798,92.4992 247.464,94.8325 245.5,97C 236.707,100.34 227.707,102.673 218.5,104C 170.519,105.439 122.519,105.939 74.5,105.5C 71.2727,105.324 68.2727,104.657 65.5,103.5C 112.156,104.621 158.822,104.787 205.5,104C 207.382,103.802 209.048,103.302 210.5,102.5C 216.882,102.103 223.215,101.27 229.5,100C 232.344,97.6553 235.01,95.1553 237.5,92.5C 234.441,89.5906 230.774,88.2573 226.5,88.5C 225.5,88.5 224.5,88.5 223.5,88.5 Z"/></g>
<g><path style="opacity:1" fill="#fcf0ac" d="M 470.5,103.5 C 471.167,103.5 471.833,103.5 472.5,103.5C 472.833,104.167 473.167,104.833 473.5,105.5C 471.973,105.573 470.973,104.906 470.5,103.5 Z"/></g>
<g><path style="opacity:1" fill="#fee672" d="M 46.5,87.5 C 46.5,87.8333 46.5,88.1667 46.5,88.5C 43.1174,88.2572 39.9508,88.9239 37,90.5C 36.2438,92.8087 36.7438,94.8087 38.5,96.5C 45.7257,102.328 54.059,104.661 63.5,103.5C 64.1667,103.5 64.8333,103.5 65.5,103.5C 68.2727,104.657 71.2727,105.324 74.5,105.5C 114.33,106.499 154.33,106.832 194.5,106.5C 154.337,107.499 114.003,107.832 73.5,107.5C 64.1007,106.903 54.7673,105.736 45.5,104C 38.7752,101.618 34.6086,97.1181 33,90.5C 37.1355,88.0011 41.6355,87.0011 46.5,87.5 Z"/></g>
<g><path style="opacity:1" fill="#fee679" d="M 209.5,86.5 C 221.88,86.1304 234.214,86.6304 246.5,88C 247.858,88.9344 249.192,89.7677 250.5,90.5C 252.406,93.9478 251.739,96.7812 248.5,99C 243.956,100.971 239.289,102.637 234.5,104C 221.227,105.827 207.893,106.661 194.5,106.5C 154.33,106.832 114.33,106.499 74.5,105.5C 122.519,105.939 170.519,105.439 218.5,104C 227.707,102.673 236.707,100.34 245.5,97C 247.464,94.8325 247.798,92.4992 246.5,90C 239.001,87.9393 231.334,87.106 223.5,87.5C 218.637,87.8195 213.97,87.4861 209.5,86.5 Z"/></g>
<g><path style="opacity:1" fill="#fee46a" d="M 250.5,90.5 C 252.372,91.5114 254.372,92.3448 256.5,93C 256.164,95.3015 254.831,97.4681 252.5,99.5C 242.417,104.365 231.75,107.199 220.5,108C 171.332,108.832 122.332,108.665 73.5,107.5C 114.003,107.832 154.337,107.499 194.5,106.5C 207.893,106.661 221.227,105.827 234.5,104C 239.289,102.637 243.956,100.971 248.5,99C 251.739,96.7812 252.406,93.9478 250.5,90.5 Z"/></g>
<g><path style="opacity:1" fill="#faeda2" d="M 474.5,105.5 C 476.027,105.427 477.027,106.094 477.5,107.5C 475.973,107.573 474.973,106.906 474.5,105.5 Z"/></g>
<g><path style="opacity:1" fill="#fffde2" d="M 472.5,103.5 C 480.298,106.421 487.631,110.087 494.5,114.5C 493.833,114.5 493.167,114.5 492.5,114.5C 491.791,113.596 490.791,113.263 489.5,113.5C 489.027,112.094 488.027,111.427 486.5,111.5C 486.167,111.5 485.833,111.5 485.5,111.5C 485.027,110.094 484.027,109.427 482.5,109.5C 482.167,109.5 481.833,109.5 481.5,109.5C 481.027,108.094 480.027,107.427 478.5,107.5C 478.167,107.5 477.833,107.5 477.5,107.5C 477.027,106.094 476.027,105.427 474.5,105.5C 474.167,105.5 473.833,105.5 473.5,105.5C 473.167,104.833 472.833,104.167 472.5,103.5 Z"/></g>
<g><path style="opacity:1" fill="#faefa6" d="M 478.5,107.5 C 480.027,107.427 481.027,108.094 481.5,109.5C 479.973,109.573 478.973,108.906 478.5,107.5 Z"/></g>
<g><path style="opacity:1" fill="#f9d047" d="M 0.5,84.5 C 2.52848,86.8206 4.86181,88.154 7.5,88.5C 8.22901,90.9762 8.89568,93.4762 9.5,96C 7.53018,115.775 7.03018,135.608 8,155.5C 9.27095,158.433 10.9376,161.099 13,163.5C 14.1492,175.137 20.6492,180.47 32.5,179.5C 34.717,180.369 37.0504,180.702 39.5,180.5C 33.69,181.49 27.69,181.823 21.5,181.5C 20.0813,180.549 18.4147,180.216 16.5,180.5C 16.5,179.5 16.5,178.5 16.5,177.5C 12.8176,176.702 9.3176,175.369 6,173.5C 6.00371,145.114 4.83704,116.78 2.5,88.5C 1.81654,88.1373 1.14987,87.8039 0.5,87.5C 0.5,86.5 0.5,85.5 0.5,84.5 Z"/></g>
<g><path style="opacity:1" fill="#f7e89a" d="M 482.5,110.5 C 482.5,110.167 482.5,109.833 482.5,109.5C 484.027,109.427 485.027,110.094 485.5,111.5C 484.391,111.443 483.391,111.11 482.5,110.5 Z"/></g>
<g><path style="opacity:1" fill="#f6e596" d="M 486.5,111.5 C 488.027,111.427 489.027,112.094 489.5,113.5C 487.973,113.573 486.973,112.906 486.5,111.5 Z"/></g>
<g><path style="opacity:1" fill="#fdf6bf" d="M 492.5,114.5 C 493.167,114.5 493.833,114.5 494.5,114.5C 496.404,114.738 497.738,115.738 498.5,117.5C 497.391,117.443 496.391,117.11 495.5,116.5C 494.5,115.833 493.5,115.167 492.5,114.5 Z"/></g>
<g><path style="opacity:1" fill="#fefacb" d="M 500.5,117.5 C 502.967,117.755 504.967,118.755 506.5,120.5C 504.033,120.245 502.033,119.245 500.5,117.5 Z"/></g>
<g><path style="opacity:1" fill="#fffbd9" d="M 506.5,120.5 C 511.001,121.087 515.001,122.754 518.5,125.5C 516.435,125.483 514.435,125.15 512.5,124.5C 510.5,123.167 508.5,121.833 506.5,120.5 Z"/></g>
<g><path style="opacity:1" fill="#f9e26e" d="M 495.5,116.5 C 496.391,117.11 497.391,117.443 498.5,117.5C 499.167,117.5 499.833,117.5 500.5,117.5C 502.033,119.245 504.033,120.245 506.5,120.5C 508.5,121.833 510.5,123.167 512.5,124.5C 507.36,123.423 502.36,121.757 497.5,119.5C 496.388,118.735 495.721,117.735 495.5,116.5 Z"/></g>
<g><path style="opacity:1" fill="#fefbdb" d="M 518.5,125.5 C 521.119,125.925 523.453,126.925 525.5,128.5C 525.5,128.833 525.5,129.167 525.5,129.5C 522.386,129.445 520.052,128.112 518.5,125.5 Z"/></g>
<g><path style="opacity:1" fill="#f8de78" d="M 512.5,124.5 C 514.435,125.15 516.435,125.483 518.5,125.5C 520.052,128.112 522.386,129.445 525.5,129.5C 525.5,130.833 525.5,132.167 525.5,133.5C 525.167,133.5 524.833,133.5 524.5,133.5C 524.5,133.167 524.5,132.833 524.5,132.5C 521.421,130.722 518.421,128.722 515.5,126.5C 513.973,126.573 512.973,125.906 512.5,124.5 Z"/></g>
<g><path style="opacity:1" fill="#f4cc4e" d="M 524.5,132.5 C 524.5,132.833 524.5,133.167 524.5,133.5C 522.973,133.427 521.973,134.094 521.5,135.5C 518.455,136.279 515.789,137.613 513.5,139.5C 513.167,139.5 512.833,139.5 512.5,139.5C 510.847,139.66 509.514,140.326 508.5,141.5C 505.331,142.917 502.331,144.583 499.5,146.5C 497.326,146.75 495.659,147.75 494.5,149.5C 492.282,149.614 490.282,150.28 488.5,151.5C 486.973,151.427 485.973,152.094 485.5,153.5C 483.821,153.285 482.821,153.952 482.5,155.5C 481.5,155.5 480.5,155.5 479.5,155.5C 480.953,154.175 480.619,153.342 478.5,153C 480.5,152.667 482.5,152.333 484.5,152C 484.167,151.667 483.833,151.333 483.5,151C 487.459,150.636 490.459,148.803 492.5,145.5C 498.618,145.134 503.285,142.467 506.5,137.5C 509.097,134.429 511.93,134.096 515,136.5C 515.5,136.167 516,135.833 516.5,135.5C 515.624,134.749 514.624,134.249 513.5,134C 517.17,133.452 520.837,132.952 524.5,132.5 Z"/></g>
<g><path style="opacity:1" fill="#fef3bb" d="M 524.5,133.5 C 524.833,133.5 525.167,133.5 525.5,133.5C 525.5,133.833 525.5,134.167 525.5,134.5C 524.167,134.833 522.833,135.167 521.5,135.5C 521.973,134.094 522.973,133.427 524.5,133.5 Z"/></g>
<g><path style="opacity:1" fill="#fefefe" d="M 525.5,135.5 C 525.5,182.833 525.5,230.167 525.5,277.5C 350.167,277.5 174.833,277.5 -0.5,277.5C -0.5,249.833 -0.5,222.167 -0.5,194.5C 0.166667,194.5 0.833333,194.5 1.5,194.5C 87.999,195.333 174.666,195.833 261.5,196C 262.162,218.598 262.828,241.098 263.5,263.5C 263.833,263.5 264.167,263.5 264.5,263.5C 267.285,264.885 269.618,264.218 271.5,261.5C 273.848,261.408 275.514,260.408 276.5,258.5C 282.754,257.373 288.087,254.707 292.5,250.5C 294.989,250.759 296.656,249.759 297.5,247.5C 297.833,247.5 298.167,247.5 298.5,247.5C 300.801,246.94 303.134,246.44 305.5,246C 307.063,245.241 308.063,244.074 308.5,242.5C 311.491,242.834 313.824,241.834 315.5,239.5C 318.198,239.155 320.198,237.822 321.5,235.5C 323.547,235.489 325.547,235.156 327.5,234.5C 337.376,229.47 347.376,224.636 357.5,220C 359.767,219.106 361.434,217.606 362.5,215.5C 365.953,215.463 368.619,214.129 370.5,211.5C 372.027,211.573 373.027,210.906 373.5,209.5C 378.395,209.053 382.395,207.053 385.5,203.5C 389.297,203.128 392.63,201.794 395.5,199.5C 397.674,199.25 399.341,198.25 400.5,196.5C 401.167,195.833 401.833,195.167 402.5,194.5C 404.403,194.204 406.07,193.537 407.5,192.5C 411.684,192.408 415.017,190.741 417.5,187.5C 418.605,186.4 419.938,185.733 421.5,185.5C 423.027,185.573 424.027,184.906 424.5,183.5C 425.167,183.5 425.833,183.5 426.5,183.5C 429.105,183.379 431.105,182.379 432.5,180.5C 436.635,179.791 440.302,178.125 443.5,175.5C 446.844,174.492 450.177,173.492 453.5,172.5C 453.5,171.5 453.5,170.5 453.5,169.5C 454.167,169.5 454.833,169.5 455.5,169.5C 459.664,168.319 463.331,166.319 466.5,163.5C 468.153,163.34 469.486,162.674 470.5,161.5C 475.098,160.535 479.098,158.535 482.5,155.5C 487.336,155.037 491.336,153.037 494.5,149.5C 496.848,149.408 498.514,148.408 499.5,146.5C 503.715,146.939 506.715,145.273 508.5,141.5C 510.483,141.843 511.817,141.176 512.5,139.5C 512.833,139.5 513.167,139.5 513.5,139.5C 517.579,138.363 521.579,137.029 525.5,135.5 Z"/></g>
<g><path style="opacity:1" fill="#fff8d6" d="M 525.5,134.5 C 525.5,134.833 525.5,135.167 525.5,135.5C 521.579,137.029 517.579,138.363 513.5,139.5C 515.789,137.613 518.455,136.279 521.5,135.5C 522.833,135.167 524.167,134.833 525.5,134.5 Z"/></g>
<g><path style="opacity:1" fill="#fdecb8" d="M 512.5,139.5 C 511.817,141.176 510.483,141.843 508.5,141.5C 509.514,140.326 510.847,139.66 512.5,139.5 Z"/></g>
<g><path style="opacity:1" fill="#fef6d4" d="M 508.5,141.5 C 506.715,145.273 503.715,146.939 499.5,146.5C 502.331,144.583 505.331,142.917 508.5,141.5 Z"/></g>
<g><path style="opacity:1" fill="#fff6d3" d="M 499.5,146.5 C 498.514,148.408 496.848,149.408 494.5,149.5C 495.659,147.75 497.326,146.75 499.5,146.5 Z"/></g>
<g><path style="opacity:1" fill="#fedd4f" d="M 335.5,205.5 C 337.113,204.308 338.78,203.308 340.5,202.5C 347.637,199.9 354.971,197.9 362.5,196.5C 361.013,197.804 359.346,198.97 357.5,200C 353.117,201.012 348.784,202.179 344.5,203.5C 339.508,207.665 333.842,210.165 327.5,211C 321.177,214.036 314.677,216.536 308,218.5C 300.252,217.959 293.086,215.792 286.5,212C 285.594,210.301 285.261,208.467 285.5,206.5C 283.278,206.822 281.444,206.155 280,204.5C 279.574,194.066 278.407,183.732 276.5,173.5C 273.537,173.047 271.204,171.547 269.5,169C 268.333,168.833 267.167,168.667 266,168.5C 257.512,170.545 249.012,172.712 240.5,175C 228.677,175.136 217.01,176.303 205.5,178.5C 206.936,176.917 208.602,175.417 210.5,174C 206.838,171.675 202.838,170.342 198.5,170C 198.957,169.586 199.291,169.086 199.5,168.5C 205.694,166.886 212.027,165.72 218.5,165C 221.167,164 223.833,163 226.5,162C 226.833,161 227.167,160 227.5,159C 225.5,158 223.5,157 221.5,156C 224.167,155.333 224.167,154.667 221.5,154C 230.184,148.933 239.351,148.099 249,151.5C 258.286,150.958 267.786,150.791 277.5,151C 279.081,151.707 280.581,152.54 282,153.5C 284.801,159.583 286.301,166.249 286.5,173.5C 289.167,173.5 291.833,173.5 294.5,173.5C 294.942,169.963 295.942,166.63 297.5,163.5C 298.833,163.5 300.167,163.5 301.5,163.5C 302.207,166.786 302.54,170.119 302.5,173.5C 308.176,173.334 313.843,173.501 319.5,174C 317.567,174.251 315.734,174.751 314,175.5C 312.221,177.923 311.554,180.59 312,183.5C 316.231,184.293 320.398,185.459 324.5,187C 320.333,191.668 315.499,195.501 310,198.5C 308.916,201.249 308.083,204.082 307.5,207C 310.317,212.228 314.65,213.895 320.5,212C 324.494,209.226 328.994,207.726 334,207.5C 335.03,207.164 335.53,206.497 335.5,205.5 Z"/></g>
<g><path style="opacity:1" fill="#fdd74c" d="M 515.5,126.5 C 518.421,128.722 521.421,130.722 524.5,132.5C 520.837,132.952 517.17,133.452 513.5,134C 514.624,134.249 515.624,134.749 516.5,135.5C 516,135.833 515.5,136.167 515,136.5C 511.93,134.096 509.097,134.429 506.5,137.5C 500.412,139.745 494.412,142.245 488.5,145C 487.167,145.667 487.167,146.333 488.5,147C 481.971,148.018 476.138,150.518 471,154.5C 470.586,154.043 470.086,153.709 469.5,153.5C 461.789,158.236 454.122,162.902 446.5,167.5C 443.251,168.041 439.918,168.207 436.5,168C 433.761,168.798 431.761,170.465 430.5,173C 428.101,173.711 425.768,173.544 423.5,172.5C 418.578,174.128 413.578,175.461 408.5,176.5C 412.16,174.478 415.827,172.312 419.5,170C 421.134,169.506 422.801,169.34 424.5,169.5C 429.361,168.897 434.027,167.73 438.5,166C 447.005,160.788 456.005,156.622 465.5,153.5C 466.386,152.675 466.719,151.675 466.5,150.5C 472.668,149.272 478.334,146.772 483.5,143C 485.5,142.667 487.5,142.333 489.5,142C 492.106,141.55 493.439,140.05 493.5,137.5C 500.365,135.246 507.365,133.246 514.5,131.5C 515.5,130.833 516.5,130.167 517.5,129.5C 516.388,128.735 515.721,127.735 515.5,126.5 Z"/></g>
<g><path style="opacity:1" fill="#f9cf49" d="M 506.5,137.5 C 503.285,142.467 498.618,145.134 492.5,145.5C 490.459,148.803 487.459,150.636 483.5,151C 483.833,151.333 484.167,151.667 484.5,152C 482.5,152.333 480.5,152.667 478.5,153C 480.619,153.342 480.953,154.175 479.5,155.5C 476.338,157.248 473.338,159.248 470.5,161.5C 468.517,161.157 467.183,161.824 466.5,163.5C 464.282,163.614 462.282,164.28 460.5,165.5C 458.973,165.427 457.973,166.094 457.5,167.5C 457.167,167.5 456.833,167.5 456.5,167.5C 454.973,167.427 453.973,168.094 453.5,169.5C 452.391,169.557 451.391,169.89 450.5,170.5C 449.5,170.5 448.5,170.5 447.5,170.5C 446.89,169.609 446.557,168.609 446.5,167.5C 454.122,162.902 461.789,158.236 469.5,153.5C 470.086,153.709 470.586,154.043 471,154.5C 476.138,150.518 481.971,148.018 488.5,147C 487.167,146.333 487.167,145.667 488.5,145C 494.412,142.245 500.412,139.745 506.5,137.5 Z"/></g>
<g><path style="opacity:1" fill="#fce9a7" d="M 488.5,151.5 C 488.027,152.906 487.027,153.573 485.5,153.5C 485.973,152.094 486.973,151.427 488.5,151.5 Z"/></g>
<g><path style="opacity:1" fill="#fefadc" d="M 494.5,149.5 C 491.336,153.037 487.336,155.037 482.5,155.5C 482.821,153.952 483.821,153.285 485.5,153.5C 487.027,153.573 488.027,152.906 488.5,151.5C 490.282,150.28 492.282,149.614 494.5,149.5 Z"/></g>
<g><path style="opacity:1" fill="#fef7d1" d="M 479.5,155.5 C 480.5,155.5 481.5,155.5 482.5,155.5C 479.098,158.535 475.098,160.535 470.5,161.5C 473.338,159.248 476.338,157.248 479.5,155.5 Z"/></g>
<g><path style="opacity:1" fill="#fdf3c4" d="M 470.5,161.5 C 469.486,162.674 468.153,163.34 466.5,163.5C 467.183,161.824 468.517,161.157 470.5,161.5 Z"/></g>
<g><path style="opacity:1" fill="#fee361" d="M 424.5,169.5 C 422.801,169.34 421.134,169.506 419.5,170C 415.827,172.312 412.16,174.478 408.5,176.5C 405.167,177.5 401.833,178.5 398.5,179.5C 400.322,177.99 402.322,176.657 404.5,175.5C 407.372,175.365 408.872,174.031 409,171.5C 405.943,170.549 402.777,170.216 399.5,170.5C 408.426,168.04 417.593,166.04 427,164.5C 428.167,164.833 429.333,165.167 430.5,165.5C 430.333,165.833 430.167,166.167 430,166.5C 427.791,166.989 425.958,167.989 424.5,169.5 Z"/></g>
<g><path style="opacity:1" fill="#f9e5a8" d="M 460.5,165.5 C 460.027,166.906 459.027,167.573 457.5,167.5C 457.973,166.094 458.973,165.427 460.5,165.5 Z"/></g>
<g><path style="opacity:1" fill="#fefae1" d="M 466.5,163.5 C 463.331,166.319 459.664,168.319 455.5,169.5C 455.833,168.833 456.167,168.167 456.5,167.5C 456.833,167.5 457.167,167.5 457.5,167.5C 459.027,167.573 460.027,166.906 460.5,165.5C 462.282,164.28 464.282,163.614 466.5,163.5 Z"/></g>
<g><path style="opacity:1" fill="#fce7a2" d="M 456.5,167.5 C 456.167,168.167 455.833,168.833 455.5,169.5C 454.833,169.5 454.167,169.5 453.5,169.5C 453.973,168.094 454.973,167.427 456.5,167.5 Z"/></g>
<g><path style="opacity:1" fill="#fdd749" d="M 362.5,196.5 C 363.833,195.5 365.167,194.5 366.5,193.5C 370.532,191.153 374.532,188.82 378.5,186.5C 378.833,186.5 379.167,186.5 379.5,186.5C 380.833,186.5 382.167,186.5 383.5,186.5C 372.962,191.781 362.962,198.114 353.5,205.5C 352.914,205.291 352.414,204.957 352,204.5C 343.594,210.125 334.427,213.625 324.5,215C 318.706,219.897 312.039,223.23 304.5,225C 297.187,226.743 290.021,228.91 283,231.5C 280.037,230.274 276.87,230.441 273.5,232C 272.856,234.74 271.689,237.24 270,239.5C 268.841,223.727 268.008,207.894 267.5,192C 268.504,189.65 269.504,187.316 270.5,185C 269.643,184.311 268.977,183.478 268.5,182.5C 265.687,181.771 263.687,180.604 262.5,179C 259.139,178.663 255.806,178.163 252.5,177.5C 236.007,178.24 219.674,179.24 203.5,180.5C 188.807,180.964 174.14,180.964 159.5,180.5C 161.607,179.532 163.941,179.198 166.5,179.5C 169.833,179.5 173.167,179.5 176.5,179.5C 186.165,179.122 195.831,178.789 205.5,178.5C 217.01,176.303 228.677,175.136 240.5,175C 249.012,172.712 257.512,170.545 266,168.5C 267.167,168.667 268.333,168.833 269.5,169C 271.204,171.547 273.537,173.047 276.5,173.5C 278.407,183.732 279.574,194.066 280,204.5C 281.444,206.155 283.278,206.822 285.5,206.5C 285.261,208.467 285.594,210.301 286.5,212C 293.086,215.792 300.252,217.959 308,218.5C 314.677,216.536 321.177,214.036 327.5,211C 333.842,210.165 339.508,207.665 344.5,203.5C 348.784,202.179 353.117,201.012 357.5,200C 359.346,198.97 361.013,197.804 362.5,196.5 Z"/></g>
<g><path style="opacity:1" fill="#fee05a" d="M 76.5,168.5 C 105.221,169.837 134.721,171.171 165,172.5C 170.087,171.713 174.92,172.713 179.5,175.5C 179.137,176.183 178.804,176.85 178.5,177.5C 177.5,177.833 176.833,178.5 176.5,179.5C 173.167,179.5 169.833,179.5 166.5,179.5C 166.5,179.167 166.5,178.833 166.5,178.5C 169.018,177.306 169.018,176.14 166.5,175C 160.011,173.037 153.344,172.037 146.5,172C 122.833,171.333 99.1667,171.333 75.5,172C 63.7919,172.139 52.1252,172.806 40.5,174C 38.5,175 36.5,176 34.5,177C 35.8866,178.683 37.5533,179.85 39.5,180.5C 37.0504,180.702 34.717,180.369 32.5,179.5C 32.1667,178.5 31.5,177.833 30.5,177.5C 30.5323,175.433 31.5323,174.1 33.5,173.5C 38.9662,173.556 44.2996,172.222 49.5,169.5C 50.086,169.709 50.586,170.043 51,170.5C 59.5985,169.846 68.0985,169.18 76.5,168.5 Z"/></g>
<g><path style="opacity:1" fill="#fee87d" d="M 399.5,170.5 C 402.777,170.216 405.943,170.549 409,171.5C 408.872,174.031 407.372,175.365 404.5,175.5C 405.141,174.518 405.807,173.518 406.5,172.5C 405.5,172.167 404.5,171.833 403.5,171.5C 399.984,172.919 396.318,173.586 392.5,173.5C 394.461,171.887 396.794,170.887 399.5,170.5 Z"/></g>
<g><path style="opacity:1" fill="#fee266" d="M 166.5,178.5 C 165.833,178.5 165.167,178.5 164.5,178.5C 164.918,177.778 165.584,177.278 166.5,177C 163.34,175.629 160.006,174.629 156.5,174C 141.192,172.763 125.859,172.263 110.5,172.5C 89.8245,172.586 69.1578,173.086 48.5,174C 45.417,174.895 42.417,175.895 39.5,177C 41.5463,178.842 43.8797,180.009 46.5,180.5C 44.1667,180.5 41.8333,180.5 39.5,180.5C 37.5533,179.85 35.8866,178.683 34.5,177C 36.5,176 38.5,175 40.5,174C 52.1252,172.806 63.7919,172.139 75.5,172C 99.1667,171.333 122.833,171.333 146.5,172C 153.344,172.037 160.011,173.037 166.5,175C 169.018,176.14 169.018,177.306 166.5,178.5 Z"/></g>
<g><path style="opacity:1" fill="#fefbe0" d="M 453.5,169.5 C 453.5,170.5 453.5,171.5 453.5,172.5C 450.177,173.492 446.844,174.492 443.5,175.5C 443.833,174.833 444.167,174.167 444.5,173.5C 446.544,172.492 448.544,171.492 450.5,170.5C 451.391,169.89 452.391,169.557 453.5,169.5 Z"/></g>
<g><path style="opacity:1" fill="#feeea8" d="M 78.5,174.5 C 88.9869,173.506 99.6536,173.172 110.5,173.5C 116.167,173.5 121.833,173.5 127.5,173.5C 127.5,173.833 127.5,174.167 127.5,174.5C 127.5,174.833 127.5,175.167 127.5,175.5C 121.5,175.5 115.5,175.5 109.5,175.5C 107.5,175.5 105.5,175.5 103.5,175.5C 95.3501,174.507 87.0168,174.174 78.5,174.5 Z"/></g>
<g><path style="opacity:1" fill="#fee672" d="M 110.5,173.5 C 110.5,173.167 110.5,172.833 110.5,172.5C 125.859,172.263 141.192,172.763 156.5,174C 160.006,174.629 163.34,175.629 166.5,177C 165.584,177.278 164.918,177.778 164.5,178.5C 162.5,178.5 160.5,178.5 158.5,178.5C 158.918,177.778 159.584,177.278 160.5,177C 158.715,175.837 156.715,175.17 154.5,175C 145.523,174.035 136.523,173.535 127.5,173.5C 121.833,173.5 116.167,173.5 110.5,173.5 Z"/></g>
<g><path style="opacity:1" fill="#fde57a" d="M 392.5,173.5 C 388.761,175.102 384.761,176.102 380.5,176.5C 384.076,174.272 388.076,173.272 392.5,173.5 Z"/></g>
<g><path style="opacity:1" fill="#fff4b7" d="M 404.5,175.5 C 402.322,176.657 400.322,177.99 398.5,179.5C 398.167,179.5 397.833,179.5 397.5,179.5C 395.435,179.517 393.435,179.85 391.5,180.5C 393.026,178.87 395.026,178.037 397.5,178C 398.5,177 399.5,176 400.5,175C 391.858,176.355 383.191,177.855 374.5,179.5C 376.5,178.5 378.5,177.5 380.5,176.5C 384.761,176.102 388.761,175.102 392.5,173.5C 396.318,173.586 399.984,172.919 403.5,171.5C 404.5,171.833 405.5,172.167 406.5,172.5C 405.807,173.518 405.141,174.518 404.5,175.5 Z"/></g>
<g><path style="opacity:1" fill="#fbe17c" d="M 110.5,172.5 C 110.5,172.833 110.5,173.167 110.5,173.5C 99.6536,173.172 88.9869,173.506 78.5,174.5C 78.1667,174.5 77.8333,174.5 77.5,174.5C 72.5,174.5 67.5,174.5 62.5,174.5C 58.0983,174.228 53.7649,174.561 49.5,175.5C 48.269,176.651 48.269,177.817 49.5,179C 51.1341,179.494 52.8008,179.66 54.5,179.5C 71.1497,180.373 87.8163,180.706 104.5,180.5C 104.5,180.833 104.5,181.167 104.5,181.5C 85.5,181.5 66.5,181.5 47.5,181.5C 47.5,180.833 47.1667,180.5 46.5,180.5C 43.8797,180.009 41.5463,178.842 39.5,177C 42.417,175.895 45.417,174.895 48.5,174C 69.1578,173.086 89.8245,172.586 110.5,172.5 Z"/></g>
<g><path style="opacity:1" fill="#fae8a7" d="M 444.5,173.5 C 444.167,174.167 443.833,174.833 443.5,175.5C 442.833,175.5 442.167,175.5 441.5,175.5C 441.973,174.094 442.973,173.427 444.5,173.5 Z"/></g>
<g><path style="opacity:1" fill="#f6c650" d="M -0.5,81.5 C 0.403972,82.209 0.737305,83.209 0.5,84.5C 0.5,85.5 0.5,86.5 0.5,87.5C 1.95954,107.405 2.6262,127.405 2.5,147.5C 2.48185,160.525 2.14852,173.525 1.5,186.5C 1.71893,188.915 3.05227,189.915 5.5,189.5C 76.8333,189.5 148.167,189.5 219.5,189.5C 233.171,189.333 246.837,189.5 260.5,190C 262.324,190.66 263.657,191.827 264.5,193.5C 176.167,193.5 87.8333,193.5 -0.5,193.5C -0.5,156.167 -0.5,118.833 -0.5,81.5 Z"/></g>
<g><path style="opacity:1" fill="#f7cb43" d="M 0.5,87.5 C 1.14987,87.8039 1.81654,88.1373 2.5,88.5C 4.83704,116.78 6.00371,145.114 6,173.5C 9.3176,175.369 12.8176,176.702 16.5,177.5C 16.5,178.5 16.5,179.5 16.5,180.5C 18.4147,180.216 20.0813,180.549 21.5,181.5C 19.1667,181.5 16.8333,181.5 14.5,181.5C 14.5,182.5 14.5,183.5 14.5,184.5C 12.8762,184.64 11.7096,183.973 11,182.5C 10,185.167 9,185.167 8,182.5C 7.66667,184.5 7.33333,186.5 7,188.5C 5.91253,186.068 5.41253,186.402 5.5,189.5C 3.05227,189.915 1.71893,188.915 1.5,186.5C 2.14852,173.525 2.48185,160.525 2.5,147.5C 2.6262,127.405 1.95954,107.405 0.5,87.5 Z"/></g>
<g><path style="opacity:1" fill="#fee980" d="M 127.5,174.5 C 127.5,174.167 127.5,173.833 127.5,173.5C 136.523,173.535 145.523,174.035 154.5,175C 156.715,175.17 158.715,175.837 160.5,177C 159.584,177.278 158.918,177.778 158.5,178.5C 153.213,179.342 147.88,179.676 142.5,179.5C 144.292,178.691 146.292,178.191 148.5,178C 149.634,176.984 149.301,176.317 147.5,176C 140.864,175.048 134.197,174.548 127.5,174.5 Z"/></g>
<g><path style="opacity:1" fill="#fde990" d="M 62.5,174.5 C 62.5,174.833 62.5,175.167 62.5,175.5C 59.8333,175.5 57.1667,175.5 54.5,175.5C 54.5,176.833 54.5,178.167 54.5,179.5C 52.8008,179.66 51.1341,179.494 49.5,179C 48.269,177.817 48.269,176.651 49.5,175.5C 53.7649,174.561 58.0983,174.228 62.5,174.5 Z"/></g>
<g><path style="opacity:1" fill="#fdec9a" d="M 127.5,175.5 C 127.5,175.167 127.5,174.833 127.5,174.5C 134.197,174.548 140.864,175.048 147.5,176C 149.301,176.317 149.634,176.984 148.5,178C 146.292,178.191 144.292,178.691 142.5,179.5C 130.185,180.315 117.852,180.649 105.5,180.5C 105.5,180.167 105.5,179.833 105.5,179.5C 107.833,179.5 110.167,179.5 112.5,179.5C 119.888,179.747 127.221,179.247 134.5,178C 134.833,177.667 135.167,177.333 135.5,177C 132.883,176.178 130.216,175.678 127.5,175.5 Z"/></g>
<g><path style="opacity:1" fill="#fef1b8" d="M 62.5,174.5 C 67.5,174.5 72.5,174.5 77.5,174.5C 75.2603,175.264 72.9269,176.098 70.5,177C 71.2524,177.671 71.5858,178.504 71.5,179.5C 66.5941,179.628 61.9274,178.794 57.5,177C 59.3817,176.802 61.0484,176.302 62.5,175.5C 62.5,175.167 62.5,174.833 62.5,174.5 Z"/></g>
<g><path style="opacity:1" fill="#fffce9" d="M 103.5,175.5 C 105.5,175.5 107.5,175.5 109.5,175.5C 110.609,176.29 111.942,176.79 113.5,177C 112.944,177.383 112.611,177.883 112.5,178.5C 99.8289,178.667 87.1623,178.5 74.5,178C 83.9638,175.98 93.6305,175.146 103.5,175.5 Z"/></g>
<g><path style="opacity:1" fill="#fef7cf" d="M 109.5,175.5 C 115.5,175.5 121.5,175.5 127.5,175.5C 127.5,176.5 127.5,177.5 127.5,178.5C 122.5,178.5 117.5,178.5 112.5,178.5C 112.611,177.883 112.944,177.383 113.5,177C 111.942,176.79 110.609,176.29 109.5,175.5 Z"/></g>
<g><path style="opacity:1" fill="#f3ca4d" d="M 447.5,170.5 C 448.5,170.5 449.5,170.5 450.5,170.5C 448.544,171.492 446.544,172.492 444.5,173.5C 442.973,173.427 441.973,174.094 441.5,175.5C 439.716,175.893 438.05,176.559 436.5,177.5C 434.973,177.427 433.973,178.094 433.5,179.5C 432.833,179.5 432.5,179.833 432.5,180.5C 430.033,180.755 428.033,181.755 426.5,183.5C 425.833,183.5 425.167,183.5 424.5,183.5C 422.973,183.427 421.973,184.094 421.5,185.5C 419.938,185.733 418.605,186.4 417.5,187.5C 413.948,188.791 410.614,190.458 407.5,192.5C 406.833,192.5 406.167,192.5 405.5,192.5C 405.5,191.5 405.5,190.5 405.5,189.5C 408.108,189.394 410.108,188.228 411.5,186C 413.218,185.654 414.885,185.154 416.5,184.5C 419.532,185.469 420.532,184.469 419.5,181.5C 422.558,179.612 425.725,177.946 429,176.5C 429.308,177.308 429.808,177.975 430.5,178.5C 431.167,177.5 431.833,176.5 432.5,175.5C 433.736,176.246 435.07,176.579 436.5,176.5C 436.5,175.5 436.5,174.5 436.5,173.5C 440.49,173.501 444.157,172.501 447.5,170.5 Z"/></g>
<g><path style="opacity:1" fill="#fefbe6" d="M 441.5,175.5 C 442.167,175.5 442.833,175.5 443.5,175.5C 440.302,178.125 436.635,179.791 432.5,180.5C 432.5,179.833 432.833,179.5 433.5,179.5C 435.027,179.573 436.027,178.906 436.5,177.5C 438.05,176.559 439.716,175.893 441.5,175.5 Z"/></g>
<g><path style="opacity:1" fill="#fdf3ce" d="M 77.5,174.5 C 77.8333,174.5 78.1667,174.5 78.5,174.5C 87.0168,174.174 95.3501,174.507 103.5,175.5C 93.6305,175.146 83.9638,175.98 74.5,178C 87.1623,178.5 99.8289,178.667 112.5,178.5C 112.5,178.833 112.5,179.167 112.5,179.5C 110.167,179.5 107.833,179.5 105.5,179.5C 94.1667,179.5 82.8333,179.5 71.5,179.5C 71.5858,178.504 71.2524,177.671 70.5,177C 72.9269,176.098 75.2603,175.264 77.5,174.5 Z"/></g>
<g><path style="opacity:1" fill="#feefb4" d="M 127.5,175.5 C 130.216,175.678 132.883,176.178 135.5,177C 135.167,177.333 134.833,177.667 134.5,178C 127.221,179.247 119.888,179.747 112.5,179.5C 112.5,179.167 112.5,178.833 112.5,178.5C 117.5,178.5 122.5,178.5 127.5,178.5C 127.5,177.5 127.5,176.5 127.5,175.5 Z"/></g>
<g><path style="opacity:1" fill="#fae8a8" d="M 436.5,177.5 C 436.027,178.906 435.027,179.573 433.5,179.5C 433.973,178.094 434.973,177.427 436.5,177.5 Z"/></g>
<g><path style="opacity:1" fill="#fbe7a5" d="M 62.5,175.5 C 61.0484,176.302 59.3817,176.802 57.5,177C 61.9274,178.794 66.5941,179.628 71.5,179.5C 82.8333,179.5 94.1667,179.5 105.5,179.5C 105.5,179.833 105.5,180.167 105.5,180.5C 105.167,180.5 104.833,180.5 104.5,180.5C 87.8163,180.706 71.1497,180.373 54.5,179.5C 54.5,178.167 54.5,176.833 54.5,175.5C 57.1667,175.5 59.8333,175.5 62.5,175.5 Z"/></g>
<g><path style="opacity:1" fill="#fefadd" d="M 391.5,180.5 C 390.391,180.557 389.391,180.89 388.5,181.5C 384.763,182.2 381.096,183.2 377.5,184.5C 378.574,183.115 379.907,181.949 381.5,181C 376.381,180.964 371.381,181.798 366.5,183.5C 366.5,183.167 366.5,182.833 366.5,182.5C 369.162,181.501 371.828,180.501 374.5,179.5C 383.191,177.855 391.858,176.355 400.5,175C 399.5,176 398.5,177 397.5,178C 395.026,178.037 393.026,178.87 391.5,180.5 Z"/></g>
<g><path style="opacity:1" fill="#f9d566" d="M 158.5,178.5 C 160.5,178.5 162.5,178.5 164.5,178.5C 165.167,178.5 165.833,178.5 166.5,178.5C 166.5,178.833 166.5,179.167 166.5,179.5C 163.941,179.198 161.607,179.532 159.5,180.5C 141.187,181.418 122.854,181.751 104.5,181.5C 104.5,181.167 104.5,180.833 104.5,180.5C 104.833,180.5 105.167,180.5 105.5,180.5C 117.852,180.649 130.185,180.315 142.5,179.5C 147.88,179.676 153.213,179.342 158.5,178.5 Z"/></g>
<g><path style="opacity:1" fill="#f6c540" d="M 39.5,180.5 C 41.8333,180.5 44.1667,180.5 46.5,180.5C 47.1667,180.5 47.5,180.833 47.5,181.5C 82.9961,182.498 118.663,182.832 154.5,182.5C 168.837,182.333 183.171,182.5 197.5,183C 202.03,184.632 206.696,185.632 211.5,186C 211.167,186.333 210.833,186.667 210.5,187C 213.797,187.204 216.797,188.037 219.5,189.5C 148.167,189.5 76.8333,189.5 5.5,189.5C 5.41253,186.402 5.91253,186.068 7,188.5C 7.33333,186.5 7.66667,184.5 8,182.5C 9,185.167 10,185.167 11,182.5C 11.7096,183.973 12.8762,184.64 14.5,184.5C 14.5,183.5 14.5,182.5 14.5,181.5C 16.8333,181.5 19.1667,181.5 21.5,181.5C 27.69,181.823 33.69,181.49 39.5,180.5 Z"/></g>
<g><path style="opacity:1" fill="#f4cd56" d="M 159.5,180.5 C 157.833,181.167 156.167,181.833 154.5,182.5C 118.663,182.832 82.9961,182.498 47.5,181.5C 66.5,181.5 85.5,181.5 104.5,181.5C 122.854,181.751 141.187,181.418 159.5,180.5 Z"/></g>
<g><path style="opacity:1" fill="#fffad6" d="M 432.5,180.5 C 431.105,182.379 429.105,183.379 426.5,183.5C 428.033,181.755 430.033,180.755 432.5,180.5 Z"/></g>
<g><path style="opacity:1" fill="#fee989" d="M 380.5,176.5 C 378.5,177.5 376.5,178.5 374.5,179.5C 371.828,180.501 369.162,181.501 366.5,182.5C 362.149,183.17 357.816,184.004 353.5,185C 352.944,185.383 352.611,185.883 352.5,186.5C 352.5,186.833 352.5,187.167 352.5,187.5C 349.549,187.287 346.882,187.954 344.5,189.5C 346.564,187.411 348.897,185.744 351.5,184.5C 361.397,182.589 371.064,179.922 380.5,176.5 Z"/></g>
<g><path style="opacity:1" fill="#f9e49d" d="M 424.5,183.5 C 424.027,184.906 423.027,185.573 421.5,185.5C 421.973,184.094 422.973,183.427 424.5,183.5 Z"/></g>
<g><path style="opacity:1" fill="#fef6d3" d="M 417.5,187.5 C 415.017,190.741 411.684,192.408 407.5,192.5C 410.614,190.458 413.948,188.791 417.5,187.5 Z"/></g>
<g><path style="opacity:1" fill="#fff9d4" d="M -0.5,194.5 C -0.5,194.167 -0.5,193.833 -0.5,193.5C 87.8333,193.5 176.167,193.5 264.5,193.5C 264.5,216.833 264.5,240.167 264.5,263.5C 264.167,263.5 263.833,263.5 263.5,263.5C 263.5,240.5 263.5,217.5 263.5,194.5C 176.167,194.5 88.8333,194.5 1.5,194.5C 0.833333,194.5 0.166667,194.5 -0.5,194.5 Z"/></g>
<g><path style="opacity:1" fill="#efd789" d="M 405.5,192.5 C 406.167,192.5 406.833,192.5 407.5,192.5C 406.07,193.537 404.403,194.204 402.5,194.5C 402.973,193.094 403.973,192.427 405.5,192.5 Z"/></g>
<g><path style="opacity:1" fill="#fefef8" d="M 1.5,194.5 C 88.8333,194.5 176.167,194.5 263.5,194.5C 263.5,217.5 263.5,240.5 263.5,263.5C 262.828,241.098 262.162,218.598 261.5,196C 174.666,195.833 87.999,195.333 1.5,194.5 Z"/></g>
<g><path style="opacity:1" fill="#eace74" d="M 402.5,194.5 C 401.833,195.167 401.167,195.833 400.5,196.5C 399.833,196.5 399.167,196.5 398.5,196.5C 399.287,194.896 400.62,194.229 402.5,194.5 Z"/></g>
<g><path style="opacity:1" fill="#fdf7d4" d="M 398.5,196.5 C 399.167,196.5 399.833,196.5 400.5,196.5C 399.341,198.25 397.674,199.25 395.5,199.5C 396.1,198.1 397.1,197.1 398.5,196.5 Z"/></g>
<g><path style="opacity:1" fill="#eaca5f" d="M 398.5,196.5 C 397.1,197.1 396.1,198.1 395.5,199.5C 393.708,199.366 392.042,199.699 390.5,200.5C 392.527,198.153 395.194,196.819 398.5,196.5 Z"/></g>
<g><path style="opacity:1" fill="#fef3c8" d="M 395.5,199.5 C 392.63,201.794 389.297,203.128 385.5,203.5C 386.965,202.263 388.632,201.263 390.5,200.5C 392.042,199.699 393.708,199.366 395.5,199.5 Z"/></g>
<g><path style="opacity:1" fill="#fdf3cd" d="M 385.5,203.5 C 382.395,207.053 378.395,209.053 373.5,209.5C 377.018,206.613 381.018,204.613 385.5,203.5 Z"/></g>
<g><path style="opacity:1" fill="#fdf6c2" d="M 373.5,209.5 C 373.027,210.906 372.027,211.573 370.5,211.5C 370.5,211.167 370.5,210.833 370.5,210.5C 371.391,209.89 372.391,209.557 373.5,209.5 Z"/></g>
<g><path style="opacity:1" fill="#eeca65" d="M 370.5,210.5 C 370.5,210.833 370.5,211.167 370.5,211.5C 367.977,212.801 365.31,213.801 362.5,214.5C 364.746,212.58 367.413,211.247 370.5,210.5 Z"/></g>
<g><path style="opacity:1" fill="#fefbdd" d="M 370.5,211.5 C 368.619,214.129 365.953,215.463 362.5,215.5C 362.5,215.167 362.5,214.833 362.5,214.5C 365.31,213.801 367.977,212.801 370.5,211.5 Z"/></g>
<g><path style="opacity:1" fill="#ebca62" d="M 362.5,214.5 C 362.5,214.833 362.5,215.167 362.5,215.5C 360.833,216.167 359.167,216.833 357.5,217.5C 356.391,217.557 355.391,217.89 354.5,218.5C 356.746,216.58 359.413,215.247 362.5,214.5 Z"/></g>
<g><path style="opacity:1" fill="#fcefb5" d="M 357.5,217.5 C 357.027,218.906 356.027,219.573 354.5,219.5C 354.5,219.167 354.5,218.833 354.5,218.5C 355.391,217.89 356.391,217.557 357.5,217.5 Z"/></g>
<g><path style="opacity:1" fill="#fefce7" d="M 362.5,215.5 C 361.434,217.606 359.767,219.106 357.5,220C 347.376,224.636 337.376,229.47 327.5,234.5C 325.547,235.156 323.547,235.489 321.5,235.5C 322.514,234.326 323.847,233.66 325.5,233.5C 328.1,232.532 330.434,231.199 332.5,229.5C 333.167,229.5 333.833,229.5 334.5,229.5C 336.027,229.573 337.027,228.906 337.5,227.5C 337.833,227.5 338.167,227.5 338.5,227.5C 340.027,227.573 341.027,226.906 341.5,225.5C 343.027,225.573 344.027,224.906 344.5,223.5C 345.167,223.5 345.833,223.5 346.5,223.5C 348.027,223.573 349.027,222.906 349.5,221.5C 349.833,221.5 350.167,221.5 350.5,221.5C 352.027,221.573 353.027,220.906 353.5,219.5C 353.833,219.5 354.167,219.5 354.5,219.5C 356.027,219.573 357.027,218.906 357.5,217.5C 359.167,216.833 360.833,216.167 362.5,215.5 Z"/></g>
<g><path style="opacity:1" fill="#fef3be" d="M 353.5,219.5 C 353.027,220.906 352.027,221.573 350.5,221.5C 350.973,220.094 351.973,219.427 353.5,219.5 Z"/></g>
<g><path style="opacity:1" fill="#fdd245" d="M 446.5,167.5 C 446.557,168.609 446.89,169.609 447.5,170.5C 444.157,172.501 440.49,173.501 436.5,173.5C 436.5,174.5 436.5,175.5 436.5,176.5C 435.07,176.579 433.736,176.246 432.5,175.5C 431.833,176.5 431.167,177.5 430.5,178.5C 429.808,177.975 429.308,177.308 429,176.5C 425.725,177.946 422.558,179.612 419.5,181.5C 415.957,183.808 411.957,184.975 407.5,185C 400.314,188.231 393.814,192.398 388,197.5C 386.301,196.594 384.467,196.261 382.5,196.5C 382.649,197.552 382.483,198.552 382,199.5C 381.481,198.484 380.647,197.818 379.5,197.5C 373.77,199.52 368.104,201.52 362.5,203.5C 362.649,204.552 362.483,205.552 362,206.5C 355.867,210.863 349.034,213.363 341.5,214C 338.785,214.875 337.452,216.708 337.5,219.5C 334.824,218.992 332.157,218.825 329.5,219C 330.167,219.333 330.833,219.667 331.5,220C 328.891,220.943 326.891,222.61 325.5,225C 318.381,226.53 311.381,228.53 304.5,231C 303.965,233.109 302.965,233.609 301.5,232.5C 300.019,233.48 298.685,234.647 297.5,236C 290.926,238.628 284.592,241.628 278.5,245C 275.258,246.639 271.924,247.639 268.5,248C 266.791,227.708 265.791,207.208 265.5,186.5C 258.686,184.573 251.686,183.406 244.5,183C 230.81,182.451 217.143,181.617 203.5,180.5C 219.674,179.24 236.007,178.24 252.5,177.5C 255.806,178.163 259.139,178.663 262.5,179C 263.687,180.604 265.687,181.771 268.5,182.5C 268.977,183.478 269.643,184.311 270.5,185C 269.504,187.316 268.504,189.65 267.5,192C 268.008,207.894 268.841,223.727 270,239.5C 271.689,237.24 272.856,234.74 273.5,232C 276.87,230.441 280.037,230.274 283,231.5C 290.021,228.91 297.187,226.743 304.5,225C 312.039,223.23 318.706,219.897 324.5,215C 334.427,213.625 343.594,210.125 352,204.5C 352.414,204.957 352.914,205.291 353.5,205.5C 362.962,198.114 372.962,191.781 383.5,186.5C 387.965,183.625 392.632,181.292 397.5,179.5C 397.833,179.5 398.167,179.5 398.5,179.5C 401.833,178.5 405.167,177.5 408.5,176.5C 413.578,175.461 418.578,174.128 423.5,172.5C 425.768,173.544 428.101,173.711 430.5,173C 431.761,170.465 433.761,168.798 436.5,168C 439.918,168.207 443.251,168.041 446.5,167.5 Z"/></g>
<g><path style="opacity:1" fill="#fee179" d="M 397.5,179.5 C 392.632,181.292 387.965,183.625 383.5,186.5C 382.167,186.5 380.833,186.5 379.5,186.5C 382.409,184.644 385.409,182.977 388.5,181.5C 389.391,180.89 390.391,180.557 391.5,180.5C 393.435,179.85 395.435,179.517 397.5,179.5 Z"/></g>
<g><path style="opacity:1" fill="#fefce8" d="M 377.5,184.5 C 370.772,186.298 364.106,188.298 357.5,190.5C 356.167,190.167 354.833,189.833 353.5,189.5C 355.397,187.983 357.397,186.65 359.5,185.5C 361.772,184.681 364.106,184.015 366.5,183.5C 371.381,181.798 376.381,180.964 381.5,181C 379.907,181.949 378.574,183.115 377.5,184.5 Z"/></g>
<g><path style="opacity:1" fill="#fcedbe" d="M 349.5,221.5 C 349.027,222.906 348.027,223.573 346.5,223.5C 346.973,222.094 347.973,221.427 349.5,221.5 Z"/></g>
<g><path style="opacity:1" fill="#f9de91" d="M 344.5,223.5 C 344.027,224.906 343.027,225.573 341.5,225.5C 341.973,224.094 342.973,223.427 344.5,223.5 Z"/></g>
<g><path style="opacity:1" fill="#f9ca43" d="M 159.5,180.5 C 174.14,180.964 188.807,180.964 203.5,180.5C 217.143,181.617 230.81,182.451 244.5,183C 251.686,183.406 258.686,184.573 265.5,186.5C 265.791,207.208 266.791,227.708 268.5,248C 271.924,247.639 275.258,246.639 278.5,245C 284.592,241.628 290.926,238.628 297.5,236C 298.685,234.647 300.019,233.48 301.5,232.5C 302.965,233.609 303.965,233.109 304.5,231C 311.381,228.53 318.381,226.53 325.5,225C 326.891,222.61 328.891,220.943 331.5,220C 330.833,219.667 330.167,219.333 329.5,219C 332.157,218.825 334.824,218.992 337.5,219.5C 337.452,216.708 338.785,214.875 341.5,214C 349.034,213.363 355.867,210.863 362,206.5C 362.483,205.552 362.649,204.552 362.5,203.5C 368.104,201.52 373.77,199.52 379.5,197.5C 380.647,197.818 381.481,198.484 382,199.5C 382.483,198.552 382.649,197.552 382.5,196.5C 384.467,196.261 386.301,196.594 388,197.5C 393.814,192.398 400.314,188.231 407.5,185C 411.957,184.975 415.957,183.808 419.5,181.5C 420.532,184.469 419.532,185.469 416.5,184.5C 414.885,185.154 413.218,185.654 411.5,186C 410.108,188.228 408.108,189.394 405.5,189.5C 405.5,190.5 405.5,191.5 405.5,192.5C 403.973,192.427 402.973,193.094 402.5,194.5C 400.62,194.229 399.287,194.896 398.5,196.5C 395.194,196.819 392.527,198.153 390.5,200.5C 388.632,201.263 386.965,202.263 385.5,203.5C 381.018,204.613 377.018,206.613 373.5,209.5C 372.391,209.557 371.391,209.89 370.5,210.5C 367.413,211.247 364.746,212.58 362.5,214.5C 359.413,215.247 356.746,216.58 354.5,218.5C 354.5,218.833 354.5,219.167 354.5,219.5C 354.167,219.5 353.833,219.5 353.5,219.5C 351.973,219.427 350.973,220.094 350.5,221.5C 350.167,221.5 349.833,221.5 349.5,221.5C 347.973,221.427 346.973,222.094 346.5,223.5C 345.833,223.5 345.167,223.5 344.5,223.5C 342.973,223.427 341.973,224.094 341.5,225.5C 339.973,225.427 338.973,226.094 338.5,227.5C 338.167,227.5 337.833,227.5 337.5,227.5C 335.973,227.427 334.973,228.094 334.5,229.5C 333.833,229.5 333.167,229.5 332.5,229.5C 329.454,229.725 327.121,231.058 325.5,233.5C 323.847,233.66 322.514,234.326 321.5,235.5C 319.034,236.298 317.034,237.631 315.5,239.5C 313.708,239.366 312.042,239.699 310.5,240.5C 308.62,240.229 307.287,240.896 306.5,242.5C 304.519,241.652 302.519,241.152 300.5,241C 298.999,242.252 297.332,243.252 295.5,244C 296.308,244.308 296.975,244.808 297.5,245.5C 291.356,247.713 285.356,250.213 279.5,253C 280.167,253.333 280.833,253.667 281.5,254C 280.058,254.377 279.058,255.21 278.5,256.5C 277.833,257.167 277.167,257.833 276.5,258.5C 275.167,258.833 273.833,259.167 272.5,259.5C 270.236,260.219 267.903,260.552 265.5,260.5C 265.831,237.994 265.497,215.66 264.5,193.5C 263.657,191.827 262.324,190.66 260.5,190C 246.837,189.5 233.171,189.333 219.5,189.5C 216.797,188.037 213.797,187.204 210.5,187C 210.833,186.667 211.167,186.333 211.5,186C 206.696,185.632 202.03,184.632 197.5,183C 183.171,182.5 168.837,182.333 154.5,182.5C 156.167,181.833 157.833,181.167 159.5,180.5 Z"/></g>
<g><path style="opacity:1" fill="#fee776" d="M 345.5,184.5 C 347.5,184.5 349.5,184.5 351.5,184.5C 348.897,185.744 346.564,187.411 344.5,189.5C 343.833,189.5 343.167,189.5 342.5,189.5C 339.95,190.358 337.45,191.358 335,192.5C 334.505,194.473 334.338,196.473 334.5,198.5C 338.649,199.08 342.316,198.414 345.5,196.5C 347.857,196.663 350.19,196.497 352.5,196C 357.453,194.596 362.12,192.762 366.5,190.5C 370.426,188.969 374.426,187.636 378.5,186.5C 374.532,188.82 370.532,191.153 366.5,193.5C 358.819,195.504 351.153,197.671 343.5,200C 339.5,200.667 335.5,200.667 331.5,200C 329.884,199.385 328.551,198.385 327.5,197C 331.646,192.329 336.646,189.162 342.5,187.5C 343.306,186.272 344.306,185.272 345.5,184.5 Z"/></g>
<g><path style="opacity:1" fill="#fef09d" d="M 342.5,189.5 C 343.167,189.5 343.833,189.5 344.5,189.5C 343.699,191.042 343.366,192.708 343.5,194.5C 348.1,194.72 352.433,194.054 356.5,192.5C 359.833,191.833 363.167,191.167 366.5,190.5C 362.12,192.762 357.453,194.596 352.5,196C 350.19,196.497 347.857,196.663 345.5,196.5C 343.167,196.5 340.833,196.5 338.5,196.5C 338.343,195.127 338.51,193.793 339,192.5C 340.518,191.837 341.685,190.837 342.5,189.5 Z"/></g>
<g><path style="opacity:1" fill="#fef4b6" d="M 352.5,187.5 C 350.9,188.644 349.233,189.811 347.5,191C 350.278,192.392 353.278,192.892 356.5,192.5C 352.433,194.054 348.1,194.72 343.5,194.5C 343.366,192.708 343.699,191.042 344.5,189.5C 346.882,187.954 349.549,187.287 352.5,187.5 Z"/></g>
<g><path style="opacity:1" fill="#feed8b" d="M 342.5,189.5 C 341.685,190.837 340.518,191.837 339,192.5C 338.51,193.793 338.343,195.127 338.5,196.5C 340.833,196.5 343.167,196.5 345.5,196.5C 342.316,198.414 338.649,199.08 334.5,198.5C 334.338,196.473 334.505,194.473 335,192.5C 337.45,191.358 339.95,190.358 342.5,189.5 Z"/></g>
<g><path style="opacity:1" fill="#fef7c7" d="M 377.5,184.5 C 374.638,186.296 371.471,187.629 368,188.5C 366.97,188.836 366.47,189.503 366.5,190.5C 363.167,191.167 359.833,191.833 356.5,192.5C 353.278,192.892 350.278,192.392 347.5,191C 349.233,189.811 350.9,188.644 352.5,187.5C 352.5,187.167 352.5,186.833 352.5,186.5C 354.764,185.781 357.097,185.448 359.5,185.5C 357.397,186.65 355.397,187.983 353.5,189.5C 354.833,189.833 356.167,190.167 357.5,190.5C 364.106,188.298 370.772,186.298 377.5,184.5 Z"/></g>
<g><path style="opacity:1" fill="#fee567" d="M 342.5,187.5 C 336.646,189.162 331.646,192.329 327.5,197C 328.551,198.385 329.884,199.385 331.5,200C 335.5,200.667 339.5,200.667 343.5,200C 351.153,197.671 358.819,195.504 366.5,193.5C 365.167,194.5 363.833,195.5 362.5,196.5C 354.971,197.9 347.637,199.9 340.5,202.5C 335.489,202.666 330.489,202.499 325.5,202C 323.82,201.653 322.82,200.653 322.5,199C 323.563,196.102 325.23,193.602 327.5,191.5C 332.246,189.365 337.246,188.032 342.5,187.5 Z"/></g>
<g><path style="opacity:1" fill="#feeb9b" d="M 388.5,181.5 C 385.409,182.977 382.409,184.644 379.5,186.5C 379.167,186.5 378.833,186.5 378.5,186.5C 374.426,187.636 370.426,188.969 366.5,190.5C 366.47,189.503 366.97,188.836 368,188.5C 371.471,187.629 374.638,186.296 377.5,184.5C 381.096,183.2 384.763,182.2 388.5,181.5 Z"/></g>
<g><path style="opacity:1" fill="#fee45b" d="M 345.5,184.5 C 344.306,185.272 343.306,186.272 342.5,187.5C 337.246,188.032 332.246,189.365 327.5,191.5C 325.23,193.602 323.563,196.102 322.5,199C 322.82,200.653 323.82,201.653 325.5,202C 330.489,202.499 335.489,202.666 340.5,202.5C 338.78,203.308 337.113,204.308 335.5,205.5C 328.169,206.574 320.836,207.574 313.5,208.5C 315.133,201.739 318.466,195.906 323.5,191C 330.659,188.211 337.992,186.044 345.5,184.5 Z"/></g>
<g><path style="opacity:1" fill="#ffefa9" d="M 366.5,182.5 C 366.5,182.833 366.5,183.167 366.5,183.5C 364.106,184.015 361.772,184.681 359.5,185.5C 357.097,185.448 354.764,185.781 352.5,186.5C 352.611,185.883 352.944,185.383 353.5,185C 357.816,184.004 362.149,183.17 366.5,182.5 Z"/></g>
<g><path style="opacity:1" fill="#fdefb6" d="M 341.5,225.5 C 341.027,226.906 340.027,227.573 338.5,227.5C 338.973,226.094 339.973,225.427 341.5,225.5 Z"/></g>
<g><path style="opacity:1" fill="#fae9b2" d="M 337.5,227.5 C 337.027,228.906 336.027,229.573 334.5,229.5C 334.973,228.094 335.973,227.427 337.5,227.5 Z"/></g>
<g><path style="opacity:1" fill="#edd17c" d="M 332.5,229.5 C 330.434,231.199 328.1,232.532 325.5,233.5C 327.121,231.058 329.454,229.725 332.5,229.5 Z"/></g>
<g><path style="opacity:1" fill="#f1d06b" d="M 264.5,193.5 C 265.497,215.66 265.831,237.994 265.5,260.5C 267.903,260.552 270.236,260.219 272.5,259.5C 272.167,260.167 271.833,260.833 271.5,261.5C 269.071,261.884 266.737,262.551 264.5,263.5C 264.5,240.167 264.5,216.833 264.5,193.5 Z"/></g>
<g><path style="opacity:1" fill="#fdf3c5" d="M 321.5,235.5 C 320.198,237.822 318.198,239.155 315.5,239.5C 317.034,237.631 319.034,236.298 321.5,235.5 Z"/></g>
<g><path style="opacity:1" fill="#eeca6c" d="M 310.5,240.5 C 309.833,241.167 309.167,241.833 308.5,242.5C 307.833,242.5 307.167,242.5 306.5,242.5C 307.287,240.896 308.62,240.229 310.5,240.5 Z"/></g>
<g><path style="opacity:1" fill="#fef6d3" d="M 315.5,239.5 C 313.824,241.834 311.491,242.834 308.5,242.5C 309.167,241.833 309.833,241.167 310.5,240.5C 312.042,239.699 313.708,239.366 315.5,239.5 Z"/></g>
<g><path style="opacity:1" fill="#fffadc" d="M 306.5,242.5 C 307.167,242.5 307.833,242.5 308.5,242.5C 308.063,244.074 307.063,245.241 305.5,246C 303.134,246.44 300.801,246.94 298.5,247.5C 301.129,245.837 303.796,244.171 306.5,242.5 Z"/></g>
<g><path style="opacity:1" fill="#f3c74e" d="M 306.5,242.5 C 303.796,244.171 301.129,245.837 298.5,247.5C 298.167,247.5 297.833,247.5 297.5,247.5C 295.566,248.11 293.899,249.11 292.5,250.5C 287.95,252.686 283.283,254.686 278.5,256.5C 279.058,255.21 280.058,254.377 281.5,254C 280.833,253.667 280.167,253.333 279.5,253C 285.356,250.213 291.356,247.713 297.5,245.5C 296.975,244.808 296.308,244.308 295.5,244C 297.332,243.252 298.999,242.252 300.5,241C 302.519,241.152 304.519,241.652 306.5,242.5 Z"/></g>
<g><path style="opacity:1" fill="#fef6d6" d="M 297.5,247.5 C 296.656,249.759 294.989,250.759 292.5,250.5C 293.899,249.11 295.566,248.11 297.5,247.5 Z"/></g>
<g><path style="opacity:1" fill="#fefad7" d="M 292.5,250.5 C 288.087,254.707 282.754,257.373 276.5,258.5C 277.167,257.833 277.833,257.167 278.5,256.5C 283.283,254.686 287.95,252.686 292.5,250.5 Z"/></g>
<g><path style="opacity:1" fill="#fefbd4" d="M 276.5,258.5 C 275.514,260.408 273.848,261.408 271.5,261.5C 271.833,260.833 272.167,260.167 272.5,259.5C 273.833,259.167 275.167,258.833 276.5,258.5 Z"/></g>
<g><path style="opacity:1" fill="#fdf9db" d="M 271.5,261.5 C 269.618,264.218 267.285,264.885 264.5,263.5C 266.737,262.551 269.071,261.884 271.5,261.5 Z"/></g>
</svg>
