<svg width="512" height="512" xmlns="http://www.w3.org/2000/svg" clip-rule="evenodd" fill-rule="evenodd" image-rendering="optimizeQuality" text-rendering="geometricPrecision" shape-rendering="geometricPrecision">

 <g>
  <title>Layer 1</title>
  <path fill="white" id="svg_1" d="m256,0c70.686,0 134.69,28.658 181.016,74.983c46.326,46.326 74.984,110.331 74.984,181.017c0,70.685 -28.658,134.69 -74.984,181.016c-46.326,46.325 -110.33,74.984 -181.016,74.984c-70.686,0 -134.69,-28.659 -181.016,-74.984c-46.326,-46.326 -74.984,-110.331 -74.984,-181.016c0,-70.686 28.658,-134.691 74.984,-181.017c46.326,-46.325 110.33,-74.983 181.016,-74.983z" fill-rule="nonzero"/>
  <path id="svg_2" d="m256,29.463c125.114,0 226.536,101.423 226.536,226.537s-101.422,226.536 -226.536,226.536s-226.536,-101.422 -226.536,-226.536s101.422,-226.537 226.536,-226.537z" fill="#FDEE4F"/>
  <path id="svg_3" stroke="#ffd401" d="m256,341.491c14.453,0 26.168,11.718 26.168,26.172c0,14.453 -11.715,26.167 -26.168,26.167s-26.171,-11.714 -26.171,-26.167c0,-14.454 11.718,-26.172 26.171,-26.172zm19.55,-39.21c-0.88,22.062 -38.246,22.092 -39.1,-0.008c-3.778,-37.803 -13.443,-127.552 -13.135,-163.073c0.311,-10.946 9.383,-17.427 20.989,-19.899c3.578,-0.764 7.513,-1.135 11.477,-1.132c3.986,0.008 7.932,0.401 11.514,1.166c11.988,2.554 21.401,9.301 21.398,20.444l-0.045,1.117l-13.098,161.385z"/>
 </g>
</svg>