<?xml version="1.0" encoding="UTF-8"?>
<!DOCTYPE svg PUBLIC "-//W3C//DTD SVG 1.1//EN" "http://www.w3.org/Graphics/SVG/1.1/DTD/svg11.dtd">
<svg xmlns="http://www.w3.org/2000/svg" version="1.1" width="275px" height="183px" style="shape-rendering:geometricPrecision; text-rendering:geometricPrecision; image-rendering:optimizeQuality; fill-rule:evenodd; clip-rule:evenodd" xmlns:xlink="http://www.w3.org/1999/xlink">
<g><path style="opacity:1" fill="#fefefe" d="M -0.5,-0.5 C 45.8333,-0.5 92.1667,-0.5 138.5,-0.5C 137.833,0.166667 137.167,0.833333 136.5,1.5C 136.5,2.83333 136.5,4.16667 136.5,5.5C 135.662,5.84171 135.328,6.50838 135.5,7.5C 131.536,12.8064 127.536,18.1397 123.5,23.5C 120.27,25.377 118.27,28.0437 117.5,31.5C 108.235,42.3993 99.5686,53.7327 91.5,65.5C 89.4131,66.5846 88.0798,68.2512 87.5,70.5C 70.0745,92.9147 53.0745,115.581 36.5,138.5C 34.4131,139.585 33.0798,141.251 32.5,143.5C 31.6618,143.842 31.3284,144.508 31.5,145.5C 29.8073,146.475 28.3073,147.808 27,149.5C 25.0478,153.097 22.8812,156.431 20.5,159.5C 15.4397,164.906 11.1063,170.906 7.5,177.5C 6.83333,177.5 6.5,177.833 6.5,178.5C 5.83333,178.5 5.5,178.833 5.5,179.5C 5.16667,179.5 4.83333,179.5 4.5,179.5C 3.71087,179.783 3.0442,180.283 2.5,181C 92.6676,181.167 182.668,181.667 272.5,182.5C 181.5,182.5 90.5,182.5 -0.5,182.5C -0.5,121.5 -0.5,60.5 -0.5,-0.5 Z"/></g>
<g><path style="opacity:1" fill="#fefefe" d="M 138.5,-0.5 C 183.833,-0.5 229.167,-0.5 274.5,-0.5C 274.5,60.5 274.5,121.5 274.5,182.5C 274.167,182.5 273.833,182.5 273.5,182.5C 271.984,179.467 269.984,176.8 267.5,174.5C 224.242,116.568 180.575,58.9015 136.5,1.5C 137.167,0.833333 137.833,0.166667 138.5,-0.5 Z"/></g>
<g><path style="opacity:1" fill="#9db38e" d="M 136.5,5.5 C 140.236,6.90467 142.569,9.57133 143.5,13.5C 141.861,11.1939 139.861,9.19388 137.5,7.5C 136.833,7.5 136.167,7.5 135.5,7.5C 135.328,6.50838 135.662,5.84171 136.5,5.5 Z"/></g>
<g><path style="opacity:1" fill="#9edd58" d="M 135.5,7.5 C 136.167,7.5 136.833,7.5 137.5,7.5C 136.71,13.6953 138.377,19.0286 142.5,23.5C 143.429,24.6888 143.762,26.0222 143.5,27.5C 145.013,29.5161 145.847,31.8494 146,34.5C 153.043,41.5896 159.376,49.2563 165,57.5C 165.671,58.2524 166.504,58.5858 167.5,58.5C 168.018,61.8873 168.851,65.2206 170,68.5C 172.825,69.5842 172.992,70.7508 170.5,72C 173.851,75.2223 177.518,77.7223 181.5,79.5C 181.5,80.8333 181.5,82.1667 181.5,83.5C 182.822,83.33 183.989,83.6634 185,84.5C 185.192,86.5767 185.692,88.5767 186.5,90.5C 188.873,93.7181 191.54,96.7181 194.5,99.5C 195.246,100.736 195.579,102.07 195.5,103.5C 199.317,104.305 201.984,106.638 203.5,110.5C 204.689,111.429 206.022,111.762 207.5,111.5C 207.5,111.833 207.5,112.167 207.5,112.5C 208.167,114.833 208.833,117.167 209.5,119.5C 210.5,119.5 211.5,119.5 212.5,119.5C 212.351,120.552 212.517,121.552 213,122.5C 217.616,128.46 222.283,134.46 227,140.5C 227.987,147.313 231.32,152.646 237,156.5C 237.483,157.448 237.649,158.448 237.5,159.5C 238.5,159.5 239.5,159.5 240.5,159.5C 240.421,160.93 240.754,162.264 241.5,163.5C 241.192,164.308 240.692,164.975 240,165.5C 170.336,164.193 100.836,164.193 31.5,165.5C 33.4747,161.459 36.1413,157.793 39.5,154.5C 40.9876,152.423 42.9876,151.423 45.5,151.5C 46.5392,147.714 48.0392,144.047 50,140.5C 53.911,135.678 57.5776,130.678 61,125.5C 63.1005,124.076 65.2672,122.742 67.5,121.5C 68.0183,119.1 69.185,117.1 71,115.5C 71.49,114.207 71.6567,112.873 71.5,111.5C 72.5,111.5 73.5,111.5 74.5,111.5C 74.9802,108.995 75.9802,106.662 77.5,104.5C 82.9798,96.8608 88.8131,89.5275 95,82.5C 95.4828,81.552 95.6495,80.552 95.5,79.5C 96.675,79.719 97.675,79.3857 98.5,78.5C 101.077,71.7673 105.41,66.7673 111.5,63.5C 111.693,60.6915 112.36,58.0248 113.5,55.5C 114.5,55.5 115.5,55.5 116.5,55.5C 117.063,52.6265 118.063,49.9598 119.5,47.5C 120.675,47.719 121.675,47.3857 122.5,46.5C 124.02,44.3379 125.02,42.0046 125.5,39.5C 126.833,39.5 128.167,39.5 129.5,39.5C 129.315,35.1927 131.149,32.1927 135,30.5C 136.457,26.2589 136.791,21.9255 136,17.5C 125.934,30.5627 116.267,43.8961 107,57.5C 104.855,60.1664 102.355,62.1664 99.5,63.5C 99.6495,64.552 99.4828,65.552 99,66.5C 95.1909,68.7799 92.8575,72.1133 92,76.5C 86.2952,81.567 81.7952,87.567 78.5,94.5C 71.4403,101.58 65.4403,109.58 60.5,118.5C 55.7648,124.806 50.5982,130.806 45,136.5C 39.6154,144.535 34.282,152.535 29,160.5C 25.7053,164.22 22.5386,167.886 19.5,171.5C 19.1667,172.167 18.8333,172.833 18.5,173.5C 14.8784,174.82 11.2118,176.153 7.5,177.5C 11.1063,170.906 15.4397,164.906 20.5,159.5C 22.3925,158.298 24.2258,156.965 26,155.5C 27.2265,151.789 29.0599,148.455 31.5,145.5C 31.3284,144.508 31.6618,143.842 32.5,143.5C 34.5869,142.415 35.9202,140.749 36.5,138.5C 53.0745,115.581 70.0745,92.9147 87.5,70.5C 89.5869,69.4154 90.9202,67.7488 91.5,65.5C 99.5686,53.7327 108.235,42.3993 117.5,31.5C 119.878,29.1215 121.878,26.4549 123.5,23.5C 127.536,18.1397 131.536,12.8064 135.5,7.5 Z"/></g>
<g><path style="opacity:1" fill="#d0f1af" d="M 123.5,23.5 C 121.878,26.4549 119.878,29.1215 117.5,31.5C 118.27,28.0437 120.27,25.377 123.5,23.5 Z"/></g>
<g><path style="opacity:1" fill="#8bc54d" d="M 143.5,27.5 C 146.649,28.1603 148.149,30.1603 148,33.5C 153.321,40.4855 158.988,47.1522 165,53.5C 166.438,54.9003 167.271,56.567 167.5,58.5C 166.504,58.5858 165.671,58.2524 165,57.5C 159.376,49.2563 153.043,41.5896 146,34.5C 145.847,31.8494 145.013,29.5161 143.5,27.5 Z"/></g>
<g><path style="opacity:1" fill="#71a13d" d="M 137.5,7.5 C 139.861,9.19388 141.861,11.1939 143.5,13.5C 145.086,15.6705 146.42,18.0038 147.5,20.5C 147.913,22.8901 148.579,25.2235 149.5,27.5C 150.736,28.2458 152.07,28.5792 153.5,28.5C 152.652,30.4815 152.152,32.4815 152,34.5C 152.837,32.9926 154.004,32.4926 155.5,33C 156.573,35.6566 158.24,37.8232 160.5,39.5C 159.48,41.4325 159.313,43.4325 160,45.5C 160.483,44.552 160.649,43.552 160.5,42.5C 162.514,42.3915 164.18,43.0582 165.5,44.5C 171.121,51.1278 176.788,57.7945 182.5,64.5C 183.32,66.9738 184.32,69.3071 185.5,71.5C 185.461,73.3588 186.294,74.6921 188,75.5C 188.333,77.5 188.667,79.5 189,81.5C 190.113,82.7111 191.28,82.7111 192.5,81.5C 193.48,82.9814 194.647,84.3147 196,85.5C 196.456,86.7441 195.956,87.5774 194.5,88C 195.579,88.956 196.745,89.7894 198,90.5C 199.661,94.6566 200.827,98.9899 201.5,103.5C 197.769,94.7203 192.102,87.387 184.5,81.5C 183.61,78.6061 182.276,75.9394 180.5,73.5C 176.526,68.1926 172.193,63.1926 167.5,58.5C 167.271,56.567 166.438,54.9003 165,53.5C 158.988,47.1522 153.321,40.4855 148,33.5C 148.149,30.1603 146.649,28.1603 143.5,27.5C 143.762,26.0222 143.429,24.6888 142.5,23.5C 138.377,19.0286 136.71,13.6953 137.5,7.5 Z"/></g>
<g><path style="opacity:1" fill="#729944" d="M 147.5,20.5 C 153.045,25.7305 157.712,31.7305 161.5,38.5C 162.325,39.3857 163.325,39.719 164.5,39.5C 164.629,41.2161 164.962,42.8828 165.5,44.5C 164.18,43.0582 162.514,42.3915 160.5,42.5C 160.649,43.552 160.483,44.552 160,45.5C 159.313,43.4325 159.48,41.4325 160.5,39.5C 158.24,37.8232 156.573,35.6566 155.5,33C 154.004,32.4926 152.837,32.9926 152,34.5C 152.152,32.4815 152.652,30.4815 153.5,28.5C 152.07,28.5792 150.736,28.2458 149.5,27.5C 148.579,25.2235 147.913,22.8901 147.5,20.5 Z"/></g>
<g><path style="opacity:1" fill="#d5f1b3" d="M 91.5,65.5 C 90.9202,67.7488 89.5869,69.4154 87.5,70.5C 88.0798,68.2512 89.4131,66.5846 91.5,65.5 Z"/></g>
<g><path style="opacity:1" fill="#739b45" d="M 185.5,71.5 C 188.63,73.2992 190.63,75.9659 191.5,79.5C 192.5,79.5 193.5,79.5 194.5,79.5C 194.351,80.552 194.517,81.552 195,82.5C 200.141,87.471 204.308,93.1377 207.5,99.5C 205.876,99.6399 204.71,98.9733 204,97.5C 203.349,99.235 203.515,100.902 204.5,102.5C 203.675,103.386 202.675,103.719 201.5,103.5C 200.827,98.9899 199.661,94.6566 198,90.5C 196.745,89.7894 195.579,88.956 194.5,88C 195.956,87.5774 196.456,86.7441 196,85.5C 194.647,84.3147 193.48,82.9814 192.5,81.5C 191.28,82.7111 190.113,82.7111 189,81.5C 188.667,79.5 188.333,77.5 188,75.5C 186.294,74.6921 185.461,73.3588 185.5,71.5 Z"/></g>
<g><path style="opacity:1" fill="#8fca4f" d="M 167.5,58.5 C 172.193,63.1926 176.526,68.1926 180.5,73.5C 182.276,75.9394 183.61,78.6061 184.5,81.5C 192.102,87.387 197.769,94.7203 201.5,103.5C 203.853,105.86 205.853,108.527 207.5,111.5C 206.022,111.762 204.689,111.429 203.5,110.5C 201.984,106.638 199.317,104.305 195.5,103.5C 195.579,102.07 195.246,100.736 194.5,99.5C 191.54,96.7181 188.873,93.7181 186.5,90.5C 185.692,88.5767 185.192,86.5767 185,84.5C 183.989,83.6634 182.822,83.33 181.5,83.5C 181.5,82.1667 181.5,80.8333 181.5,79.5C 177.518,77.7223 173.851,75.2223 170.5,72C 172.992,70.7508 172.825,69.5842 170,68.5C 168.851,65.2206 168.018,61.8873 167.5,58.5 Z"/></g>
<g><path style="opacity:1" fill="#befb77" d="M 31.5,165.5 C 31.1667,166.167 30.8333,166.833 30.5,167.5C 27.7594,167.707 25.4261,168.707 23.5,170.5C 22.5084,170.328 21.8417,170.662 21.5,171.5C 20.8333,171.5 20.1667,171.5 19.5,171.5C 22.5386,167.886 25.7053,164.22 29,160.5C 34.282,152.535 39.6154,144.535 45,136.5C 50.5982,130.806 55.7648,124.806 60.5,118.5C 65.4403,109.58 71.4403,101.58 78.5,94.5C 81.7952,87.567 86.2952,81.567 92,76.5C 92.8575,72.1133 95.1909,68.7799 99,66.5C 99.4828,65.552 99.6495,64.552 99.5,63.5C 102.355,62.1664 104.855,60.1664 107,57.5C 116.267,43.8961 125.934,30.5627 136,17.5C 136.791,21.9255 136.457,26.2589 135,30.5C 131.149,32.1927 129.315,35.1927 129.5,39.5C 128.167,39.5 126.833,39.5 125.5,39.5C 125.02,42.0046 124.02,44.3379 122.5,46.5C 121.675,47.3857 120.675,47.719 119.5,47.5C 118.063,49.9598 117.063,52.6265 116.5,55.5C 115.5,55.5 114.5,55.5 113.5,55.5C 112.36,58.0248 111.693,60.6915 111.5,63.5C 105.41,66.7673 101.077,71.7673 98.5,78.5C 97.675,79.3857 96.675,79.719 95.5,79.5C 95.6495,80.552 95.4828,81.552 95,82.5C 88.8131,89.5275 82.9798,96.8608 77.5,104.5C 75.9802,106.662 74.9802,108.995 74.5,111.5C 73.5,111.5 72.5,111.5 71.5,111.5C 71.6567,112.873 71.49,114.207 71,115.5C 69.185,117.1 68.0183,119.1 67.5,121.5C 65.2672,122.742 63.1005,124.076 61,125.5C 57.5776,130.678 53.911,135.678 50,140.5C 48.0392,144.047 46.5392,147.714 45.5,151.5C 42.9876,151.423 40.9876,152.423 39.5,154.5C 36.1413,157.793 33.4747,161.459 31.5,165.5 Z"/></g>
<g><path style="opacity:1" fill="#709e3f" d="M 207.5,99.5 C 210.681,103.206 213.347,107.206 215.5,111.5C 216.5,111.5 217.5,111.5 218.5,111.5C 218.98,114.005 219.98,116.338 221.5,118.5C 226.484,123.153 230.484,128.486 233.5,134.5C 241.202,142.223 247.869,150.89 253.5,160.5C 258.083,164.734 261.416,169.734 263.5,175.5C 258.737,173.73 253.737,172.73 248.5,172.5C 248.5,172.167 248.5,171.833 248.5,171.5C 249.978,171.762 251.311,171.429 252.5,170.5C 252.376,169.893 252.043,169.56 251.5,169.5C 251.179,167.952 250.179,167.285 248.5,167.5C 246.823,164.299 245.323,160.965 244,157.5C 239.614,152.952 235.448,148.286 231.5,143.5C 227.35,136.773 223.016,130.107 218.5,123.5C 217.675,122.614 216.675,122.281 215.5,122.5C 213.81,118.491 211.144,115.158 207.5,112.5C 207.5,112.167 207.5,111.833 207.5,111.5C 205.853,108.527 203.853,105.86 201.5,103.5C 202.675,103.719 203.675,103.386 204.5,102.5C 203.515,100.902 203.349,99.235 204,97.5C 204.71,98.9733 205.876,99.6399 207.5,99.5 Z"/></g>
<g><path style="opacity:1" fill="#bee596" d="M 36.5,138.5 C 35.9202,140.749 34.5869,142.415 32.5,143.5C 33.0798,141.251 34.4131,139.585 36.5,138.5 Z"/></g>
<g><path style="opacity:1" fill="#afde7d" d="M 31.5,145.5 C 29.0599,148.455 27.2265,151.789 26,155.5C 24.2258,156.965 22.3925,158.298 20.5,159.5C 22.8812,156.431 25.0478,153.097 27,149.5C 28.3073,147.808 29.8073,146.475 31.5,145.5 Z"/></g>
<g><path style="opacity:1" fill="#95d353" d="M 207.5,112.5 C 211.144,115.158 213.81,118.491 215.5,122.5C 216.675,122.281 217.675,122.614 218.5,123.5C 223.016,130.107 227.35,136.773 231.5,143.5C 231.321,145.954 231.987,148.121 233.5,150C 238.408,155.072 242.742,160.572 246.5,166.5C 174.503,167.5 102.503,167.833 30.5,167.5C 30.8333,166.833 31.1667,166.167 31.5,165.5C 100.836,164.193 170.336,164.193 240,165.5C 240.692,164.975 241.192,164.308 241.5,163.5C 240.754,162.264 240.421,160.93 240.5,159.5C 239.5,159.5 238.5,159.5 237.5,159.5C 237.649,158.448 237.483,157.448 237,156.5C 231.32,152.646 227.987,147.313 227,140.5C 222.283,134.46 217.616,128.46 213,122.5C 212.517,121.552 212.351,120.552 212.5,119.5C 211.5,119.5 210.5,119.5 209.5,119.5C 208.833,117.167 208.167,114.833 207.5,112.5 Z"/></g>
<g><path style="opacity:1" fill="#9ea399" d="M 136.5,1.5 C 180.575,58.9015 224.242,116.568 267.5,174.5C 267.92,176.094 268.586,177.594 269.5,179C 269.43,179.765 269.097,180.265 268.5,180.5C 268.672,179.508 268.338,178.842 267.5,178.5C 267.5,177.833 267.167,177.5 266.5,177.5C 266.179,175.952 265.179,175.285 263.5,175.5C 261.416,169.734 258.083,164.734 253.5,160.5C 247.869,150.89 241.202,142.223 233.5,134.5C 230.484,128.486 226.484,123.153 221.5,118.5C 219.98,116.338 218.98,114.005 218.5,111.5C 217.5,111.5 216.5,111.5 215.5,111.5C 213.347,107.206 210.681,103.206 207.5,99.5C 204.308,93.1377 200.141,87.471 195,82.5C 194.517,81.552 194.351,80.552 194.5,79.5C 193.5,79.5 192.5,79.5 191.5,79.5C 190.63,75.9659 188.63,73.2992 185.5,71.5C 184.32,69.3071 183.32,66.9738 182.5,64.5C 176.788,57.7945 171.121,51.1278 165.5,44.5C 164.962,42.8828 164.629,41.2161 164.5,39.5C 163.325,39.719 162.325,39.3857 161.5,38.5C 157.712,31.7305 153.045,25.7305 147.5,20.5C 146.42,18.0038 145.086,15.6705 143.5,13.5C 142.569,9.57133 140.236,6.90467 136.5,5.5C 136.5,4.16667 136.5,2.83333 136.5,1.5 Z"/></g>
<g><path style="opacity:1" fill="#8ec753" d="M 231.5,143.5 C 235.448,148.286 239.614,152.952 244,157.5C 245.323,160.965 246.823,164.299 248.5,167.5C 250.179,167.285 251.179,167.952 251.5,169.5C 175.571,170.497 99.5709,170.83 23.5,170.5C 25.4261,168.707 27.7594,167.707 30.5,167.5C 102.503,167.833 174.503,167.5 246.5,166.5C 242.742,160.572 238.408,155.072 233.5,150C 231.987,148.121 231.321,145.954 231.5,143.5 Z"/></g>
<g><path style="opacity:1" fill="#8bbb57" d="M 251.5,169.5 C 252.043,169.56 252.376,169.893 252.5,170.5C 251.311,171.429 249.978,171.762 248.5,171.5C 172.833,171.5 97.1667,171.5 21.5,171.5C 21.8417,170.662 22.5084,170.328 23.5,170.5C 99.5709,170.83 175.571,170.497 251.5,169.5 Z"/></g>
<g><path style="opacity:1" fill="#79a34d" d="M 19.5,171.5 C 20.1667,171.5 20.8333,171.5 21.5,171.5C 97.1667,171.5 172.833,171.5 248.5,171.5C 248.5,171.833 248.5,172.167 248.5,172.5C 171.792,172.173 95.1255,172.506 18.5,173.5C 18.8333,172.833 19.1667,172.167 19.5,171.5 Z"/></g>
<g><path style="opacity:1" fill="#537432" d="M 248.5,172.5 C 253.737,172.73 258.737,173.73 263.5,175.5C 265.179,175.285 266.179,175.952 266.5,177.5C 180.002,178.499 93.3349,178.833 6.5,178.5C 6.5,177.833 6.83333,177.5 7.5,177.5C 11.2118,176.153 14.8784,174.82 18.5,173.5C 95.1255,172.506 171.792,172.173 248.5,172.5 Z"/></g>
<g><path style="opacity:1" fill="#586a3f" d="M 266.5,177.5 C 267.167,177.5 267.5,177.833 267.5,178.5C 180.335,179.499 93.0016,179.833 5.5,179.5C 5.5,178.833 5.83333,178.5 6.5,178.5C 93.3349,178.833 180.002,178.499 266.5,177.5 Z"/></g>
<g><path style="opacity:1" fill="#747e6e" d="M 267.5,178.5 C 268.338,178.842 268.672,179.508 268.5,180.5C 180.332,180.833 92.3318,180.499 4.5,179.5C 4.83333,179.5 5.16667,179.5 5.5,179.5C 93.0016,179.833 180.335,179.499 267.5,178.5 Z"/></g>
<g><path style="opacity:1" fill="#bebfc1" d="M 267.5,174.5 C 269.984,176.8 271.984,179.467 273.5,182.5C 273.167,182.5 272.833,182.5 272.5,182.5C 182.668,181.667 92.6676,181.167 2.5,181C 3.0442,180.283 3.71087,179.783 4.5,179.5C 92.3318,180.499 180.332,180.833 268.5,180.5C 269.097,180.265 269.43,179.765 269.5,179C 268.586,177.594 267.92,176.094 267.5,174.5 Z"/></g>
</svg>
