<?xml version="1.0" encoding="UTF-8"?>
<!DOCTYPE svg PUBLIC "-//W3C//DTD SVG 1.1//EN" "http://www.w3.org/Graphics/SVG/1.1/DTD/svg11.dtd">
<svg xmlns="http://www.w3.org/2000/svg" version="1.1" width="32px" height="32px" style="shape-rendering:geometricPrecision; text-rendering:geometricPrecision; image-rendering:optimizeQuality; fill-rule:evenodd; clip-rule:evenodd" xmlns:xlink="http://www.w3.org/1999/xlink">
<g><path style="opacity:0.974" fill="#12b886" d="M 13.5,-0.5 C 14.8333,-0.5 16.1667,-0.5 17.5,-0.5C 19.7476,3.25428 22.581,6.58761 26,9.5C 26.4828,10.448 26.6495,11.448 26.5,12.5C 24.5,12.5 22.5,12.5 20.5,12.5C 20.5,18.8333 20.5,25.1667 20.5,31.5C 17.1667,31.5 13.8333,31.5 10.5,31.5C 10.5,25.1667 10.5,18.8333 10.5,12.5C 8.5,12.5 6.5,12.5 4.5,12.5C 4.35055,11.448 4.51722,10.448 5,9.5C 8.41904,6.58761 11.2524,3.25428 13.5,-0.5 Z"/></g>
</svg>
