<?xml version="1.0" encoding="UTF-8"?>
<!DOCTYPE svg PUBLIC "-//W3C//DTD SVG 1.1//EN" "http://www.w3.org/Graphics/SVG/1.1/DTD/svg11.dtd">
<svg xmlns="http://www.w3.org/2000/svg" version="1.1" width="225px" height="225px" style="shape-rendering:geometricPrecision; text-rendering:geometricPrecision; image-rendering:optimizeQuality; fill-rule:evenodd; clip-rule:evenodd" xmlns:xlink="http://www.w3.org/1999/xlink">
<g><path style="opacity:1" fill="#fefefe" d="M -0.5,-0.5 C 74.5,-0.5 149.5,-0.5 224.5,-0.5C 224.5,74.5 224.5,149.5 224.5,224.5C 149.5,224.5 74.5,224.5 -0.5,224.5C -0.5,149.5 -0.5,74.5 -0.5,-0.5 Z"/></g>
<g><path style="opacity:1" fill="#c9fab7" d="M 111.5,4.5 C 111.334,9.17853 111.501,13.8452 112,18.5C 112.717,19.0442 113.217,19.7109 113.5,20.5C 112.127,20.3433 110.793,20.51 109.5,21C 106.888,22.997 104.222,24.997 101.5,27C 98.3106,31.348 94.9773,35.5147 91.5,39.5C 91.7792,36.8822 92.4459,34.3822 93.5,32C 91.5355,31.376 89.8689,31.876 88.5,33.5C 87.8333,32.5 87.1667,31.5 86.5,30.5C 84.6385,31.5283 83.3052,33.0283 82.5,35C 81.552,35.4828 80.552,35.6495 79.5,35.5C 82.7013,30.1316 87.0346,25.9649 92.5,23C 97.4049,15.2603 103.738,9.09366 111.5,4.5 Z"/></g>
<g><path style="opacity:1" fill="#8cc67b" d="M 119.5,10.5 C 122.089,11.4194 124.089,13.086 125.5,15.5C 122.865,14.5265 120.865,12.8598 119.5,10.5 Z"/></g>
<g><path style="opacity:1" fill="#7cef53" d="M 119.5,10.5 C 120.865,12.8598 122.865,14.5265 125.5,15.5C 125.687,17.5643 126.187,19.5643 127,21.5C 128.131,20.3961 128.965,20.7295 129.5,22.5C 128.833,23.1667 128.167,23.8333 127.5,24.5C 128.776,25.6446 130.109,25.6446 131.5,24.5C 132.518,25.1925 133.518,25.8592 134.5,26.5C 134.539,27.7562 134.039,28.7562 133,29.5C 131.951,27.8934 130.451,27.2267 128.5,27.5C 128.649,28.552 128.483,29.552 128,30.5C 127.667,29.1667 127.333,27.8333 127,26.5C 126.29,27.9733 125.124,28.6399 123.5,28.5C 122.395,27.3995 121.062,26.7329 119.5,26.5C 119.631,25.7611 119.464,25.0944 119,24.5C 116.795,23.5882 114.962,22.2549 113.5,20.5C 113.217,19.7109 112.717,19.0442 112,18.5C 111.501,13.8452 111.334,9.17853 111.5,4.5C 112.251,3.42654 113.251,3.25988 114.5,4C 116.437,6.08556 118.104,8.25223 119.5,10.5 Z"/></g>
<g><path style="opacity:1" fill="#84df64" d="M 125.5,15.5 C 129.537,18.5367 132.871,22.2034 135.5,26.5C 135.167,26.5 134.833,26.5 134.5,26.5C 133.518,25.8592 132.518,25.1925 131.5,24.5C 130.109,25.6446 128.776,25.6446 127.5,24.5C 128.167,23.8333 128.833,23.1667 129.5,22.5C 128.965,20.7295 128.131,20.3961 127,21.5C 126.187,19.5643 125.687,17.5643 125.5,15.5 Z"/></g>
<g><path style="opacity:1" fill="#b3f69b" d="M 121.5,32.5 C 121.821,34.0481 122.821,34.7148 124.5,34.5C 124.5,35.5 124.5,36.5 124.5,37.5C 128.186,37.87 129.186,36.5367 127.5,33.5C 128.496,33.4142 129.329,33.7476 130,34.5C 131.875,37.6032 133.708,40.6032 135.5,43.5C 137.933,43.2729 139.599,44.2729 140.5,46.5C 144.167,49.8333 147.833,53.1667 151.5,56.5C 152.278,57.1556 152.944,57.9889 153.5,59C 153.164,60.0299 152.497,60.5299 151.5,60.5C 144.153,53.1531 136.486,46.1531 128.5,39.5C 127.232,38.5721 125.899,38.4054 124.5,39C 125.791,40.2917 125.791,41.4583 124.5,42.5C 122.952,42.1788 122.285,41.1788 122.5,39.5C 118.154,39.6657 113.821,39.499 109.5,39C 111.396,37.1917 111.896,35.025 111,32.5C 108.667,34.5 106.333,36.5 104,38.5C 102.837,34.7874 101.337,34.7874 99.5,38.5C 100.689,39.4287 102.022,39.762 103.5,39.5C 103.5,42.1667 103.5,44.8333 103.5,47.5C 100.428,47.8174 97.4281,47.4841 94.5,46.5C 95.5896,45.3914 95.5896,44.3914 94.5,43.5C 92.736,45.2776 90.736,46.6109 88.5,47.5C 95.8123,39.521 103.479,31.8543 111.5,24.5C 115.165,26.8407 118.499,29.5074 121.5,32.5 Z"/></g>
<g><path style="opacity:1" fill="#cdf9bc" d="M 119.5,26.5 C 121.062,26.7329 122.395,27.3995 123.5,28.5C 124.833,30.1667 126.167,31.8333 127.5,33.5C 129.186,36.5367 128.186,37.87 124.5,37.5C 124.5,36.5 124.5,35.5 124.5,34.5C 122.821,34.7148 121.821,34.0481 121.5,32.5C 122.552,32.6495 123.552,32.4828 124.5,32C 122.627,30.2962 120.96,28.4628 119.5,26.5 Z"/></g>
<g><path style="opacity:1" fill="#e8fce0" d="M 113.5,20.5 C 114.962,22.2549 116.795,23.5882 119,24.5C 119.464,25.0944 119.631,25.7611 119.5,26.5C 120.96,28.4628 122.627,30.2962 124.5,32C 123.552,32.4828 122.552,32.6495 121.5,32.5C 118.499,29.5074 115.165,26.8407 111.5,24.5C 103.479,31.8543 95.8123,39.521 88.5,47.5C 85.8333,50.1667 83.1667,52.8333 80.5,55.5C 79.0474,54.1751 79.3808,53.3418 81.5,53C 80.9341,52.0053 80.2674,51.172 79.5,50.5C 79.8333,49.5 80.5,48.8333 81.5,48.5C 85.0966,45.763 88.4299,42.763 91.5,39.5C 94.9773,35.5147 98.3106,31.348 101.5,27C 104.222,24.997 106.888,22.997 109.5,21C 110.793,20.51 112.127,20.3433 113.5,20.5 Z"/></g>
<g><path style="opacity:1" fill="#92d876" d="M 135.5,26.5 C 139.167,28.1667 141.833,30.8333 143.5,34.5C 142.25,34.5774 141.417,35.244 141,36.5C 140.667,34.8333 140.333,33.1667 140,31.5C 137.951,30.2862 136.451,28.6195 135.5,26.5 Z"/></g>
<g><path style="opacity:1" fill="#8df266" d="M 134.5,26.5 C 134.833,26.5 135.167,26.5 135.5,26.5C 136.451,28.6195 137.951,30.2862 140,31.5C 140.333,33.1667 140.667,34.8333 141,36.5C 141.417,35.244 142.25,34.5774 143.5,34.5C 144.697,36.9551 144.364,39.2885 142.5,41.5C 141.833,40.8333 141.167,40.1667 140.5,39.5C 140.167,39.8333 139.833,40.1667 139.5,40.5C 140.491,42.3231 141.824,43.8231 143.5,45C 142.756,46.0386 141.756,46.5386 140.5,46.5C 139.599,44.2729 137.933,43.2729 135.5,43.5C 133.708,40.6032 131.875,37.6032 130,34.5C 129.329,33.7476 128.496,33.4142 127.5,33.5C 126.167,31.8333 124.833,30.1667 123.5,28.5C 125.124,28.6399 126.29,27.9733 127,26.5C 127.333,27.8333 127.667,29.1667 128,30.5C 128.483,29.552 128.649,28.552 128.5,27.5C 130.451,27.2267 131.951,27.8934 133,29.5C 134.039,28.7562 134.539,27.7562 134.5,26.5 Z"/></g>
<g><path style="opacity:1" fill="#b6f69e" d="M 91.5,39.5 C 88.4299,42.763 85.0966,45.763 81.5,48.5C 81.5,47.5 81.5,46.5 81.5,45.5C 78.1337,45.2122 74.8004,45.0455 71.5,45C 69.6055,46.7754 67.9389,48.7754 66.5,51C 65.552,51.4828 64.552,51.6495 63.5,51.5C 63.369,50.7611 63.5357,50.0944 64,49.5C 68.9728,44.4772 74.1395,39.8105 79.5,35.5C 80.552,35.6495 81.552,35.4828 82.5,35C 83.3052,33.0283 84.6385,31.5283 86.5,30.5C 87.1667,31.5 87.8333,32.5 88.5,33.5C 89.8689,31.876 91.5355,31.376 93.5,32C 92.4459,34.3822 91.7792,36.8822 91.5,39.5 Z"/></g>
<g><path style="opacity:1" fill="#a1cc8f" d="M 151.5,42.5 C 155.167,44.1667 157.833,46.8333 159.5,50.5C 156.575,48.2421 153.909,45.5754 151.5,42.5 Z"/></g>
<g><path style="opacity:1" fill="#99f478" d="M 143.5,34.5 C 145.776,34.7565 146.943,36.0898 147,38.5C 148.067,39.1905 149.234,39.6905 150.5,40C 151.252,40.6708 151.586,41.5041 151.5,42.5C 153.909,45.5754 156.575,48.2421 159.5,50.5C 159.5,50.8333 159.5,51.1667 159.5,51.5C 159.511,53.0174 160.177,54.1841 161.5,55C 161.167,55.1667 160.833,55.3333 160.5,55.5C 158.382,54.0541 156.049,53.3874 153.5,53.5C 153.715,55.1788 153.048,56.1788 151.5,56.5C 147.833,53.1667 144.167,49.8333 140.5,46.5C 141.756,46.5386 142.756,46.0386 143.5,45C 141.824,43.8231 140.491,42.3231 139.5,40.5C 139.833,40.1667 140.167,39.8333 140.5,39.5C 141.167,40.1667 141.833,40.8333 142.5,41.5C 144.364,39.2885 144.697,36.9551 143.5,34.5 Z"/></g>
<g><path style="opacity:1" fill="#a5ce96" d="M 159.5,51.5 C 159.5,51.1667 159.5,50.8333 159.5,50.5C 163.167,52.1667 165.833,54.8333 167.5,58.5C 164.904,56.2471 162.237,53.9137 159.5,51.5 Z"/></g>
<g><path style="opacity:1" fill="#afdc9c" d="M 63.5,51.5 C 62.8333,53.5 61.5,54.8333 59.5,55.5C 59.8333,53.1667 61.1667,51.8333 63.5,51.5 Z"/></g>
<g><path style="opacity:1" fill="#a5f788" d="M 159.5,51.5 C 162.237,53.9137 164.904,56.2471 167.5,58.5C 167.5,58.8333 167.5,59.1667 167.5,59.5C 167.511,61.0174 168.177,62.1841 169.5,63C 167.953,63.3334 166.62,62.8334 165.5,61.5C 161.687,62.874 162.02,63.7074 166.5,64C 162.759,65.2699 159.259,64.4366 156,61.5C 154.97,61.8361 154.47,62.5028 154.5,63.5C 153.5,62.5 152.5,61.5 151.5,60.5C 152.497,60.5299 153.164,60.0299 153.5,59C 152.944,57.9889 152.278,57.1556 151.5,56.5C 153.048,56.1788 153.715,55.1788 153.5,53.5C 156.049,53.3874 158.382,54.0541 160.5,55.5C 160.833,55.3333 161.167,55.1667 161.5,55C 160.177,54.1841 159.511,53.0174 159.5,51.5 Z"/></g>
<g><path style="opacity:1" fill="#9ff57f" d="M 81.5,48.5 C 80.5,48.8333 79.8333,49.5 79.5,50.5C 74.5481,54.7852 69.8814,59.4519 65.5,64.5C 65.2131,62.8793 64.2131,61.8793 62.5,61.5C 59.5197,64.3576 56.5197,64.6909 53.5,62.5C 54.5511,61.7777 55.2178,60.7777 55.5,59.5C 55.8333,57.1667 57.1667,55.8333 59.5,55.5C 61.5,54.8333 62.8333,53.5 63.5,51.5C 64.552,51.6495 65.552,51.4828 66.5,51C 67.9389,48.7754 69.6055,46.7754 71.5,45C 74.8004,45.0455 78.1337,45.2122 81.5,45.5C 81.5,46.5 81.5,47.5 81.5,48.5 Z"/></g>
<g><path style="opacity:1" fill="#adcca0" d="M 167.5,59.5 C 167.5,59.1667 167.5,58.8333 167.5,58.5C 176.112,65.4439 184.112,73.1106 191.5,81.5C 187.227,78.5665 183.227,75.2332 179.5,71.5C 175.833,67.1667 171.833,63.1667 167.5,59.5 Z"/></g>
<g><path style="opacity:1" fill="#f2fcef" d="M 79.5,50.5 C 80.2674,51.172 80.9341,52.0053 81.5,53C 79.3808,53.3418 79.0474,54.1751 80.5,55.5C 72.5,63.5 64.5,71.5 56.5,79.5C 54.5853,79.7845 52.9187,79.4511 51.5,78.5C 56.1667,73.8333 60.8333,69.1667 65.5,64.5C 69.8814,59.4519 74.5481,54.7852 79.5,50.5 Z"/></g>
<g><path style="opacity:1" fill="#a2d490" d="M 55.5,59.5 C 55.2178,60.7777 54.5511,61.7777 53.5,62.5C 53.1583,63.3382 52.4916,63.6716 51.5,63.5C 51.8333,61.1667 53.1667,59.8333 55.5,59.5 Z"/></g>
<g><path style="opacity:1" fill="#a9f48e" d="M 124.5,42.5 C 122.544,48.0791 120.878,53.7458 119.5,59.5C 118.069,60.9025 116.902,62.5692 116,64.5C 115.147,68.4686 114.481,72.4686 114,76.5C 112.991,74.9751 112.491,73.3084 112.5,71.5C 109.5,71.5 106.5,71.5 103.5,71.5C 103.5,72.5 103.5,73.5 103.5,74.5C 98.1667,74.5 92.8333,74.5 87.5,74.5C 87.8076,76.924 87.4742,79.2573 86.5,81.5C 85.8333,80.8333 85.1667,80.1667 84.5,79.5C 83.52,82.0865 83.1866,84.7531 83.5,87.5C 83.8214,93.0262 83.4881,98.3595 82.5,103.5C 82.6662,97.1579 82.4995,90.8246 82,84.5C 81.0513,82.9069 79.8846,81.5736 78.5,80.5C 71.3524,79.5084 64.0191,79.175 56.5,79.5C 64.5,71.5 72.5,63.5 80.5,55.5C 83.1667,52.8333 85.8333,50.1667 88.5,47.5C 90.736,46.6109 92.736,45.2776 94.5,43.5C 95.5896,44.3914 95.5896,45.3914 94.5,46.5C 97.4281,47.4841 100.428,47.8174 103.5,47.5C 103.5,44.8333 103.5,42.1667 103.5,39.5C 102.022,39.762 100.689,39.4287 99.5,38.5C 101.337,34.7874 102.837,34.7874 104,38.5C 106.333,36.5 108.667,34.5 111,32.5C 111.896,35.025 111.396,37.1917 109.5,39C 113.821,39.499 118.154,39.6657 122.5,39.5C 122.285,41.1788 122.952,42.1788 124.5,42.5 Z"/></g>
<g><path style="opacity:1" fill="#b3f99a" d="M 167.5,59.5 C 171.833,63.1667 175.833,67.1667 179.5,71.5C 179.703,73.0443 180.37,74.3777 181.5,75.5C 180.96,76.7481 180.293,77.9148 179.5,79C 181.117,80.0915 182.117,81.5915 182.5,83.5C 179.843,83.0652 177.509,82.0652 175.5,80.5C 172.859,78.8722 170.192,77.2056 167.5,75.5C 163.803,70.817 159.47,66.817 154.5,63.5C 154.47,62.5028 154.97,61.8361 156,61.5C 159.259,64.4366 162.759,65.2699 166.5,64C 162.02,63.7074 161.687,62.874 165.5,61.5C 166.62,62.8334 167.953,63.3334 169.5,63C 168.177,62.1841 167.511,61.0174 167.5,59.5 Z"/></g>
<g><path style="opacity:1" fill="#9acf86" d="M 47.5,67.5 C 46.8333,69.5 45.5,70.8333 43.5,71.5C 43.8333,69.1667 45.1667,67.8333 47.5,67.5 Z"/></g>
<g><path style="opacity:1" fill="#a1f084" d="M 119.5,59.5 C 116.868,68.6967 114.868,78.03 113.5,87.5C 112.527,89.9479 112.194,92.6146 112.5,95.5C 111.549,94.0813 111.216,92.4147 111.5,90.5C 108.833,90.5 106.167,90.5 103.5,90.5C 103.5,92.1667 103.5,93.8333 103.5,95.5C 100.833,95.5 98.1667,95.5 95.5,95.5C 95.5,96.5 95.5,97.5 95.5,98.5C 92.8333,98.5 90.1667,98.5 87.5,98.5C 87.6653,94.8183 87.4986,91.1516 87,87.5C 86.8324,98.1822 86.3324,108.849 85.5,119.5C 84.8333,108.674 84.1666,98.0076 83.5,87.5C 83.1866,84.7531 83.52,82.0865 84.5,79.5C 85.1667,80.1667 85.8333,80.8333 86.5,81.5C 87.4742,79.2573 87.8076,76.924 87.5,74.5C 92.8333,74.5 98.1667,74.5 103.5,74.5C 103.5,73.5 103.5,72.5 103.5,71.5C 106.5,71.5 109.5,71.5 112.5,71.5C 112.491,73.3084 112.991,74.9751 114,76.5C 114.481,72.4686 115.147,68.4686 116,64.5C 116.902,62.5692 118.069,60.9025 119.5,59.5 Z"/></g>
<g><path style="opacity:1" fill="#73e74a" d="M 151.5,60.5 C 152.5,61.5 153.5,62.5 154.5,63.5C 159.47,66.817 163.803,70.817 167.5,75.5C 167.721,76.7348 168.388,77.7348 169.5,78.5C 161.193,79.4979 152.86,79.8312 144.5,79.5C 144.5,87.5 144.5,95.5 144.5,103.5C 143.549,102.081 143.216,100.415 143.5,98.5C 140.833,98.5 138.167,98.5 135.5,98.5C 135.5,100.167 135.5,101.833 135.5,103.5C 132.833,103.5 130.167,103.5 127.5,103.5C 127.5,104.5 127.5,105.5 127.5,106.5C 124.833,106.5 122.167,106.5 119.5,106.5C 119.079,102.8 118.412,99.1333 117.5,95.5C 117.167,96.8333 116.833,98.1667 116.5,99.5C 117.1,111.198 117.767,122.865 118.5,134.5C 117.311,135.429 115.978,135.762 114.5,135.5C 114.828,124.654 114.494,113.987 113.5,103.5C 113.5,98.1667 113.5,92.8333 113.5,87.5C 114.868,78.03 116.868,68.6967 119.5,59.5C 120.878,53.7458 122.544,48.0791 124.5,42.5C 125.791,41.4583 125.791,40.2917 124.5,39C 125.899,38.4054 127.232,38.5721 128.5,39.5C 136.486,46.1531 144.153,53.1531 151.5,60.5 Z"/></g>
<g><path style="opacity:1" fill="#81ef5a" d="M 65.5,64.5 C 60.8333,69.1667 56.1667,73.8333 51.5,78.5C 45.9628,80.6019 40.6295,83.2686 35.5,86.5C 30.3096,88.6428 28.9763,87.6428 31.5,83.5C 31.369,82.7611 31.5357,82.0944 32,81.5C 35.6995,77.964 39.5328,74.6307 43.5,71.5C 45.5,70.8333 46.8333,69.5 47.5,67.5C 48.1667,65.5 49.5,64.1667 51.5,63.5C 52.4916,63.6716 53.1583,63.3382 53.5,62.5C 56.5197,64.6909 59.5197,64.3576 62.5,61.5C 64.2131,61.8793 65.2131,62.8793 65.5,64.5 Z"/></g>
<g><path style="opacity:1" fill="#c0f5ab" d="M 179.5,71.5 C 183.227,75.2332 187.227,78.5665 191.5,81.5C 194.903,83.8998 197.57,86.8998 199.5,90.5C 198.5,90.5 197.5,90.5 196.5,90.5C 196.047,89.5416 195.381,88.7083 194.5,88C 190.237,87.1048 186.237,85.6048 182.5,83.5C 182.117,81.5915 181.117,80.0915 179.5,79C 180.293,77.9148 180.96,76.7481 181.5,75.5C 180.37,74.3777 179.703,73.0443 179.5,71.5 Z"/></g>
<g><path style="opacity:1" fill="#5ac335" d="M 51.5,78.5 C 52.9187,79.4511 54.5853,79.7845 56.5,79.5C 64.0191,79.175 71.3524,79.5084 78.5,80.5C 74.8062,83.5271 71.4729,86.8604 68.5,90.5C 53.8333,90.5 39.1667,90.5 24.5,90.5C 26.5482,87.785 28.8816,85.4517 31.5,83.5C 28.9763,87.6428 30.3096,88.6428 35.5,86.5C 40.6295,83.2686 45.9628,80.6019 51.5,78.5 Z"/></g>
<g><path style="opacity:1" fill="#e2fcdb" d="M 78.5,80.5 C 79.8846,81.5736 81.0513,82.9069 82,84.5C 82.4995,90.8246 82.6662,97.1579 82.5,103.5C 82.5,108.833 82.5,114.167 82.5,119.5C 80.9016,121.857 79.9016,124.523 79.5,127.5C 79.5,118.167 79.5,108.833 79.5,99.5C 76.8333,99.5 74.1667,99.5 71.5,99.5C 71.7852,97.712 71.4519,96.0453 70.5,94.5C 70.1667,94.6667 69.8333,94.8333 69.5,95C 70.1159,96.4002 70.4493,97.9002 70.5,99.5C 70.4146,101.333 69.7479,102.666 68.5,103.5C 68.5,99.1667 68.5,94.8333 68.5,90.5C 71.4729,86.8604 74.8062,83.5271 78.5,80.5 Z"/></g>
<g><path style="opacity:1" fill="#54bc2e" d="M 175.5,80.5 C 177.509,82.0652 179.843,83.0652 182.5,83.5C 186.237,85.6048 190.237,87.1048 194.5,88C 195.381,88.7083 196.047,89.5416 196.5,90.5C 182.833,90.5 169.167,90.5 155.5,90.5C 155.5,102.833 155.5,115.167 155.5,127.5C 153.852,119.875 152.852,111.875 152.5,103.5C 151.505,108.792 151.172,114.125 151.5,119.5C 150.167,119.5 148.833,119.5 147.5,119.5C 147.664,116.813 147.497,114.146 147,111.5C 146.667,113.167 146.333,114.833 146,116.5C 145.5,104.505 145.333,92.5046 145.5,80.5C 155.5,80.5 165.5,80.5 175.5,80.5 Z"/></g>
<g><path style="opacity:1" fill="#98ea7b" d="M 112.5,95.5 C 111.834,103.483 111.501,111.483 111.5,119.5C 103.5,119.5 95.5,119.5 87.5,119.5C 87.5,112.5 87.5,105.5 87.5,98.5C 90.1667,98.5 92.8333,98.5 95.5,98.5C 95.5,97.5 95.5,96.5 95.5,95.5C 98.1667,95.5 100.833,95.5 103.5,95.5C 103.5,93.8333 103.5,92.1667 103.5,90.5C 106.167,90.5 108.833,90.5 111.5,90.5C 111.216,92.4147 111.549,94.0813 112.5,95.5 Z"/></g>
<g><path style="opacity:1" fill="#5e8b4f" d="M 196.5,90.5 C 197.5,90.5 198.5,90.5 199.5,90.5C 199.5,90.8333 199.5,91.1667 199.5,91.5C 185.167,91.5 170.833,91.5 156.5,91.5C 156.5,134.833 156.5,178.167 156.5,221.5C 156.167,221.5 155.833,221.5 155.5,221.5C 155.5,221.167 155.5,220.833 155.5,220.5C 155.5,202.833 155.5,185.167 155.5,167.5C 155.5,154.167 155.5,140.833 155.5,127.5C 155.5,115.167 155.5,102.833 155.5,90.5C 169.167,90.5 182.833,90.5 196.5,90.5 Z"/></g>
<g><path style="opacity:1" fill="#d6fcc9" d="M 79.5,127.5 C 76.1667,127.5 72.8333,127.5 69.5,127.5C 69.8064,130.385 69.4731,133.052 68.5,135.5C 68.5,124.833 68.5,114.167 68.5,103.5C 69.7479,102.666 70.4146,101.333 70.5,99.5C 70.4493,97.9002 70.1159,96.4002 69.5,95C 69.8333,94.8333 70.1667,94.6667 70.5,94.5C 71.4519,96.0453 71.7852,97.712 71.5,99.5C 74.1667,99.5 76.8333,99.5 79.5,99.5C 79.5,108.833 79.5,118.167 79.5,127.5 Z"/></g>
<g><path style="opacity:1" fill="#8fe571" d="M 83.5,87.5 C 84.1666,98.0076 84.8333,108.674 85.5,119.5C 86.3324,108.849 86.8324,98.1822 87,87.5C 87.4986,91.1516 87.6653,94.8183 87.5,98.5C 87.5,105.5 87.5,112.5 87.5,119.5C 95.5,119.5 103.5,119.5 111.5,119.5C 111.5,126.167 111.5,132.833 111.5,139.5C 108.833,139.5 106.167,139.5 103.5,139.5C 103.5,140.5 103.5,141.5 103.5,142.5C 98.1667,143.167 92.8333,143.833 87.5,144.5C 86.9884,153.811 86.1551,153.811 85,144.5C 84.6667,145.167 84.3333,145.833 84,146.5C 83.5623,161.505 83.0623,176.505 82.5,191.5C 81.5,191.5 80.5,191.5 79.5,191.5C 79.5,188.833 79.5,186.167 79.5,183.5C 79.5,180.833 79.5,178.167 79.5,175.5C 80.8117,173.257 81.4783,170.59 81.5,167.5C 82.1659,159.512 82.4993,151.512 82.5,143.5C 82.5,135.5 82.5,127.5 82.5,119.5C 82.5,114.167 82.5,108.833 82.5,103.5C 83.4881,98.3595 83.8214,93.0262 83.5,87.5 Z"/></g>
<g><path style="opacity:1" fill="#dadee1" d="M 199.5,91.5 C 185.677,92.4958 171.677,92.8291 157.5,92.5C 156.842,135.552 157.509,178.386 159.5,221C 158.552,221.483 157.552,221.649 156.5,221.5C 156.5,178.167 156.5,134.833 156.5,91.5C 170.833,91.5 185.167,91.5 199.5,91.5 Z"/></g>
<g><path style="opacity:1" fill="#c4f7b1" d="M 82.5,119.5 C 82.5,127.5 82.5,135.5 82.5,143.5C 81.3529,148.642 80.5196,153.975 80,159.5C 79.5026,156.854 79.3359,154.187 79.5,151.5C 75.8333,151.5 72.1667,151.5 68.5,151.5C 68.5,146.167 68.5,140.833 68.5,135.5C 69.4731,133.052 69.8064,130.385 69.5,127.5C 72.8333,127.5 76.1667,127.5 79.5,127.5C 79.9016,124.523 80.9016,121.857 82.5,119.5 Z"/></g>
<g><path style="opacity:1" fill="#92ab8d" d="M 24.5,90.5 C 39.1667,90.5 53.8333,90.5 68.5,90.5C 68.5,94.8333 68.5,99.1667 68.5,103.5C 68.5,114.167 68.5,124.833 68.5,135.5C 68.5,140.833 68.5,146.167 68.5,151.5C 68.5,162.167 68.5,172.833 68.5,183.5C 68.5,195.833 68.5,208.167 68.5,220.5C 97.3285,221.498 126.329,221.831 155.5,221.5C 155.833,221.5 156.167,221.5 156.5,221.5C 127.005,222.498 97.338,222.831 67.5,222.5C 67.8333,179.162 67.4999,135.828 66.5,92.5C 52.3721,91.8494 38.3721,91.1828 24.5,90.5 Z"/></g>
<g><path style="opacity:1" fill="#b6f5a0" d="M 82.5,143.5 C 82.4993,151.512 82.1659,159.512 81.5,167.5C 81.4783,170.59 80.8117,173.257 79.5,175.5C 79.5,172.833 79.5,170.167 79.5,167.5C 76.1667,167.5 72.8333,167.5 69.5,167.5C 69.5,172.833 69.5,178.167 69.5,183.5C 69.1667,183.5 68.8333,183.5 68.5,183.5C 68.5,172.833 68.5,162.167 68.5,151.5C 72.1667,151.5 75.8333,151.5 79.5,151.5C 79.3359,154.187 79.5026,156.854 80,159.5C 80.5196,153.975 81.3529,148.642 82.5,143.5 Z"/></g>
<g><path style="opacity:1" fill="#61cd3b" d="M 167.5,75.5 C 170.192,77.2056 172.859,78.8722 175.5,80.5C 165.5,80.5 155.5,80.5 145.5,80.5C 145.333,92.5046 145.5,104.505 146,116.5C 146.333,114.833 146.667,113.167 147,111.5C 147.497,114.146 147.664,116.813 147.5,119.5C 148.833,119.5 150.167,119.5 151.5,119.5C 151.172,114.125 151.505,108.792 152.5,103.5C 152.852,111.875 153.852,119.875 155.5,127.5C 155.5,140.833 155.5,154.167 155.5,167.5C 154.5,167.5 153.5,167.5 152.5,167.5C 152.667,156.828 152.5,146.161 152,135.5C 151.869,144.616 150.869,153.616 149,162.5C 148.667,158.167 148.333,153.833 148,149.5C 145.702,155.205 144.869,161.205 145.5,167.5C 144.512,162.36 144.179,157.026 144.5,151.5C 143.5,151.5 142.5,151.5 141.5,151.5C 141.5,159.5 141.5,167.5 141.5,175.5C 140.506,185.319 140.173,195.319 140.5,205.5C 130.833,205.5 121.167,205.5 111.5,205.5C 111.5,199.5 111.5,193.5 111.5,187.5C 111.5,171.5 111.5,155.5 111.5,139.5C 111.5,132.833 111.5,126.167 111.5,119.5C 111.501,111.483 111.834,103.483 112.5,95.5C 112.194,92.6146 112.527,89.9479 113.5,87.5C 113.5,92.8333 113.5,98.1667 113.5,103.5C 113.255,117.85 113.588,132.183 114.5,146.5C 114.833,148.167 115.167,149.833 115.5,151.5C 116.251,150.624 116.751,149.624 117,148.5C 117.333,150.833 117.667,153.167 118,155.5C 118.49,154.207 118.657,152.873 118.5,151.5C 121.5,151.5 124.5,151.5 127.5,151.5C 127.5,149.833 127.5,148.167 127.5,146.5C 130.167,146.5 132.833,146.5 135.5,146.5C 135.335,142.818 135.501,139.152 136,135.5C 136.499,140.823 136.666,146.156 136.5,151.5C 137.833,151.5 139.167,151.5 140.5,151.5C 140.833,146.167 141.167,140.833 141.5,135.5C 142.5,135.5 143.5,135.5 144.5,135.5C 144.5,124.833 144.5,114.167 144.5,103.5C 144.5,95.5 144.5,87.5 144.5,79.5C 152.86,79.8312 161.193,79.4979 169.5,78.5C 168.388,77.7348 167.721,76.7348 167.5,75.5 Z"/></g>
<g><path style="opacity:1" fill="#69da42" d="M 144.5,103.5 C 144.5,114.167 144.5,124.833 144.5,135.5C 143.5,135.5 142.5,135.5 141.5,135.5C 141.167,140.833 140.833,146.167 140.5,151.5C 139.167,151.5 137.833,151.5 136.5,151.5C 136.666,146.156 136.499,140.823 136,135.5C 135.501,139.152 135.335,142.818 135.5,146.5C 132.833,146.5 130.167,146.5 127.5,146.5C 127.5,148.167 127.5,149.833 127.5,151.5C 124.5,151.5 121.5,151.5 118.5,151.5C 118.657,152.873 118.49,154.207 118,155.5C 117.667,153.167 117.333,150.833 117,148.5C 116.751,149.624 116.251,150.624 115.5,151.5C 115.167,149.833 114.833,148.167 114.5,146.5C 113.588,132.183 113.255,117.85 113.5,103.5C 114.494,113.987 114.828,124.654 114.5,135.5C 115.978,135.762 117.311,135.429 118.5,134.5C 117.767,122.865 117.1,111.198 116.5,99.5C 116.833,98.1667 117.167,96.8333 117.5,95.5C 118.412,99.1333 119.079,102.8 119.5,106.5C 122.167,106.5 124.833,106.5 127.5,106.5C 127.5,105.5 127.5,104.5 127.5,103.5C 130.167,103.5 132.833,103.5 135.5,103.5C 135.5,101.833 135.5,100.167 135.5,98.5C 138.167,98.5 140.833,98.5 143.5,98.5C 143.216,100.415 143.549,102.081 144.5,103.5 Z"/></g>
<g><path style="opacity:1" fill="#71e247" d="M 155.5,167.5 C 155.5,185.167 155.5,202.833 155.5,220.5C 153.81,220.144 152.81,219.144 152.5,217.5C 150.672,215.839 148.672,214.172 146.5,212.5C 145.614,211.675 145.281,210.675 145.5,209.5C 145.5,195.5 145.5,181.5 145.5,167.5C 144.869,161.205 145.702,155.205 148,149.5C 148.333,153.833 148.667,158.167 149,162.5C 150.869,153.616 151.869,144.616 152,135.5C 152.5,146.161 152.667,156.828 152.5,167.5C 153.5,167.5 154.5,167.5 155.5,167.5 Z"/></g>
<g><path style="opacity:1" fill="#adf593" d="M 79.5,175.5 C 79.5,178.167 79.5,180.833 79.5,183.5C 76.388,184.078 73.388,184.078 70.5,183.5C 70.1667,183.5 69.8333,183.5 69.5,183.5C 69.5,178.167 69.5,172.833 69.5,167.5C 72.8333,167.5 76.1667,167.5 79.5,167.5C 79.5,170.167 79.5,172.833 79.5,175.5 Z"/></g>
<g><path style="opacity:1" fill="#7ed95d" d="M 111.5,139.5 C 111.5,155.5 111.5,171.5 111.5,187.5C 108.833,187.5 106.167,187.5 103.5,187.5C 103.5,188.5 103.5,189.5 103.5,190.5C 97.816,190.743 92.1493,191.243 86.5,192C 85.8742,192.75 85.3742,193.584 85,194.5C 84.7645,192.881 83.9311,191.881 82.5,191.5C 83.0623,176.505 83.5623,161.505 84,146.5C 84.3333,145.833 84.6667,145.167 85,144.5C 86.1551,153.811 86.9884,153.811 87.5,144.5C 92.8333,143.833 98.1667,143.167 103.5,142.5C 103.5,141.5 103.5,140.5 103.5,139.5C 106.167,139.5 108.833,139.5 111.5,139.5 Z"/></g>
<g><path style="opacity:1" fill="#97e37b" d="M 145.5,167.5 C 145.5,181.5 145.5,195.5 145.5,209.5C 145.167,209.5 144.833,209.5 144.5,209.5C 144.5,203.5 144.5,197.5 144.5,191.5C 144.664,183.459 144.164,175.459 143,167.5C 142.501,172.823 142.334,178.156 142.5,183.5C 142.825,191.352 142.492,199.018 141.5,206.5C 141.5,196.167 141.5,185.833 141.5,175.5C 141.5,167.5 141.5,159.5 141.5,151.5C 142.5,151.5 143.5,151.5 144.5,151.5C 144.179,157.026 144.512,162.36 145.5,167.5 Z"/></g>
<g><path style="opacity:1" fill="#b2e69c" d="M 144.5,191.5 C 143.833,188.833 143.167,186.167 142.5,183.5C 142.334,178.156 142.501,172.823 143,167.5C 144.164,175.459 144.664,183.459 144.5,191.5 Z"/></g>
<g><path style="opacity:1" fill="#a4f487" d="M 70.5,183.5 C 73.388,184.078 76.388,184.078 79.5,183.5C 79.5,186.167 79.5,188.833 79.5,191.5C 79.5,194.167 79.5,196.833 79.5,199.5C 76.8333,199.5 74.1667,199.5 71.5,199.5C 69.7405,200.754 69.4071,195.421 70.5,183.5 Z"/></g>
<g><path style="opacity:1" fill="#73cf53" d="M 141.5,175.5 C 141.5,185.833 141.5,196.167 141.5,206.5C 123.5,206.5 105.5,206.5 87.5,206.5C 87.5,207.5 87.5,208.5 87.5,209.5C 98.1667,209.5 108.833,209.5 119.5,209.5C 119.5,209.833 119.5,210.167 119.5,210.5C 106.167,210.5 92.8333,210.5 79.5,210.5C 79.5,206.833 79.5,203.167 79.5,199.5C 79.5,196.833 79.5,194.167 79.5,191.5C 80.5,191.5 81.5,191.5 82.5,191.5C 83.9311,191.881 84.7645,192.881 85,194.5C 85.3742,193.584 85.8742,192.75 86.5,192C 92.1493,191.243 97.816,190.743 103.5,190.5C 103.5,189.5 103.5,188.5 103.5,187.5C 106.167,187.5 108.833,187.5 111.5,187.5C 111.5,193.5 111.5,199.5 111.5,205.5C 121.167,205.5 130.833,205.5 140.5,205.5C 140.173,195.319 140.506,185.319 141.5,175.5 Z"/></g>
<g><path style="opacity:1" fill="#ade39e" d="M 127.5,207.5 C 132.735,209.45 138.402,210.117 144.5,209.5C 136.35,210.493 128.017,210.826 119.5,210.5C 119.5,210.167 119.5,209.833 119.5,209.5C 114.349,208.673 109.016,208.173 103.5,208C 111.493,207.5 119.493,207.334 127.5,207.5 Z"/></g>
<g><path style="opacity:1" fill="#96dd7b" d="M 141.5,206.5 C 137.03,207.486 132.363,207.819 127.5,207.5C 119.493,207.334 111.493,207.5 103.5,208C 109.016,208.173 114.349,208.673 119.5,209.5C 108.833,209.5 98.1667,209.5 87.5,209.5C 87.5,208.5 87.5,207.5 87.5,206.5C 105.5,206.5 123.5,206.5 141.5,206.5 Z"/></g>
<g><path style="opacity:1" fill="#ccedc2" d="M 142.5,183.5 C 143.167,186.167 143.833,188.833 144.5,191.5C 144.5,197.5 144.5,203.5 144.5,209.5C 138.402,210.117 132.735,209.45 127.5,207.5C 132.363,207.819 137.03,207.486 141.5,206.5C 142.492,199.018 142.825,191.352 142.5,183.5 Z"/></g>
<g><path style="opacity:1" fill="#5abf33" d="M 144.5,209.5 C 144.833,209.5 145.167,209.5 145.5,209.5C 145.281,210.675 145.614,211.675 146.5,212.5C 148.672,214.172 150.672,215.839 152.5,217.5C 126.241,216.51 99.9076,216.176 73.5,216.5C 75.1667,214.167 77.1667,212.167 79.5,210.5C 92.8333,210.5 106.167,210.5 119.5,210.5C 128.017,210.826 136.35,210.493 144.5,209.5 Z"/></g>
<g><path style="opacity:1" fill="#9af377" d="M 68.5,183.5 C 68.8333,183.5 69.1667,183.5 69.5,183.5C 69.8333,183.5 70.1667,183.5 70.5,183.5C 69.4071,195.421 69.7405,200.754 71.5,199.5C 74.1667,199.5 76.8333,199.5 79.5,199.5C 79.5,203.167 79.5,206.833 79.5,210.5C 77.1667,212.167 75.1667,214.167 73.5,216.5C 71.8459,217.75 70.1793,219.084 68.5,220.5C 68.5,208.167 68.5,195.833 68.5,183.5 Z"/></g>
<g><path style="opacity:1" fill="#56bc30" d="M 73.5,216.5 C 99.9076,216.176 126.241,216.51 152.5,217.5C 152.81,219.144 153.81,220.144 155.5,220.5C 155.5,220.833 155.5,221.167 155.5,221.5C 126.329,221.831 97.3285,221.498 68.5,220.5C 70.1793,219.084 71.8459,217.75 73.5,216.5 Z"/></g>
</svg>
