<?xml version="1.0" encoding="UTF-8"?>
<!DOCTYPE svg PUBLIC "-//W3C//DTD SVG 1.1//EN" "http://www.w3.org/Graphics/SVG/1.1/DTD/svg11.dtd">
<svg xmlns="http://www.w3.org/2000/svg" version="1.1" width="64px" height="64px" style="shape-rendering:geometricPrecision; text-rendering:geometricPrecision; image-rendering:optimizeQuality; fill-rule:evenodd; clip-rule:evenodd" xmlns:xlink="http://www.w3.org/1999/xlink">
<g><path style="opacity:0.978" fill="#fa5151" d="M 25.5,4.5 C 50.6079,4.43906 61.1079,16.7724 57,41.5C 49.488,56.3355 37.6547,61.5021 21.5,57C 4.96405,48.0461 0.464052,34.8795 8,17.5C 12.3919,11.071 18.2252,6.73764 25.5,4.5 Z M 21.5,19.5 C 24.8134,22.4778 28.1467,25.4778 31.5,28.5C 34.8178,25.6828 37.9845,22.6828 41,19.5C 41.8333,20.3333 42.6667,21.1667 43.5,22C 40.3172,25.0155 37.3172,28.1822 34.5,31.5C 37.3172,34.8178 40.3172,37.9845 43.5,41C 42.6667,41.8333 41.8333,42.6667 41,43.5C 37.9845,40.3172 34.8178,37.3172 31.5,34.5C 28.1822,37.3172 25.0155,40.3172 22,43.5C 21.1667,42.6667 20.3333,41.8333 19.5,41C 22.6828,37.9845 25.6828,34.8178 28.5,31.5C 25.6828,28.1822 22.6828,25.0155 19.5,22C 20.3805,21.2917 21.0472,20.4584 21.5,19.5 Z"/></g>
</svg>
