<?xml version="1.0" encoding="UTF-8"?>
<!DOCTYPE svg PUBLIC "-//W3C//DTD SVG 1.1//EN" "http://www.w3.org/Graphics/SVG/1.1/DTD/svg11.dtd">
<svg xmlns="http://www.w3.org/2000/svg" version="1.1" width="48px" height="48px" style="shape-rendering:geometricPrecision; text-rendering:geometricPrecision; image-rendering:optimizeQuality; fill-rule:evenodd; clip-rule:evenodd" xmlns:xlink="http://www.w3.org/1999/xlink">
<g><path style="opacity:0.918" fill="#dbc830" d="M 41.5,19.5 C 41.0035,23.3097 40.0035,26.9763 38.5,30.5C 38.5,29.8333 38.5,29.1667 38.5,28.5C 39.7263,24.367 39.7263,20.367 38.5,16.5C 38.2624,14.5956 37.2624,13.2623 35.5,12.5C 34.5994,10.2729 32.9328,9.2729 30.5,9.5C 27.9831,8.02695 25.1498,7.36029 22,7.5C 20.1667,7.66667 18.3333,7.83333 16.5,8C 15.944,8.38258 15.6107,8.88258 15.5,9.5C 12.1667,10.8333 9.83333,13.1667 8.5,16.5C 8.16667,16.5 7.83333,16.5 7.5,16.5C 7.16667,16.5 6.83333,16.5 6.5,16.5C 11.0784,6.78726 18.745,3.28726 29.5,6C 36.1573,8.15635 40.1573,12.6563 41.5,19.5 Z"/></g>
<g><path style="opacity:1" fill="#f7e666" d="M 30.5,9.5 C 32.9717,10.6421 33.9717,12.6421 33.5,15.5C 26.8333,15.5 20.1667,15.5 13.5,15.5C 13.5,14.5 13.5,13.5 13.5,12.5C 14.1667,11.5 14.8333,10.5 15.5,9.5C 15.6107,8.88258 15.944,8.38258 16.5,8C 18.3333,7.83333 20.1667,7.66667 22,7.5C 25.1498,7.36029 27.9831,8.02695 30.5,9.5 Z"/></g>
<g><path style="opacity:1" fill="#f4e35b" d="M 30.5,9.5 C 32.9328,9.2729 34.5994,10.2729 35.5,12.5C 36.1465,14.1561 36.8131,15.8228 37.5,17.5C 37.5,19.5 36.5,20.5 34.5,20.5C 26.4901,19.4102 18.4901,19.2435 10.5,20C 8.83637,16.5131 9.83637,14.0131 13.5,12.5C 13.5,13.5 13.5,14.5 13.5,15.5C 20.1667,15.5 26.8333,15.5 33.5,15.5C 33.9717,12.6421 32.9717,10.6421 30.5,9.5 Z"/></g>
<g><path style="opacity:1" fill="#f1de4f" d="M 15.5,9.5 C 14.8333,10.5 14.1667,11.5 13.5,12.5C 9.83637,14.0131 8.83637,16.5131 10.5,20C 18.4901,19.2435 26.4901,19.4102 34.5,20.5C 36.5,20.5 37.5,19.5 37.5,17.5C 36.8131,15.8228 36.1465,14.1561 35.5,12.5C 37.2624,13.2623 38.2624,14.5956 38.5,16.5C 39.0453,19.9976 38.212,22.9976 36,25.5C 32.0249,23.9683 27.8582,23.3016 23.5,23.5C 19.1418,23.3016 14.9751,23.9683 11,25.5C 8.78802,22.9976 7.95469,19.9976 8.5,16.5C 9.83333,13.1667 12.1667,10.8333 15.5,9.5 Z"/></g>
<g><path style="opacity:1" fill="#efdb45" d="M 7.5,16.5 C 7.83333,16.5 8.16667,16.5 8.5,16.5C 7.95469,19.9976 8.78802,22.9976 11,25.5C 14.9751,23.9683 19.1418,23.3016 23.5,23.5C 27.8582,23.3016 32.0249,23.9683 36,25.5C 38.212,22.9976 39.0453,19.9976 38.5,16.5C 39.7263,20.367 39.7263,24.367 38.5,28.5C 37.5178,29.1408 36.5178,29.8075 35.5,30.5C 34.2997,29.4688 32.9663,28.6355 31.5,28C 26.1667,27.3333 20.8333,27.3333 15.5,28C 12.2251,31.6186 9.72506,31.1186 8,26.5C 7.50258,23.854 7.33591,21.1873 7.5,18.5C 7.5,17.8333 7.5,17.1667 7.5,16.5 Z"/></g>
<g><path style="opacity:1" fill="#ebd63a" d="M 7.5,18.5 C 7.33591,21.1873 7.50258,23.854 8,26.5C 9.72506,31.1186 12.2251,31.6186 15.5,28C 20.8333,27.3333 26.1667,27.3333 31.5,28C 32.9663,28.6355 34.2997,29.4688 35.5,30.5C 36.5178,29.8075 37.5178,29.1408 38.5,28.5C 38.5,29.1667 38.5,29.8333 38.5,30.5C 36.9228,33.0499 34.9228,35.0499 32.5,36.5C 32.5774,35.2502 33.244,34.4169 34.5,34C 33.0397,32.418 31.373,31.0847 29.5,30C 25.5,29.3333 21.5,29.3333 17.5,30C 15.7208,31.1404 14.0541,32.307 12.5,33.5C 11.609,32.8902 10.609,32.5569 9.5,32.5C 6.46326,28.1105 5.79659,23.4439 7.5,18.5 Z"/></g>
<g><path style="opacity:0.988" fill="#d3be16" d="M 6.5,16.5 C 6.83333,16.5 7.16667,16.5 7.5,16.5C 7.5,17.1667 7.5,17.8333 7.5,18.5C 5.79659,23.4439 6.46326,28.1105 9.5,32.5C 13.949,39.3802 20.2823,41.8802 28.5,40C 30.0664,39.3918 31.3998,38.5585 32.5,37.5C 32.5,37.1667 32.5,36.8333 32.5,36.5C 34.9228,35.0499 36.9228,33.0499 38.5,30.5C 40.0035,26.9763 41.0035,23.3097 41.5,19.5C 42.1956,36.3023 34.1956,43.469 17.5,41C 6.61845,36.2198 2.95178,28.0532 6.5,16.5 Z"/></g>
<g><path style="opacity:1" fill="#e2cc2b" d="M 9.5,32.5 C 10.609,32.5569 11.609,32.8902 12.5,33.5C 18.4135,38.1495 25.0801,39.4828 32.5,37.5C 31.3998,38.5585 30.0664,39.3918 28.5,40C 20.2823,41.8802 13.949,39.3802 9.5,32.5 Z"/></g>
<g><path style="opacity:1" fill="#ebd633" d="M 32.5,36.5 C 32.5,36.8333 32.5,37.1667 32.5,37.5C 25.0801,39.4828 18.4135,38.1495 12.5,33.5C 14.0541,32.307 15.7208,31.1404 17.5,30C 21.5,29.3333 25.5,29.3333 29.5,30C 31.373,31.0847 33.0397,32.418 34.5,34C 33.244,34.4169 32.5774,35.2502 32.5,36.5 Z"/></g>
</svg>
